G04*
G04 #@! TF.GenerationSoftware,Altium Limited,Altium Designer,21.4.1 (30)*
G04*
G04 Layer_Color=255*
%FSLAX44Y44*%
%MOMM*%
G71*
G04*
G04 #@! TF.SameCoordinates,6184CBAD-8C2E-428C-A116-2BF05ABD0BD4*
G04*
G04*
G04 #@! TF.FilePolarity,Positive*
G04*
G01*
G75*
%ADD85R,1.5000X1.5000*%
%ADD86R,1.5000X1.5000*%
%ADD87C,1.8000*%
%ADD88C,2.5400*%
%ADD89R,2.5400X2.5400*%
%ADD90O,2.0000X1.6000*%
%ADD91C,1.5000*%
%ADD92C,3.0000*%
%ADD93C,1.7000*%
%ADD94R,1.7000X1.7000*%
%ADD95R,2.0000X1.6000*%
%ADD96R,2.8000X2.8000*%
%ADD97C,2.8000*%
%ADD99O,1.1430X1.3970*%
D85*
X160020Y683260D02*
D03*
X529082Y656590D02*
D03*
Y623570D02*
D03*
D86*
X1445260Y477520D02*
D03*
X1445120Y510310D02*
D03*
D87*
X1198880Y599040D02*
D03*
Y574040D02*
D03*
X1470660Y609400D02*
D03*
Y584400D02*
D03*
X1551940Y609600D02*
D03*
Y584600D02*
D03*
D88*
X1689100Y609460D02*
D03*
Y558660D02*
D03*
Y507860D02*
D03*
D89*
Y457060D02*
D03*
D90*
X495300Y444500D02*
D03*
Y520700D02*
D03*
Y495300D02*
D03*
Y469900D02*
D03*
X93980Y607060D02*
D03*
X17780D02*
D03*
Y632460D02*
D03*
X93980D02*
D03*
Y657860D02*
D03*
X17780D02*
D03*
X93980Y683260D02*
D03*
D91*
X187690Y511290D02*
D03*
X236490D02*
D03*
D92*
X91440Y523240D02*
D03*
Y402840D02*
D03*
D93*
X118540Y450540D02*
D03*
X138440Y475540D02*
D03*
X118540D02*
D03*
X138440Y450540D02*
D03*
X782320Y619760D02*
D03*
Y645160D02*
D03*
Y670560D02*
D03*
X807720Y645160D02*
D03*
Y670560D02*
D03*
D94*
Y619760D02*
D03*
D95*
X17780Y683260D02*
D03*
D96*
X118110Y75235D02*
D03*
X468630D02*
D03*
X816610D02*
D03*
X1164590D02*
D03*
X1512570D02*
D03*
X1706887Y986790D02*
D03*
X1363987D02*
D03*
X1018547D02*
D03*
X673107D02*
D03*
X330207D02*
D03*
D97*
X168910Y73965D02*
D03*
X219710D02*
D03*
X270510D02*
D03*
X321310D02*
D03*
X519430D02*
D03*
X570230D02*
D03*
X621030D02*
D03*
X671830D02*
D03*
X867410D02*
D03*
X918210D02*
D03*
X969010D02*
D03*
X1019810D02*
D03*
X1215390D02*
D03*
X1266190D02*
D03*
X1316990D02*
D03*
X1367790D02*
D03*
X1563370D02*
D03*
X1614170D02*
D03*
X1664970D02*
D03*
X1715770D02*
D03*
X1656087Y988060D02*
D03*
X1605287D02*
D03*
X1554487D02*
D03*
X1503687D02*
D03*
X1313187D02*
D03*
X1262387D02*
D03*
X1211587D02*
D03*
X1160787D02*
D03*
X967747D02*
D03*
X916947D02*
D03*
X866147D02*
D03*
X815347D02*
D03*
X622307D02*
D03*
X571507D02*
D03*
X520707D02*
D03*
X469907D02*
D03*
X279407D02*
D03*
X228607D02*
D03*
X177807D02*
D03*
X127007D02*
D03*
D99*
X33020Y78740D02*
D03*
X63500D02*
D03*
X48260D02*
D03*
X78740D02*
D03*
X383540D02*
D03*
X414020D02*
D03*
X398780D02*
D03*
X429260D02*
D03*
X731520D02*
D03*
X762000D02*
D03*
X746760D02*
D03*
X777240D02*
D03*
X1079500D02*
D03*
X1109980D02*
D03*
X1094740D02*
D03*
X1125220D02*
D03*
X1427480Y79920D02*
D03*
X1457960D02*
D03*
X1442720D02*
D03*
X1473200D02*
D03*
X1455420Y995000D02*
D03*
X1424940D02*
D03*
X1440180D02*
D03*
X1409700D02*
D03*
X1112520D02*
D03*
X1082040D02*
D03*
X1097280D02*
D03*
X1066800D02*
D03*
X767080D02*
D03*
X736600D02*
D03*
X751840D02*
D03*
X721360D02*
D03*
X421640D02*
D03*
X391160D02*
D03*
X406400D02*
D03*
X375920D02*
D03*
X78740D02*
D03*
X48260D02*
D03*
X63500D02*
D03*
X33020D02*
D03*
M02*
