G04*
G04 #@! TF.GenerationSoftware,Altium Limited,Altium Designer,21.4.1 (30)*
G04*
G04 Layer_Physical_Order=1*
G04 Layer_Color=255*
%FSLAX44Y44*%
%MOMM*%
G71*
G04*
G04 #@! TF.SameCoordinates,D7483978-ABC8-4366-99C6-00734FDD2927*
G04*
G04*
G04 #@! TF.FilePolarity,Positive*
G04*
G01*
G75*
%ADD12C,0.5000*%
%ADD23C,0.3000*%
%ADD25R,1.2000X1.3500*%
%ADD26R,1.0000X1.0000*%
%ADD27R,2.0000X3.8000*%
%ADD28R,2.0000X1.5000*%
%ADD29R,1.3500X1.2000*%
%ADD30R,1.0000X1.0000*%
%ADD31R,2.3000X2.3000*%
%ADD32R,1.5000X0.5500*%
%ADD33R,0.6000X1.8500*%
%ADD34R,1.4500X0.6000*%
%ADD35R,1.6000X0.8000*%
G04:AMPARAMS|DCode=36|XSize=1.35mm|YSize=1.2mm|CornerRadius=0mm|HoleSize=0mm|Usage=FLASHONLY|Rotation=45.000|XOffset=0mm|YOffset=0mm|HoleType=Round|Shape=Rectangle|*
%AMROTATEDRECTD36*
4,1,4,-0.0530,-0.9016,-0.9016,-0.0530,0.0530,0.9016,0.9016,0.0530,-0.0530,-0.9016,0.0*
%
%ADD36ROTATEDRECTD36*%

G04:AMPARAMS|DCode=37|XSize=0.3mm|YSize=1.4mm|CornerRadius=0mm|HoleSize=0mm|Usage=FLASHONLY|Rotation=45.000|XOffset=0mm|YOffset=0mm|HoleType=Round|Shape=Round|*
%AMOVALD37*
21,1,1.1000,0.3000,0.0000,0.0000,135.0*
1,1,0.3000,0.3889,-0.3889*
1,1,0.3000,-0.3889,0.3889*
%
%ADD37OVALD37*%

G04:AMPARAMS|DCode=38|XSize=0.3mm|YSize=1.4mm|CornerRadius=0mm|HoleSize=0mm|Usage=FLASHONLY|Rotation=135.000|XOffset=0mm|YOffset=0mm|HoleType=Round|Shape=Round|*
%AMOVALD38*
21,1,1.1000,0.3000,0.0000,0.0000,225.0*
1,1,0.3000,0.3889,0.3889*
1,1,0.3000,-0.3889,-0.3889*
%
%ADD38OVALD38*%

%ADD39R,1.2000X2.2500*%
G04:AMPARAMS|DCode=40|XSize=1.35mm|YSize=1.2mm|CornerRadius=0mm|HoleSize=0mm|Usage=FLASHONLY|Rotation=135.000|XOffset=0mm|YOffset=0mm|HoleType=Round|Shape=Rectangle|*
%AMROTATEDRECTD40*
4,1,4,0.9016,-0.0530,0.0530,-0.9016,-0.9016,0.0530,-0.0530,0.9016,0.9016,-0.0530,0.0*
%
%ADD40ROTATEDRECTD40*%

%ADD41R,1.0000X1.4400*%
%ADD42R,1.2000X1.4400*%
%ADD43R,1.5000X3.0000*%
%ADD44R,5.8000X6.4000*%
%ADD45R,1.9812X0.5334*%
%ADD80O,1.1000X1.6000*%
%ADD82C,1.0000*%
%ADD83C,1.2700*%
%ADD84C,3.0000*%
%ADD85C,2.0000*%
%ADD86C,2.8000*%
%ADD87R,2.8000X2.8000*%
%ADD88R,1.5000X1.5000*%
%ADD89R,1.5000X1.5000*%
%ADD90C,1.8000*%
%ADD91C,2.5400*%
%ADD92R,2.5400X2.5400*%
%ADD93O,2.0000X1.6000*%
%ADD94C,1.5000*%
%ADD95C,3.0000*%
%ADD96C,1.7000*%
%ADD97R,1.7000X1.7000*%
%ADD98R,2.0000X1.6000*%
%ADD99C,1.2700*%
D12*
X294640Y127000D02*
Y140000D01*
X248920Y81280D02*
X294640Y127000D01*
X248920Y45720D02*
Y81280D01*
X599440D02*
X645160Y127000D01*
Y140000D01*
X599440Y45720D02*
Y81280D01*
X947420Y78740D02*
X993140Y124460D01*
Y137460D01*
X947420Y43180D02*
Y78740D01*
X1295400D02*
X1341120Y124460D01*
Y137460D01*
X1689100Y121920D02*
Y137460D01*
X1643380Y43180D02*
Y76200D01*
X1689100Y121920D01*
X782320Y63500D02*
Y78740D01*
Y63500D02*
X795020Y50800D01*
X38100Y1020000D02*
Y1054100D01*
X63500Y1079500D01*
X223520D01*
X53362Y1020022D02*
Y1046502D01*
X53340Y1020000D02*
X53362Y1020022D01*
X381000Y1020000D02*
Y1054100D01*
X396262Y1020022D02*
Y1046502D01*
X396240Y1020000D02*
X396262Y1020022D01*
X726440Y1020000D02*
Y1054100D01*
X741680Y1020000D02*
Y1035640D01*
X1071880Y1020000D02*
Y1054100D01*
X1087120Y1020000D02*
Y1035640D01*
X1087142Y1035662D01*
Y1046502D02*
X1102980Y1062340D01*
X1087142Y1035662D02*
Y1046502D01*
X1414780Y1020000D02*
Y1054100D01*
X1430042Y1020022D02*
Y1046502D01*
X1430020Y1020000D02*
X1430042Y1020022D01*
X168801Y973981D02*
Y984141D01*
X167640Y972820D02*
X168801Y973981D01*
X205740Y1021080D02*
Y1054100D01*
X168801Y984141D02*
X205740Y1021080D01*
X259080Y978650D02*
Y1043940D01*
Y978650D02*
X264160Y973570D01*
Y972820D02*
Y973570D01*
X223520Y1079500D02*
X259080Y1043940D01*
X876300Y972820D02*
Y991390D01*
X389957Y851150D02*
X390557Y850550D01*
X548640Y996430D02*
Y1049020D01*
X523240Y971030D02*
X548640Y996430D01*
X523240Y970280D02*
Y971030D01*
X1219200Y988850D02*
X1239520Y1009170D01*
X1219200Y972820D02*
Y988850D01*
X535320Y1062340D02*
X548640Y1049020D01*
X396262Y1046502D02*
X412100Y1062340D01*
X535320D01*
X571500Y1074420D02*
X601980Y1043940D01*
X401320Y1074420D02*
X571500D01*
X601980Y975000D02*
Y1043940D01*
X381000Y1054100D02*
X401320Y1074420D01*
X1582420Y1009170D02*
Y1049020D01*
X1564640Y991390D02*
X1582420Y1009170D01*
X1569100Y1062340D02*
X1582420Y1049020D01*
X1564640Y990640D02*
Y991390D01*
X1430042Y1046502D02*
X1445880Y1062340D01*
X1569100D01*
X1605280Y1074420D02*
X1635760Y1043940D01*
X1435100Y1074420D02*
X1605280D01*
X1635760Y975000D02*
Y1043940D01*
X1414780Y1054100D02*
X1435100Y1074420D01*
X1239520Y1009170D02*
Y1049020D01*
X1226200Y1062340D02*
X1239520Y1049020D01*
X1102980Y1062340D02*
X1226200D01*
X1262380Y1074420D02*
X1292860Y1043940D01*
X1092200Y1074420D02*
X1262380D01*
X1292860Y975000D02*
Y1043940D01*
X1071880Y1054100D02*
X1092200Y1074420D01*
X947420Y975000D02*
Y1043940D01*
X1432560Y55880D02*
X1469350Y19090D01*
X1432560Y55880D02*
Y78740D01*
X1619290Y19090D02*
X1643380Y43180D01*
X1469350Y19090D02*
X1619290D01*
X1592580Y111310D02*
X1617980Y136710D01*
Y137460D01*
X1577340Y43180D02*
X1592580Y58420D01*
Y111310D01*
X1463040Y60960D02*
Y78740D01*
X1480820Y43180D02*
X1577340D01*
X1463040Y60960D02*
X1480820Y43180D01*
X1544320Y134920D02*
X1546860Y137460D01*
X1544320Y60960D02*
Y134920D01*
X1534160Y50800D02*
X1544320Y60960D01*
X1490980Y50800D02*
X1534160D01*
X1478280Y78740D02*
X1479428Y77592D01*
Y62352D02*
X1490980Y50800D01*
X1479428Y62352D02*
Y77592D01*
X1295400Y43180D02*
Y78740D01*
X1084580Y55880D02*
X1121370Y19090D01*
X1084580Y55880D02*
Y78740D01*
X1271310Y19090D02*
X1295400Y43180D01*
X1121370Y19090D02*
X1271310D01*
X1244600Y111310D02*
X1270000Y136710D01*
Y137460D01*
X1229360Y43180D02*
X1244600Y58420D01*
Y111310D01*
X1115060Y60960D02*
Y78740D01*
X1132840Y43180D02*
X1229360D01*
X1115060Y60960D02*
X1132840Y43180D01*
X1196340Y134920D02*
X1198880Y137460D01*
X1196340Y60960D02*
Y134920D01*
X1186180Y50800D02*
X1196340Y60960D01*
X1143000Y50800D02*
X1186180D01*
X1130300Y78740D02*
X1131448Y77592D01*
Y62352D02*
X1143000Y50800D01*
X1131448Y62352D02*
Y77592D01*
X736600Y55880D02*
X773390Y19090D01*
X736600Y55880D02*
Y78740D01*
X923330Y19090D02*
X947420Y43180D01*
X773390Y19090D02*
X923330D01*
X896620Y111310D02*
X922020Y136710D01*
Y137460D01*
X881380Y43180D02*
X896620Y58420D01*
Y111310D01*
X767080Y60960D02*
Y78740D01*
X784860Y43180D02*
X881380D01*
X767080Y60960D02*
X784860Y43180D01*
X848360Y134920D02*
X850900Y137460D01*
X848360Y60960D02*
Y134920D01*
X838200Y50800D02*
X848360Y60960D01*
X795020Y50800D02*
X838200D01*
X548640Y60960D02*
Y113850D01*
X574040Y139250D02*
Y140000D01*
X548640Y113850D02*
X574040Y139250D01*
X500380Y63500D02*
Y137460D01*
X502920Y140000D01*
X388620Y58420D02*
X425410Y21630D01*
X575350D01*
X599440Y45720D01*
X388620Y58420D02*
Y81280D01*
X419100Y63500D02*
X436880Y45720D01*
X533400D01*
X548640Y60960D01*
X419100Y63500D02*
Y81280D01*
X435488Y64892D02*
X447040Y53340D01*
X490220D01*
X434340Y81280D02*
X435488Y80132D01*
Y64892D02*
Y80132D01*
X490220Y53340D02*
X500380Y63500D01*
X149860D02*
Y140000D01*
X198120Y60960D02*
Y111310D01*
X226060Y139250D01*
Y140000D01*
X139700Y53340D02*
X149860Y63500D01*
X193040Y1066800D02*
X205740Y1054100D01*
X73660Y1066800D02*
X193040D01*
X53362Y1046502D02*
X73660Y1066800D01*
X757540Y1062340D02*
X880760D01*
X894080Y1009170D02*
Y1049020D01*
X880760Y1062340D02*
X894080Y1049020D01*
X746760Y1074420D02*
X916940D01*
X726440Y1054100D02*
X746760Y1074420D01*
X916940D02*
X947420Y1043940D01*
X25400Y614680D02*
X25400Y614680D01*
X264160D01*
X500380Y492760D02*
X502260Y490880D01*
X523240Y454660D02*
Y480060D01*
X512420Y490880D02*
X523240Y480060D01*
X502260Y490880D02*
X512420D01*
X553720Y408940D02*
X612140Y467360D01*
X278230Y408940D02*
X553720D01*
X419862Y717550D02*
Y718300D01*
X415533Y721800D02*
X416362D01*
X42640Y723900D02*
X413433D01*
X416362Y721800D02*
X419862Y718300D01*
X413433Y723900D02*
X415533Y721800D01*
X24860Y706120D02*
X42640Y723900D01*
X460248Y669290D02*
X524002D01*
X781864Y749300D02*
X861060Y670104D01*
Y637540D02*
Y670104D01*
X779780Y749300D02*
X781864D01*
X876300Y991390D02*
X894080Y1009170D01*
X741702Y1046502D02*
X757540Y1062340D01*
X741702Y1035662D02*
Y1046502D01*
X741680Y1035640D02*
X741702Y1035662D01*
X38100Y58420D02*
X74890Y21630D01*
X38100Y58420D02*
Y81280D01*
X224830Y21630D02*
X248920Y45720D01*
X74890Y21630D02*
X224830D01*
X68580Y63500D02*
X86360Y45720D01*
X68580Y63500D02*
Y81280D01*
X182880Y45720D02*
X198120Y60960D01*
X86360Y45720D02*
X182880D01*
X96520Y53340D02*
X139700D01*
X83820Y81280D02*
X84968Y80132D01*
Y64892D02*
X96520Y53340D01*
X84968Y64892D02*
Y80132D01*
X460248Y694690D02*
X467487D01*
X455221D02*
X460248D01*
X1555940Y512850D02*
X1661250D01*
X1555940Y525550D02*
X1683490D01*
X1688660Y530720D01*
X1694180D01*
X1661250Y512850D02*
X1694180Y479920D01*
X329450Y444500D02*
X332740D01*
X330832D02*
X332740D01*
X322580Y429260D02*
X329872Y436552D01*
X302260Y429260D02*
X322580D01*
X332740Y444500D02*
X384320D01*
X332740D02*
Y447040D01*
X329872Y443540D02*
X330832Y444500D01*
X329872Y436552D02*
Y443540D01*
X328490Y450540D02*
X329450Y449580D01*
X164800Y452120D02*
X325561D01*
X329450Y444500D02*
Y449580D01*
X327141Y450540D02*
X328490D01*
X325561Y452120D02*
X327141Y450540D01*
X143520Y473400D02*
X164800Y452120D01*
X264160Y423010D02*
X278230Y408940D01*
X420810Y577410D02*
X424180Y574040D01*
X420060Y577410D02*
X420810D01*
X424180Y561880D02*
Y574040D01*
X264160Y510540D02*
X282770Y529150D01*
X192770Y534150D02*
X213360Y513560D01*
X226060Y518640D02*
X241570Y534150D01*
X241582Y549150D02*
X247650Y555218D01*
X241570Y534150D02*
X241582Y534162D01*
X247650Y555218D02*
Y571750D01*
X241582Y534162D02*
Y549150D01*
X251460Y510540D02*
X271780Y530860D01*
X238760Y510540D02*
X264780Y536560D01*
X154940Y515620D02*
Y566734D01*
X123620Y565580D02*
X162560Y604520D01*
X123620Y498400D02*
Y565580D01*
X289560Y502920D02*
X302260Y515620D01*
X276706Y487414D02*
Y510386D01*
X289560Y487260D02*
Y502920D01*
X276706Y487414D02*
X276860Y487260D01*
X302260D02*
X320460D01*
X422910Y523400D02*
X423545Y522765D01*
X402590Y488180D02*
Y523400D01*
X423545Y501935D02*
Y522765D01*
Y501935D02*
X424180Y501300D01*
X403090Y487680D02*
X404500D01*
X330200Y515620D02*
X333700Y519120D01*
Y524200D01*
X320460Y487260D02*
X331470Y476250D01*
Y468630D02*
Y476250D01*
Y468630D02*
X332740Y467360D01*
X333700Y524200D02*
X353060Y543560D01*
X264780Y536560D02*
Y581660D01*
X282770Y529150D02*
Y545140D01*
X276706Y510386D02*
X325950Y559630D01*
X286270Y548640D02*
X287020D01*
X282770Y545140D02*
X286270Y548640D01*
X271780Y530860D02*
Y589280D01*
X287020Y568960D02*
Y591820D01*
X179070Y547850D02*
Y571750D01*
Y547850D02*
X192770Y534150D01*
X174946Y586740D02*
X203200D01*
X210820Y571750D02*
X227330D01*
X256540Y604520D02*
X271780Y589280D01*
X210820Y571750D02*
Y579120D01*
X249540Y596900D02*
X264780Y581660D01*
X199390Y571750D02*
X210820D01*
X143520Y572780D02*
X167640Y596900D01*
X203200Y586740D02*
X210820Y579120D01*
X154940Y566734D02*
X174946Y586740D01*
X325950Y559630D02*
X326700D01*
X330200Y563130D02*
Y563880D01*
X326700Y559630D02*
X330200Y563130D01*
X376110Y554990D02*
X380360D01*
X367220Y563880D02*
X376110Y554990D01*
X350520Y563880D02*
X367220D01*
X330200D02*
Y564630D01*
X367550Y601980D01*
X403860Y545490D02*
Y581866D01*
X143520Y498400D02*
Y572780D01*
X162560Y604520D02*
X256540D01*
X167640Y596900D02*
X249540D01*
X367550Y601980D02*
X441960D01*
X213360Y487260D02*
Y513560D01*
X226060Y487260D02*
Y518640D01*
X264160Y487260D02*
Y510540D01*
X251460Y487260D02*
Y510540D01*
X238760Y487260D02*
Y510540D01*
X264160Y423010D02*
Y429260D01*
X302260Y515620D02*
X330200D01*
X380500Y497680D02*
X381000Y497180D01*
X354770Y511370D02*
X368460Y497680D01*
X350520Y514870D02*
X354020Y511370D01*
X368460Y497680D02*
X380500D01*
X354020Y511370D02*
X354770D01*
X350520Y514870D02*
Y515620D01*
X332740Y467360D02*
X421640D01*
X402590Y488180D02*
X403090Y487680D01*
X203200Y467360D02*
X332740D01*
X154940Y515620D02*
X203200Y467360D01*
X424180Y469900D02*
Y482760D01*
X421640Y467360D02*
X424180Y469900D01*
Y543340D02*
X447040Y520480D01*
X498380Y518160D02*
X500380D01*
X464820Y551720D02*
X498380Y518160D01*
X464820Y551720D02*
Y579120D01*
X441960Y601980D02*
X464820Y579120D01*
X447040Y467360D02*
Y520480D01*
Y467360D02*
X500380D01*
X421640D02*
X447040D01*
X418320Y444500D02*
X513080D01*
X523240Y454660D01*
X919480Y637540D02*
Y639624D01*
X922020Y642164D01*
Y657860D01*
X523240Y716280D02*
X525780D01*
X521970Y717550D02*
X523240Y716280D01*
X440182Y717550D02*
X521970D01*
X22860Y706120D02*
X24860D01*
X403352Y656590D02*
Y669290D01*
X264160Y614680D02*
X287020Y591820D01*
X942340Y683260D02*
Y708660D01*
Y657860D02*
Y683260D01*
X440182Y716800D02*
X455054Y701928D01*
Y694857D02*
X455221Y694690D01*
X455054Y694857D02*
Y701928D01*
X490982Y633730D02*
X493522Y631190D01*
X546862D01*
X559562Y643890D01*
Y689610D01*
X551942Y697230D02*
X559562Y689610D01*
X490982Y697230D02*
X551942D01*
X460248Y656590D02*
X524002D01*
X534162Y646430D01*
X524002Y669290D02*
X534162Y679450D01*
X470027Y697230D02*
X490982D01*
X467487Y694690D02*
X470027Y697230D01*
X440182Y716800D02*
Y717550D01*
X403352Y681990D02*
X460248D01*
X403352Y694690D02*
Y700290D01*
Y681990D02*
Y694690D01*
Y669290D02*
Y681990D01*
Y700290D02*
X419862Y716800D01*
D23*
X919044Y392047D02*
X922020Y389071D01*
Y381000D02*
Y389071D01*
X919044Y392047D02*
Y398344D01*
X899160Y358140D02*
X922020Y381000D01*
X759460Y335280D02*
X777240Y353060D01*
X759460Y325120D02*
Y335280D01*
X777240Y353060D02*
X901700D01*
X749300Y304800D02*
Y345440D01*
X762000Y358140D02*
X899160D01*
X749300Y345440D02*
X762000Y358140D01*
X749300Y297180D02*
Y304800D01*
X841400Y325960D02*
Y328160D01*
X861300Y348060D01*
X903771D01*
X942340Y343780D02*
Y406276D01*
X928420Y329860D02*
X942340Y343780D01*
X928420Y327660D02*
Y329860D01*
X840740Y524031D02*
Y525780D01*
X794125Y477416D02*
X840740Y524031D01*
X784736Y563880D02*
X811803Y536813D01*
X744656Y571936D02*
X752712Y563880D01*
X784736D01*
X742116Y571936D02*
X744656D01*
X674956Y641636D02*
X729416Y587176D01*
X673100Y647700D02*
X674956Y645844D01*
Y641636D02*
Y645844D01*
X894080Y736600D02*
X922637Y765157D01*
X878271Y554491D02*
X894080Y570300D01*
Y736600D01*
X878840Y569202D02*
Y670560D01*
X871200Y561562D02*
X878840Y569202D01*
X758018Y791382D02*
X878840Y670560D01*
X1525887Y733407D02*
Y798240D01*
X1488280Y695800D02*
X1525887Y733407D01*
X1182987Y768213D02*
Y780433D01*
Y781721D02*
Y798240D01*
X1182343Y781077D02*
X1182987Y781721D01*
X1182343Y781077D02*
X1182987Y780433D01*
X408940Y797623D02*
X409557Y797007D01*
Y774427D02*
Y797007D01*
X492107Y770273D02*
Y798240D01*
X577197Y771543D02*
Y798240D01*
X587220Y761520D02*
X615380D01*
X577197Y771543D02*
X587220Y761520D01*
X1386840Y429260D02*
X1452880Y363220D01*
X913626Y477416D02*
X961783Y429260D01*
X1386840D01*
X1394460Y436880D02*
X1455420Y375920D01*
X961234Y436880D02*
X1394460D01*
X917162Y480952D02*
X961234Y436880D01*
X960685Y444500D02*
X1404071D01*
X920697Y484487D02*
X960685Y444500D01*
X1404071D02*
X1462491Y386080D01*
X1417320Y452120D02*
X1473760Y395680D01*
X920697Y512064D02*
X980642Y452120D01*
X1417320D01*
X1259840Y414020D02*
X1276400Y397460D01*
X962880Y414020D02*
X1259840D01*
X906555Y470345D02*
X962880Y414020D01*
X962571Y421400D02*
X1325776D01*
X910091Y473881D02*
X962571Y421400D01*
X1325776D02*
X1360730Y386446D01*
X903020Y466810D02*
X963429Y406400D01*
X1165860D01*
X1186840Y385420D01*
X920697Y512064D02*
X920697Y512064D01*
X899484Y463274D02*
X963978Y398780D01*
X1092200D02*
X1104900Y386080D01*
X963978Y398780D02*
X1092200D01*
X899838Y455849D02*
X964527Y391160D01*
X993140D02*
X1013460Y370840D01*
X964527Y391160D02*
X993140D01*
X1452880Y327660D02*
Y363220D01*
X1623060Y328980D02*
Y365760D01*
X1602740Y386080D02*
X1623060Y365760D01*
X1462491Y386080D02*
X1602740D01*
X1537360Y325960D02*
Y328500D01*
Y346100D02*
Y360020D01*
Y328500D02*
Y346100D01*
X1455420Y375920D02*
X1521460D01*
X1537360Y360020D01*
X408940Y797623D02*
X409557Y798240D01*
X662287Y770273D02*
Y798240D01*
X1442720Y797623D02*
X1443337Y798240D01*
X1696067Y770273D02*
Y798240D01*
X1099820Y797623D02*
X1100437Y798240D01*
X1353167Y770273D02*
Y798240D01*
X1623060Y328980D02*
X1624380Y327660D01*
X1671880Y395680D02*
X1706880Y360680D01*
Y327660D02*
Y360680D01*
X1189380Y325960D02*
Y346100D01*
X493420Y328500D02*
Y348640D01*
X1034746Y541986D02*
X1350314D01*
X1468927Y432853D02*
X1468940Y432840D01*
X1350314Y541986D02*
X1459447Y432853D01*
X1468927D01*
X906780Y414020D02*
X922020Y398780D01*
X903274Y417938D02*
X906780Y414432D01*
X728146Y585906D02*
X742116Y571936D01*
X673100Y497840D02*
Y546100D01*
Y477520D02*
Y497840D01*
X740808Y426720D02*
X761564Y447476D01*
X317500Y629920D02*
X339440Y607980D01*
X633764D01*
X99060Y629920D02*
X317500D01*
X99060Y655320D02*
X317500D01*
X359840Y612980D02*
X637249D01*
X317500Y655320D02*
X359840Y612980D01*
X372620Y617980D02*
X642958D01*
X99060Y680720D02*
X309880D01*
X372620Y617980D01*
X304800Y706120D02*
X387940Y622980D01*
X165100Y706120D02*
X304800D01*
X387940Y622980D02*
X645029D01*
X673020Y409020D02*
X775227D01*
X629920Y449580D02*
X632460D01*
X673020Y409020D01*
X454660Y535940D02*
Y576580D01*
X497840Y492760D02*
X500380D01*
X454660Y535940D02*
X497840Y492760D01*
X645160Y416560D02*
X657700Y404020D01*
X695960Y414020D02*
X773156D01*
X591820Y487680D02*
X622300D01*
X695960Y414020D01*
X657700Y404020D02*
X777298D01*
X432464Y751520D02*
X611238D01*
X771540Y591218D01*
X505860Y756520D02*
X613309D01*
X776540Y593289D01*
X615380Y761520D02*
X825945Y550955D01*
X492107Y770273D02*
X505860Y756520D01*
X825500Y572613D02*
Y601980D01*
X845820Y622300D01*
X1501940Y449350D02*
X1518780D01*
X1472750D02*
X1501940D01*
X881806Y445596D02*
X903274Y424129D01*
X876453Y450950D02*
X881806Y445596D01*
X553639Y518390D02*
X611910D01*
X553410Y518160D02*
X553639Y518390D01*
X500380Y518160D02*
X553410D01*
X611910Y518390D02*
X711280Y419020D01*
X545631Y736520D02*
X735891Y546260D01*
X325360Y746520D02*
X549773D01*
X771540Y591218D02*
Y591218D01*
X645029Y622980D02*
X732069Y535940D01*
X543560Y731520D02*
X733820Y541260D01*
X662287Y721685D02*
X830416Y553556D01*
X120245Y731520D02*
X543560D01*
X730078Y530860D02*
X775330D01*
X776540Y593289D02*
X822410Y547420D01*
X549773Y746520D02*
X740033Y556260D01*
X633764Y607980D02*
X721964Y519780D01*
X776540Y593289D02*
Y593289D01*
X724449Y525780D02*
X773339D01*
X251620Y741520D02*
X547702D01*
X737962Y551260D01*
X642958Y617980D02*
X730078Y530860D01*
X737962Y551260D02*
X783214D01*
X637249Y612980D02*
X724449Y525780D01*
X740033Y556260D02*
X785285D01*
X190580Y736520D02*
X545631D01*
X735891Y546260D02*
X781143D01*
X662287Y721685D02*
Y798240D01*
X732069Y535940D02*
X777321D01*
X771540Y591218D02*
X818874Y543884D01*
X721964Y519780D02*
X755300D01*
X733820Y541260D02*
X779072D01*
X673100Y477520D02*
X723900Y426720D01*
X942340Y622300D02*
Y657860D01*
X961788Y523240D02*
X980004Y541456D01*
X889436Y396676D02*
X904496Y381616D01*
X744656Y464384D02*
X747196D01*
X888905Y403158D02*
X891976Y400087D01*
X729416Y446604D02*
X745926Y463114D01*
X728980Y477520D02*
X731520D01*
X744656Y464384D01*
X747196D02*
X752712Y469900D01*
X728980Y617220D02*
X743784Y602416D01*
Y601544D02*
Y602416D01*
X901700Y353060D02*
X932180Y383540D01*
X903771Y348060D02*
X937260Y381549D01*
X888016Y399216D02*
X889436D01*
X868680Y379880D02*
X888016Y399216D01*
X66040Y797623D02*
X66657Y797007D01*
Y785109D02*
Y797007D01*
X130207Y850500D02*
X130857Y851150D01*
X149207Y777893D02*
Y798240D01*
X837547Y776449D02*
Y798240D01*
X922637Y765157D02*
Y798240D01*
X1043940Y645160D02*
Y734060D01*
X1007727Y770273D02*
X1043940Y734060D01*
X1007727Y770273D02*
Y798240D01*
X1251820Y710800D02*
X1268077Y727057D01*
Y798240D01*
X66040Y797623D02*
X66657Y798240D01*
X754380Y797623D02*
X754997Y798240D01*
X229920Y329160D02*
Y359460D01*
X229260Y328500D02*
X229920Y329160D01*
X142900Y328500D02*
Y348640D01*
X60960Y327660D02*
Y350520D01*
X1029666Y541986D02*
X1034746D01*
X1473760Y395680D02*
X1671880D01*
X1335720Y705800D02*
X1353167Y723247D01*
X1134716Y705800D02*
X1335720D01*
X1140929Y690800D02*
X1582340D01*
X1414540Y700800D02*
X1442720Y728980D01*
X1143000Y685800D02*
X1653540D01*
X1138858Y695800D02*
X1488280D01*
X1136787Y700800D02*
X1414540D01*
X1122765Y553720D02*
X1514740D01*
X1582340Y690800D02*
X1610977Y719437D01*
X1653540Y685800D02*
X1696067Y728327D01*
X1457820Y525550D02*
X1501940D01*
X1462810Y512850D02*
X1501940D01*
X1536700Y547280D02*
X1539100Y549680D01*
X1514740Y553720D02*
X1518780Y549680D01*
X1536700Y508000D02*
X1544550Y500150D01*
X1536700Y508000D02*
Y547280D01*
X1518780Y449350D02*
Y549680D01*
X1583190Y462050D02*
X1594620Y450620D01*
X1544550Y500150D02*
X1555940D01*
Y487450D02*
X1585730D01*
X1594620Y496340D01*
X1555940Y474750D02*
X1594100D01*
X1555940Y462050D02*
X1583190D01*
X1544090Y449350D02*
X1555940D01*
X1539100Y413790D02*
X1539240Y413930D01*
Y444500D01*
X1555940Y436650D02*
X1588270D01*
X1539240Y444500D02*
X1544090Y449350D01*
X1518780Y413790D02*
Y449350D01*
X1594620Y450620D02*
X1595370D01*
X1594620Y496340D02*
X1595370D01*
X1588270Y436650D02*
X1594620Y430300D01*
X1594100Y474750D02*
X1595370Y476020D01*
X1594620Y430300D02*
X1595370D01*
X1450340Y500380D02*
X1462810Y512850D01*
X1450200Y533170D02*
X1457820Y525550D01*
X1468940Y432840D02*
X1472750Y436650D01*
X1468940Y453160D02*
X1472750Y449350D01*
Y436650D02*
X1501940D01*
X1132645Y710800D02*
X1251820D01*
X1120225Y556260D02*
X1122765Y553720D01*
X1117600Y556260D02*
X1120225D01*
X1360730Y328370D02*
Y386446D01*
X380360Y517405D02*
Y535990D01*
X384610D01*
X386080Y590900D02*
X391160Y595980D01*
X386080Y571500D02*
Y590900D01*
X393700Y551080D02*
Y563880D01*
X384610Y535990D02*
X386110Y537490D01*
Y543490D02*
X393700Y551080D01*
X386110Y537490D02*
Y543490D01*
X386080Y571500D02*
X393700Y563880D01*
X391160Y595980D02*
X435260D01*
X380360Y517405D02*
X391750Y506015D01*
Y484680D02*
Y506015D01*
X381000Y478180D02*
X385250D01*
X391750Y484680D01*
X435260Y595980D02*
X454660Y576580D01*
X711280Y419020D02*
X771084D01*
X99060Y398780D02*
X779129D01*
X335520Y383780D02*
X785342D01*
X60960Y360680D02*
X99060Y398780D01*
X314960Y363220D02*
X335520Y383780D01*
X408940Y327660D02*
Y360680D01*
X229920Y359460D02*
X259240Y388780D01*
X408940Y360680D02*
X427040Y378780D01*
X142900Y358800D02*
X177880Y393780D01*
X259240Y388780D02*
X783271D01*
X177880Y393780D02*
X781200D01*
X427040Y378780D02*
X787413D01*
X314960Y327660D02*
Y363220D01*
X142900Y328500D02*
Y358800D01*
X60960Y327660D02*
Y360680D01*
X837547Y776449D02*
X886380Y727615D01*
Y569671D02*
Y727615D01*
X866140Y461263D02*
X876453Y450950D01*
X876453D01*
X866140Y461263D02*
Y471649D01*
X913626Y519135D01*
X966166Y556354D02*
X998126D01*
X998220Y556260D01*
X759024Y586304D02*
X759555Y585774D01*
X743784Y601544D02*
X759024Y586304D01*
X835031Y363140D02*
X883840Y411949D01*
Y429421D01*
X589120Y368140D02*
X832960D01*
X878840Y414020D01*
X670480Y363140D02*
X835031D01*
X878840Y414020D02*
Y427350D01*
X505700Y373780D02*
X809990D01*
X785342Y383780D02*
X790422Y388860D01*
X771084Y419020D02*
X811803Y459739D01*
X777298Y404020D02*
X820369Y447091D01*
X773156Y414020D02*
X815339Y456203D01*
X792999Y448006D02*
X808267Y463274D01*
X792493Y383860D02*
X840087Y431454D01*
X775227Y409020D02*
X818874Y452667D01*
X772709Y457200D02*
X795122D01*
X762094Y448006D02*
X792999D01*
X809990Y373780D02*
X867664Y431454D01*
X790422Y388860D02*
X836552Y434990D01*
X793131Y462280D02*
X801196Y470345D01*
X774700Y462280D02*
X793131D01*
X788351Y393860D02*
X833016Y438525D01*
X781200Y393780D02*
X829481Y442061D01*
X788351Y393860D02*
X788351D01*
X795122Y457200D02*
X804732Y466810D01*
X779129Y398780D02*
X825945Y445596D01*
X792493Y383860D02*
X792493D01*
X787413Y378780D02*
X792493Y383860D01*
X783271Y388780D02*
X788351Y393860D01*
X867664Y431454D02*
X867664Y431454D01*
X790422Y388860D02*
X790422D01*
X66657Y785109D02*
X120245Y731520D01*
X409557Y774427D02*
X432464Y751520D01*
X149207Y777893D02*
X190580Y736520D01*
X234297Y758843D02*
X251620Y741520D01*
X319387Y752493D02*
X325360Y746520D01*
X965636Y555824D02*
X966166Y556354D01*
X1013460Y327660D02*
Y370840D01*
X895949Y459739D02*
X899838Y455849D01*
X899838D01*
X1442720Y728980D02*
Y797623D01*
X755300Y519780D02*
X788116Y486964D01*
X693420Y497840D02*
X718688D01*
X760703Y486437D02*
X771542Y475598D01*
X760703Y486437D02*
Y488923D01*
X762000Y490220D01*
X740860Y496120D02*
X774700Y462280D01*
X740860Y496120D02*
Y499420D01*
X737360Y502920D02*
X740860Y499420D01*
X771542Y475598D02*
X785236D01*
X790590Y480952D01*
X723900Y426720D02*
X740808D01*
X761564Y447476D02*
X761564D01*
X760009Y469900D02*
X772709Y457200D01*
X752712Y469900D02*
X760009D01*
X729416Y446604D02*
X729416D01*
X761564Y447476D02*
X762094Y448006D01*
X577900Y356920D02*
X589120Y368140D01*
X490880Y358960D02*
X505700Y373780D01*
X662940Y355600D02*
X670480Y363140D01*
X662940Y327660D02*
Y355600D01*
X942351Y611500D02*
X1010280D01*
X952707Y586500D02*
X1022487D01*
X956849Y576500D02*
X1026629D01*
X944422Y606500D02*
X1014203D01*
X954778Y581500D02*
X1024558D01*
X948564Y596500D02*
X1018345D01*
X950636Y591500D02*
X1020416D01*
X946493Y601500D02*
X1016274D01*
X885696Y554844D02*
X942351Y611500D01*
X1010280D02*
X1043940Y645160D01*
X980004Y541456D02*
X980004D01*
X910091Y522671D02*
X958920Y571500D01*
X906555Y526207D02*
X956849Y576500D01*
X958920Y571500D02*
X1028700D01*
X903020Y529742D02*
X954778Y581500D01*
X924802Y523240D02*
X961788D01*
X947856Y538044D02*
X965636Y555824D01*
X937260Y381549D02*
Y404285D01*
X932180Y383540D02*
Y402294D01*
X889231Y551309D02*
X944422Y606500D01*
X899484Y533278D02*
X952707Y586500D01*
X892413Y540349D02*
X948564Y596500D01*
X888877Y543884D02*
X946493Y601500D01*
X895949Y536813D02*
X950636Y591500D01*
X947326Y537514D02*
X947856Y538044D01*
X932005Y537514D02*
X947326D01*
X913626Y519135D02*
X932005Y537514D01*
X888878Y452667D02*
X937260Y404285D01*
X885342Y449132D02*
X932180Y402294D01*
X888905Y403158D02*
Y431426D01*
X892413Y456203D02*
X942340Y406276D01*
X812800Y578242D02*
X831411Y559631D01*
X769383Y586304D02*
X815339Y540349D01*
X825500Y572613D02*
X836552Y561562D01*
X812800Y578242D02*
Y642620D01*
X765919Y585774D02*
X766449Y586304D01*
X759555Y585774D02*
X765919D01*
X766449Y586304D02*
X769383D01*
X917162Y515600D02*
X924802Y523240D01*
X775330Y530860D02*
X790255Y515935D01*
X874735Y558026D02*
X886380Y569671D01*
X881806Y550955D02*
X885696Y554844D01*
X885696D01*
X889231Y551309D02*
X889231D01*
X885342Y547420D02*
X889231Y551309D01*
X831411Y559631D02*
Y559631D01*
X785285Y556260D02*
X808267Y533278D01*
X781143Y546260D02*
X801196Y526207D01*
X783214Y551260D02*
X804732Y529742D01*
X779072Y541260D02*
X797661Y522671D01*
X777321Y535940D02*
X794125Y519135D01*
X903274Y417938D02*
Y424129D01*
X878271Y442061D02*
X888905Y431426D01*
X874735Y438525D02*
X883840Y429421D01*
X906780Y414020D02*
Y414432D01*
X871200Y434990D02*
X878840Y427350D01*
X773339Y525780D02*
X787054Y512064D01*
X99060Y706120D02*
X165100D01*
X490880Y328500D02*
Y358960D01*
X577900Y327660D02*
Y356920D01*
X234297Y758843D02*
Y798240D01*
X319387Y752493D02*
Y798240D01*
X1020416Y591500D02*
X1134716Y705800D01*
X1024558Y581500D02*
X1138858Y695800D01*
X1022487Y586500D02*
X1136787Y700800D01*
X1026629Y576500D02*
X1140929Y690800D01*
X1018345Y596500D02*
X1132645Y710800D01*
X1028700Y571500D02*
X1143000Y685800D01*
X1014203Y606500D02*
X1100437Y692734D01*
X1016274Y601500D02*
X1182987Y768213D01*
X1353167Y723247D02*
Y798240D01*
X1100437Y692734D02*
Y798240D01*
X1276400Y327660D02*
Y397460D01*
X1186840Y328500D02*
Y385420D01*
X1104900Y327660D02*
Y386080D01*
X1610977Y719437D02*
Y798240D01*
X1696067Y728327D02*
Y798240D01*
D25*
X922020Y139700D02*
D03*
X942340D02*
D03*
X850900Y140000D02*
D03*
X871220D02*
D03*
X502920D02*
D03*
X523240D02*
D03*
X574040D02*
D03*
X594360D02*
D03*
X673100Y497840D02*
D03*
X693420D02*
D03*
X167640Y972820D02*
D03*
X187960D02*
D03*
X264160D02*
D03*
X284480D02*
D03*
X525780D02*
D03*
X546100D02*
D03*
X604520D02*
D03*
X624840D02*
D03*
X876300D02*
D03*
X896620D02*
D03*
X949960D02*
D03*
X970280D02*
D03*
X1219200D02*
D03*
X1239520D02*
D03*
X1292860D02*
D03*
X1313180D02*
D03*
X1635760D02*
D03*
X1656080D02*
D03*
X1562100D02*
D03*
X1582420D02*
D03*
X226060Y140000D02*
D03*
X246380D02*
D03*
X149860D02*
D03*
X170180D02*
D03*
X1615440Y137160D02*
D03*
X1635760D02*
D03*
X1544320Y134620D02*
D03*
X1564640D02*
D03*
X1272540Y137160D02*
D03*
X1292860D02*
D03*
X1198880Y139700D02*
D03*
X1219200D02*
D03*
X1341120Y137460D02*
D03*
X1361440D02*
D03*
X1386840Y635000D02*
D03*
X1405840D02*
D03*
X1518780Y549680D02*
D03*
X1539100D02*
D03*
Y413790D02*
D03*
X1518780D02*
D03*
X330200Y515620D02*
D03*
X350520D02*
D03*
X424180Y581660D02*
D03*
X403860D02*
D03*
X422910Y523400D02*
D03*
X402590D02*
D03*
X330200Y563880D02*
D03*
X350520D02*
D03*
X179070Y571750D02*
D03*
X199390D02*
D03*
X247650D02*
D03*
X227330D02*
D03*
X942340Y683260D02*
D03*
X922020D02*
D03*
X942340Y708660D02*
D03*
X922020D02*
D03*
X977900Y756920D02*
D03*
X998220D02*
D03*
X942340Y657860D02*
D03*
X922020D02*
D03*
X314960Y140000D02*
D03*
X294640D02*
D03*
X665480D02*
D03*
X645160D02*
D03*
X1013460Y137460D02*
D03*
X993140D02*
D03*
X1709420D02*
D03*
X1689100D02*
D03*
X1480820Y977900D02*
D03*
X1460500D02*
D03*
X1137920D02*
D03*
X1117600D02*
D03*
X792480D02*
D03*
X772160D02*
D03*
X447040D02*
D03*
X426720D02*
D03*
X106680Y975360D02*
D03*
X86360D02*
D03*
X439420Y718820D02*
D03*
X419100D02*
D03*
D26*
X738250Y497840D02*
D03*
X719710D02*
D03*
D27*
X1263900Y607060D02*
D03*
D28*
X1326900Y630060D02*
D03*
Y607060D02*
D03*
Y584060D02*
D03*
D29*
X1153160Y619760D02*
D03*
Y640080D02*
D03*
X1356360Y614680D02*
D03*
Y635000D02*
D03*
X1117600Y614680D02*
D03*
Y594360D02*
D03*
X1407160Y607060D02*
D03*
Y586740D02*
D03*
X1468940Y453160D02*
D03*
Y432840D02*
D03*
X1595370Y496340D02*
D03*
Y476020D02*
D03*
Y430300D02*
D03*
Y450620D02*
D03*
X287020Y548640D02*
D03*
Y568960D02*
D03*
X332740Y447040D02*
D03*
Y467360D02*
D03*
X490982Y654050D02*
D03*
Y633730D02*
D03*
Y676910D02*
D03*
Y697230D02*
D03*
X292100Y327660D02*
D03*
Y307340D02*
D03*
X642620Y327660D02*
D03*
Y307340D02*
D03*
X990600Y325120D02*
D03*
Y304800D02*
D03*
X1338580Y325120D02*
D03*
Y304800D02*
D03*
X1686560Y325120D02*
D03*
Y304800D02*
D03*
X205740Y327660D02*
D03*
Y307340D02*
D03*
X556260Y327660D02*
D03*
Y307340D02*
D03*
X904240Y325120D02*
D03*
Y304800D02*
D03*
X1252220Y325120D02*
D03*
Y304800D02*
D03*
X1600200Y325120D02*
D03*
Y304800D02*
D03*
X119380Y330200D02*
D03*
Y309880D02*
D03*
X469900Y330200D02*
D03*
Y309880D02*
D03*
X817880Y327660D02*
D03*
Y307340D02*
D03*
X1165860Y327660D02*
D03*
Y307340D02*
D03*
X1513840Y327660D02*
D03*
Y307340D02*
D03*
X35560Y327660D02*
D03*
Y307340D02*
D03*
X386080Y327660D02*
D03*
Y307340D02*
D03*
X734060Y325120D02*
D03*
Y304800D02*
D03*
X1082040Y325120D02*
D03*
Y304800D02*
D03*
X1430020Y325120D02*
D03*
Y304800D02*
D03*
X1465587Y799080D02*
D03*
Y819400D02*
D03*
X1122687Y799080D02*
D03*
Y819400D02*
D03*
X777247Y799080D02*
D03*
Y819400D02*
D03*
X431807Y799080D02*
D03*
Y819400D02*
D03*
X88907Y799080D02*
D03*
Y819400D02*
D03*
X1549407Y799080D02*
D03*
Y819400D02*
D03*
X1206507Y799080D02*
D03*
Y819400D02*
D03*
X861067Y799080D02*
D03*
Y819400D02*
D03*
X515627Y799080D02*
D03*
Y819400D02*
D03*
X172727Y799080D02*
D03*
Y819400D02*
D03*
X1633227Y799080D02*
D03*
Y819400D02*
D03*
X1290327Y799080D02*
D03*
Y819400D02*
D03*
X944887Y799080D02*
D03*
Y819400D02*
D03*
X599447Y799080D02*
D03*
Y819400D02*
D03*
X256547Y799080D02*
D03*
Y819400D02*
D03*
X1717047Y799080D02*
D03*
Y819400D02*
D03*
X1374147Y799080D02*
D03*
Y819400D02*
D03*
X1028707Y799080D02*
D03*
Y819400D02*
D03*
X683267Y799080D02*
D03*
Y819400D02*
D03*
X340367Y799080D02*
D03*
Y819400D02*
D03*
D30*
X1153160Y580010D02*
D03*
Y598550D02*
D03*
X1356360Y574930D02*
D03*
Y593470D02*
D03*
X424180Y543340D02*
D03*
Y561880D02*
D03*
Y482760D02*
D03*
Y501300D02*
D03*
D31*
X1653180Y662940D02*
D03*
X1608180D02*
D03*
D32*
X1501940Y525550D02*
D03*
Y512850D02*
D03*
Y500150D02*
D03*
Y487450D02*
D03*
Y474750D02*
D03*
Y462050D02*
D03*
Y449350D02*
D03*
Y436650D02*
D03*
X1555940Y525550D02*
D03*
Y512850D02*
D03*
Y500150D02*
D03*
Y487450D02*
D03*
Y474750D02*
D03*
Y462050D02*
D03*
Y449350D02*
D03*
Y436650D02*
D03*
D33*
X213360Y429260D02*
D03*
X226060D02*
D03*
X238760D02*
D03*
X251460D02*
D03*
X264160D02*
D03*
X276860D02*
D03*
X289560D02*
D03*
X302260D02*
D03*
X213360Y487260D02*
D03*
X226060D02*
D03*
X238760D02*
D03*
X251460D02*
D03*
X264160D02*
D03*
X276860D02*
D03*
X289560D02*
D03*
X302260D02*
D03*
D34*
X380360Y554990D02*
D03*
Y535990D02*
D03*
X403860Y545490D02*
D03*
X381000Y497180D02*
D03*
Y478180D02*
D03*
X404500Y487680D02*
D03*
D35*
X418320Y444500D02*
D03*
X384320D02*
D03*
D36*
X980004Y541456D02*
D03*
X965636Y555824D02*
D03*
X729416Y446604D02*
D03*
X743784Y432236D02*
D03*
X747196Y461844D02*
D03*
X761564Y447476D02*
D03*
X962224Y523676D02*
D03*
X947856Y538044D02*
D03*
D37*
X811803Y536813D02*
D03*
X815339Y540349D02*
D03*
X881806Y445596D02*
D03*
X878271Y442061D02*
D03*
X840087Y565097D02*
D03*
X787054Y512064D02*
D03*
X790590Y515600D02*
D03*
X794125Y519135D02*
D03*
X797661Y522671D02*
D03*
X801196Y526207D02*
D03*
X804732Y529742D02*
D03*
X808267Y533278D02*
D03*
X818874Y543884D02*
D03*
X822410Y547420D02*
D03*
X825945Y550955D02*
D03*
X829481Y554491D02*
D03*
X833016Y558026D02*
D03*
X836552Y561562D02*
D03*
X920697Y484487D02*
D03*
X917162Y480952D02*
D03*
X913626Y477416D02*
D03*
X910091Y473881D02*
D03*
X906555Y470345D02*
D03*
X903020Y466810D02*
D03*
X899484Y463274D02*
D03*
X895949Y459739D02*
D03*
X892413Y456203D02*
D03*
X888878Y452667D02*
D03*
X885342Y449132D02*
D03*
X874735Y438525D02*
D03*
X871200Y434990D02*
D03*
X867664Y431454D02*
D03*
D38*
X913626Y519135D02*
D03*
X917162Y515600D02*
D03*
X808267Y463274D02*
D03*
X804732Y466810D02*
D03*
X867664Y565097D02*
D03*
X801196Y470345D02*
D03*
X797661Y473881D02*
D03*
X787054Y484487D02*
D03*
X871200Y561562D02*
D03*
X874735Y558026D02*
D03*
X878271Y554491D02*
D03*
X881806Y550955D02*
D03*
X885342Y547420D02*
D03*
X888877Y543884D02*
D03*
X892413Y540349D02*
D03*
X895949Y536813D02*
D03*
X899484Y533278D02*
D03*
X903020Y529742D02*
D03*
X906555Y526207D02*
D03*
X910091Y522671D02*
D03*
X920697Y512064D02*
D03*
X840087Y431454D02*
D03*
X836552Y434990D02*
D03*
X833016Y438525D02*
D03*
X829481Y442061D02*
D03*
X825945Y445596D02*
D03*
X822410Y449132D02*
D03*
X818874Y452667D02*
D03*
X815339Y456203D02*
D03*
X811803Y459739D02*
D03*
X794125Y477416D02*
D03*
X790590Y480952D02*
D03*
D39*
X1010920Y728980D02*
D03*
Y638980D02*
D03*
X965920D02*
D03*
Y728980D02*
D03*
D40*
X759024Y586304D02*
D03*
X744656Y571936D02*
D03*
X889436Y399216D02*
D03*
X903804Y413584D02*
D03*
X743784Y601544D02*
D03*
X729416Y587176D02*
D03*
X904676Y383976D02*
D03*
X919044Y398344D02*
D03*
D41*
X318160Y328500D02*
D03*
X337160D02*
D03*
Y306500D02*
D03*
X665480Y327660D02*
D03*
X684480D02*
D03*
Y305660D02*
D03*
X1013460Y327660D02*
D03*
X1032460D02*
D03*
Y305660D02*
D03*
X1361440Y327660D02*
D03*
X1380440D02*
D03*
Y305660D02*
D03*
X1709420Y327660D02*
D03*
X1728420D02*
D03*
Y305660D02*
D03*
X229260Y328500D02*
D03*
X248260D02*
D03*
Y306500D02*
D03*
X580440Y327660D02*
D03*
X599440D02*
D03*
Y305660D02*
D03*
X928420Y327660D02*
D03*
X947420D02*
D03*
Y305660D02*
D03*
X1276400Y327660D02*
D03*
X1295400D02*
D03*
Y305660D02*
D03*
X1624380Y327660D02*
D03*
X1643380D02*
D03*
Y305660D02*
D03*
X142900Y328500D02*
D03*
X161900D02*
D03*
Y306500D02*
D03*
X493420Y328500D02*
D03*
X512420D02*
D03*
Y306500D02*
D03*
X841400Y325960D02*
D03*
X860400D02*
D03*
Y303960D02*
D03*
X1189380Y325960D02*
D03*
X1208380D02*
D03*
Y303960D02*
D03*
X1537360Y325960D02*
D03*
X1556360D02*
D03*
Y303960D02*
D03*
X60960Y327660D02*
D03*
X79960D02*
D03*
Y305660D02*
D03*
X411480Y327660D02*
D03*
X430480D02*
D03*
Y305660D02*
D03*
X759460Y325120D02*
D03*
X778460D02*
D03*
Y303120D02*
D03*
X1107440Y325120D02*
D03*
X1126440D02*
D03*
Y303120D02*
D03*
X1455420Y325120D02*
D03*
X1474420D02*
D03*
Y303120D02*
D03*
X1443337Y798240D02*
D03*
X1424337D02*
D03*
Y820240D02*
D03*
X1100437Y798240D02*
D03*
X1081437D02*
D03*
Y820240D02*
D03*
X754997Y798240D02*
D03*
X735997D02*
D03*
Y820240D02*
D03*
X409557Y798240D02*
D03*
X390557D02*
D03*
Y820240D02*
D03*
X66657Y798240D02*
D03*
X47657D02*
D03*
Y820240D02*
D03*
X1525887Y798240D02*
D03*
X1506887D02*
D03*
Y820240D02*
D03*
X1182987Y798240D02*
D03*
X1163987D02*
D03*
Y820240D02*
D03*
X837547Y798240D02*
D03*
X818547D02*
D03*
Y820240D02*
D03*
X492107Y798240D02*
D03*
X473107D02*
D03*
Y820240D02*
D03*
X149207Y798240D02*
D03*
X130207D02*
D03*
Y820240D02*
D03*
X1610977Y798240D02*
D03*
X1591977D02*
D03*
Y820240D02*
D03*
X1268077Y798240D02*
D03*
X1249077D02*
D03*
Y820240D02*
D03*
X922637Y798240D02*
D03*
X903637D02*
D03*
Y820240D02*
D03*
X577197Y798240D02*
D03*
X558197D02*
D03*
Y820240D02*
D03*
X234297Y798240D02*
D03*
X215297D02*
D03*
Y820240D02*
D03*
X1696067Y798240D02*
D03*
X1677067D02*
D03*
Y820240D02*
D03*
X1353167Y798240D02*
D03*
X1334167D02*
D03*
Y820240D02*
D03*
X1007727Y798240D02*
D03*
X988727D02*
D03*
Y820240D02*
D03*
X662287Y798240D02*
D03*
X643287D02*
D03*
Y820240D02*
D03*
X319387Y798240D02*
D03*
X300387D02*
D03*
Y820240D02*
D03*
D42*
X320160Y306500D02*
D03*
X667480Y305660D02*
D03*
X1015460D02*
D03*
X1363440D02*
D03*
X1711420D02*
D03*
X231260Y306500D02*
D03*
X582440Y305660D02*
D03*
X930420D02*
D03*
X1278400D02*
D03*
X1626380D02*
D03*
X144900Y306500D02*
D03*
X495420D02*
D03*
X843400Y303960D02*
D03*
X1191380D02*
D03*
X1539360D02*
D03*
X62960Y305660D02*
D03*
X413480D02*
D03*
X761460Y303120D02*
D03*
X1109440D02*
D03*
X1457420D02*
D03*
X1441337Y820240D02*
D03*
X1098437D02*
D03*
X752997D02*
D03*
X407557D02*
D03*
X64657D02*
D03*
X1523887D02*
D03*
X1180987D02*
D03*
X835547D02*
D03*
X490107D02*
D03*
X147207D02*
D03*
X1608977D02*
D03*
X1266077D02*
D03*
X920637D02*
D03*
X575197D02*
D03*
X232297D02*
D03*
X1694067D02*
D03*
X1351167D02*
D03*
X1005727D02*
D03*
X660287D02*
D03*
X317387D02*
D03*
D43*
X337760Y269600D02*
D03*
X292160D02*
D03*
X688280D02*
D03*
X642680D02*
D03*
X1036260Y267060D02*
D03*
X990660D02*
D03*
X1384240D02*
D03*
X1338640D02*
D03*
X1732220D02*
D03*
X1686620D02*
D03*
X251400Y270240D02*
D03*
X205800D02*
D03*
X601920D02*
D03*
X556320D02*
D03*
X949900Y267700D02*
D03*
X904300D02*
D03*
X1297880D02*
D03*
X1252280D02*
D03*
X1645860D02*
D03*
X1600260D02*
D03*
X165040Y270240D02*
D03*
X119440D02*
D03*
X515560D02*
D03*
X469960D02*
D03*
X863540Y267700D02*
D03*
X817940D02*
D03*
X1211520D02*
D03*
X1165920D02*
D03*
X1559500D02*
D03*
X1513900D02*
D03*
X81220Y269600D02*
D03*
X35620D02*
D03*
X431740D02*
D03*
X386140D02*
D03*
X779720Y267060D02*
D03*
X734120D02*
D03*
X1127700D02*
D03*
X1082100D02*
D03*
X1475680D02*
D03*
X1430080D02*
D03*
X1423737Y851150D02*
D03*
X1469337D02*
D03*
X1080837D02*
D03*
X1126437D02*
D03*
X735397D02*
D03*
X780997D02*
D03*
X389957D02*
D03*
X435557D02*
D03*
X47057D02*
D03*
X92657D02*
D03*
X1507537D02*
D03*
X1553137D02*
D03*
X1164637D02*
D03*
X1210237D02*
D03*
X819197D02*
D03*
X864797D02*
D03*
X473757D02*
D03*
X519357D02*
D03*
X130857D02*
D03*
X176457D02*
D03*
X1591337D02*
D03*
X1636937D02*
D03*
X1248437D02*
D03*
X1294037D02*
D03*
X902997D02*
D03*
X948597D02*
D03*
X557557D02*
D03*
X603157D02*
D03*
X214657D02*
D03*
X260257D02*
D03*
X1675137D02*
D03*
X1720737D02*
D03*
X1332237D02*
D03*
X1377837D02*
D03*
X986797D02*
D03*
X1032397D02*
D03*
X641357D02*
D03*
X686957D02*
D03*
X298457D02*
D03*
X344057D02*
D03*
D44*
X314960Y205100D02*
D03*
X665480D02*
D03*
X1013460Y202560D02*
D03*
X1361440D02*
D03*
X1709420D02*
D03*
X228600Y205740D02*
D03*
X579120D02*
D03*
X927100Y203200D02*
D03*
X1275080D02*
D03*
X1623060D02*
D03*
X142240Y205740D02*
D03*
X492760D02*
D03*
X840740Y203200D02*
D03*
X1188720D02*
D03*
X1536700D02*
D03*
X58420Y205100D02*
D03*
X408940D02*
D03*
X756920Y202560D02*
D03*
X1104900D02*
D03*
X1452880D02*
D03*
X1446537Y915650D02*
D03*
X1103637D02*
D03*
X758197D02*
D03*
X412757D02*
D03*
X69857D02*
D03*
X1530337D02*
D03*
X1187437D02*
D03*
X841997D02*
D03*
X496557D02*
D03*
X153657D02*
D03*
X1614137D02*
D03*
X1271237D02*
D03*
X925797D02*
D03*
X580357D02*
D03*
X237457D02*
D03*
X1697937D02*
D03*
X1355037D02*
D03*
X1009597D02*
D03*
X664157D02*
D03*
X321257D02*
D03*
D45*
X460248Y694690D02*
D03*
Y681990D02*
D03*
Y669290D02*
D03*
Y656590D02*
D03*
X403352D02*
D03*
Y669290D02*
D03*
Y681990D02*
D03*
Y694690D02*
D03*
D80*
X38100Y80000D02*
D03*
X68580D02*
D03*
X53340D02*
D03*
X83820D02*
D03*
X388620D02*
D03*
X419100D02*
D03*
X403860D02*
D03*
X434340D02*
D03*
X736600D02*
D03*
X767080D02*
D03*
X751840D02*
D03*
X782320D02*
D03*
X1084580D02*
D03*
X1115060D02*
D03*
X1099820D02*
D03*
X1130300D02*
D03*
X1432560D02*
D03*
X1463040D02*
D03*
X1447800D02*
D03*
X1478280D02*
D03*
X1460500Y1020000D02*
D03*
X1430020D02*
D03*
X1445260D02*
D03*
X1414780D02*
D03*
X1117600D02*
D03*
X1087120D02*
D03*
X1102360D02*
D03*
X1071880D02*
D03*
X772160D02*
D03*
X741680D02*
D03*
X756920D02*
D03*
X726440D02*
D03*
X426720D02*
D03*
X396240D02*
D03*
X411480D02*
D03*
X381000D02*
D03*
X83820D02*
D03*
X53340D02*
D03*
X68580D02*
D03*
X38100D02*
D03*
D82*
X749300Y287020D02*
Y297180D01*
X904240Y726210D02*
X904470Y726440D01*
X904240Y690868D02*
Y726210D01*
X910098Y685010D02*
X921020D01*
X922020Y683260D02*
Y684010D01*
X921020Y685010D02*
X922020Y684010D01*
X904240Y690868D02*
X910098Y685010D01*
X40640Y782511D02*
X47657Y789528D01*
Y798240D01*
X40640Y782320D02*
Y782511D01*
X83820Y1020000D02*
Y1023620D01*
Y978650D02*
Y1020000D01*
X426720D02*
Y1023620D01*
Y977900D02*
Y1020000D01*
X772160D02*
Y1023620D01*
Y977900D02*
Y1020000D01*
X1117600D02*
Y1023620D01*
Y977900D02*
Y1020000D01*
X83820Y978650D02*
X86360Y976110D01*
Y975360D02*
Y976110D01*
X113538Y986520D02*
X140707D01*
X107680Y980662D02*
X113538Y986520D01*
X107680Y975445D02*
Y980662D01*
X140707Y986520D02*
X182887Y1028700D01*
X107595Y953388D02*
Y975360D01*
X107680Y975445D01*
X96857Y942650D02*
X107595Y953388D01*
X69857Y915650D02*
Y918650D01*
X93857Y942650D01*
X96857D01*
X179540D02*
X187960Y951070D01*
Y972820D01*
X177657Y942650D02*
X179540D01*
X153657Y918650D02*
X177657Y942650D01*
X153657Y915650D02*
Y918650D01*
X188960Y973820D02*
Y983973D01*
X233687Y1028700D01*
X187960Y972820D02*
X188960Y973820D01*
X284487Y990600D02*
Y1028700D01*
Y965680D02*
Y990600D01*
X261457Y942650D02*
X284487Y965680D01*
X546998Y966092D02*
X550180Y969273D01*
X390557Y820240D02*
Y850550D01*
X1661167Y965680D02*
Y1028700D01*
X1633213Y937727D02*
X1661167Y965680D01*
X1633213Y934727D02*
Y937727D01*
X1315720Y965200D02*
Y1026153D01*
X1295237Y944717D02*
X1315720Y965200D01*
X432557Y819400D02*
X435557Y822400D01*
X431387Y819820D02*
X431807Y819400D01*
X432557D01*
X517217Y820240D02*
X519357Y822380D01*
X504137Y820240D02*
X517217D01*
X587957Y819820D02*
Y834443D01*
X600197Y819400D02*
X603157Y822360D01*
X504137Y820240D02*
Y834443D01*
X599447Y819400D02*
X600197D01*
X599027Y819820D02*
X599447Y819400D01*
X420317Y819820D02*
Y834443D01*
X435557Y822400D02*
Y851150D01*
X520557Y942650D02*
X523557D01*
X519357Y822380D02*
Y851150D01*
X604357Y939650D02*
Y944717D01*
X603157Y822360D02*
Y851150D01*
X678187Y947460D02*
Y1027430D01*
X664157Y915650D02*
X678187Y929680D01*
X686957Y822340D02*
Y835660D01*
X684017Y819400D02*
X686957Y822340D01*
X683267Y819400D02*
X684017D01*
X407557Y820240D02*
X407977Y819820D01*
X420317D02*
X431387D01*
X407977D02*
X420317D01*
X390557Y798240D02*
Y798660D01*
X504137Y819820D02*
Y820240D01*
X490107D02*
X504137D01*
X473107Y850500D02*
X473757Y851150D01*
X473107Y820240D02*
Y850500D01*
X575197Y820240D02*
X575617Y819820D01*
X587957D02*
X599027D01*
X575617D02*
X587957D01*
X557557Y851150D02*
X558197Y850510D01*
Y820240D02*
Y850510D01*
X643287Y820240D02*
Y849220D01*
X641357Y851150D02*
X643287Y849220D01*
X683263Y799077D02*
X683267Y799080D01*
X643287Y798240D02*
Y798660D01*
X619760D02*
X643287D01*
X599447Y799080D02*
X599867Y798660D01*
X535940D02*
X558197D01*
X599867D02*
X619760D01*
X558197Y798240D02*
Y798660D01*
X683263Y782323D02*
Y799077D01*
X619760Y782320D02*
Y798660D01*
X683260Y782320D02*
X683263Y782323D01*
X535940Y782320D02*
Y798660D01*
X515627Y799080D02*
X516047Y798660D01*
X431807Y799080D02*
X432227Y798660D01*
X452667D02*
X473107D01*
X452120Y798113D02*
X452667Y798660D01*
X432227D02*
X452667D01*
X516047D02*
X535940D01*
X473107Y798240D02*
Y798660D01*
X452120Y782320D02*
Y798113D01*
X464820Y990600D02*
X487687D01*
X525787Y1028700D01*
X431012Y956792D02*
X464820Y990600D01*
X431012Y933905D02*
Y956792D01*
X412757Y915650D02*
X431012Y933905D01*
X574040Y1026153D02*
X576587Y1028700D01*
X574040Y997470D02*
Y1026153D01*
X553680Y977110D02*
X574040Y997470D01*
X552180Y975610D02*
Y977110D01*
X550180Y973610D02*
X552180Y975610D01*
X550180Y969273D02*
Y973610D01*
X523557Y942650D02*
X546998Y966092D01*
X496557Y918650D02*
X520557Y942650D01*
X496557Y915650D02*
Y918650D01*
X624840Y1026153D02*
X627387Y1028700D01*
X623840Y974000D02*
X624840Y975000D01*
Y980456D02*
Y1026153D01*
X623840Y964200D02*
Y974000D01*
X604357Y944717D02*
X623840Y964200D01*
X580357Y915650D02*
X604357Y939650D01*
X1466337Y819400D02*
X1469337Y822400D01*
X1465167Y819820D02*
X1465587Y819400D01*
X1466337D01*
X1550997Y820240D02*
X1553137Y822380D01*
X1537917Y820240D02*
X1550997D01*
X1621737Y819820D02*
Y834443D01*
X1633977Y819400D02*
X1636937Y822360D01*
X1537917Y820240D02*
Y834443D01*
X1632807Y819820D02*
X1633227Y819400D01*
X1633977D01*
X1454097Y819820D02*
Y834443D01*
X1469337Y822400D02*
Y851150D01*
X1554337Y942650D02*
X1557337D01*
X1553137Y822380D02*
Y851150D01*
X1636937Y822360D02*
Y851150D01*
X1711967Y947460D02*
Y1027430D01*
X1697937Y915650D02*
X1711967Y929680D01*
X1720737Y822340D02*
Y835660D01*
X1717797Y819400D02*
X1720737Y822340D01*
X1717047Y819400D02*
X1717797D01*
X1441337Y820240D02*
X1441757Y819820D01*
X1454097D02*
X1465167D01*
X1441757D02*
X1454097D01*
X1423737Y820840D02*
Y851150D01*
Y820840D02*
X1424337Y820240D01*
Y798240D02*
Y798660D01*
X1537917Y819820D02*
Y820240D01*
X1523887D02*
X1537917D01*
X1506887Y850500D02*
X1507537Y851150D01*
X1506887Y820240D02*
Y850500D01*
X1621737Y819820D02*
X1632807D01*
X1609397D02*
X1621737D01*
X1608977Y820240D02*
X1609397Y819820D01*
X1591337Y851150D02*
X1591977Y850510D01*
Y820240D02*
Y850510D01*
X1677067Y820240D02*
Y849220D01*
X1675137Y851150D02*
X1677067Y849220D01*
X1717043Y799077D02*
X1717047Y799080D01*
X1677067Y798240D02*
Y798660D01*
X1653540D02*
X1677067D01*
X1633227Y799080D02*
X1633647Y798660D01*
X1569720D02*
X1591977D01*
X1633647D02*
X1653540D01*
X1591977Y798240D02*
Y798660D01*
X1717043Y782323D02*
Y799077D01*
X1653540Y782320D02*
Y798660D01*
X1569720Y782320D02*
Y798660D01*
X1717040Y782320D02*
X1717043Y782323D01*
X1549407Y799080D02*
X1549827Y798660D01*
X1465587Y799080D02*
X1466007Y798660D01*
X1486447D02*
X1506887D01*
X1485900Y798113D02*
X1486447Y798660D01*
X1466007D02*
X1486447D01*
X1549827D02*
X1569720D01*
X1506887Y798240D02*
Y798660D01*
X1485900Y782320D02*
Y798113D01*
X1460500Y977900D02*
Y1020000D01*
X1498600Y990600D02*
X1521467D01*
X1559567Y1028700D01*
X1464792Y956792D02*
X1498600Y990600D01*
X1464792Y933905D02*
Y956792D01*
X1446537Y915650D02*
X1464792Y933905D01*
X1607820Y1026153D02*
X1610367Y1028700D01*
X1607820Y997470D02*
Y1026153D01*
X1587460Y977110D02*
X1607820Y997470D01*
X1585960Y975610D02*
Y977110D01*
X1583960Y973610D02*
X1585960Y975610D01*
X1583960Y969273D02*
Y973610D01*
X1557337Y942650D02*
X1583960Y969273D01*
X1530337Y918650D02*
X1554337Y942650D01*
X1530337Y915650D02*
Y918650D01*
X1658620Y1026153D02*
X1661167Y1028700D01*
X1658620Y980456D02*
Y1026153D01*
X1123437Y819400D02*
X1126437Y822400D01*
X1122267Y819820D02*
X1122687Y819400D01*
X1123437D01*
X1208097Y820240D02*
X1210237Y822380D01*
X1195017Y820240D02*
X1208097D01*
X1278837Y819820D02*
Y834443D01*
X1291077Y819400D02*
X1294037Y822360D01*
X1195017Y820240D02*
Y834443D01*
X1289907Y819820D02*
X1290327Y819400D01*
X1291077D01*
X1111197Y819820D02*
Y834443D01*
X1126437Y822400D02*
Y851150D01*
X1211437Y942650D02*
X1214437D01*
X1210237Y822380D02*
Y851150D01*
X1295237Y939650D02*
Y944717D01*
X1294037Y822360D02*
Y851150D01*
X1369067Y947460D02*
Y1027430D01*
X1355037Y915650D02*
X1369067Y929680D01*
X1377837Y822340D02*
Y835660D01*
X1374897Y819400D02*
X1377837Y822340D01*
X1374147Y819400D02*
X1374897D01*
X1098437Y820240D02*
X1098857Y819820D01*
X1111197D02*
X1122267D01*
X1098857D02*
X1111197D01*
X1080837Y820840D02*
Y851150D01*
Y820840D02*
X1081437Y820240D01*
Y798240D02*
Y798660D01*
X1195017Y819820D02*
Y820240D01*
X1180987D02*
X1195017D01*
X1163987Y850500D02*
X1164637Y851150D01*
X1163987Y820240D02*
Y850500D01*
X1278837Y819820D02*
X1289907D01*
X1266497D02*
X1278837D01*
X1266077Y820240D02*
X1266497Y819820D01*
X1248437Y851150D02*
X1249077Y850510D01*
Y820240D02*
Y850510D01*
X1334167Y820240D02*
Y849220D01*
X1332237Y851150D02*
X1334167Y849220D01*
X1374143Y799077D02*
X1374147Y799080D01*
X1310640Y798660D02*
X1334167D01*
X1290327Y799080D02*
X1290747Y798660D01*
X1226820D02*
X1249077D01*
X1290747D02*
X1310640D01*
X1249077Y798240D02*
Y798660D01*
X1374143Y782323D02*
Y799077D01*
X1334167Y798240D02*
Y798660D01*
X1310640Y782320D02*
Y798660D01*
X1226820Y782320D02*
Y798660D01*
X1374140Y782320D02*
X1374143Y782323D01*
X1206507Y799080D02*
X1206927Y798660D01*
X1122687Y799080D02*
X1123107Y798660D01*
X1143547D02*
X1163987D01*
X1143000Y798113D02*
X1143547Y798660D01*
X1123107D02*
X1143547D01*
X1206927D02*
X1226820D01*
X1163987Y798240D02*
Y798660D01*
X1143000Y782320D02*
Y798113D01*
X1155700Y990600D02*
X1178567D01*
X1216667Y1028700D01*
X1121892Y956792D02*
X1155700Y990600D01*
X1121892Y933905D02*
Y956792D01*
X1103637Y915650D02*
X1121892Y933905D01*
X1264920Y1026153D02*
X1267467Y1028700D01*
X1264920Y997470D02*
Y1026153D01*
X1244560Y977110D02*
X1264920Y997470D01*
X1243060Y975610D02*
Y977110D01*
X1241060Y973610D02*
X1243060Y975610D01*
X1241060Y969273D02*
Y973610D01*
X1214437Y942650D02*
X1241060Y969273D01*
X1187437Y918650D02*
X1211437Y942650D01*
X1187437Y915650D02*
Y918650D01*
X1315720Y1026153D02*
X1318267Y1028700D01*
X1271237Y915650D02*
X1295237Y939650D01*
X925797Y915650D02*
X949797Y939650D01*
Y944717D01*
X969280Y964200D02*
Y974000D01*
X949797Y944717D02*
X969280Y964200D01*
Y974000D02*
X970280Y975000D01*
Y1026153D02*
X972827Y1028700D01*
X970280Y980456D02*
Y1026153D01*
X899120Y977110D02*
X919480Y997470D01*
Y1026153D01*
X922027Y1028700D01*
X868997Y942650D02*
X895620Y969273D01*
Y973610D02*
X897620Y975610D01*
X895620Y969273D02*
Y973610D01*
X897620Y975610D02*
Y977110D01*
X841997Y915650D02*
Y918650D01*
X865997Y942650D01*
X868997D01*
X776452Y956792D02*
X810260Y990600D01*
X833127D01*
X871227Y1028700D01*
X758197Y915650D02*
X776452Y933905D01*
Y956792D01*
X1728420Y329860D02*
X1735863Y337303D01*
X1744463D01*
X1744980Y337820D01*
X1728420Y327660D02*
Y329860D01*
X1374560Y798660D02*
X1424337D01*
X1406643Y339843D02*
X1412447D01*
X1028707Y799080D02*
X1081437D01*
X965200Y798660D02*
X988727D01*
X881380D02*
X903637D01*
X1380440Y327320D02*
X1382640D01*
X1032460D02*
X1034660D01*
X798107Y798660D02*
X818547D01*
X683680D02*
X735997D01*
X340363Y799077D02*
X340780Y798660D01*
X109767D02*
X130207D01*
X340780D02*
X390557D01*
X276860D02*
X300387D01*
X193040D02*
X215297D01*
X684480Y329860D02*
X686680D01*
X333960Y327660D02*
Y329860D01*
X248920Y327660D02*
Y332740D01*
X1643380Y327660D02*
Y330200D01*
Y325120D02*
Y327660D01*
X1295400D02*
Y330200D01*
Y325120D02*
Y327660D01*
X947420D02*
Y330200D01*
X1506232Y337803D02*
X1512090Y331945D01*
X1513090Y327660D02*
X1513840D01*
X1512090Y328660D02*
X1513090Y327660D01*
X1686560Y304800D02*
X1686590Y304770D01*
Y267090D02*
Y304770D01*
Y267090D02*
X1686620Y267060D01*
X1600200Y304800D02*
X1600230Y304770D01*
Y267730D02*
Y304770D01*
Y267730D02*
X1600260Y267700D01*
X1513840Y307340D02*
X1513870Y307310D01*
Y267730D02*
Y307310D01*
Y267730D02*
X1513900Y267700D01*
X1430020Y304800D02*
X1430050Y304770D01*
Y267090D02*
Y304770D01*
Y267090D02*
X1430080Y267060D01*
X1701800Y304800D02*
X1710420D01*
X1686560D02*
X1701800D01*
X1711420Y303120D02*
Y303800D01*
X1732220Y267060D02*
Y297120D01*
X1728420Y300920D02*
Y303120D01*
Y300920D02*
X1732220Y297120D01*
X1625380Y304800D02*
X1626380Y303800D01*
X1615440Y304800D02*
X1625380D01*
X1600200D02*
X1615440D01*
X1626380Y303120D02*
Y303800D01*
X1643380Y300920D02*
X1645860Y298440D01*
X1643380Y300920D02*
Y303120D01*
X1645860Y267700D02*
Y298440D01*
X1513840Y307340D02*
X1537180D01*
X1539360Y303960D02*
Y305160D01*
X1556360Y301760D02*
X1559500Y298620D01*
X1556360Y301760D02*
Y303960D01*
X1559500Y267700D02*
Y298620D01*
X1701800Y287020D02*
Y304800D01*
X1537180Y307340D02*
X1539360Y305160D01*
X1529080Y287020D02*
Y304800D01*
X1710420D02*
X1711420Y303800D01*
X1615440Y287020D02*
Y304800D01*
X1430020D02*
X1445260D01*
Y287020D02*
Y304800D01*
X1456420D02*
X1457420Y303800D01*
Y303120D02*
Y303800D01*
X1445260Y304800D02*
X1456420D01*
X1474420Y300920D02*
X1475680Y299660D01*
X1474420Y300920D02*
Y303120D01*
X1475680Y267060D02*
Y299660D01*
X1493520Y337820D02*
X1493537Y337803D01*
X1506232D01*
X1663700Y337820D02*
X1663717Y337803D01*
X1676417D01*
X1663183Y337303D02*
X1663700Y337820D01*
X1650483Y337303D02*
X1663183D01*
X1577340Y337820D02*
X1577357Y337803D01*
X1576823Y337303D02*
X1577340Y337820D01*
X1577357Y337803D02*
X1592597D01*
X1564123Y337303D02*
X1576823D01*
X1676417Y337803D02*
X1684650Y329570D01*
X1592597Y337803D02*
X1600083Y330317D01*
X1643380Y330200D02*
X1650483Y337303D01*
X1556360Y329540D02*
X1564123Y337303D01*
X1556360Y325960D02*
Y329540D01*
X1411930Y337820D02*
X1412447Y337303D01*
X1493003D02*
X1493520Y337820D01*
X1480303Y337303D02*
X1493003D01*
X1412447D02*
X1417087D01*
X1512090Y328660D02*
Y331945D01*
X1474420Y331420D02*
X1480303Y337303D01*
X1417087D02*
X1428270Y326120D01*
X1474420Y325120D02*
Y331420D01*
X1429020Y326120D02*
X1430020Y325120D01*
X1428270Y326120D02*
X1429020D01*
X1158252Y337803D02*
X1164110Y331945D01*
X1165110Y327660D02*
X1165860D01*
X1164110Y328660D02*
X1165110Y327660D01*
X1338580Y304800D02*
X1338610Y304770D01*
Y267090D02*
Y304770D01*
Y267090D02*
X1338640Y267060D01*
X1252220Y304800D02*
X1252250Y304770D01*
Y267730D02*
Y304770D01*
Y267730D02*
X1252280Y267700D01*
X1165860Y307340D02*
X1165890Y307310D01*
Y267730D02*
Y307310D01*
Y267730D02*
X1165920Y267700D01*
X1082040Y304800D02*
X1082070Y304770D01*
Y267090D02*
Y304770D01*
Y267090D02*
X1082100Y267060D01*
X1353820Y304800D02*
X1362440D01*
X1338580D02*
X1353820D01*
X1363440Y303120D02*
Y303800D01*
X1384240Y267060D02*
Y297120D01*
X1380440Y300920D02*
Y303120D01*
Y300920D02*
X1384240Y297120D01*
X1277400Y304800D02*
X1278400Y303800D01*
X1267460Y304800D02*
X1277400D01*
X1278400Y303120D02*
Y303800D01*
X1252220Y304800D02*
X1267460D01*
X1295400Y300920D02*
X1297880Y298440D01*
X1295400Y300920D02*
Y303120D01*
X1297880Y267700D02*
Y298440D01*
X1165860Y307340D02*
X1189200D01*
X1191380Y303960D02*
Y305160D01*
X1208380Y301760D02*
X1211520Y298620D01*
X1208380Y301760D02*
Y303960D01*
X1211520Y267700D02*
Y298620D01*
X1353820Y287020D02*
Y304800D01*
X1189200Y307340D02*
X1191380Y305160D01*
X1181100Y287020D02*
Y304800D01*
X1362440D02*
X1363440Y303800D01*
X1267460Y287020D02*
Y304800D01*
X1082040D02*
X1097280D01*
X1108440D01*
X1109440Y303800D01*
Y303120D02*
Y303800D01*
X1097280Y287020D02*
Y304800D01*
X1126440Y300920D02*
X1127700Y299660D01*
X1126440Y300920D02*
Y303120D01*
X1127700Y267060D02*
Y299660D01*
X1315720Y337820D02*
X1315737Y337803D01*
X1390158Y337820D02*
X1407160D01*
X1229377Y337803D02*
X1244617D01*
X1229360Y337820D02*
X1229377Y337803D01*
X1145557D02*
X1158252D01*
X1315737D02*
X1328437D01*
X1406643Y337303D02*
X1407160Y337820D01*
X1315203Y337303D02*
X1315720Y337820D01*
X1392623Y337303D02*
X1406643D01*
X1302503D02*
X1315203D01*
X1145540Y337820D02*
X1145557Y337803D01*
X1228843Y337303D02*
X1229360Y337820D01*
X1216143Y337303D02*
X1228843D01*
X1328437Y337803D02*
X1336670Y329570D01*
X1382640Y327320D02*
X1392623Y337303D01*
X1295400Y330200D02*
X1302503Y337303D01*
X1244617Y337803D02*
X1252103Y330317D01*
X1208380Y329540D02*
X1216143Y337303D01*
X1380440Y325120D02*
Y327320D01*
X1208380Y325960D02*
Y329540D01*
X1164110Y328660D02*
Y331945D01*
X1063950Y337820D02*
X1064467Y337303D01*
X1145023D02*
X1145540Y337820D01*
X1132323Y337303D02*
X1145023D01*
X1064467D02*
X1069107D01*
X1126440Y331420D02*
X1132323Y337303D01*
X1069107D02*
X1080290Y326120D01*
X1126440Y325120D02*
Y331420D01*
X1081040Y326120D02*
X1082040Y325120D01*
X1080290Y326120D02*
X1081040D01*
X990600Y304800D02*
X990630Y304770D01*
X810272Y337803D02*
X816130Y331945D01*
X817130Y327660D02*
X817880D01*
X816130Y328660D02*
X817130Y327660D01*
X990630Y267090D02*
Y304770D01*
Y267090D02*
X990660Y267060D01*
X904240Y304800D02*
X904270Y304770D01*
Y267730D02*
Y304770D01*
Y267730D02*
X904300Y267700D01*
X817880Y307340D02*
X817910Y307310D01*
Y267730D02*
Y307310D01*
Y267730D02*
X817940Y267700D01*
X734060Y304800D02*
X734090Y304770D01*
Y267090D02*
Y304770D01*
Y267090D02*
X734120Y267060D01*
X1005840Y304800D02*
X1014460D01*
X1015460Y303800D01*
Y303120D02*
Y303800D01*
X990600Y304800D02*
X1005840D01*
X1036260Y267060D02*
Y297120D01*
X1032460Y300920D02*
Y303120D01*
Y300920D02*
X1036260Y297120D01*
X929420Y304800D02*
X930420Y303800D01*
X919480Y304800D02*
X929420D01*
X930420Y303120D02*
Y303800D01*
X904240Y304800D02*
X919480D01*
X947420Y300920D02*
X949900Y298440D01*
X947420Y300920D02*
Y303120D01*
X949900Y267700D02*
Y298440D01*
X843400Y303960D02*
Y305160D01*
X817880Y307340D02*
X841220D01*
X860400Y301760D02*
X863540Y298620D01*
X860400Y301760D02*
Y303960D01*
X863540Y267700D02*
Y298620D01*
X841220Y307340D02*
X843400Y305160D01*
X1005840Y287020D02*
Y304800D01*
X833120Y287020D02*
Y304800D01*
X919480Y287020D02*
Y304800D01*
X734060D02*
X749300D01*
X760460D02*
X761460Y303800D01*
Y303120D02*
Y303800D01*
X749300Y304800D02*
X760460D01*
X778460Y300920D02*
X779720Y299660D01*
X778460Y300920D02*
Y303120D01*
X779720Y267060D02*
Y299660D01*
X1042178Y337820D02*
X1059180D01*
X967757Y337803D02*
X980457D01*
X967740Y337820D02*
X967757Y337803D01*
X881380Y337820D02*
X881397Y337803D01*
X967223Y337303D02*
X967740Y337820D01*
X880863Y337303D02*
X881380Y337820D01*
X954523Y337303D02*
X967223D01*
X881397Y337803D02*
X896637D01*
X797560Y337820D02*
X797577Y337803D01*
X868163Y337303D02*
X880863D01*
X797577Y337803D02*
X810272D01*
X980457D02*
X988690Y329570D01*
X1034660Y327320D02*
X1044643Y337303D01*
X947420Y330200D02*
X954523Y337303D01*
X896637Y337803D02*
X904123Y330317D01*
X860400Y329540D02*
X868163Y337303D01*
X1032460Y325120D02*
Y327320D01*
X860400Y325960D02*
Y329540D01*
X816130Y328660D02*
Y331945D01*
X715970Y337820D02*
X716487Y337303D01*
X797043D02*
X797560Y337820D01*
X784343Y337303D02*
X797043D01*
X716487D02*
X721127D01*
X778460Y331420D02*
X784343Y337303D01*
X721127D02*
X732310Y326120D01*
X778460Y325120D02*
Y331420D01*
X733060Y326120D02*
X734060Y325120D01*
X732310Y326120D02*
X733060D01*
X384330Y328660D02*
X385080D01*
X386080Y327660D01*
X430480D02*
Y333960D01*
X373147Y339843D02*
X384330Y328660D01*
X430480Y333960D02*
X436363Y339843D01*
X449063D02*
X449580Y340360D01*
X368507Y339843D02*
X373147D01*
X436363D02*
X449063D01*
X367990Y340360D02*
X368507Y339843D01*
X449580Y340360D02*
X449597Y340343D01*
X468150Y331200D02*
Y334485D01*
X512420Y328500D02*
Y332080D01*
X599440Y327660D02*
Y332740D01*
X684480Y327660D02*
Y329860D01*
X512420Y332080D02*
X520183Y339843D01*
X548657Y340343D02*
X556143Y332857D01*
X599440Y332740D02*
X606543Y339843D01*
X686680Y329860D02*
X696663Y339843D01*
X632477Y340343D02*
X640710Y332110D01*
X449597Y340343D02*
X462292D01*
X520183Y339843D02*
X532883D01*
X533400Y340360D01*
X533417Y340343D01*
X606543Y339843D02*
X619243D01*
X696663D02*
X710683D01*
X533417Y340343D02*
X548657D01*
X619243Y339843D02*
X619760Y340360D01*
X619777Y340343D02*
X632477D01*
X710683Y339843D02*
X711200Y340360D01*
X694198D02*
X711200D01*
X619760D02*
X619777Y340343D01*
X431740Y269600D02*
Y302200D01*
X430480Y303460D02*
Y305660D01*
Y303460D02*
X431740Y302200D01*
X401320Y307340D02*
X412480D01*
X413480Y305660D02*
Y306340D01*
X412480Y307340D02*
X413480Y306340D01*
X401320Y289560D02*
Y307340D01*
X386080D02*
X401320D01*
X571500Y289560D02*
Y307340D01*
X485140Y289560D02*
Y307340D01*
X657860Y289560D02*
Y307340D01*
X493240Y309880D02*
X495420Y307700D01*
X515560Y270240D02*
Y301160D01*
X512420Y304300D02*
Y306500D01*
Y304300D02*
X515560Y301160D01*
X495420Y306500D02*
Y307700D01*
X469900Y309880D02*
X493240D01*
X601920Y270240D02*
Y300980D01*
X599440Y303460D02*
Y305660D01*
Y303460D02*
X601920Y300980D01*
X556260Y307340D02*
X571500D01*
X581440D01*
X582440Y305660D02*
Y306340D01*
X581440Y307340D02*
X582440Y306340D01*
X684480Y303460D02*
X688280Y299660D01*
X684480Y303460D02*
Y305660D01*
X688280Y269600D02*
Y299660D01*
X657860Y307340D02*
X666480D01*
X642620D02*
X657860D01*
X667480Y305660D02*
Y306340D01*
X666480Y307340D02*
X667480Y306340D01*
X386110Y269630D02*
X386140Y269600D01*
X386110Y269630D02*
Y307310D01*
X386080Y307340D02*
X386110Y307310D01*
X469930Y270270D02*
X469960Y270240D01*
X469930Y270270D02*
Y309850D01*
X469900Y309880D02*
X469930Y309850D01*
X556290Y270270D02*
X556320Y270240D01*
X556290Y270270D02*
Y307310D01*
X556260Y307340D02*
X556290Y307310D01*
X642650Y269630D02*
Y307310D01*
Y269630D02*
X642680Y269600D01*
X642620Y307340D02*
X642650Y307310D01*
X469150Y330200D02*
X469900D01*
X468150Y331200D02*
X469150Y330200D01*
X462292Y340343D02*
X468150Y334485D01*
X972820Y480060D02*
X1032206Y539446D01*
X1034746Y541986D01*
X1405410Y584990D02*
Y585740D01*
X1395350Y574930D02*
X1405410Y584990D01*
X1406410Y586740D02*
X1455220D01*
X1356360Y574930D02*
X1395350D01*
X1405410Y585740D02*
X1406410Y586740D01*
X1158240Y574930D02*
X1356360D01*
X849577Y820240D02*
X862657D01*
X1010920Y685800D02*
Y728980D01*
Y638980D02*
Y685800D01*
X327660Y835660D02*
X344057D01*
X161237Y820240D02*
X174317D01*
X25400Y614680D02*
X93980Y546100D01*
X23773Y616307D02*
X25400Y614680D01*
X134620Y289560D02*
Y307340D01*
X1153160Y580010D02*
X1158240Y574930D01*
X1205100Y576580D02*
Y595760D01*
X1203960Y640080D02*
X1239880D01*
X1263900Y616060D01*
X1153160Y640080D02*
X1203960D01*
Y621900D02*
Y640080D01*
X1263900Y607060D02*
Y616060D01*
X1203960Y596900D02*
X1205100Y595760D01*
X1118846Y580415D02*
X1122680Y576580D01*
X1118232Y581028D02*
X1118846Y580415D01*
Y581660D01*
Y576580D02*
Y580415D01*
X698500Y711200D02*
X769620D01*
X1034746Y541986D02*
X1132840Y640080D01*
X360680Y340360D02*
X367990D01*
X346660D02*
X360680D01*
X47657Y820240D02*
Y822440D01*
X47057Y823040D02*
Y851150D01*
Y823040D02*
X47657Y822440D01*
X339947Y819820D02*
X340367Y819400D01*
X317807Y819820D02*
X339947D01*
X317387Y820240D02*
X317807Y819820D01*
X735997Y798240D02*
Y798660D01*
X735397Y820840D02*
Y851150D01*
Y820840D02*
X735997Y820240D01*
X130207D02*
Y850500D01*
X818547Y820240D02*
Y850500D01*
X819197Y851150D01*
X89657Y819400D02*
X92657Y822400D01*
X88907Y819400D02*
X89657D01*
X88487Y819820D02*
X88907Y819400D01*
X174317Y820240D02*
X176457Y822380D01*
X257297Y819400D02*
X260257Y822360D01*
X161237Y820240D02*
Y834443D01*
X245057Y819820D02*
Y834443D01*
X77417Y819820D02*
Y834443D01*
X256547Y819400D02*
X257297D01*
X341117D02*
X344057Y822340D01*
X92657Y822400D02*
Y851150D01*
X176457Y822380D02*
Y851150D01*
X260257Y822360D02*
Y851150D01*
X256127Y819820D02*
X256547Y819400D01*
X335287Y947460D02*
Y1027430D01*
X321257Y915650D02*
X335287Y929680D01*
X344057Y822340D02*
Y835660D01*
X340367Y819400D02*
X341117D01*
X65077Y819820D02*
X77417D01*
X88487D01*
X64657Y820240D02*
X65077Y819820D01*
X161237D02*
Y820240D01*
X147207D02*
X161237D01*
X232717Y819820D02*
X245057D01*
X256127D01*
X232297Y820240D02*
X232717Y819820D01*
X214657Y851150D02*
X215297Y850510D01*
Y820240D02*
Y850510D01*
X300387Y820240D02*
Y849220D01*
X298457Y851150D02*
X300387Y849220D01*
X256547Y799080D02*
X256967Y798660D01*
X172727Y799080D02*
X173147Y798660D01*
X340363Y782323D02*
Y799077D01*
X130207Y798240D02*
Y798660D01*
X88907Y799080D02*
X89327Y798660D01*
X109767D01*
X109220Y798113D02*
X109767Y798660D01*
X340360Y782320D02*
X340363Y782323D01*
X300387Y798240D02*
Y798660D01*
X256967D02*
X276860D01*
X215297Y798240D02*
Y798660D01*
X276860Y782320D02*
Y798660D01*
X193040Y782320D02*
Y798660D01*
X173147D02*
X193040D01*
X109220Y782320D02*
Y798113D01*
X777997Y819400D02*
X780997Y822400D01*
X777247Y819400D02*
X777997D01*
X776827Y819820D02*
X777247Y819400D01*
X862657Y820240D02*
X864797Y822380D01*
X849577Y819820D02*
Y820240D01*
X933397Y819820D02*
Y834443D01*
X945637Y819400D02*
X948597Y822360D01*
X849577Y820240D02*
Y834443D01*
X765757Y819820D02*
Y834443D01*
X944887Y819400D02*
X945637D01*
X1029457D02*
X1032397Y822340D01*
X780997Y822400D02*
Y851150D01*
X864797Y822380D02*
Y851150D01*
X948597Y822360D02*
Y851150D01*
X944467Y819820D02*
X944887Y819400D01*
X1023627Y947460D02*
Y1027430D01*
X1009597Y915650D02*
X1023627Y929680D01*
X1032397Y822340D02*
Y835660D01*
X1028707Y819400D02*
X1029457D01*
X752997Y820240D02*
X753417Y819820D01*
X765757D01*
X776827D01*
X835547Y820240D02*
X849577D01*
X921057Y819820D02*
X933397D01*
X944467D01*
X920637Y820240D02*
X921057Y819820D01*
X902997Y851150D02*
X903637Y850510D01*
Y820240D02*
Y850510D01*
X988727Y820240D02*
Y849220D01*
X986797Y851150D02*
X988727Y849220D01*
X861067Y799080D02*
X861487Y798660D01*
X1028703Y799077D02*
X1028707Y799080D01*
X944887D02*
X945307Y798660D01*
X818547Y798240D02*
Y798660D01*
X1028703Y782323D02*
Y799077D01*
X881380Y782320D02*
Y798660D01*
X777667D02*
X798107D01*
X797560Y798113D02*
X798107Y798660D01*
X777247Y799080D02*
X777667Y798660D01*
X1028700Y782320D02*
X1028703Y782323D01*
X988727Y798240D02*
Y798660D01*
X965200Y782320D02*
Y798660D01*
X945307D02*
X965200D01*
X903637Y798240D02*
Y798660D01*
X861487D02*
X881380D01*
X797560Y782320D02*
Y798113D01*
X205770Y288790D02*
Y307310D01*
X206023Y289043D02*
X220463D01*
X205770Y288790D02*
X206023Y289043D01*
X220463D02*
X220980Y289560D01*
X205770Y307310D02*
X206160Y306920D01*
X205740Y307340D02*
X205770Y307310D01*
X230840Y306920D02*
X231260Y306500D01*
X206160Y306920D02*
X230840D01*
X43773Y335123D02*
Y339843D01*
X44290Y340360D01*
X36310Y327660D02*
X43773Y335123D01*
X35560Y327660D02*
X36310D01*
X111772Y340343D02*
X117630Y334485D01*
Y331200D02*
X118630Y330200D01*
X119380D01*
X292100Y307340D02*
X292130Y307310D01*
Y269630D02*
Y307310D01*
Y269630D02*
X292160Y269600D01*
X119410Y270270D02*
Y309850D01*
X119380Y309880D02*
X119410Y309850D01*
Y270270D02*
X119440Y270240D01*
X35560Y307340D02*
X35590Y307310D01*
Y269630D02*
Y307310D01*
Y269630D02*
X35620Y269600D01*
X307340Y307340D02*
X315960D01*
X316960Y305660D02*
Y306340D01*
X315960Y307340D02*
X316960Y306340D01*
X292100Y307340D02*
X307340D01*
X337760Y269600D02*
Y299660D01*
X333960Y303460D02*
X337760Y299660D01*
X333960Y303460D02*
Y305660D01*
Y329860D02*
X336160D01*
X248920Y303460D02*
X251400Y300980D01*
X248920Y303460D02*
Y305660D01*
X251400Y270240D02*
Y300980D01*
X142720Y309880D02*
X144900Y307700D01*
Y306500D02*
Y307700D01*
X119380Y309880D02*
X142720D01*
X161900Y304300D02*
X165040Y301160D01*
X161900Y304300D02*
Y306500D01*
X165040Y270240D02*
Y301160D01*
X307340Y289560D02*
Y307340D01*
X50800D02*
X61960D01*
X50800Y289560D02*
Y307340D01*
X35560D02*
X50800D01*
X62960Y305660D02*
Y306340D01*
X61960Y307340D02*
X62960Y306340D01*
X79960Y303460D02*
X81220Y302200D01*
X79960Y303460D02*
Y305660D01*
X81220Y269600D02*
Y302200D01*
X269257Y340343D02*
X281957D01*
X269240Y340360D02*
X269257Y340343D01*
X360163Y339843D02*
X360680Y340360D01*
X268723Y339843D02*
X269240Y340360D01*
X346143Y339843D02*
X360163D01*
X182880Y340360D02*
X182897Y340343D01*
X182363Y339843D02*
X182880Y340360D01*
X256023Y339843D02*
X268723D01*
X182897Y340343D02*
X198137D01*
X281957D02*
X290190Y332110D01*
X336160Y329860D02*
X346143Y339843D01*
X248920Y332740D02*
X256023Y339843D01*
X198137Y340343D02*
X205623Y332857D01*
X99060Y340360D02*
X99077Y340343D01*
X111772D01*
X98543Y339843D02*
X99060Y340360D01*
X169663Y339843D02*
X182363D01*
X85843D02*
X98543D01*
X79960Y333960D02*
X85843Y339843D01*
X161900Y332080D02*
X169663Y339843D01*
X117630Y331200D02*
Y334485D01*
X79960Y327660D02*
Y333960D01*
X161900Y328500D02*
Y332080D01*
X1132840Y640080D02*
X1153160D01*
X1356360Y593470D02*
Y614680D01*
X1326900Y584060D02*
X1329400Y581560D01*
X1324400Y584060D02*
X1326900D01*
X1263900Y607060D02*
X1326900D01*
X1334340Y635000D02*
X1356360D01*
X1329400Y630060D02*
X1334340Y635000D01*
X1326900Y630060D02*
X1329400D01*
X1356360Y635000D02*
X1386840D01*
X1407160Y607060D02*
Y631590D01*
X1407830Y632260D02*
X1475740D01*
X1407160Y631590D02*
X1407830Y632260D01*
X1455220Y586740D02*
X1475740Y607260D01*
X1152270Y576580D02*
X1153160Y577470D01*
Y596010D02*
Y619760D01*
X1122680Y576580D02*
X1152270D01*
X1117600Y556260D02*
Y594360D01*
X93980Y546100D02*
X96520D01*
X97480Y473400D02*
X123620D01*
X96520Y472440D02*
X97480Y473400D01*
X96520Y425700D02*
Y472440D01*
Y546100D01*
X1003300Y685800D02*
X1010920D01*
X980535Y541986D02*
X1029666D01*
X980004Y541456D02*
X980535Y541986D01*
X23773Y616307D02*
Y629007D01*
X22860Y629920D02*
X23773Y629007D01*
X22860Y629920D02*
Y655320D01*
Y680720D02*
Y706120D01*
Y655320D02*
Y680720D01*
X966920Y729980D02*
Y745190D01*
Y639980D02*
Y729980D01*
X965920Y638980D02*
X966920Y639980D01*
X929340Y718309D02*
X940011Y728980D01*
X1010920D02*
Y743470D01*
X998220Y756170D02*
X1010920Y743470D01*
X998220Y756170D02*
Y756920D01*
X966920Y745190D02*
X977900Y756170D01*
X940011Y728980D02*
X965920D01*
X977900Y756170D02*
Y756920D01*
X965920Y728980D02*
X966920Y729980D01*
X922020Y708660D02*
Y709410D01*
X929340Y716730D02*
Y718309D01*
X922020Y709410D02*
X929340Y716730D01*
D83*
X1271270Y73965D02*
Y77470D01*
X1292860Y137160D02*
Y185420D01*
X1271270Y77470D02*
X1292860Y99060D01*
Y137160D01*
X1475530Y117355D02*
X1517650Y75235D01*
X1452880Y202560D02*
X1475530Y179910D01*
Y117355D02*
Y179910D01*
X1709420Y121920D02*
Y202560D01*
Y113335D02*
Y121920D01*
X1670050Y73965D02*
X1709420Y113335D01*
X1623060Y203200D02*
X1640840Y185420D01*
Y95555D02*
Y185420D01*
X1619250Y73965D02*
X1640840Y95555D01*
X1568450Y73965D02*
Y168450D01*
X1536700Y200200D02*
Y203200D01*
Y200200D02*
X1568450Y168450D01*
X1127550Y117355D02*
X1169670Y75235D01*
X1104900Y202560D02*
X1127550Y179910D01*
Y117355D02*
Y179910D01*
X1361440Y121920D02*
Y202560D01*
Y113335D02*
Y121920D01*
X1322070Y73965D02*
X1361440Y113335D01*
X1275080Y203200D02*
X1292860Y185420D01*
X1220470Y73965D02*
Y168450D01*
X1188720Y200200D02*
Y203200D01*
Y200200D02*
X1220470Y168450D01*
X779570Y117355D02*
X821690Y75235D01*
X756920Y202560D02*
X779570Y179910D01*
Y117355D02*
Y179910D01*
X1013460Y121920D02*
Y202560D01*
Y113335D02*
Y121920D01*
X974090Y73965D02*
X1013460Y113335D01*
X927100Y203200D02*
X944880Y185420D01*
Y95555D02*
Y185420D01*
X923290Y73965D02*
X944880Y95555D01*
X872490Y73965D02*
Y168450D01*
X840740Y200200D02*
Y203200D01*
Y200200D02*
X872490Y168450D01*
X575310Y76505D02*
X596900Y98095D01*
Y187960D01*
X492760Y202740D02*
X524510Y170990D01*
Y76505D02*
Y170990D01*
X492760Y202740D02*
Y205740D01*
X579120D02*
X596900Y187960D01*
X626110Y76505D02*
X665480Y115875D01*
Y124460D01*
Y205100D01*
X431590Y119895D02*
Y182450D01*
X408940Y205100D02*
X431590Y182450D01*
Y119895D02*
X473710Y77775D01*
X142240Y202740D02*
X173990Y170990D01*
Y76505D02*
Y170990D01*
X246380Y98095D02*
Y124460D01*
X224790Y76505D02*
X246380Y98095D01*
Y124460D02*
Y187960D01*
X314960Y115875D02*
Y205100D01*
X228600Y205740D02*
X246380Y187960D01*
X81070Y119895D02*
Y182450D01*
X58420Y205100D02*
X81070Y182450D01*
X142240Y202740D02*
Y205740D01*
X81070Y119895D02*
X123190Y77775D01*
X275590Y76505D02*
X314960Y115875D01*
D84*
X1733264Y835660D02*
X1742440D01*
X1770380Y807720D01*
Y584200D02*
Y807720D01*
Y314960D02*
Y584200D01*
X1760220Y304800D02*
X1770380Y314960D01*
X1767840Y581660D02*
X1770380Y584200D01*
X1709420Y581660D02*
X1767840D01*
D85*
X686957Y835660D02*
X699484D01*
X670560D02*
X686957D01*
X1704340D02*
X1720737D01*
X1733264D01*
X1361440D02*
X1377837D01*
X1390364D01*
X1475740Y607260D02*
X1571359D01*
X1032397Y835660D02*
X1044924D01*
X1016000D02*
X1032397D01*
X1694180Y581520D02*
X1709280D01*
X1597099D02*
X1694180D01*
X1709280D02*
X1709420Y581660D01*
X1571359Y607260D02*
X1597099Y581520D01*
X1577700Y632460D02*
X1608180Y662940D01*
X1693147Y633353D02*
X1694180Y632320D01*
X1653180Y662940D02*
X1682767Y633353D01*
X1693147D01*
X1557020Y632460D02*
X1577700D01*
X1475740Y632260D02*
X1475940Y632460D01*
X1557020D01*
D86*
X1720850Y73965D02*
D03*
X1670050D02*
D03*
X1619250D02*
D03*
X1568450D02*
D03*
X1372870D02*
D03*
X1322070D02*
D03*
X1271270D02*
D03*
X1220470D02*
D03*
X676910Y76505D02*
D03*
X626110D02*
D03*
X575310D02*
D03*
X524510D02*
D03*
X326390D02*
D03*
X275590D02*
D03*
X224790D02*
D03*
X173990D02*
D03*
X872490Y73965D02*
D03*
X923290D02*
D03*
X974090D02*
D03*
X1024890D02*
D03*
X1661167Y1028700D02*
D03*
X1610367D02*
D03*
X1559567D02*
D03*
X1508767D02*
D03*
X1318267D02*
D03*
X1267467D02*
D03*
X1216667D02*
D03*
X1165867D02*
D03*
X972827D02*
D03*
X922027D02*
D03*
X871227D02*
D03*
X820427D02*
D03*
X627387D02*
D03*
X576587D02*
D03*
X525787D02*
D03*
X474987D02*
D03*
X284487D02*
D03*
X233687D02*
D03*
X182887D02*
D03*
X132087D02*
D03*
D87*
X1517650Y75235D02*
D03*
X1169670D02*
D03*
X473710Y77775D02*
D03*
X123190D02*
D03*
X821690Y75235D02*
D03*
X1711967Y1027430D02*
D03*
X1369067D02*
D03*
X1023627D02*
D03*
X678187D02*
D03*
X335287D02*
D03*
D88*
X165100Y706120D02*
D03*
X534162Y679450D02*
D03*
Y646430D02*
D03*
D89*
X1450340Y500380D02*
D03*
X1450200Y533170D02*
D03*
D90*
X1203960Y621900D02*
D03*
Y596900D02*
D03*
X1475740Y632260D02*
D03*
Y607260D02*
D03*
X1557020Y632460D02*
D03*
Y607460D02*
D03*
D91*
X1694180Y632320D02*
D03*
Y581520D02*
D03*
Y530720D02*
D03*
D92*
Y479920D02*
D03*
D93*
X500380Y467360D02*
D03*
Y543560D02*
D03*
Y518160D02*
D03*
Y492760D02*
D03*
X99060Y629920D02*
D03*
X22860D02*
D03*
Y655320D02*
D03*
X99060D02*
D03*
Y680720D02*
D03*
X22860D02*
D03*
X99060Y706120D02*
D03*
D94*
X192770Y534150D02*
D03*
X241570D02*
D03*
D95*
X96520Y546100D02*
D03*
Y425700D02*
D03*
X1774600Y1074600D02*
D03*
X25400Y25400D02*
D03*
Y1074600D02*
D03*
X1774600Y25400D02*
D03*
D96*
X123620Y473400D02*
D03*
X143520Y498400D02*
D03*
X123620D02*
D03*
X143520Y473400D02*
D03*
X787400Y642620D02*
D03*
Y668020D02*
D03*
Y693420D02*
D03*
X812800Y668020D02*
D03*
Y693420D02*
D03*
D97*
Y642620D02*
D03*
D98*
X22860Y706120D02*
D03*
D99*
X881230Y337670D02*
D03*
X840740Y525780D02*
D03*
X904470Y726440D02*
D03*
X670560Y835660D02*
D03*
X586740D02*
D03*
X502920D02*
D03*
X419100D02*
D03*
X683260Y782320D02*
D03*
X619760D02*
D03*
X452120D02*
D03*
X535940D02*
D03*
X1704340Y835660D02*
D03*
X1620520D02*
D03*
X1536700D02*
D03*
X1452880D02*
D03*
X1653540Y782320D02*
D03*
X1717040D02*
D03*
X1485900D02*
D03*
X1569720D02*
D03*
X1361440Y835660D02*
D03*
X1277620D02*
D03*
X1193800D02*
D03*
X1109980D02*
D03*
X1310640Y782320D02*
D03*
X1374140D02*
D03*
X1143000D02*
D03*
X1226820D02*
D03*
X1744980Y337820D02*
D03*
X1747520Y302260D02*
D03*
X1701800Y287020D02*
D03*
X1615440D02*
D03*
X1529080D02*
D03*
X1445260D02*
D03*
X1663700Y337820D02*
D03*
X1577340D02*
D03*
X1493520D02*
D03*
X1411930D02*
D03*
X1353820Y287020D02*
D03*
X1267460D02*
D03*
X1181100D02*
D03*
X1097280D02*
D03*
X1145540Y337820D02*
D03*
X1315720D02*
D03*
X1229360D02*
D03*
X1063950D02*
D03*
X1005840Y287020D02*
D03*
X919480D02*
D03*
X833120D02*
D03*
X749300D02*
D03*
X797560Y337820D02*
D03*
X967740D02*
D03*
X715970D02*
D03*
X367990Y340360D02*
D03*
X449580D02*
D03*
X533400D02*
D03*
X619760D02*
D03*
X401320Y289560D02*
D03*
X485140D02*
D03*
X571500D02*
D03*
X657860D02*
D03*
X629920Y449580D02*
D03*
X645160Y416560D02*
D03*
X612140Y467360D02*
D03*
X591820Y487680D02*
D03*
X673100Y546100D02*
D03*
Y647700D02*
D03*
X845820Y622300D02*
D03*
X698500Y711200D02*
D03*
X769620D02*
D03*
X942340Y622300D02*
D03*
X728980Y477520D02*
D03*
Y617220D02*
D03*
X868680Y379880D02*
D03*
X40640Y782320D02*
D03*
X779780Y749300D02*
D03*
X327660Y835660D02*
D03*
X160020D02*
D03*
X243840D02*
D03*
X76200D02*
D03*
X276860Y782320D02*
D03*
X340360D02*
D03*
X193040D02*
D03*
X109220D02*
D03*
X1016000Y835660D02*
D03*
X848360D02*
D03*
X932180D02*
D03*
X764540D02*
D03*
X965200Y782320D02*
D03*
X1028700D02*
D03*
X881380D02*
D03*
X797560D02*
D03*
X220980Y289560D02*
D03*
X44290Y340360D02*
D03*
X307340Y289560D02*
D03*
X134620D02*
D03*
X50800D02*
D03*
X269240Y340360D02*
D03*
X182880D02*
D03*
X99060D02*
D03*
X1117600Y556260D02*
D03*
X353060Y543560D02*
D03*
X861060Y637540D02*
D03*
X919480D02*
D03*
X972820Y480060D02*
D03*
X1003300Y685800D02*
D03*
X998220Y556260D02*
D03*
X525780Y716280D02*
D03*
X762000Y490220D02*
D03*
M02*
