M48
;Layer_Color=9474304
;FILE_FORMAT=4:4
METRIC,LZ
;TYPE=PLATED
T1F00S00C0.7112
T2F00S00C0.8000
T3F00S00C0.8890
T4F00S00C0.9000
T5F00S00C0.9200
T6F00S00C1.0000
T7F00S00C1.6510
T8F00S00C1.7000
T9F00S00C2.3000
T10F00S00C3.0000
%
T01
X0174752Y0030226
X0174498Y0033782
X016637
X0157734
X0149352
X0141193
X0144526Y0028702
X0152908
X0161544
X017018
X0135382
X0126746
X011811
X0109728
X0106395Y0033782
X0114554
X0122936
X0131572
X0096774
X0100584Y0028702
X0097282Y0048006
X0086868Y0037988
X0088123Y0033767
X0079756Y0033782
X0071597
X007493Y0028702
X0083312
X0091948
X0065786Y0028956
X005715
X005334Y0034036
X0061976
X0064516Y0041656
X0062992Y0044958
X0061214Y0046736
X0072898Y0047752
X0044958Y0034036
X0036799
X0040132Y0028956
X0048514
X0030734
X0022098
X0013462
X0018288Y0034036
X0026924
X0009906
X0004429
X000508Y0028956
X0004064Y0078232
X0010922
X000762Y0083566
X0016002
X0024384
X0032766
X0034036Y0078232
X0027686
X0019304
X0045212
X004191Y0083566
X0050292
X0035306Y0054356
X0059182Y0048768
X006731Y005461
Y006477
X0072898Y0061722
X0084582Y006223
X0086106Y0063754
X0091948
X0090447Y0072644
X0088138Y0078232
X0079756
X0077978Y007493
X0076962Y007112
X006985
X0068326Y0078232
X0061976
X0053594
X0052578Y0071628
X0058674Y0083566
X0067056
X0076454
X0084836
X0084074Y0052578
X00762Y0049022
X0099822Y0055626
X011176
X0094234Y006223
X010033Y006858
X010287Y0078232
X009652
X0093218Y0083566
X01016
X0110998
X011938
X0127762
X0131064Y0078232
X0122682
X01143
X0137414
X0136144Y0083566
X0145288
X015367
X0162052
X0170434
X0165354Y0078232
X0156972
X014859
X0171704
T02
X0050038Y0046736
Y0049276
Y0051816
Y0054356
X0024157Y0053415
X0019277
X007874Y0064262
Y0066802
Y0069342
X008128
Y0066802
Y0064262
X0120396Y006219
Y005969
X0147574Y0060726
Y0063226
X0155702Y0063246
Y0060746
T03
X000381Y0008
X0005334
X0006858
X0008382
X0038862
X0040386
X004191
X0043434
X007366
X0075184
X0076708
X0078232
X0108458
X0109982
X0111506
X011303
X0143256
X014478
X0146304
X0147828
X014605Y0102
X0144526
X0143002
X0141478
X011176
X0110236
X0108712
X0107188
X0077216
X0075692
X0074168
X0072644
X0042672
X0041148
X0039624
X00381
X0008382
X0006858
X0005334
X000381
T04
X001651Y0070612
X00534162Y0067945
Y0064643
X014502Y0053317
X0145034Y0050038
T05
X0014352Y004734
X0012362
Y004984
X0014352
T06
X0002286Y0062992
Y0065532
Y0068072
Y0070612
X0009906
Y0068072
Y0065532
Y0062992
T07
X0169418Y0047992
Y0053072
Y0058152
Y0063232
T08
X0012319Y00077775
X0017399Y00076505
X0022479
X0027559
X0032639
X0047371Y00077775
X0052451Y00076505
X0057531
X0062611
X0067691
X0082169Y00075235
X0087249Y00073965
X0092329
X0097409
X0102489
X0116967Y00075235
X0122047Y00073965
X0127127
X0132207
X0137287
X0151765Y00075235
X0156845Y00073965
X0161925
X0167005
X0172085
X01711967Y0102743
X01661167Y010287
X01610367
X01559567
X01508767
X01369067Y0102743
X01318267Y010287
X01267467
X01216667
X01165867
X01023627Y0102743
X00972827Y010287
X00922027
X00871227
X00820427
X00678187Y0102743
X00627387Y010287
X00576587
X00525787
X00474987
X00335287Y0102743
X00284487Y010287
X00233687
X00182887
X00132087
T09
X0009652Y004257
Y005461
T10
X000254Y000254
X017746
Y010746
X000254
M30
