M48
;Layer_Color=9474304
;FILE_FORMAT=4:4
METRIC,LZ
;TYPE=PLATED
T1F00S00C0.7112
T2F00S00C0.8000
T3F00S00C0.8890
T4F00S00C0.9000
T5F00S00C0.9200
T6F00S00C1.0000
T7F00S00C1.6510
T8F00S00C1.7000
T9F00S00C2.3000
T10F00S00C3.0000
%
T01
X0010414Y0003048
X0045466
X0080264
X0115062
X014986
X0174752Y0027686
X0172101Y003175
X0165862
X0157226
X0148844
X0152146Y002667
X0144018
X0139954Y003175
X0134874Y002667
X0161036Y0026416
X0169672
X0126238
X0117602
X010922Y002667
X010541Y003175
X0114046
X0122428
X0131064
X0096266
X0100076Y002667
X0096774Y004572
X0088138Y0034567
X008636Y003556
X008763Y003175
X0079248
X0071089
X0074422Y002667
X0082804
X009144
X0065278
X0056896
X0052832Y003175
X0061468
X0064008Y0040132
X0062992Y004318
X0060706Y0044958
X0059436Y004826
X0066802Y0045212
X0072644Y0045466
X0075692Y0046736
X004445Y003175
X0036291
X0039624Y002667
X004826
X0030226
X002159
X0013208
X001778Y003175
X0026416
X0009398
X0003048Y0032258
X0004572Y002667
X0003302Y0075692
X0010414Y0075946
X0007112Y008128
X0015494
X0023876
X0032258
X0036068Y0075946
X0044704
X0041402Y008128
X0049784
X005207Y0069342
X0027178Y0075946
X0018796
X0034798Y005207
X0070866Y0058166
X007239Y0059436
X0082296Y0056134
X0083312Y00508
X0085598Y0061468
X009144
X0089916Y0070358
X008763Y0076469
X00797287Y00764267
X0077978Y0072644
X0070612Y0075946
X0061468
X0053086
X0058166Y008128
X0066548
X0075946
X0084328
X009271
X0101092
X011049
X0118872
X0127254
X0130556Y0075946
X0122174
X0113792
X010541
X0096012
X0099822Y0066294
X0093726Y0060452
X0099314Y005334
X0111252
X01397Y0075946
X0148082
X0156464
X0164846
X0171196
X0169926Y008128
X0161544
X0153162
X014478
X0135636
T02
X004953Y004445
Y004699
Y004953
Y005207
X0023649Y0051129
X0018769
X0078232Y0061976
Y0064516
Y0067056
X0080772
Y0064516
Y0061976
X0119888Y0059904
Y0057404
X0147066Y005844
Y006094
X0155194Y006096
Y005846
T03
X0003302Y0007874
X0004826
X000635
X0007874
X0038354
X0039878
X0041402
X0042926
X0073152
X0074676
X00762
X0077724
X010795
X0109474
X0110998
X0112522
X0142748Y0007992
X0144272
X0145796
X014732
X0145542Y00995
X0144018
X0142494
X014097
X0111252
X0109728
X0108204
X010668
X0076708
X0075184
X007366
X0072136
X0042164
X004064
X0039116
X0037592
X0007874
X000635
X0004826
X0003302
T04
X0144526Y0047752
X0016002Y0068326
X00529082Y0065659
Y0062357
X0144512Y0051031
T05
X0013844Y0045054
Y0047554
X0011854
Y0045054
T06
X0001778Y0060706
Y0063246
Y0065786
Y0068326
X0009398
Y0065786
Y0063246
Y0060706
T07
X016891Y0045706
Y0050786
Y0055866
Y0060946
T08
X0011811Y00075235
X0016891Y00073965
X0021971
X0027051
X0032131
X0046863Y00075235
X0051943Y00073965
X0057023
X0062103
X0067183
X0081661Y00075235
X0086741Y00073965
X0091821
X0096901
X0101981
X0116459Y00075235
X0121539Y00073965
X0126619
X0131699
X0136779
X0151257Y00075235
X0156337Y00073965
X0161417
X0166497
X0171577
X01706887Y0098679
X01656087Y0098806
X01605287
X01554487
X01503687
X01363987Y0098679
X01313187Y0098806
X01262387
X01211587
X01160787
X01018547Y0098679
X00967747Y0098806
X00916947
X00866147
X00815347
X00673107Y0098679
X00622307Y0098806
X00571507
X00520707
X00469907
X00330207Y0098679
X00279407Y0098806
X00228607
X00177807
X00127007
T09
X0009144Y0040284
Y0052324
T10
X00025Y00025
X01765
Y01045
X00025
M30
