G04*
G04 #@! TF.GenerationSoftware,Altium Limited,Altium Designer,21.4.1 (30)*
G04*
G04 Layer_Physical_Order=1*
G04 Layer_Color=255*
%FSLAX44Y44*%
%MOMM*%
G71*
G04*
G04 #@! TF.SameCoordinates,6184CBAD-8C2E-428C-A116-2BF05ABD0BD4*
G04*
G04*
G04 #@! TF.FilePolarity,Positive*
G04*
G01*
G75*
%ADD12C,0.5000*%
%ADD23C,0.3000*%
%ADD25R,2.0000X3.8000*%
%ADD26R,2.0000X1.5000*%
%ADD27R,1.3500X1.2000*%
%ADD28R,1.0000X1.0000*%
%ADD29R,2.3000X2.3000*%
%ADD30R,1.5000X0.5500*%
%ADD31R,1.2000X1.3500*%
%ADD32R,0.6000X1.8500*%
%ADD33R,1.4500X0.6000*%
%ADD34R,1.6000X0.8000*%
%ADD35R,1.0000X1.0000*%
G04:AMPARAMS|DCode=36|XSize=1.35mm|YSize=1.2mm|CornerRadius=0mm|HoleSize=0mm|Usage=FLASHONLY|Rotation=45.000|XOffset=0mm|YOffset=0mm|HoleType=Round|Shape=Rectangle|*
%AMROTATEDRECTD36*
4,1,4,-0.0530,-0.9016,-0.9016,-0.0530,0.0530,0.9016,0.9016,0.0530,-0.0530,-0.9016,0.0*
%
%ADD36ROTATEDRECTD36*%

G04:AMPARAMS|DCode=37|XSize=0.3mm|YSize=1.4mm|CornerRadius=0mm|HoleSize=0mm|Usage=FLASHONLY|Rotation=45.000|XOffset=0mm|YOffset=0mm|HoleType=Round|Shape=Round|*
%AMOVALD37*
21,1,1.1000,0.3000,0.0000,0.0000,135.0*
1,1,0.3000,0.3889,-0.3889*
1,1,0.3000,-0.3889,0.3889*
%
%ADD37OVALD37*%

G04:AMPARAMS|DCode=38|XSize=0.3mm|YSize=1.4mm|CornerRadius=0mm|HoleSize=0mm|Usage=FLASHONLY|Rotation=135.000|XOffset=0mm|YOffset=0mm|HoleType=Round|Shape=Round|*
%AMOVALD38*
21,1,1.1000,0.3000,0.0000,0.0000,225.0*
1,1,0.3000,0.3889,0.3889*
1,1,0.3000,-0.3889,-0.3889*
%
%ADD38OVALD38*%

%ADD39R,1.2000X2.2500*%
G04:AMPARAMS|DCode=40|XSize=1.35mm|YSize=1.2mm|CornerRadius=0mm|HoleSize=0mm|Usage=FLASHONLY|Rotation=135.000|XOffset=0mm|YOffset=0mm|HoleType=Round|Shape=Rectangle|*
%AMROTATEDRECTD40*
4,1,4,0.9016,-0.0530,0.0530,-0.9016,-0.9016,0.0530,-0.0530,0.9016,0.9016,-0.0530,0.0*
%
%ADD40ROTATEDRECTD40*%

%ADD41R,1.0000X1.4400*%
%ADD42R,1.2000X1.4400*%
%ADD43R,1.5000X3.0000*%
%ADD44R,5.8000X6.4000*%
%ADD45R,1.9812X0.5334*%
%ADD78O,1.1000X1.6000*%
%ADD82C,1.0000*%
%ADD83C,2.0000*%
%ADD84C,1.2700*%
%ADD85R,1.5000X1.5000*%
%ADD86R,1.5000X1.5000*%
%ADD87C,1.8000*%
%ADD88C,2.5400*%
%ADD89R,2.5400X2.5400*%
%ADD90O,2.0000X1.6000*%
%ADD91C,1.5000*%
%ADD92C,3.0000*%
%ADD93C,1.7000*%
%ADD94R,1.7000X1.7000*%
%ADD95R,2.0000X1.6000*%
%ADD96R,2.8000X2.8000*%
%ADD97C,2.8000*%
%ADD98C,1.2700*%
D12*
X1550860Y489990D02*
X1656170D01*
X1550860Y502690D02*
X1678410D01*
X1683580Y507860D01*
X1689100D01*
X1656170Y489990D02*
X1689100Y457060D01*
X324370Y421640D02*
X327660D01*
X325752D02*
X327660D01*
X317500Y406400D02*
X324792Y413692D01*
X297180Y406400D02*
X317500D01*
X327660Y421640D02*
X379240D01*
X327660D02*
Y424180D01*
X324792Y420680D02*
X325752Y421640D01*
X324792Y413692D02*
Y420680D01*
X323410Y427680D02*
X324370Y426720D01*
X159720Y429260D02*
X320481D01*
X324370Y421640D02*
Y426720D01*
X322061Y427680D02*
X323410D01*
X320481Y429260D02*
X322061Y427680D01*
X138440Y450540D02*
X159720Y429260D01*
X273150Y386080D02*
X543560D01*
X607060Y449580D01*
X259080Y400150D02*
X273150Y386080D01*
X495300Y469900D02*
X495910Y469290D01*
X508610D02*
X518160Y459740D01*
X495910Y469290D02*
X508610D01*
X518160Y431800D02*
Y459740D01*
X415730Y554550D02*
X419100Y551180D01*
X414980Y554550D02*
X415730D01*
X419100Y539020D02*
Y551180D01*
X259080Y487680D02*
X277690Y506290D01*
X187690Y511290D02*
X208280Y490700D01*
X220980Y495780D02*
X236490Y511290D01*
X236502Y526290D02*
X242570Y532358D01*
X236490Y511290D02*
X236502Y511302D01*
X242570Y532358D02*
Y548890D01*
X236502Y511302D02*
Y526290D01*
X246380Y487680D02*
X266700Y508000D01*
X233680Y487680D02*
X259700Y513700D01*
X149860Y492760D02*
Y543874D01*
X118540Y542720D02*
X157480Y581660D01*
X118540Y475540D02*
Y542720D01*
X284480Y480060D02*
X297180Y492760D01*
X271626Y464554D02*
Y487526D01*
X284480Y464400D02*
Y480060D01*
X271626Y464554D02*
X271780Y464400D01*
X297180D02*
X315380D01*
X417830Y500540D02*
X418465Y499905D01*
X397510Y465320D02*
Y500540D01*
X418465Y479075D02*
Y499905D01*
Y479075D02*
X419100Y478440D01*
X398010Y464820D02*
X399420D01*
X325120Y492760D02*
X328620Y496260D01*
Y501340D01*
X315380Y464400D02*
X326390Y453390D01*
Y445770D02*
Y453390D01*
Y445770D02*
X327660Y444500D01*
X328620Y501340D02*
X347980Y520700D01*
X259700Y513700D02*
Y558800D01*
X277690Y506290D02*
Y522280D01*
X271626Y487526D02*
X320870Y536770D01*
X281190Y525780D02*
X281940D01*
X277690Y522280D02*
X281190Y525780D01*
X266700Y508000D02*
Y566420D01*
X281940Y546100D02*
Y568960D01*
X173990Y524990D02*
Y548890D01*
Y524990D02*
X187690Y511290D01*
X169866Y563880D02*
X198120D01*
X205740Y548890D02*
X222250D01*
X251460Y581660D02*
X266700Y566420D01*
X205740Y548890D02*
Y556260D01*
X244460Y574040D02*
X259700Y558800D01*
X194310Y548890D02*
X205740D01*
X138440Y549920D02*
X162560Y574040D01*
X198120Y563880D02*
X205740Y556260D01*
X149860Y543874D02*
X169866Y563880D01*
X320870Y536770D02*
X321620D01*
X325120Y540270D02*
Y541020D01*
X321620Y536770D02*
X325120Y540270D01*
X371030Y532130D02*
X375280D01*
X362140Y541020D02*
X371030Y532130D01*
X345440Y541020D02*
X362140D01*
X325120D02*
Y541770D01*
X362470Y579120D01*
X398780Y522630D02*
Y559006D01*
X138440Y475540D02*
Y549920D01*
X157480Y581660D02*
X251460D01*
X162560Y574040D02*
X244460D01*
X362470Y579120D02*
X436880D01*
X208280Y464400D02*
Y490700D01*
X220980Y464400D02*
Y495780D01*
X259080Y464400D02*
Y487680D01*
X246380Y464400D02*
Y487680D01*
X233680Y464400D02*
Y487680D01*
X259080Y400150D02*
Y406400D01*
X297180Y492760D02*
X325120D01*
X375420Y474820D02*
X375920Y474320D01*
X349690Y488510D02*
X363380Y474820D01*
X345440Y492010D02*
X348940Y488510D01*
X363380Y474820D02*
X375420D01*
X348940Y488510D02*
X349690D01*
X345440Y492010D02*
Y492760D01*
X327660Y444500D02*
X416560D01*
X397510Y465320D02*
X398010Y464820D01*
X198120Y444500D02*
X327660D01*
X149860Y492760D02*
X198120Y444500D01*
X419100Y447040D02*
Y459900D01*
X416560Y444500D02*
X419100Y447040D01*
Y520480D02*
X441960Y497620D01*
X493300Y495300D02*
X495300D01*
X459740Y528860D02*
X493300Y495300D01*
X459740Y528860D02*
Y556260D01*
X436880Y579120D02*
X459740Y556260D01*
X441960Y444500D02*
Y497620D01*
Y444500D02*
X495300D01*
X416560D02*
X441960D01*
X413240Y421640D02*
X508000D01*
X518160Y431800D01*
X781324Y726440D02*
X855980Y651784D01*
Y614680D02*
Y651784D01*
X779780Y726440D02*
X781324D01*
X914400Y614680D02*
Y616764D01*
X916940Y619304D01*
Y635000D01*
X518160Y693420D02*
X520700D01*
X516890Y694690D02*
X518160Y693420D01*
X435102Y694690D02*
X516890D01*
X170704Y693940D02*
X414782D01*
X50260Y713740D02*
X101600D01*
X17780Y683260D02*
X19780D01*
X50260Y713740D01*
X101600D02*
X112680Y702660D01*
X161984D01*
X170704Y693940D01*
X398272Y633730D02*
Y646430D01*
X132080Y591820D02*
X259080D01*
X76200Y535940D02*
X132080Y591820D01*
X259080D02*
X281940Y568960D01*
X937260Y660400D02*
Y685800D01*
Y635000D02*
Y660400D01*
X435102Y693940D02*
X449974Y679068D01*
Y671997D02*
X450141Y671830D01*
X462407D01*
X449974Y671997D02*
Y679068D01*
X485902Y610870D02*
X488442Y608330D01*
X541782D01*
X554482Y621030D01*
Y666750D01*
X546862Y674370D02*
X554482Y666750D01*
X485902Y674370D02*
X546862D01*
X455168Y633730D02*
X518922D01*
X529082Y623570D01*
X455168Y646430D02*
X518922D01*
X529082Y656590D01*
X464947Y674370D02*
X485902D01*
X462407Y671830D02*
X464947Y674370D01*
X435102Y693940D02*
Y694690D01*
X398272Y659130D02*
X455168D01*
X398272Y671830D02*
Y677430D01*
Y659130D02*
Y671830D01*
Y646430D02*
Y659130D01*
Y677430D02*
X414782Y693940D01*
X63500Y994920D02*
Y1041400D01*
X406400Y994920D02*
Y1041400D01*
X751840Y994920D02*
Y1041400D01*
X1097280Y994920D02*
Y1041400D01*
X1440180Y994920D02*
Y1041400D01*
D23*
X1508760Y353060D02*
X1529740Y332080D01*
X1450340Y353060D02*
X1508760D01*
X1394860Y408540D02*
X1450340Y353060D01*
X1582420Y363220D02*
X1613628Y332012D01*
X1457411Y363220D02*
X1582420D01*
X1407091Y413540D02*
X1457411Y363220D01*
X1666800Y372820D02*
X1701800Y337820D01*
X1468680Y372820D02*
X1666800D01*
X1422960Y418540D02*
X1468680Y372820D01*
X961634Y408540D02*
X1394860D01*
X986282Y418540D02*
X1422960D01*
X1330640Y682940D02*
X1348087Y700387D01*
X1129636Y682940D02*
X1330640D01*
X1320696Y398540D02*
X1355650Y363586D01*
X1353964Y519126D02*
X1463110Y409980D01*
X1252380Y393540D02*
X1271320Y374600D01*
X1135849Y667940D02*
X1577260D01*
X1409460Y677940D02*
X1437640Y706120D01*
X1137920Y662940D02*
X1648460D01*
X1133778Y672940D02*
X1483200D01*
X1131707Y677940D02*
X1409460D01*
X1483200Y672940D02*
X1509615Y699355D01*
X1117685Y530860D02*
X1509660D01*
X1577260Y667940D02*
X1605897Y696577D01*
X1648460Y662940D02*
X1690987Y705467D01*
X1452740Y502690D02*
X1496860D01*
X1457730Y489990D02*
X1496860D01*
X1531620Y524420D02*
X1534020Y526820D01*
X1509660Y530860D02*
X1513700Y526820D01*
X1531620Y485140D02*
X1539470Y477290D01*
X1531620Y485140D02*
Y524420D01*
X1513700Y426490D02*
Y526820D01*
X1578110Y439190D02*
X1589540Y427760D01*
X1539470Y477290D02*
X1550860D01*
Y464590D02*
X1580650D01*
X1589540Y473480D01*
X1550860Y451890D02*
X1589020D01*
X1550860Y439190D02*
X1578110D01*
X1539010Y426490D02*
X1550860D01*
X1534020Y390930D02*
X1534160Y391070D01*
Y421640D01*
X1550860Y413790D02*
X1583190D01*
X1534160Y421640D02*
X1539010Y426490D01*
X1513700Y390930D02*
Y426490D01*
X1589540Y427760D02*
X1590290D01*
X1589540Y473480D02*
X1590290D01*
X1583190Y413790D02*
X1589540Y407440D01*
X1589020Y451890D02*
X1590290Y453160D01*
X1589540Y407440D02*
X1590290D01*
X1445260Y477520D02*
X1457730Y489990D01*
X1445120Y510310D02*
X1452740Y502690D01*
X1467670Y426490D02*
X1513700D01*
X1463110Y409980D02*
X1463860D01*
X1467670Y413790D01*
X1463860Y430300D02*
X1467670Y426490D01*
Y413790D02*
X1496860D01*
X1127565Y687940D02*
X1246740D01*
X1259840Y701040D01*
X1115145Y533400D02*
X1117685Y530860D01*
X1155780Y388540D02*
X1181760Y362560D01*
X1079500Y383540D02*
X1099820Y363220D01*
X1112520Y533400D02*
X1115145D01*
X963705Y413540D02*
X1407091D01*
X1382080Y403540D02*
X1447800Y337820D01*
X959563Y403540D02*
X1382080D01*
X957491Y398540D02*
X1320696D01*
X1355650Y305510D02*
Y363586D01*
X594360Y482600D02*
X685800Y391160D01*
X768075D01*
X375280Y494545D02*
Y513130D01*
X379530D01*
X381000Y568040D02*
X386080Y573120D01*
X381000Y548640D02*
Y568040D01*
X388620Y528220D02*
Y541020D01*
X379530Y513130D02*
X381030Y514630D01*
Y520630D02*
X388620Y528220D01*
X381030Y514630D02*
Y520630D01*
X381000Y548640D02*
X388620Y541020D01*
X386080Y573120D02*
X430180D01*
X375280Y494545D02*
X386670Y483155D01*
Y461820D02*
Y483155D01*
X375920Y455320D02*
X380170D01*
X386670Y461820D01*
X449580Y492760D02*
Y553720D01*
X430180Y573120D02*
X449580Y553720D01*
X472440Y469900D02*
X495300D01*
X449580Y492760D02*
X472440Y469900D01*
X884356Y373816D02*
X899416Y358756D01*
X749917Y773180D02*
X753417Y769680D01*
X755617D02*
X876300Y648997D01*
X753417Y769680D02*
X755617D01*
X876300Y548882D02*
Y648997D01*
X706200Y396160D02*
X766004D01*
X607060Y495300D02*
X706200Y396160D01*
X495300Y495300D02*
X607060D01*
X93980Y375920D02*
X774049D01*
X330440Y360920D02*
X780262D01*
X55880Y337820D02*
X93980Y375920D01*
X309880Y340360D02*
X330440Y360920D01*
X403860Y304800D02*
Y337820D01*
X224840Y336600D02*
X254160Y365920D01*
X403860Y337820D02*
X421960Y355920D01*
X137820Y335940D02*
X172800Y370920D01*
X254160Y365920D02*
X778191D01*
X172800Y370920D02*
X776120D01*
X421960Y355920D02*
X782333D01*
X309880Y304800D02*
Y340360D01*
X137820Y305640D02*
Y335940D01*
X55880Y304800D02*
Y337820D01*
X224840Y304800D02*
Y336600D01*
X789045Y454556D02*
X833120Y498631D01*
Y508000D01*
X881380Y345670D02*
X884005D01*
X886775Y342900D01*
X901700D01*
X914494Y355695D01*
X886300Y744123D02*
X911857Y769680D01*
X886300Y544740D02*
Y744123D01*
X873191Y531631D02*
X886300Y544740D01*
X832467Y753589D02*
Y775380D01*
Y753589D02*
X881300Y704755D01*
Y546811D02*
Y704755D01*
X871373Y428090D02*
X898194Y401269D01*
X861060Y438403D02*
X871373Y428090D01*
X871373D01*
X861060Y438403D02*
Y448789D01*
X908546Y496275D01*
X956708Y500380D02*
X974924Y518596D01*
X883826Y380298D02*
X886896Y377227D01*
X915617Y489204D02*
X986282Y418540D01*
X915617Y489204D02*
X915617Y489204D01*
X1024586Y519126D02*
X1353964D01*
X961086Y533494D02*
X993046D01*
X993140Y533400D01*
X753944Y563444D02*
X754474Y562914D01*
X738704Y578684D02*
X753944Y563444D01*
X723900Y594360D02*
X738704Y579556D01*
Y578684D02*
Y579556D01*
X611238Y723580D02*
X766460Y568358D01*
X551844Y723580D02*
X611238D01*
X613309Y728580D02*
X771460Y570429D01*
X615380Y733580D02*
X820865Y528095D01*
X657207Y698825D02*
X825336Y530696D01*
X559585Y728580D02*
X613309D01*
X771460Y570429D02*
Y570429D01*
X766460Y568358D02*
Y568358D01*
X657207Y698825D02*
Y775380D01*
X766460Y568358D02*
X813794Y521024D01*
X771460Y570429D02*
X817330Y524560D01*
X582140Y733580D02*
X615380D01*
X669290Y453390D02*
X718820Y403860D01*
X735728D02*
X756484Y424616D01*
X723066Y563046D02*
X737036Y549076D01*
X708660Y581660D02*
X711200Y579120D01*
Y577452D02*
Y579120D01*
Y577452D02*
X724336Y564316D01*
Y564316D02*
Y564316D01*
X739576Y441524D02*
X742116D01*
X747632Y447040D01*
X724336Y423744D02*
X740846Y440254D01*
X726440Y454660D02*
X739576Y441524D01*
X829951Y340280D02*
X878760Y389089D01*
Y406561D01*
X584040Y345280D02*
X827880D01*
X873760Y391160D01*
X665400Y340280D02*
X829951D01*
X873760Y391160D02*
Y404490D01*
X500620Y350920D02*
X804910D01*
X780262Y360920D02*
X785342Y366000D01*
X766004Y396160D02*
X806723Y436879D01*
X772218Y381160D02*
X815289Y424231D01*
X768075Y391160D02*
X810258Y433343D01*
X787919Y425146D02*
X803187Y440414D01*
X787413Y361000D02*
X835007Y408594D01*
X770147Y386160D02*
X813794Y429807D01*
X767629Y434340D02*
X790042D01*
X757014Y425146D02*
X787919D01*
X804910Y350920D02*
X862584Y408594D01*
X673020Y386160D02*
X770147D01*
X785342Y366000D02*
X831472Y412130D01*
X788051Y439420D02*
X796116Y447485D01*
X769620Y439420D02*
X788051D01*
X783271Y371000D02*
X827936Y415665D01*
X776120Y370920D02*
X824401Y419201D01*
X783271Y371000D02*
X783271D01*
X790042Y434340D02*
X799652Y443950D01*
X660240Y381160D02*
X772218D01*
X774049Y375920D02*
X820865Y422736D01*
X787413Y361000D02*
X787413D01*
X782333Y355920D02*
X787413Y361000D01*
X778191Y365920D02*
X783271Y371000D01*
X862584Y408594D02*
X862584Y408594D01*
X785342Y366000D02*
X785342D01*
X61577Y762249D02*
Y775380D01*
Y762249D02*
X115165Y708660D01*
X538480D01*
X632169Y590120D02*
X719369Y502920D01*
X637878Y595120D02*
X724998Y508000D01*
X357460Y600120D02*
X639949D01*
X292649Y657860D02*
X355389Y595120D01*
X274320Y683260D02*
X357460Y600120D01*
X351247Y585120D02*
X628684D01*
X310978Y632460D02*
X353318Y590120D01*
X329307Y607060D02*
X351247Y585120D01*
X353318Y590120D02*
X632169D01*
X639949Y600120D02*
X726989Y513080D01*
X628684Y585120D02*
X716884Y496920D01*
X355389Y595120D02*
X637878D01*
X500780Y733660D02*
X554505D01*
X546764Y728660D02*
X551844Y723580D01*
X404477Y751568D02*
X427384Y728660D01*
X554505Y733660D02*
X559585Y728580D01*
X544693Y723660D02*
X734953Y533400D01*
X540551Y713660D02*
X730811Y523400D01*
X542622Y718660D02*
X732882Y528400D01*
X320280Y723660D02*
X544693D01*
X487027Y747413D02*
X500780Y733660D01*
X538480Y708660D02*
X728740Y518400D01*
X427384Y728660D02*
X546764D01*
X144127Y755033D02*
X185500Y713660D01*
X540551D01*
X229217Y735983D02*
X246540Y718660D01*
X314307Y729633D02*
X320280Y723660D01*
X246540Y718660D02*
X542622D01*
X93980Y607060D02*
X329307D01*
X93980Y632460D02*
X310978D01*
X160020Y683260D02*
X274320D01*
X93980Y657860D02*
X292649D01*
X898194Y395079D02*
X901700Y391572D01*
Y391160D02*
X916940Y375920D01*
X668020Y454660D02*
Y474980D01*
X572117Y743603D02*
X582140Y733580D01*
X960556Y532964D02*
X961086Y533494D01*
X1008380Y304800D02*
Y347980D01*
X949207Y378540D02*
X977820D01*
X890869Y436879D02*
X894758Y432989D01*
X977820Y378540D02*
X1008380Y347980D01*
X894758Y432989D02*
X894758D01*
X949207Y378540D01*
X1509615Y699355D02*
Y761988D01*
X1437640Y706120D02*
Y774763D01*
X750220Y496920D02*
X783036Y464104D01*
X688340Y474980D02*
X713608D01*
X755623Y463577D02*
X766462Y452738D01*
X755623Y463577D02*
Y466063D01*
X756920Y467360D01*
X735780Y473260D02*
X769620Y439420D01*
X735780Y473260D02*
Y476560D01*
X732280Y480060D02*
X735780Y476560D01*
X766462Y452738D02*
X780156D01*
X785510Y458092D01*
X718820Y403860D02*
X735728D01*
X756484Y424616D02*
X756484D01*
X754929Y447040D02*
X767629Y434340D01*
X747632Y447040D02*
X754929D01*
X724336Y423744D02*
X724336D01*
X756484Y424616D02*
X757014Y425146D01*
X572820Y334060D02*
X584040Y345280D01*
X754380Y327660D02*
X762000Y335280D01*
X640080Y401320D02*
X660240Y381160D01*
X485800Y336100D02*
X500620Y350920D01*
X657860Y332740D02*
X665400Y340280D01*
X762000Y335280D02*
X901700D01*
X629893Y429287D02*
X673020Y386160D01*
X629893Y429287D02*
Y431773D01*
X629920Y431800D01*
X754380Y304800D02*
Y327660D01*
X836320Y325780D02*
X840820Y330280D01*
X836320Y305640D02*
Y325780D01*
X901700Y335280D02*
X927100Y360680D01*
X903771Y330280D02*
X932180Y358689D01*
X840820Y330280D02*
X903771D01*
X657860Y304800D02*
Y332740D01*
X1038860Y622300D02*
Y739167D01*
X937260Y604520D02*
Y635000D01*
X937271Y588640D02*
X1005200D01*
X947627Y563640D02*
X1017407D01*
X951769Y553640D02*
X1021549D01*
X939342Y583640D02*
X1009123D01*
X949698Y558640D02*
X1019478D01*
X943484Y573640D02*
X1013265D01*
X945555Y568640D02*
X1015336D01*
X941413Y578640D02*
X1011194D01*
X880616Y531984D02*
X937271Y588640D01*
X1005200D02*
X1038860Y622300D01*
X974924Y518596D02*
X974924D01*
X905011Y499811D02*
X953840Y548640D01*
X901475Y503346D02*
X951769Y553640D01*
X953840Y548640D02*
X1023620D01*
X897940Y506882D02*
X949698Y558640D01*
X919722Y500380D02*
X956708D01*
X942776Y515184D02*
X960556Y532964D01*
X908546Y454556D02*
X959563Y403540D01*
X894404Y440414D02*
X951278Y383540D01*
X901475Y447485D02*
X955420Y393540D01*
X912082Y458092D02*
X961634Y408540D01*
X897940Y443950D02*
X953349Y388540D01*
X905011Y451021D02*
X957491Y398540D01*
X915617Y461627D02*
X963705Y413540D01*
X932180Y358689D02*
Y381425D01*
X914494Y355695D02*
Y374954D01*
X913964Y375484D02*
X914494Y374954D01*
X927100Y360680D02*
Y379434D01*
X863600Y355600D02*
X884356Y376356D01*
X884151Y528449D02*
X939342Y583640D01*
X894404Y510418D02*
X947627Y563640D01*
X887333Y517489D02*
X943484Y573640D01*
X883798Y521024D02*
X941413Y578640D01*
X890869Y513953D02*
X945555Y568640D01*
X942245Y514654D02*
X942776Y515184D01*
X926925Y514654D02*
X942245D01*
X908546Y496275D02*
X926925Y514654D01*
X883798Y429807D02*
X932180Y381425D01*
X880262Y426272D02*
X927100Y379434D01*
X883826Y380298D02*
Y408566D01*
X887333Y433343D02*
X937260Y383416D01*
X716884Y496920D02*
X750220D01*
X807720Y555382D02*
X826331Y536771D01*
X764303Y563444D02*
X810258Y517489D01*
X820420Y549753D02*
X831472Y538702D01*
X820420Y549753D02*
Y559583D01*
X822177Y561340D02*
X822960D01*
X820420Y559583D02*
X822177Y561340D01*
X807720Y555382D02*
Y619760D01*
X760838Y562914D02*
X761369Y563444D01*
X740106Y548545D02*
X772131D01*
X754474Y562914D02*
X760838D01*
X761369Y563444D02*
X764303D01*
X719369Y502920D02*
X768259D01*
X912082Y492740D02*
X919722Y500380D01*
X734953Y533400D02*
X780205D01*
X726989Y513080D02*
X772241D01*
X724998Y508000D02*
X770250D01*
X785175Y493075D01*
X737036Y549076D02*
X739576D01*
X740106Y548545D01*
X869655Y535166D02*
X881300Y546811D01*
X876727Y528095D02*
X880616Y531984D01*
X880616D01*
X866120Y538702D02*
X876300Y548882D01*
X884151Y528449D02*
X884151D01*
X880262Y524560D02*
X884151Y528449D01*
X772131Y548545D02*
X806723Y513953D01*
X826331Y536771D02*
Y536771D01*
X780205Y533400D02*
X803187Y510418D01*
X776063Y523400D02*
X796116Y503346D01*
X730811Y523400D02*
X776063D01*
X728740Y518400D02*
X773992D01*
X778134Y528400D02*
X799652Y506882D01*
X773992Y518400D02*
X792581Y499811D01*
X772241Y513080D02*
X789045Y496275D01*
X732882Y528400D02*
X778134D01*
X898194Y395079D02*
Y401269D01*
X873191Y419201D02*
X883826Y408566D01*
X869655Y415665D02*
X878760Y406561D01*
X901700Y391160D02*
Y391572D01*
X866120Y412130D02*
X873760Y404490D01*
X768259Y502920D02*
X781974Y489204D01*
X93980Y683260D02*
X160020D01*
X485800Y305640D02*
Y336100D01*
X572820Y304800D02*
Y334060D01*
X487027Y747413D02*
Y775380D01*
X572117Y743603D02*
Y775380D01*
X229217Y735983D02*
Y775380D01*
X314307Y729633D02*
Y775380D01*
X404477Y751568D02*
Y775380D01*
X144127Y755033D02*
Y775380D01*
X749917Y773180D02*
Y775380D01*
X1015336Y568640D02*
X1129636Y682940D01*
X1019478Y558640D02*
X1133778Y672940D01*
X1017407Y563640D02*
X1131707Y677940D01*
X1021549Y553640D02*
X1135849Y667940D01*
X1013265Y573640D02*
X1127565Y687940D01*
X1023620Y548640D02*
X1137920Y662940D01*
X1009123Y583640D02*
X1095357Y669874D01*
X1011194Y578640D02*
X1177907Y745353D01*
X1259840Y701040D02*
Y772223D01*
X1348087Y700387D02*
Y775380D01*
X1259840Y772223D02*
X1262997Y775380D01*
X1177907Y745353D02*
Y775380D01*
X1095357Y669874D02*
Y775380D01*
X951278Y383540D02*
X1079500D01*
X1271320Y304800D02*
Y374600D01*
X1355650Y305510D02*
X1356360Y304800D01*
X955420Y393540D02*
X1252380D01*
X953349Y388540D02*
X1155780D01*
X1181760Y305640D02*
Y362560D01*
X1099820Y304800D02*
Y363220D01*
X914057Y769680D02*
X917557Y773180D01*
Y775380D01*
X911857Y769680D02*
X914057D01*
X1002647Y775380D02*
X1038860Y739167D01*
X1437640Y774763D02*
X1438257Y775380D01*
X1520807Y773180D02*
Y775380D01*
X1509615Y761988D02*
X1520807Y773180D01*
X1605897Y696577D02*
Y775380D01*
X1690987Y705467D02*
Y775380D01*
X923340Y304800D02*
Y307000D01*
X937260Y320920D01*
X1701800Y304800D02*
Y337820D01*
X937260Y320920D02*
Y383416D01*
X1447800Y304800D02*
Y337820D01*
X1529740Y305640D02*
Y332080D01*
X1613628Y307932D02*
Y332012D01*
D25*
X1258820Y584200D02*
D03*
D26*
X1321820Y607200D02*
D03*
Y584200D02*
D03*
Y561200D02*
D03*
D27*
X1148080Y596900D02*
D03*
Y617220D02*
D03*
X1351280Y591820D02*
D03*
Y612140D02*
D03*
X1112520Y591820D02*
D03*
Y571500D02*
D03*
X1402080Y584200D02*
D03*
Y563880D02*
D03*
X1463860Y430300D02*
D03*
Y409980D02*
D03*
X1590290Y473480D02*
D03*
Y453160D02*
D03*
Y407440D02*
D03*
Y427760D02*
D03*
X281940Y525780D02*
D03*
Y546100D02*
D03*
X327660Y424180D02*
D03*
Y444500D02*
D03*
X485902Y631190D02*
D03*
Y610870D02*
D03*
Y654050D02*
D03*
Y674370D02*
D03*
X287020Y304800D02*
D03*
Y284480D02*
D03*
X637540Y304800D02*
D03*
Y284480D02*
D03*
X985520Y304800D02*
D03*
Y284480D02*
D03*
X1333500Y304800D02*
D03*
Y284480D02*
D03*
X1681480Y304800D02*
D03*
Y284480D02*
D03*
X200660Y304800D02*
D03*
Y284480D02*
D03*
X551180Y304800D02*
D03*
Y284480D02*
D03*
X899160Y304800D02*
D03*
Y284480D02*
D03*
X1247140Y304800D02*
D03*
Y284480D02*
D03*
X1595120Y304800D02*
D03*
Y284480D02*
D03*
X114300Y307340D02*
D03*
Y287020D02*
D03*
X464820Y307340D02*
D03*
Y287020D02*
D03*
X812800Y307340D02*
D03*
Y287020D02*
D03*
X1160780Y307340D02*
D03*
Y287020D02*
D03*
X1508760Y307340D02*
D03*
Y287020D02*
D03*
X30480Y304800D02*
D03*
Y284480D02*
D03*
X381000Y304800D02*
D03*
Y284480D02*
D03*
X728980Y304800D02*
D03*
Y284480D02*
D03*
X1076960Y304800D02*
D03*
Y284480D02*
D03*
X1424940Y304800D02*
D03*
Y284480D02*
D03*
X1460507Y776220D02*
D03*
Y796540D02*
D03*
X1117607Y776220D02*
D03*
Y796540D02*
D03*
X772167Y776220D02*
D03*
Y796540D02*
D03*
X426727Y776220D02*
D03*
Y796540D02*
D03*
X83827Y776220D02*
D03*
Y796540D02*
D03*
X1544327Y776220D02*
D03*
Y796540D02*
D03*
X1201427Y776220D02*
D03*
Y796540D02*
D03*
X855987Y776220D02*
D03*
Y796540D02*
D03*
X510547Y776220D02*
D03*
Y796540D02*
D03*
X167647Y776220D02*
D03*
Y796540D02*
D03*
X1628147Y776220D02*
D03*
Y796540D02*
D03*
X1285247Y776220D02*
D03*
Y796540D02*
D03*
X939807Y776220D02*
D03*
Y796540D02*
D03*
X594367Y776220D02*
D03*
Y796540D02*
D03*
X251467Y776220D02*
D03*
Y796540D02*
D03*
X1711967Y776220D02*
D03*
Y796540D02*
D03*
X1369067Y776220D02*
D03*
Y796540D02*
D03*
X1023627Y776220D02*
D03*
Y796540D02*
D03*
X678187Y776220D02*
D03*
Y796540D02*
D03*
X335287Y776220D02*
D03*
Y796540D02*
D03*
D28*
X1148080Y554610D02*
D03*
Y573150D02*
D03*
X1351280Y552070D02*
D03*
Y570610D02*
D03*
X419100Y520480D02*
D03*
Y539020D02*
D03*
Y459900D02*
D03*
Y478440D02*
D03*
D29*
X1648100Y640080D02*
D03*
X1603100D02*
D03*
D30*
X1496860Y502690D02*
D03*
Y489990D02*
D03*
Y477290D02*
D03*
Y464590D02*
D03*
Y451890D02*
D03*
Y439190D02*
D03*
Y426490D02*
D03*
Y413790D02*
D03*
X1550860Y502690D02*
D03*
Y489990D02*
D03*
Y477290D02*
D03*
Y464590D02*
D03*
Y451890D02*
D03*
Y439190D02*
D03*
Y426490D02*
D03*
Y413790D02*
D03*
D31*
X1381760Y612140D02*
D03*
X1400760D02*
D03*
X1513700Y526820D02*
D03*
X1534020D02*
D03*
Y390930D02*
D03*
X1513700D02*
D03*
X325120Y492760D02*
D03*
X345440D02*
D03*
X419100Y558800D02*
D03*
X398780D02*
D03*
X417830Y500540D02*
D03*
X397510D02*
D03*
X325120Y541020D02*
D03*
X345440D02*
D03*
X173990Y548890D02*
D03*
X194310D02*
D03*
X242570D02*
D03*
X222250D02*
D03*
X688340Y474980D02*
D03*
X668020D02*
D03*
X937260Y660400D02*
D03*
X916940D02*
D03*
X937260Y685800D02*
D03*
X916940D02*
D03*
X972820Y734060D02*
D03*
X993140D02*
D03*
X937260Y635000D02*
D03*
X916940D02*
D03*
X55880Y30480D02*
D03*
X76200D02*
D03*
X403860D02*
D03*
X424180D02*
D03*
X751840D02*
D03*
X772160D02*
D03*
X1099820D02*
D03*
X1120140D02*
D03*
X1447800D02*
D03*
X1468120D02*
D03*
X1440180Y1038860D02*
D03*
X1460500D02*
D03*
X1097280Y1041400D02*
D03*
X1117600D02*
D03*
X751840D02*
D03*
X772160D02*
D03*
X406400D02*
D03*
X426720D02*
D03*
X63500D02*
D03*
X83820D02*
D03*
X435102Y694690D02*
D03*
X414782D02*
D03*
D32*
X208280Y406400D02*
D03*
X220980D02*
D03*
X233680D02*
D03*
X246380D02*
D03*
X259080D02*
D03*
X271780D02*
D03*
X284480D02*
D03*
X297180D02*
D03*
X208280Y464400D02*
D03*
X220980D02*
D03*
X233680D02*
D03*
X246380D02*
D03*
X259080D02*
D03*
X271780D02*
D03*
X284480D02*
D03*
X297180D02*
D03*
D33*
X375280Y532130D02*
D03*
Y513130D02*
D03*
X398780Y522630D02*
D03*
X375920Y474320D02*
D03*
Y455320D02*
D03*
X399420Y464820D02*
D03*
D34*
X413240Y421640D02*
D03*
X379240D02*
D03*
D35*
X714630Y474980D02*
D03*
X733170D02*
D03*
D36*
X974924Y518596D02*
D03*
X960556Y532964D02*
D03*
X724336Y423744D02*
D03*
X738704Y409376D02*
D03*
X742116Y438984D02*
D03*
X756484Y424616D02*
D03*
X957144Y500816D02*
D03*
X942776Y515184D02*
D03*
D37*
X806723Y513953D02*
D03*
X810258Y517489D02*
D03*
X876727Y422736D02*
D03*
X873191Y419201D02*
D03*
X835007Y542237D02*
D03*
X781974Y489204D02*
D03*
X785510Y492740D02*
D03*
X789045Y496275D02*
D03*
X792581Y499811D02*
D03*
X796116Y503346D02*
D03*
X799652Y506882D02*
D03*
X803187Y510418D02*
D03*
X813794Y521024D02*
D03*
X817330Y524560D02*
D03*
X820865Y528095D02*
D03*
X824401Y531631D02*
D03*
X827936Y535166D02*
D03*
X831472Y538702D02*
D03*
X915617Y461627D02*
D03*
X912082Y458092D02*
D03*
X908546Y454556D02*
D03*
X905011Y451021D02*
D03*
X901475Y447485D02*
D03*
X897940Y443950D02*
D03*
X894404Y440414D02*
D03*
X890869Y436879D02*
D03*
X887333Y433343D02*
D03*
X883798Y429807D02*
D03*
X880262Y426272D02*
D03*
X869655Y415665D02*
D03*
X866120Y412130D02*
D03*
X862584Y408594D02*
D03*
D38*
X908546Y496275D02*
D03*
X912082Y492740D02*
D03*
X803187Y440414D02*
D03*
X799652Y443950D02*
D03*
X862584Y542237D02*
D03*
X796116Y447485D02*
D03*
X792581Y451021D02*
D03*
X781974Y461627D02*
D03*
X866120Y538702D02*
D03*
X869655Y535166D02*
D03*
X873191Y531631D02*
D03*
X876727Y528095D02*
D03*
X880262Y524560D02*
D03*
X883798Y521024D02*
D03*
X887333Y517489D02*
D03*
X890869Y513953D02*
D03*
X894404Y510418D02*
D03*
X897940Y506882D02*
D03*
X901475Y503346D02*
D03*
X905011Y499811D02*
D03*
X915617Y489204D02*
D03*
X835007Y408594D02*
D03*
X831472Y412130D02*
D03*
X827936Y415665D02*
D03*
X824401Y419201D02*
D03*
X820865Y422736D02*
D03*
X817329Y426272D02*
D03*
X813794Y429807D02*
D03*
X810258Y433343D02*
D03*
X806723Y436879D02*
D03*
X789045Y454556D02*
D03*
X785510Y458092D02*
D03*
D39*
X1005840Y706120D02*
D03*
Y616120D02*
D03*
X960840D02*
D03*
Y706120D02*
D03*
D40*
X753944Y563444D02*
D03*
X739576Y549076D02*
D03*
X884356Y376356D02*
D03*
X898724Y390724D02*
D03*
X738704Y578684D02*
D03*
X724336Y564316D02*
D03*
X899596Y361116D02*
D03*
X913964Y375484D02*
D03*
D41*
X309880Y304800D02*
D03*
X328880D02*
D03*
Y282800D02*
D03*
X660400Y304800D02*
D03*
X679400D02*
D03*
Y282800D02*
D03*
X1008380Y304800D02*
D03*
X1027380D02*
D03*
Y282800D02*
D03*
X1356360Y304800D02*
D03*
X1375360D02*
D03*
Y282800D02*
D03*
X1704340Y304800D02*
D03*
X1723340D02*
D03*
Y282800D02*
D03*
X224840Y304800D02*
D03*
X243840D02*
D03*
Y282800D02*
D03*
X575360Y304800D02*
D03*
X594360D02*
D03*
Y282800D02*
D03*
X923340Y304800D02*
D03*
X942340D02*
D03*
Y282800D02*
D03*
X1271320Y304800D02*
D03*
X1290320D02*
D03*
Y282800D02*
D03*
X1619300Y304800D02*
D03*
X1638300D02*
D03*
Y282800D02*
D03*
X137820Y305640D02*
D03*
X156820D02*
D03*
Y283640D02*
D03*
X488340Y305640D02*
D03*
X507340D02*
D03*
Y283640D02*
D03*
X836320Y305640D02*
D03*
X855320D02*
D03*
Y283640D02*
D03*
X1184300Y305640D02*
D03*
X1203300D02*
D03*
Y283640D02*
D03*
X1532280Y305640D02*
D03*
X1551280D02*
D03*
Y283640D02*
D03*
X55880Y304800D02*
D03*
X74880D02*
D03*
Y282800D02*
D03*
X406400Y304800D02*
D03*
X425400D02*
D03*
Y282800D02*
D03*
X754380Y304800D02*
D03*
X773380D02*
D03*
Y282800D02*
D03*
X1102360Y304800D02*
D03*
X1121360D02*
D03*
Y282800D02*
D03*
X1450340Y304800D02*
D03*
X1469340D02*
D03*
Y282800D02*
D03*
X1438257Y775380D02*
D03*
X1419257D02*
D03*
Y797380D02*
D03*
X1095357Y775380D02*
D03*
X1076357D02*
D03*
Y797380D02*
D03*
X749917Y775380D02*
D03*
X730917D02*
D03*
Y797380D02*
D03*
X404477Y775380D02*
D03*
X385477D02*
D03*
Y797380D02*
D03*
X61577Y775380D02*
D03*
X42577D02*
D03*
Y797380D02*
D03*
X1520807Y775380D02*
D03*
X1501807D02*
D03*
Y797380D02*
D03*
X1177907Y775380D02*
D03*
X1158907D02*
D03*
Y797380D02*
D03*
X832467Y775380D02*
D03*
X813467D02*
D03*
Y797380D02*
D03*
X487027Y775380D02*
D03*
X468027D02*
D03*
Y797380D02*
D03*
X144127Y775380D02*
D03*
X125127D02*
D03*
Y797380D02*
D03*
X1605897Y775380D02*
D03*
X1586897D02*
D03*
Y797380D02*
D03*
X1262997Y775380D02*
D03*
X1243997D02*
D03*
Y797380D02*
D03*
X917557Y775380D02*
D03*
X898557D02*
D03*
Y797380D02*
D03*
X572117Y775380D02*
D03*
X553117D02*
D03*
Y797380D02*
D03*
X229217Y775380D02*
D03*
X210217D02*
D03*
Y797380D02*
D03*
X1690987Y775380D02*
D03*
X1671987D02*
D03*
Y797380D02*
D03*
X1348087Y775380D02*
D03*
X1329087D02*
D03*
Y797380D02*
D03*
X1002647Y775380D02*
D03*
X983647D02*
D03*
Y797380D02*
D03*
X657207Y775380D02*
D03*
X638207D02*
D03*
Y797380D02*
D03*
X314307Y775380D02*
D03*
X295307D02*
D03*
Y797380D02*
D03*
D42*
X311880Y282800D02*
D03*
X662400D02*
D03*
X1010380D02*
D03*
X1358360D02*
D03*
X1706340D02*
D03*
X226840D02*
D03*
X577360D02*
D03*
X925340D02*
D03*
X1273320D02*
D03*
X1621300D02*
D03*
X139820Y283640D02*
D03*
X490340D02*
D03*
X838320D02*
D03*
X1186300D02*
D03*
X1534280D02*
D03*
X57880Y282800D02*
D03*
X408400D02*
D03*
X756380D02*
D03*
X1104360D02*
D03*
X1452340D02*
D03*
X1436257Y797380D02*
D03*
X1093357D02*
D03*
X747917D02*
D03*
X402477D02*
D03*
X59577D02*
D03*
X1518807D02*
D03*
X1175907D02*
D03*
X830467D02*
D03*
X485027D02*
D03*
X142127D02*
D03*
X1603897D02*
D03*
X1260997D02*
D03*
X915557D02*
D03*
X570117D02*
D03*
X227217D02*
D03*
X1688987D02*
D03*
X1346087D02*
D03*
X1000647D02*
D03*
X655207D02*
D03*
X312307D02*
D03*
D43*
X332680Y246740D02*
D03*
X287080D02*
D03*
X683200D02*
D03*
X637600D02*
D03*
X1031180D02*
D03*
X985580D02*
D03*
X1379160D02*
D03*
X1333560D02*
D03*
X1727140D02*
D03*
X1681540D02*
D03*
X246320Y247380D02*
D03*
X200720D02*
D03*
X596840D02*
D03*
X551240D02*
D03*
X944820D02*
D03*
X899220D02*
D03*
X1292800D02*
D03*
X1247200D02*
D03*
X1640780D02*
D03*
X1595180D02*
D03*
X159960D02*
D03*
X114360D02*
D03*
X510480D02*
D03*
X464880D02*
D03*
X858460D02*
D03*
X812860D02*
D03*
X1206440D02*
D03*
X1160840D02*
D03*
X1554420D02*
D03*
X1508820D02*
D03*
X76140Y246740D02*
D03*
X30540D02*
D03*
X426660D02*
D03*
X381060D02*
D03*
X774640D02*
D03*
X729040D02*
D03*
X1122620D02*
D03*
X1077020D02*
D03*
X1470600D02*
D03*
X1425000D02*
D03*
X1418657Y828290D02*
D03*
X1464257D02*
D03*
X1075757D02*
D03*
X1121357D02*
D03*
X730317D02*
D03*
X775917D02*
D03*
X384877D02*
D03*
X430477D02*
D03*
X41977D02*
D03*
X87577D02*
D03*
X1502457D02*
D03*
X1548057D02*
D03*
X1159557D02*
D03*
X1205157D02*
D03*
X814117D02*
D03*
X859717D02*
D03*
X468677D02*
D03*
X514277D02*
D03*
X125777D02*
D03*
X171377D02*
D03*
X1586257D02*
D03*
X1631857D02*
D03*
X1243357D02*
D03*
X1288957D02*
D03*
X897917D02*
D03*
X943517D02*
D03*
X552477D02*
D03*
X598077D02*
D03*
X209577D02*
D03*
X255177D02*
D03*
X1670057D02*
D03*
X1715657D02*
D03*
X1327157D02*
D03*
X1372757D02*
D03*
X981717D02*
D03*
X1027317D02*
D03*
X636277D02*
D03*
X681877D02*
D03*
X293377D02*
D03*
X338977D02*
D03*
D44*
X309880Y182240D02*
D03*
X660400D02*
D03*
X1008380D02*
D03*
X1356360D02*
D03*
X1704340D02*
D03*
X223520Y182880D02*
D03*
X574040D02*
D03*
X922020D02*
D03*
X1270000D02*
D03*
X1617980D02*
D03*
X137160D02*
D03*
X487680D02*
D03*
X835660D02*
D03*
X1183640D02*
D03*
X1531620D02*
D03*
X53340Y182240D02*
D03*
X403860D02*
D03*
X751840D02*
D03*
X1099820D02*
D03*
X1447800D02*
D03*
X1441457Y892790D02*
D03*
X1098557D02*
D03*
X753117D02*
D03*
X407677D02*
D03*
X64777D02*
D03*
X1525257D02*
D03*
X1182357D02*
D03*
X836917D02*
D03*
X491477D02*
D03*
X148577D02*
D03*
X1609057D02*
D03*
X1266157D02*
D03*
X920717D02*
D03*
X575277D02*
D03*
X232377D02*
D03*
X1692857D02*
D03*
X1349957D02*
D03*
X1004517D02*
D03*
X659077D02*
D03*
X316177D02*
D03*
D45*
X455168Y671830D02*
D03*
Y659130D02*
D03*
Y646430D02*
D03*
Y633730D02*
D03*
X398272D02*
D03*
Y646430D02*
D03*
Y659130D02*
D03*
Y671830D02*
D03*
D78*
X33020Y78740D02*
D03*
X63500D02*
D03*
X48260D02*
D03*
X78740D02*
D03*
X383540D02*
D03*
X414020D02*
D03*
X398780D02*
D03*
X429260D02*
D03*
X731520D02*
D03*
X762000D02*
D03*
X746760D02*
D03*
X777240D02*
D03*
X1079500D02*
D03*
X1109980D02*
D03*
X1094740D02*
D03*
X1125220D02*
D03*
X1427480Y79920D02*
D03*
X1457960D02*
D03*
X1442720D02*
D03*
X1473200D02*
D03*
X1455420Y995000D02*
D03*
X1424940D02*
D03*
X1440180D02*
D03*
X1409700D02*
D03*
X1112520D02*
D03*
X1082040D02*
D03*
X1097280D02*
D03*
X1066800D02*
D03*
X767080D02*
D03*
X736600D02*
D03*
X751840D02*
D03*
X721360D02*
D03*
X421640D02*
D03*
X391160D02*
D03*
X406400D02*
D03*
X375920D02*
D03*
X78740D02*
D03*
X48260D02*
D03*
X63500D02*
D03*
X33020D02*
D03*
D82*
X48260Y36310D02*
Y78740D01*
Y36310D02*
X53340Y31230D01*
Y30480D02*
Y31230D01*
X1351280Y552070D02*
X1368520D01*
X1380330Y563880D01*
X1344650Y558700D02*
X1351280Y552070D01*
Y570610D02*
Y591820D01*
X1321820Y561200D02*
X1324320Y558700D01*
X1319320Y561200D02*
X1321820D01*
X1324320Y558700D02*
X1344650D01*
X1224280Y548640D02*
X1306760D01*
X1258820Y584200D02*
X1321820D01*
X1306760Y548640D02*
X1319320Y561200D01*
X1329260Y612140D02*
X1351280D01*
X1324320Y607200D02*
X1329260Y612140D01*
X1321820Y607200D02*
X1324320D01*
X1351280Y612140D02*
X1381760D01*
X1380330Y563880D02*
X1402080D01*
Y584200D02*
Y608730D01*
X1402750Y609400D02*
X1470660D01*
X1402080Y608730D02*
X1402750Y609400D01*
X1402080Y563880D02*
X1450140D01*
X1470660Y584400D01*
X1253820Y598200D02*
X1258820Y593200D01*
X1198880Y599040D02*
X1199720Y598200D01*
X1253820D01*
X1148080Y553720D02*
X1178560D01*
X1180700Y617220D02*
X1198880Y599040D01*
X1258820Y584200D02*
Y593200D01*
X1178560Y553720D02*
X1198880Y574040D01*
X1127760Y617220D02*
X1180700D01*
X1198880Y574040D02*
X1224280Y548640D01*
X1147190Y553720D02*
X1148080Y554610D01*
Y573150D02*
Y596900D01*
X1117600Y553720D02*
X1147190D01*
X1113152Y558168D02*
X1117600Y553720D01*
X1113765D02*
Y558800D01*
X1112520Y533400D02*
Y558168D01*
Y571500D01*
X76200Y535940D02*
X88900Y523240D01*
X91440D01*
X92400Y450540D02*
X118540D01*
X91440Y449580D02*
X92400Y450540D01*
X91440Y402840D02*
Y449580D01*
Y523240D01*
X967740Y457200D02*
X1127760Y617220D01*
X863083Y316983D02*
X875783D01*
X876300Y317500D01*
X876317Y317483D01*
X855320Y309220D02*
X863083Y316983D01*
X894800Y698489D02*
X899160Y702849D01*
X894800Y666258D02*
Y698489D01*
X899160Y702849D02*
Y703580D01*
X1005840Y616120D02*
Y662940D01*
Y706120D01*
X998220Y662940D02*
X1005840D01*
X894800Y666258D02*
X900658Y660400D01*
X916940D01*
X975454Y519126D02*
X1024586D01*
X974924Y518596D02*
X975454Y519126D01*
X18693Y593447D02*
X76200Y535940D01*
X1532837Y797380D02*
X1545917D01*
X1189937D02*
X1203017D01*
X1348740Y266700D02*
Y284480D01*
X914400D02*
X924340D01*
X899160D02*
X914400D01*
Y266700D02*
Y284480D01*
X1000760Y266700D02*
Y284480D01*
X844497Y797380D02*
X857577D01*
X499057D02*
X512137D01*
X156157D02*
X169237D01*
X652780Y266700D02*
Y284480D01*
X828040Y266700D02*
Y284480D01*
X568960D02*
X576360D01*
X551180D02*
X568960D01*
Y266700D02*
Y284480D01*
X482600Y266700D02*
Y284480D01*
X215900D02*
X225840D01*
X200660D02*
X215900D01*
Y266700D02*
Y284480D01*
X132080Y266700D02*
Y284480D01*
X302260Y266700D02*
Y284480D01*
X33020Y756920D02*
X42577Y766477D01*
Y775380D01*
X18693Y593447D02*
Y606147D01*
X17780Y607060D02*
X18693Y606147D01*
X17780Y607060D02*
Y632460D01*
X30480Y304800D02*
Y322580D01*
X17780Y657860D02*
Y683260D01*
Y632460D02*
Y657860D01*
X961840Y707120D02*
Y722330D01*
Y617120D02*
Y707120D01*
X960840Y616120D02*
X961840Y617120D01*
X1460500Y1038860D02*
X1490980D01*
X1500242Y1029597D01*
Y991504D02*
Y1029597D01*
X1157343Y991504D02*
Y1021977D01*
X1137920Y1041400D02*
X1157343Y1021977D01*
X1117600Y1041400D02*
X1137920D01*
X1157343Y991504D02*
X1160787Y988060D01*
X811902Y991504D02*
Y1021977D01*
X772160Y1041400D02*
X792480D01*
X811902Y1021977D01*
X83820Y1041400D02*
X111760D01*
X123562Y991504D02*
Y1029597D01*
X111760Y1041400D02*
X123562Y1029597D01*
X1399540Y317500D02*
X1400057Y316983D01*
X1399023D02*
X1399540Y317500D01*
X1375360Y307000D02*
X1385343Y316983D01*
X1375360Y304800D02*
Y307000D01*
X1385343Y316983D02*
X1399023D01*
X1400057D02*
X1412007D01*
X1176020Y264160D02*
Y281940D01*
X1262380Y264160D02*
Y281940D01*
X1696720Y264160D02*
Y281940D01*
X1610360Y264160D02*
Y281940D01*
X1521460Y266700D02*
Y284480D01*
X924260Y695450D02*
X934930Y706120D01*
X1005840D02*
Y720610D01*
X993140Y733310D02*
X1005840Y720610D01*
X993140Y733310D02*
Y734060D01*
X961840Y722330D02*
X972820Y733310D01*
X934930Y706120D02*
X960840D01*
X972820Y733310D02*
Y734060D01*
X960840Y706120D02*
X961840Y707120D01*
X916940Y685800D02*
Y686550D01*
X924260Y693870D02*
Y695450D01*
X916940Y686550D02*
X924260Y693870D01*
X711407Y316983D02*
X716047D01*
X727230Y305800D01*
X710890Y317500D02*
X711407Y316983D01*
X683260Y311642D02*
X689118Y317500D01*
X710890D01*
X679400Y304800D02*
Y307000D01*
X683260Y310860D02*
Y311642D01*
X679400Y307000D02*
X683260Y310860D01*
X335287Y796540D02*
X336037D01*
X338977Y799480D01*
Y828290D01*
X582877Y796960D02*
Y811583D01*
X570117Y797380D02*
X570537Y796960D01*
X582877D01*
X593947D01*
X793027Y775617D02*
Y775800D01*
Y775617D02*
X796770Y771873D01*
Y764783D02*
Y771873D01*
Y764783D02*
X797287Y764267D01*
X876300Y764690D02*
Y775800D01*
X1711963Y759463D02*
Y776217D01*
X1711967Y776220D01*
X1711960Y759460D02*
X1711963Y759463D01*
X1723340Y280600D02*
X1727140Y276800D01*
Y246740D02*
Y276800D01*
X1532837Y797380D02*
Y811583D01*
Y796960D02*
Y797380D01*
X1518807D02*
X1532837D01*
X1616657Y796960D02*
X1627727D01*
X1604317D02*
X1616657D01*
X1189937Y797380D02*
Y811583D01*
Y796960D02*
Y797380D01*
X844497D02*
Y811583D01*
Y796960D02*
Y797380D01*
X1175907D02*
X1189937D01*
X1273757Y796960D02*
X1284827D01*
X1261417D02*
X1273757D01*
X928317D02*
X939387D01*
X915977D02*
X928317D01*
X1348740Y284480D02*
X1357360D01*
X1333500D02*
X1348740D01*
X1000760D02*
X1009380D01*
X985520D02*
X1000760D01*
X499057Y797380D02*
Y811583D01*
Y796960D02*
Y797380D01*
X830467D02*
X844497D01*
X485027D02*
X499057D01*
X142127D02*
X156157D01*
Y811583D01*
Y796960D02*
Y797380D01*
X239977Y796960D02*
X251047D01*
X227637D02*
X239977D01*
X652780Y284480D02*
X661400D01*
X637540D02*
X652780D01*
X302260D02*
X310880D01*
X287020D02*
X302260D01*
X1481367Y775800D02*
X1501807D01*
X1648460D02*
X1671987D01*
X1564640D02*
X1586897D01*
X1397000D02*
X1419257D01*
X1023627Y776220D02*
X1076357D01*
X876300Y775800D02*
X898557D01*
X1221740D02*
X1243997D01*
X1305560D02*
X1329087D01*
X1138467D02*
X1158907D01*
X1056640D02*
X1076357D01*
X960120D02*
X983647D01*
X1027380Y307000D02*
X1029580D01*
X793027Y775800D02*
X813467D01*
X708660D02*
X730917D01*
X530860D02*
X553117D01*
X614680D02*
X638207D01*
X447587D02*
X468027D01*
X104687D02*
X125127D01*
X360592D02*
X385477D01*
X271780D02*
X295307D01*
X187960D02*
X210217D01*
X328880Y307000D02*
X331080D01*
X1681510Y246770D02*
Y284450D01*
X1681480Y284480D02*
X1705340D01*
X1681480D02*
X1681510Y284450D01*
X1721010Y316769D02*
X1723340Y314439D01*
X1721010Y316769D02*
Y317500D01*
X1723340Y304800D02*
Y314439D01*
X1715657Y799480D02*
Y812800D01*
X123562Y991504D02*
X127007Y988060D01*
X1369487Y775800D02*
X1397000D01*
Y759460D02*
Y775800D01*
X678607D02*
X708660D01*
X706637Y759977D02*
Y773777D01*
X708660Y775800D01*
X706120Y759460D02*
X706637Y759977D01*
X335707Y775800D02*
X360592D01*
Y759548D02*
X360680Y759460D01*
X360592Y759548D02*
Y775800D01*
X335287Y776220D02*
X335707Y775800D01*
X1419257Y775380D02*
Y775800D01*
X1369067Y776220D02*
X1369487Y775800D01*
X1076357D02*
Y776220D01*
X678187D02*
X678607Y775800D01*
X84577Y796540D02*
X87577Y799540D01*
X83827Y796540D02*
X84577D01*
X169237Y797380D02*
X171377Y799520D01*
X252217Y796540D02*
X255177Y799500D01*
X251467Y796540D02*
X252217D01*
X334867Y796960D02*
X335287Y796540D01*
X87577Y799540D02*
Y828290D01*
X83407Y796960D02*
X83827Y796540D01*
X127027Y955040D02*
X144787D01*
X177807Y988060D01*
X91777Y919790D02*
X127027Y955040D01*
X88777Y919790D02*
X91777D01*
X64777Y895790D02*
X88777Y919790D01*
X64777Y892790D02*
Y895790D01*
X171377Y799520D02*
Y828290D01*
X172063Y931517D02*
X228607Y988060D01*
X148577Y892790D02*
X172063Y916277D01*
Y931517D01*
X255177Y799500D02*
Y828290D01*
X232377Y941030D02*
X279407Y988060D01*
X232377Y892790D02*
Y941030D01*
X316177Y972760D02*
X330207Y986790D01*
X316177Y892790D02*
Y972760D01*
X41977Y828290D02*
X42577Y827690D01*
Y797380D02*
Y827690D01*
X59997Y796960D02*
X72337D01*
X59577Y797380D02*
X59997Y796960D01*
X125127Y827640D02*
X125777Y828290D01*
X125127Y797380D02*
Y827640D01*
X209577Y828290D02*
X210217Y827650D01*
Y797380D02*
Y827650D01*
X227217Y797380D02*
X227637Y796960D01*
X251047D02*
X251467Y796540D01*
Y776220D02*
X251887Y775800D01*
X167647Y776220D02*
X168067Y775800D01*
X125127Y775380D02*
Y775800D01*
X187960Y759460D02*
Y775800D01*
X104140Y775253D02*
X104687Y775800D01*
X83827Y776220D02*
X84247Y775800D01*
X104687D01*
X295307Y775380D02*
Y775800D01*
X251887D02*
X271780D01*
X210217Y775380D02*
Y775800D01*
X271780Y759460D02*
Y775800D01*
X168067D02*
X187960D01*
X104140Y759460D02*
Y775253D01*
X295307Y797380D02*
Y826360D01*
X293377Y828290D02*
X295307Y826360D01*
X322580Y812800D02*
X323797Y811583D01*
Y796960D02*
Y811583D01*
X239977Y796960D02*
Y811583D01*
X72337Y796960D02*
Y811583D01*
X312727Y796960D02*
X323797D01*
X334867D01*
X312307Y797380D02*
X312727Y796960D01*
X72337D02*
X83407D01*
X427477Y796540D02*
X430477Y799540D01*
X426727Y796540D02*
X427477D01*
X512137Y797380D02*
X514277Y799520D01*
X595117Y796540D02*
X598077Y799500D01*
X594367Y796540D02*
X595117D01*
X678937D02*
X681877Y799480D01*
X678187Y796540D02*
X678937D01*
X430477Y799540D02*
Y828290D01*
X426307Y796960D02*
X426727Y796540D01*
X469927Y955040D02*
X487687D01*
X520707Y988060D01*
X434677Y919790D02*
X469927Y955040D01*
X431677Y919790D02*
X434677D01*
X407677Y895790D02*
X431677Y919790D01*
X407677Y892790D02*
Y895790D01*
X514277Y799520D02*
Y828290D01*
X514963Y931517D02*
X571507Y988060D01*
X491477Y892790D02*
X514963Y916277D01*
Y931517D01*
X598077Y799500D02*
Y828290D01*
X575277Y941030D02*
X622307Y988060D01*
X575277Y892790D02*
Y941030D01*
X681877Y799480D02*
Y828290D01*
X659077Y972760D02*
X673107Y986790D01*
X659077Y892790D02*
Y972760D01*
X385477Y775380D02*
Y775800D01*
X384877Y828290D02*
X385477Y827690D01*
Y797380D02*
Y827690D01*
X402477Y797380D02*
X402897Y796960D01*
X415237D02*
X426307D01*
X402897D02*
X415237D01*
X468027Y827640D02*
X468677Y828290D01*
X468027Y797380D02*
Y827640D01*
X552477Y828290D02*
X553117Y827650D01*
Y797380D02*
Y827650D01*
X593947Y796960D02*
X594367Y796540D01*
Y776220D02*
X594787Y775800D01*
X510547Y776220D02*
X510967Y775800D01*
X594787D02*
X614680D01*
X468027Y775380D02*
Y775800D01*
X638207Y775380D02*
Y775800D01*
X426727Y776220D02*
X427147Y775800D01*
X447587D01*
X447040Y775253D02*
X447587Y775800D01*
X614680Y759460D02*
Y775800D01*
X530860Y759460D02*
Y775800D01*
X553117Y775380D02*
Y775800D01*
X510967D02*
X530860D01*
X447040Y759460D02*
Y775253D01*
X638207Y797380D02*
Y826360D01*
X636277Y828290D02*
X638207Y826360D01*
X665480Y812800D02*
X666697Y811583D01*
Y796960D02*
Y811583D01*
X415237Y796960D02*
Y811583D01*
X655207Y797380D02*
X655627Y796960D01*
X666697D01*
X677767D01*
X678187Y796540D01*
X466463Y991504D02*
X469907Y988060D01*
X466463Y991504D02*
Y1001657D01*
X427720Y1039650D02*
X428470D01*
X466463Y1001657D01*
X426720Y1040650D02*
X427720Y1039650D01*
X426720Y1040650D02*
Y1041400D01*
X772917Y796540D02*
X775917Y799540D01*
X772167Y796540D02*
X772917D01*
X771747Y796960D02*
X772167Y796540D01*
X857577Y797380D02*
X859717Y799520D01*
X940557Y796540D02*
X943517Y799500D01*
X939807Y796540D02*
X940557D01*
X1024377D02*
X1027317Y799480D01*
X1023207Y796960D02*
X1023627Y796540D01*
X775917Y799540D02*
Y828290D01*
X815367Y955040D02*
X833127D01*
X866147Y988060D01*
X780117Y919790D02*
X815367Y955040D01*
X777117Y919790D02*
X780117D01*
X753117Y895790D02*
X777117Y919790D01*
X753117Y892790D02*
Y895790D01*
X859717Y799520D02*
Y828290D01*
X860403Y931517D02*
X916947Y988060D01*
X836917Y892790D02*
X860403Y916277D01*
Y931517D01*
X943517Y799500D02*
Y828290D01*
X920717Y941030D02*
X967747Y988060D01*
X920717Y892790D02*
Y941030D01*
X1027317Y799480D02*
Y828290D01*
X1023627Y796540D02*
X1024377D01*
X1004517Y972760D02*
X1018547Y986790D01*
X1004517Y892790D02*
Y972760D01*
X730917Y775380D02*
Y775800D01*
X730317Y828290D02*
X730917Y827690D01*
Y797380D02*
Y827690D01*
X748337Y796960D02*
X760677D01*
X747917Y797380D02*
X748337Y796960D01*
X813467Y827640D02*
X814117Y828290D01*
X813467Y797380D02*
Y827640D01*
X897917Y828290D02*
X898557Y827650D01*
Y797380D02*
Y827650D01*
X915557Y797380D02*
X915977Y796960D01*
X939387D02*
X939807Y796540D01*
Y776220D02*
X940227Y775800D01*
X855987Y776220D02*
X856407Y775800D01*
X876300D01*
X813467Y775380D02*
Y775800D01*
X898557Y775380D02*
Y775800D01*
X772167Y776220D02*
X772587Y775800D01*
X793027D01*
X983647Y775380D02*
Y775800D01*
X960120Y759460D02*
Y775800D01*
X940227D02*
X960120D01*
X983647Y797380D02*
Y826360D01*
X981717Y828290D02*
X983647Y826360D01*
X1010920Y812800D02*
X1012137Y811583D01*
Y796960D02*
Y811583D01*
X928317Y796960D02*
Y811583D01*
X760677Y796960D02*
Y811583D01*
X1001067Y796960D02*
X1012137D01*
X1000647Y797380D02*
X1001067Y796960D01*
X1012137D02*
X1023207D01*
X760677D02*
X771747D01*
X811902Y991504D02*
X815347Y988060D01*
X1118357Y796540D02*
X1121357Y799540D01*
X1117607Y796540D02*
X1118357D01*
X1203017Y797380D02*
X1205157Y799520D01*
X1285997Y796540D02*
X1288957Y799500D01*
X1285247Y796540D02*
X1285997D01*
X1369817D02*
X1372757Y799480D01*
X1368647Y796960D02*
X1369067Y796540D01*
X1121357Y799540D02*
Y828290D01*
X1117187Y796960D02*
X1117607Y796540D01*
X1160807Y955040D02*
X1178567D01*
X1211587Y988060D01*
X1125557Y919790D02*
X1160807Y955040D01*
X1122557Y919790D02*
X1125557D01*
X1098557Y895790D02*
X1122557Y919790D01*
X1098557Y892790D02*
Y895790D01*
X1205157Y799520D02*
Y828290D01*
X1205843Y931517D02*
X1262387Y988060D01*
X1182357Y892790D02*
X1205843Y916277D01*
Y931517D01*
X1288957Y799500D02*
Y828290D01*
X1266157Y941030D02*
X1313187Y988060D01*
X1266157Y892790D02*
Y941030D01*
X1372757Y799480D02*
Y828290D01*
X1369067Y796540D02*
X1369817D01*
X1349957Y972760D02*
X1363987Y986790D01*
X1349957Y892790D02*
Y972760D01*
X1075757Y828290D02*
X1076357Y827690D01*
Y797380D02*
Y827690D01*
X1106117Y796960D02*
X1117187D01*
X1093777D02*
X1106117D01*
X1093357Y797380D02*
X1093777Y796960D01*
X1158907Y827640D02*
X1159557Y828290D01*
X1158907Y797380D02*
Y827640D01*
X1243357Y828290D02*
X1243997Y827650D01*
Y797380D02*
Y827650D01*
X1260997Y797380D02*
X1261417Y796960D01*
X1284827D02*
X1285247Y796540D01*
X1285667Y775800D02*
X1305560D01*
X1285247Y776220D02*
X1285667Y775800D01*
X1329087Y775380D02*
Y775800D01*
X1201427Y776220D02*
X1201847Y775800D01*
X1158907Y775380D02*
Y775800D01*
X1305560Y759460D02*
Y775800D01*
X1221740Y759460D02*
Y775800D01*
X1118027D02*
X1138467D01*
X1137920Y775253D02*
X1138467Y775800D01*
X1243997Y775380D02*
Y775800D01*
X1201847D02*
X1221740D01*
X1137920Y759460D02*
Y775253D01*
X1117607Y776220D02*
X1118027Y775800D01*
X1054617Y773777D02*
X1056640Y775800D01*
X1054617Y759977D02*
Y773777D01*
X1054100Y759460D02*
X1054617Y759977D01*
X1329087Y797380D02*
Y826360D01*
X1327157Y828290D02*
X1329087Y826360D01*
X1356360Y812800D02*
X1357577Y811583D01*
Y796960D02*
Y811583D01*
X1273757Y796960D02*
Y811583D01*
X1106117Y796960D02*
Y811583D01*
X1346507Y796960D02*
X1357577D01*
X1346087Y797380D02*
X1346507Y796960D01*
X1357577D02*
X1368647D01*
X1460927Y775800D02*
X1481367D01*
X1480820Y775253D02*
X1481367Y775800D01*
X1480820Y759460D02*
Y775253D01*
X1544747Y775800D02*
X1564640D01*
Y759460D02*
Y775800D01*
X1628567D02*
X1648460D01*
Y759460D02*
Y775800D01*
X1418657Y828290D02*
X1419257Y827690D01*
Y797380D02*
Y827690D01*
X1501807Y827640D02*
X1502457Y828290D01*
X1501807Y797380D02*
Y827640D01*
X1671987Y797380D02*
Y826360D01*
X1670057Y828290D02*
X1671987Y826360D01*
X1586257Y828290D02*
X1586897Y827650D01*
Y797380D02*
Y827650D01*
X1460507Y776220D02*
X1460927Y775800D01*
X1501807Y775380D02*
Y775800D01*
X1586897Y775380D02*
Y775800D01*
X1544327Y776220D02*
X1544747Y775800D01*
X1628147Y776220D02*
X1628567Y775800D01*
X1671987Y775380D02*
Y775800D01*
X1461257Y796540D02*
X1464257Y799540D01*
X1460507Y796540D02*
X1461257D01*
X1464257Y799540D02*
Y828290D01*
X1449017Y796960D02*
X1460087D01*
X1436677D02*
X1449017D01*
X1436257Y797380D02*
X1436677Y796960D01*
X1460087D02*
X1460507Y796540D01*
X1449017Y796960D02*
Y811583D01*
X1545917Y797380D02*
X1548057Y799520D01*
Y828290D01*
X1616657Y796960D02*
Y811583D01*
X1628897Y796540D02*
X1631857Y799500D01*
X1628147Y796540D02*
X1628897D01*
X1631857Y799500D02*
Y828290D01*
X1603897Y797380D02*
X1604317Y796960D01*
X1627727D02*
X1628147Y796540D01*
X1711967D02*
X1712717D01*
X1715657Y799480D01*
X1500242Y991504D02*
X1503687Y988060D01*
X1503707Y955040D02*
X1521467D01*
X1468457Y919790D02*
X1503707Y955040D01*
X1521467D02*
X1554487Y988060D01*
X1441457Y892790D02*
Y895790D01*
X1465457Y919790D02*
X1468457D01*
X1441457Y895790D02*
X1465457Y919790D01*
X1525257Y892790D02*
X1548743Y916277D01*
Y931517D01*
X1605287Y988060D01*
X1609057Y892790D02*
Y941030D01*
X1656087Y988060D01*
X1692857Y892790D02*
Y972760D01*
X1706887Y986790D01*
X1029580Y307000D02*
X1039563Y316983D01*
X1054100Y317500D02*
X1054617Y316983D01*
X1064027D01*
X1039563D02*
X1053583D01*
X1054100Y317500D01*
X1064027Y316983D02*
X1075210Y305800D01*
X328880Y304800D02*
Y307000D01*
X331080D02*
X341580Y317500D01*
X362910D01*
X1027380Y304800D02*
Y307000D01*
X1595120Y284480D02*
X1595150Y284450D01*
X1501152Y317483D02*
X1507010Y311625D01*
X1508010Y307340D02*
X1508760D01*
X1507010Y308340D02*
X1508010Y307340D01*
X1508760Y287020D02*
X1508790Y286990D01*
X1423190Y305800D02*
X1423940D01*
X1681510Y246770D02*
X1681540Y246740D01*
X1595150Y247410D02*
Y284450D01*
Y247410D02*
X1595180Y247380D01*
X1508790Y247410D02*
Y286990D01*
Y247410D02*
X1508820Y247380D01*
X1424940Y284480D02*
X1424970Y284450D01*
Y246770D02*
Y284450D01*
Y246770D02*
X1425000Y246740D01*
X1723340Y280600D02*
Y282800D01*
X1705340Y284480D02*
X1706340Y283480D01*
X1638300Y280600D02*
X1640780Y278120D01*
X1638300Y280600D02*
Y282800D01*
X1640780Y247380D02*
Y278120D01*
X1621300Y282800D02*
Y283480D01*
X1620300Y284480D02*
X1621300Y283480D01*
X1595120Y284480D02*
X1620300D01*
X1551280Y281440D02*
X1554420Y278300D01*
X1551280Y281440D02*
Y283640D01*
X1554420Y247380D02*
Y278300D01*
X1534280Y283640D02*
Y284840D01*
X1532100Y287020D02*
X1534280Y284840D01*
X1508760Y287020D02*
X1532100D01*
X1658620Y317500D02*
X1658637Y317483D01*
X1572260Y317500D02*
X1572277Y317483D01*
X1587517D01*
X1658637D02*
X1671337D01*
X1658103Y316983D02*
X1658620Y317500D01*
X1645403Y316983D02*
X1658103D01*
X1488457Y317483D02*
X1501152D01*
X1488440Y317500D02*
X1488457Y317483D01*
X1571743Y316983D02*
X1572260Y317500D01*
X1487923Y316983D02*
X1488440Y317500D01*
X1559043Y316983D02*
X1571743D01*
X1475223D02*
X1487923D01*
X1587517Y317483D02*
X1595003Y309997D01*
X1638300Y309880D02*
X1645403Y316983D01*
X1671337Y317483D02*
X1679570Y309250D01*
X1638300Y304800D02*
Y309880D01*
X1551280Y305640D02*
Y309220D01*
X1559043Y316983D01*
X1469340Y311100D02*
X1475223Y316983D01*
X1507010Y308340D02*
Y311625D01*
X1412007Y316983D02*
X1423190Y305800D01*
X1469340Y304800D02*
Y311100D01*
X1423940Y305800D02*
X1424940Y304800D01*
X1469340Y280600D02*
X1470600Y279340D01*
X1469340Y280600D02*
Y282800D01*
X1470600Y246740D02*
Y279340D01*
X1424940Y284480D02*
X1440180D01*
X1451340D01*
X1452340Y283480D01*
X1440180Y266700D02*
Y284480D01*
X1706340Y282800D02*
Y283480D01*
X1452340Y282800D02*
Y283480D01*
X1447800Y30480D02*
Y31230D01*
X1442720Y36310D02*
Y78740D01*
Y36310D02*
X1447800Y31230D01*
X1468120Y30480D02*
X1498600D01*
X1247140Y284480D02*
X1247170Y284450D01*
X1153172Y317483D02*
X1159030Y311625D01*
X1160030Y307340D02*
X1160780D01*
X1159030Y308340D02*
X1160030Y307340D01*
X1160780Y287020D02*
X1160810Y286990D01*
X1075210Y305800D02*
X1075960D01*
X1333500Y284480D02*
X1333530Y284450D01*
Y246770D02*
Y284450D01*
Y246770D02*
X1333560Y246740D01*
X1247170Y247410D02*
Y284450D01*
Y247410D02*
X1247200Y247380D01*
X1160810Y247410D02*
Y286990D01*
Y247410D02*
X1160840Y247380D01*
X1076960Y284480D02*
X1076990Y284450D01*
Y246770D02*
Y284450D01*
Y246770D02*
X1077020Y246740D01*
X1379160D02*
Y276800D01*
X1375360Y280600D02*
X1379160Y276800D01*
X1375360Y280600D02*
Y282800D01*
X1357360Y284480D02*
X1358360Y283480D01*
X1290320Y280600D02*
X1292800Y278120D01*
X1290320Y280600D02*
Y282800D01*
X1292800Y247380D02*
Y278120D01*
X1273320Y282800D02*
Y283480D01*
X1272320Y284480D02*
X1273320Y283480D01*
X1247140Y284480D02*
X1272320D01*
X1203300Y281440D02*
X1206440Y278300D01*
X1203300Y281440D02*
Y283640D01*
X1206440Y247380D02*
Y278300D01*
X1186300Y283640D02*
Y284840D01*
X1184120Y287020D02*
X1186300Y284840D01*
X1160780Y287020D02*
X1184120D01*
X1310640Y317500D02*
X1310657Y317483D01*
X1224280Y317500D02*
X1224297Y317483D01*
X1239537D01*
X1310123Y316983D02*
X1310640Y317500D01*
X1310657Y317483D02*
X1323357D01*
X1223763Y316983D02*
X1224280Y317500D01*
X1297423Y316983D02*
X1310123D01*
X1140460Y317500D02*
X1140477Y317483D01*
X1153172D01*
X1211063Y316983D02*
X1223763D01*
X1139943D02*
X1140460Y317500D01*
X1127243Y316983D02*
X1139943D01*
X1290320Y309880D02*
X1297423Y316983D01*
X1239537Y317483D02*
X1247023Y309997D01*
X1323357Y317483D02*
X1331590Y309250D01*
X1290320Y304800D02*
Y309880D01*
X1203300Y305640D02*
Y309220D01*
X1211063Y316983D01*
X1159030Y308340D02*
Y311625D01*
X1121360Y311100D02*
X1127243Y316983D01*
X1121360Y304800D02*
Y311100D01*
X1075960Y305800D02*
X1076960Y304800D01*
X1121360Y280600D02*
X1122620Y279340D01*
X1121360Y280600D02*
Y282800D01*
X1122620Y246740D02*
Y279340D01*
X1076960Y284480D02*
X1092200D01*
X1103360D01*
X1104360Y283480D01*
X1092200Y266700D02*
Y284480D01*
X1358360Y282800D02*
Y283480D01*
X1104360Y282800D02*
Y283480D01*
X1099820Y30480D02*
Y31230D01*
X1094740Y36310D02*
Y78740D01*
Y36310D02*
X1099820Y31230D01*
X1120140Y30480D02*
X1150620D01*
X899160Y284480D02*
X899190Y284450D01*
X805192Y317483D02*
X811050Y311625D01*
Y308340D02*
X812050Y307340D01*
X812800D01*
Y287020D02*
X812830Y286990D01*
X727230Y305800D02*
X727980D01*
X985520Y284480D02*
X985550Y284450D01*
Y246770D02*
Y284450D01*
Y246770D02*
X985580Y246740D01*
X899190Y247410D02*
Y284450D01*
Y247410D02*
X899220Y247380D01*
X812830Y247410D02*
Y286990D01*
Y247410D02*
X812860Y247380D01*
X728980Y284480D02*
X729010Y284450D01*
Y246770D02*
Y284450D01*
Y246770D02*
X729040Y246740D01*
X1031180D02*
Y276800D01*
X1027380Y280600D02*
X1031180Y276800D01*
X1027380Y280600D02*
Y282800D01*
X1009380Y284480D02*
X1010380Y283480D01*
X942340Y280600D02*
X944820Y278120D01*
X942340Y280600D02*
Y282800D01*
X944820Y247380D02*
Y278120D01*
X925340Y282800D02*
Y283480D01*
X924340Y284480D02*
X925340Y283480D01*
X855320Y281440D02*
X858460Y278300D01*
X855320Y281440D02*
Y283640D01*
X858460Y247380D02*
Y278300D01*
X838320Y283640D02*
Y284840D01*
X836140Y287020D02*
X838320Y284840D01*
X812800Y287020D02*
X836140D01*
X962660Y317500D02*
X962677Y317483D01*
X876317D02*
X891557D01*
X962143Y316983D02*
X962660Y317500D01*
X962677Y317483D02*
X975377D01*
X949443Y316983D02*
X962143D01*
X792497Y317483D02*
X805192D01*
X792480Y317500D02*
X792497Y317483D01*
X791963Y316983D02*
X792480Y317500D01*
X779263Y316983D02*
X791963D01*
X975377Y317483D02*
X983610Y309250D01*
X942340Y309880D02*
X949443Y316983D01*
X891557Y317483D02*
X899043Y309997D01*
X942340Y304800D02*
Y309880D01*
X855320Y305640D02*
Y309220D01*
X773380Y311100D02*
X779263Y316983D01*
X811050Y308340D02*
Y311625D01*
X773380Y304800D02*
Y311100D01*
X727980Y305800D02*
X728980Y304800D01*
X773380Y280600D02*
X774640Y279340D01*
X773380Y280600D02*
Y282800D01*
X774640Y246740D02*
Y279340D01*
X728980Y284480D02*
X744220D01*
X755380D01*
X756380Y283480D01*
X744220Y266700D02*
Y284480D01*
X1010380Y282800D02*
Y283480D01*
X756380Y282800D02*
Y283480D01*
X751840Y30480D02*
Y31230D01*
X746760Y36310D02*
Y78740D01*
Y36310D02*
X751840Y31230D01*
X772160Y30480D02*
X802640D01*
X551180Y284480D02*
X551210Y284450D01*
X457212Y317483D02*
X463070Y311625D01*
Y308340D02*
X464070Y307340D01*
X464820D01*
X379250Y305800D02*
X380000D01*
X637540Y284480D02*
X637570Y284450D01*
Y246770D02*
Y284450D01*
Y246770D02*
X637600Y246740D01*
X551210Y247410D02*
Y284450D01*
Y247410D02*
X551240Y247380D01*
X464820Y287020D02*
X464850Y286990D01*
Y247410D02*
Y286990D01*
Y247410D02*
X464880Y247380D01*
X381000Y284480D02*
X381030Y284450D01*
Y246770D02*
Y284450D01*
Y246770D02*
X381060Y246740D01*
X683200D02*
Y276800D01*
X679400Y280600D02*
X683200Y276800D01*
X679400Y280600D02*
Y282800D01*
X661400Y284480D02*
X662400Y283480D01*
X594360Y280600D02*
X596840Y278120D01*
X594360Y280600D02*
Y282800D01*
X596840Y247380D02*
Y278120D01*
X577360Y282800D02*
Y283480D01*
X576360Y284480D02*
X577360Y283480D01*
X507340Y281440D02*
X510480Y278300D01*
X507340Y281440D02*
Y283640D01*
X510480Y247380D02*
Y278300D01*
X490340Y283640D02*
Y284840D01*
X488160Y287020D02*
X490340Y284840D01*
X464820Y287020D02*
X488160D01*
X614697Y317483D02*
X627397D01*
X614680Y317500D02*
X614697Y317483D01*
X528337D02*
X543577D01*
X528320Y317500D02*
X528337Y317483D01*
X444517D02*
X457212D01*
X614163Y316983D02*
X614680Y317500D01*
X601463Y316983D02*
X614163D01*
X527803D02*
X528320Y317500D01*
X515103Y316983D02*
X527803D01*
X444500Y317500D02*
X444517Y317483D01*
X362910Y317500D02*
X363427Y316983D01*
X368067D01*
X443983D02*
X444500Y317500D01*
X431283Y316983D02*
X443983D01*
X627397Y317483D02*
X635630Y309250D01*
X594360Y309880D02*
X601463Y316983D01*
X543577Y317483D02*
X551063Y309997D01*
X507340Y309220D02*
X515103Y316983D01*
X594360Y304800D02*
Y309880D01*
X507340Y305640D02*
Y309220D01*
X463070Y308340D02*
Y311625D01*
X425400Y311100D02*
X431283Y316983D01*
X425400Y304800D02*
Y311100D01*
X368067Y316983D02*
X379250Y305800D01*
X380000D02*
X381000Y304800D01*
X425400Y280600D02*
X426660Y279340D01*
X425400Y280600D02*
Y282800D01*
X426660Y246740D02*
Y279340D01*
X381000Y284480D02*
X396240D01*
X407400D01*
X408400Y283480D01*
X396240Y266700D02*
Y284480D01*
X662400Y282800D02*
Y283480D01*
X408400Y282800D02*
Y283480D01*
X403860Y30480D02*
Y31230D01*
X398780Y36310D02*
Y78740D01*
Y36310D02*
X403860Y31230D01*
X424180Y30480D02*
X454660D01*
X73660D02*
X104140D01*
X264177Y317483D02*
X276877D01*
X285110Y309250D01*
X264160Y317500D02*
X264177Y317483D01*
X250943Y316983D02*
X263643D01*
X243840Y304800D02*
Y309880D01*
X250943Y316983D01*
X193057Y317483D02*
X200543Y309997D01*
X177817Y317483D02*
X193057D01*
X164583Y316983D02*
X177283D01*
X156820Y309220D02*
X164583Y316983D01*
X156820Y305640D02*
Y309220D01*
X93997Y317483D02*
X106692D01*
X112550Y311625D01*
Y308340D02*
Y311625D01*
Y308340D02*
X113550Y307340D01*
X114300D01*
X80763Y316983D02*
X93463D01*
X74880Y304800D02*
Y311100D01*
X80763Y316983D01*
X263643D02*
X264160Y317500D01*
X177283Y316983D02*
X177800Y317500D01*
X177817Y317483D01*
X93980Y317500D02*
X93997Y317483D01*
X93463Y316983D02*
X93980Y317500D01*
X30510Y246770D02*
Y284450D01*
Y246770D02*
X30540Y246740D01*
X30480Y284480D02*
X30510Y284450D01*
X45720Y266700D02*
Y284480D01*
X56880D01*
X30480D02*
X45720D01*
X332680Y246740D02*
Y276800D01*
X328880Y280600D02*
X332680Y276800D01*
X328880Y280600D02*
Y282800D01*
X243840Y280600D02*
X246320Y278120D01*
Y247380D02*
Y278120D01*
X243840Y280600D02*
Y282800D01*
X156820Y281440D02*
Y283640D01*
X159960Y247380D02*
Y278300D01*
X156820Y281440D02*
X159960Y278300D01*
X74880Y280600D02*
Y282800D01*
X76140Y246740D02*
Y279340D01*
X74880Y280600D02*
X76140Y279340D01*
X310880Y284480D02*
X311880Y283480D01*
Y282800D02*
Y283480D01*
X287050Y246770D02*
X287080Y246740D01*
X287050Y246770D02*
Y284450D01*
X287020Y284480D02*
X287050Y284450D01*
X225840Y284480D02*
X226840Y283480D01*
Y282800D02*
Y283480D01*
X200660Y284480D02*
X200690Y284450D01*
Y247410D02*
X200720Y247380D01*
X200690Y247410D02*
Y284450D01*
X114300Y287020D02*
X137640D01*
X139820Y284840D01*
Y283640D02*
Y284840D01*
X114330Y247410D02*
Y286990D01*
X114300Y287020D02*
X114330Y286990D01*
Y247410D02*
X114360Y247380D01*
X56880Y284480D02*
X57880Y283480D01*
Y282800D02*
Y283480D01*
D83*
X1566279Y584400D02*
X1592019Y558660D01*
X1572620Y609600D02*
X1603100Y640080D01*
X1686560Y558800D02*
X1747520D01*
X1688067Y610493D02*
X1689100Y609460D01*
X1648100Y640080D02*
X1677687Y610493D01*
X1688067D01*
X1592019Y558660D02*
X1689100D01*
X1551940Y609600D02*
X1572620D01*
X1470660Y609400D02*
X1470860Y609600D01*
X1551940D01*
X1470660Y584400D02*
X1566279D01*
X1715657Y812800D02*
X1728184D01*
X1699260D02*
X1715657D01*
X1747520Y276860D02*
Y558800D01*
Y793464D01*
X1728184Y812800D02*
X1747520Y793464D01*
D84*
X1664970Y139870D02*
X1704340Y179240D01*
Y182240D01*
X1664970Y73965D02*
Y139870D01*
X1614170Y179070D02*
X1617980Y182880D01*
X1614170Y73965D02*
Y179070D01*
X1531620Y105715D02*
Y182880D01*
Y105715D02*
X1563370Y73965D01*
X1470450Y117355D02*
X1512570Y75235D01*
X1447800Y182240D02*
X1470450Y159590D01*
Y117355D02*
Y159590D01*
X1316990Y139870D02*
X1356360Y179240D01*
Y182240D01*
X1316990Y73965D02*
Y139870D01*
X1266190Y179070D02*
X1270000Y182880D01*
X1266190Y73965D02*
Y179070D01*
X1183640Y105715D02*
Y182880D01*
Y105715D02*
X1215390Y73965D01*
X1122470Y117355D02*
X1164590Y75235D01*
X1099820Y182240D02*
X1122470Y159590D01*
Y117355D02*
Y159590D01*
X969010Y139870D02*
X1008380Y179240D01*
Y182240D01*
X969010Y73965D02*
Y139870D01*
X918210Y179070D02*
X922020Y182880D01*
X918210Y73965D02*
Y179070D01*
X835660Y105715D02*
Y182880D01*
Y105715D02*
X867410Y73965D01*
X774490Y117355D02*
X816610Y75235D01*
X751840Y182240D02*
X774490Y159590D01*
Y117355D02*
Y159590D01*
X621030Y139870D02*
X660400Y179240D01*
Y182240D01*
X621030Y73965D02*
Y139870D01*
X570230Y179070D02*
X574040Y182880D01*
X570230Y73965D02*
Y179070D01*
X487680Y105715D02*
Y182880D01*
Y105715D02*
X519430Y73965D01*
X426510Y117355D02*
X468630Y75235D01*
X403860Y182240D02*
X426510Y159590D01*
Y117355D02*
Y159590D01*
X270510Y139870D02*
X309880Y179240D01*
Y182240D01*
X270510Y73965D02*
Y139870D01*
X219710Y73965D02*
Y179070D01*
X223520Y182880D01*
X137160Y105715D02*
Y182880D01*
Y105715D02*
X168910Y73965D01*
X53340Y182240D02*
X75990Y159590D01*
Y117355D02*
X118110Y75235D01*
X75990Y117355D02*
Y159590D01*
D85*
X160020Y683260D02*
D03*
X529082Y656590D02*
D03*
Y623570D02*
D03*
D86*
X1445260Y477520D02*
D03*
X1445120Y510310D02*
D03*
D87*
X1198880Y599040D02*
D03*
Y574040D02*
D03*
X1470660Y609400D02*
D03*
Y584400D02*
D03*
X1551940Y609600D02*
D03*
Y584600D02*
D03*
D88*
X1689100Y609460D02*
D03*
Y558660D02*
D03*
Y507860D02*
D03*
D89*
Y457060D02*
D03*
D90*
X495300Y444500D02*
D03*
Y520700D02*
D03*
Y495300D02*
D03*
Y469900D02*
D03*
X93980Y607060D02*
D03*
X17780D02*
D03*
Y632460D02*
D03*
X93980D02*
D03*
Y657860D02*
D03*
X17780D02*
D03*
X93980Y683260D02*
D03*
D91*
X187690Y511290D02*
D03*
X236490D02*
D03*
D92*
X91440Y523240D02*
D03*
Y402840D02*
D03*
X25000Y25000D02*
D03*
Y1045000D02*
D03*
X1765000D02*
D03*
Y25000D02*
D03*
D93*
X118540Y450540D02*
D03*
X138440Y475540D02*
D03*
X118540D02*
D03*
X138440Y450540D02*
D03*
X782320Y619760D02*
D03*
Y645160D02*
D03*
Y670560D02*
D03*
X807720Y645160D02*
D03*
Y670560D02*
D03*
D94*
Y619760D02*
D03*
D95*
X17780Y683260D02*
D03*
D96*
X118110Y75235D02*
D03*
X468630D02*
D03*
X816610D02*
D03*
X1164590D02*
D03*
X1512570D02*
D03*
X1706887Y986790D02*
D03*
X1363987D02*
D03*
X1018547D02*
D03*
X673107D02*
D03*
X330207D02*
D03*
D97*
X168910Y73965D02*
D03*
X219710D02*
D03*
X270510D02*
D03*
X321310D02*
D03*
X519430D02*
D03*
X570230D02*
D03*
X621030D02*
D03*
X671830D02*
D03*
X867410D02*
D03*
X918210D02*
D03*
X969010D02*
D03*
X1019810D02*
D03*
X1215390D02*
D03*
X1266190D02*
D03*
X1316990D02*
D03*
X1367790D02*
D03*
X1563370D02*
D03*
X1614170D02*
D03*
X1664970D02*
D03*
X1715770D02*
D03*
X1656087Y988060D02*
D03*
X1605287D02*
D03*
X1554487D02*
D03*
X1503687D02*
D03*
X1313187D02*
D03*
X1262387D02*
D03*
X1211587D02*
D03*
X1160787D02*
D03*
X967747D02*
D03*
X916947D02*
D03*
X866147D02*
D03*
X815347D02*
D03*
X622307D02*
D03*
X571507D02*
D03*
X520707D02*
D03*
X469907D02*
D03*
X279407D02*
D03*
X228607D02*
D03*
X177807D02*
D03*
X127007D02*
D03*
D98*
X1112520Y533400D02*
D03*
X607060Y449580D02*
D03*
X594360Y482600D02*
D03*
X347980Y520700D02*
D03*
X876300Y317500D02*
D03*
X779780Y726440D02*
D03*
X855980Y614680D02*
D03*
X914400D02*
D03*
X967740Y457200D02*
D03*
X833120Y508000D02*
D03*
X881380Y345670D02*
D03*
X899160Y703580D02*
D03*
X998220Y662940D02*
D03*
X993140Y533400D02*
D03*
X723900Y594360D02*
D03*
X668020Y452120D02*
D03*
X708660Y581660D02*
D03*
X726440Y454660D02*
D03*
X520700Y693420D02*
D03*
X33020Y756920D02*
D03*
X30480Y322580D02*
D03*
X1399540Y317500D02*
D03*
X132080Y266700D02*
D03*
X215900D02*
D03*
X568960D02*
D03*
X482600D02*
D03*
X828040D02*
D03*
X914400D02*
D03*
X1176020Y264160D02*
D03*
X1262380D02*
D03*
X1696720D02*
D03*
X1610360D02*
D03*
X1521460Y266700D02*
D03*
X756920Y467360D02*
D03*
X640080Y401320D02*
D03*
X629920Y431800D02*
D03*
X863600Y355600D02*
D03*
X822960Y561340D02*
D03*
X937260Y604520D02*
D03*
X710890Y317500D02*
D03*
X797287Y764267D02*
D03*
X876300Y764690D02*
D03*
X1711960Y759460D02*
D03*
X1747520Y276860D02*
D03*
X1721010Y317500D02*
D03*
X1397000Y759460D02*
D03*
X360680D02*
D03*
X706120D02*
D03*
X271780D02*
D03*
X187960D02*
D03*
X104140D02*
D03*
X322580Y812800D02*
D03*
X238760D02*
D03*
X154940D02*
D03*
X71120D02*
D03*
X614680Y759460D02*
D03*
X530860D02*
D03*
X447040D02*
D03*
X665480Y812800D02*
D03*
X581660D02*
D03*
X414020D02*
D03*
X497840D02*
D03*
X960120Y759460D02*
D03*
X1010920Y812800D02*
D03*
X927100D02*
D03*
X843280D02*
D03*
X759460D02*
D03*
X1305560Y759460D02*
D03*
X1221740D02*
D03*
X1137920D02*
D03*
X1054100D02*
D03*
X1356360Y812800D02*
D03*
X1272540D02*
D03*
X1188720D02*
D03*
X1104900D02*
D03*
X1531620D02*
D03*
X1480820Y759460D02*
D03*
X1564640D02*
D03*
X1648460D02*
D03*
X1447800Y812800D02*
D03*
X1615440D02*
D03*
X1699260D02*
D03*
X1054100Y317500D02*
D03*
X1658620D02*
D03*
X1572260D02*
D03*
X1488440D02*
D03*
X1440180Y266700D02*
D03*
X1498600Y30480D02*
D03*
X1140460Y317500D02*
D03*
X1310640D02*
D03*
X1224280D02*
D03*
X1348740Y266700D02*
D03*
X1092200D02*
D03*
X1150620Y30480D02*
D03*
X962660Y317500D02*
D03*
X792480D02*
D03*
X1000760Y266700D02*
D03*
X744220D02*
D03*
X802640Y30480D02*
D03*
X614680Y317500D02*
D03*
X362910D02*
D03*
X528320D02*
D03*
X444500D02*
D03*
X652780Y266700D02*
D03*
X396240D02*
D03*
X454660Y30480D02*
D03*
X104140D02*
D03*
X302260Y266700D02*
D03*
X264160Y317500D02*
D03*
X177800D02*
D03*
X93980D02*
D03*
X45720Y266700D02*
D03*
M02*
