G04*
G04 #@! TF.GenerationSoftware,Altium Limited,Altium Designer,21.4.1 (30)*
G04*
G04 Layer_Physical_Order=2*
G04 Layer_Color=16711680*
%FSLAX44Y44*%
%MOMM*%
G71*
G04*
G04 #@! TF.SameCoordinates,D7483978-ABC8-4366-99C6-00734FDD2927*
G04*
G04*
G04 #@! TF.FilePolarity,Positive*
G04*
G01*
G75*
%ADD12C,0.5000*%
%ADD23C,0.3000*%
%ADD82C,1.0000*%
%ADD83C,1.2700*%
%ADD84C,3.0000*%
%ADD85C,2.0000*%
%ADD86C,2.8000*%
%ADD87R,2.8000X2.8000*%
%ADD88R,1.5000X1.5000*%
%ADD89R,1.5000X1.5000*%
%ADD90C,1.8000*%
%ADD91C,2.5400*%
%ADD92R,2.5400X2.5400*%
%ADD93O,2.0000X1.6000*%
%ADD94C,1.5000*%
%ADD95C,3.0000*%
%ADD96C,1.7000*%
%ADD97R,1.7000X1.7000*%
%ADD98R,2.0000X1.6000*%
%ADD99C,1.2700*%
%ADD100O,1.1430X1.3970*%
D12*
X69409Y1020829D02*
Y1044769D01*
X68580Y1020000D02*
X69409Y1020829D01*
X411480Y1020000D02*
Y1071880D01*
X756920Y1020000D02*
Y1071880D01*
X1102360Y1020000D02*
Y1071880D01*
X1445260Y1020000D02*
Y1071880D01*
X69409Y1044769D02*
X78747Y1054107D01*
X132087D01*
X1447800Y30480D02*
Y78740D01*
Y30480D02*
X1450340Y27940D01*
X1099820Y30480D02*
Y78740D01*
X751840Y30480D02*
Y78740D01*
Y30480D02*
X754380Y27940D01*
X403860Y33020D02*
X406400Y30480D01*
X403860Y33020D02*
Y81280D01*
X53340Y63500D02*
Y81280D01*
Y63500D02*
X83820Y33020D01*
X335566D02*
X338106Y30480D01*
X83820Y33020D02*
X335566D01*
X861060Y637540D02*
X919480D01*
D23*
X845820Y622300D02*
X942340D01*
D82*
X881155Y337745D02*
X881230Y337670D01*
X797560Y337820D02*
X797635Y337745D01*
X881155D01*
X848861Y533170D02*
X1450200D01*
X841471Y525780D02*
X848861Y533170D01*
X840740Y525780D02*
X841471D01*
X730169Y726440D02*
X904470D01*
X536662Y676950D02*
X542250D01*
X645160Y416560D02*
Y574040D01*
X534162Y679450D02*
X536662Y676950D01*
X542250D02*
X645160Y574040D01*
X535070Y645160D02*
X535432D01*
X536662Y643930D01*
Y643568D02*
Y643930D01*
X629920Y449580D02*
Y550310D01*
X536662Y643568D02*
X629920Y550310D01*
X619760Y782320D02*
X683260D01*
X535940D02*
X619760D01*
X452120D02*
X535940D01*
X1653540D02*
X1717040D01*
X1569720D02*
X1653540D01*
X1485900D02*
X1569720D01*
X1310640D02*
X1374140D01*
X1226820D02*
X1310640D01*
X1143000D02*
X1226820D01*
X1744980Y337820D02*
X1774580D01*
X1663700D02*
X1744980D01*
X1063950D02*
X1145540D01*
X881380D02*
X967740D01*
X1063950D01*
X1577340D02*
X1663700D01*
X1315720Y340360D02*
X1411930D01*
X619760D02*
X715970D01*
X1493520Y337820D02*
X1577340D01*
X1411930D02*
X1493520D01*
X1229360D02*
X1315720D01*
X1145540D02*
X1229360D01*
X715970D02*
X797560D01*
X367990Y340360D02*
X449580D01*
X533400D01*
X619760D01*
X673100Y647700D02*
Y685800D01*
Y546100D02*
Y647700D01*
X509148Y491612D02*
X620880Y379880D01*
X501528Y491612D02*
X509148D01*
X500380Y543560D02*
X535940D01*
X591820Y487680D01*
X612140Y467360D02*
Y525780D01*
X620880Y379880D02*
X868680D01*
X500380Y492760D02*
X501528Y491612D01*
X673100Y685800D02*
X698500Y711200D01*
X497840Y640080D02*
X612140Y525780D01*
X769620Y711200D02*
X794570D01*
X767080D02*
X769620D01*
X794570D02*
X977900D01*
X728980Y477520D02*
Y617220D01*
Y381000D02*
Y477520D01*
X535940Y726440D02*
X730169D01*
Y642620D02*
Y726440D01*
X729497Y619646D02*
X730169Y620318D01*
Y642620D01*
X728980Y617220D02*
X729497Y617737D01*
Y619646D01*
X868810Y379363D02*
X869197Y378977D01*
X871737D01*
X972820Y480060D01*
X269240Y340360D02*
X367990D01*
X99060D02*
X182880D01*
X44290D02*
X99060D01*
X515620Y749300D02*
X779780D01*
X683260Y782320D02*
X797560D01*
X497840Y731520D02*
X515620Y749300D01*
X1028700Y782320D02*
X1143000D01*
X965200D02*
X1028700D01*
X1374140D02*
X1485900D01*
X276860D02*
X340360D01*
X193040D02*
X276860D01*
X109220D02*
X193040D01*
X40640D02*
X109220D01*
X340360D02*
X452120D01*
X881380D02*
X965200D01*
X797560D02*
X881380D01*
X182880Y340360D02*
X269240D01*
X730169Y642620D02*
X787400D01*
X1717040Y782320D02*
X1769500D01*
X1774580Y787400D01*
X353060Y543560D02*
X500380D01*
X497840Y640080D02*
Y731520D01*
X525780Y716280D02*
X535940Y726440D01*
X762000Y490220D02*
X772160Y500380D01*
X1450340D01*
X977900Y711200D02*
X1003300Y685800D01*
X788712Y694732D02*
Y705342D01*
X787400Y693420D02*
X788712Y694732D01*
Y705342D02*
X794570Y711200D01*
X998220Y556260D02*
Y556991D01*
X1003300Y562071D02*
Y685800D01*
X998220Y556991D02*
X1003300Y562071D01*
X998220Y556260D02*
X1117600D01*
D83*
X1514780Y78105D02*
X1517650Y75235D01*
X1166800Y78105D02*
X1169670Y75235D01*
X818820Y78105D02*
X821690Y75235D01*
X470840Y80645D02*
X473710Y77775D01*
X120320Y80645D02*
X123190Y77775D01*
D84*
X1099820Y30480D02*
X1372870D01*
X1447800D02*
X1684020D01*
X1774580Y121040D01*
X1372870Y30480D02*
X1447800D01*
X751840D02*
X1024890D01*
X1099820D01*
X406400D02*
X676910D01*
X688626D01*
X751840D01*
X1508767Y1071880D02*
X1727200D01*
X1445260D02*
X1508767D01*
X474987Y1028700D02*
Y1071880D01*
X411480D02*
X474987D01*
X1508767Y1028700D02*
Y1071880D01*
X1165867Y1028700D02*
Y1071880D01*
X1102360D02*
X1165867D01*
X1774580Y805180D02*
Y1024500D01*
X1727200Y1071880D02*
X1774580Y1024500D01*
X820427Y1028700D02*
Y1071880D01*
X1165867D02*
X1445260D01*
X820427D02*
X1102360D01*
X756920D02*
X820427D01*
X474987D02*
X756920D01*
X149860D02*
X411480D01*
X132087Y1054107D02*
X149860Y1071880D01*
X1691640Y632460D02*
X1774580D01*
Y121040D02*
Y337820D01*
Y632460D01*
X1372870Y39656D02*
X1384586Y27940D01*
X1372870Y39656D02*
Y73965D01*
X1024890Y39656D02*
X1036606Y27940D01*
X1024890Y39656D02*
Y73965D01*
X676910Y42196D02*
Y76505D01*
Y42196D02*
X688626Y30480D01*
X338106D02*
X406400D01*
X132087Y1028700D02*
Y1054107D01*
X326390Y42196D02*
X335566Y33020D01*
X326390Y42196D02*
Y76505D01*
X1774580Y632460D02*
Y787400D01*
D85*
X657860Y289560D02*
X749300D01*
X586740Y835660D02*
X670560D01*
X502920D02*
X586740D01*
X419100D02*
X502920D01*
X1620520D02*
X1704340D01*
X1536700D02*
X1620520D01*
X1452880D02*
X1536700D01*
X1277620D02*
X1361440D01*
X1193800D02*
X1277620D01*
X1109980D02*
X1193800D01*
X1701800Y287020D02*
X1732280D01*
X1615440D02*
X1701800D01*
X1732280D02*
X1747520Y302260D01*
X1445260Y287020D02*
X1529080D01*
X1615440D01*
X1097280D02*
X1181100D01*
X1267460D02*
X1353820D01*
X1181100D02*
X1267460D01*
X919480D02*
X1005840D01*
X833120D02*
X919480D01*
X749300D02*
X833120D01*
X401320Y289560D02*
X485140D01*
X571500D01*
X657860D01*
X96520Y424180D02*
X457200D01*
X25400Y312420D02*
Y424180D01*
X48260Y289560D02*
X50800D01*
X134620D01*
X25400Y312420D02*
X48260Y289560D01*
X457200Y424180D02*
X500380Y467360D01*
X243840Y835660D02*
X327660D01*
X160020D02*
X243840D01*
X76200D02*
X160020D01*
X932180D02*
X1016000D01*
X848360D02*
X932180D01*
X764540D02*
X848360D01*
X134620Y289560D02*
X220980D01*
X307340D01*
X22860Y629920D02*
Y655320D01*
Y680720D01*
Y706120D01*
X25400Y424180D02*
X95000D01*
X25400D02*
Y627380D01*
X95000Y424180D02*
X96520Y425700D01*
X22860Y629920D02*
X25400Y627380D01*
X1353820Y289560D02*
X1445260D01*
X1016000Y835660D02*
X1109980D01*
X670560D02*
X764540D01*
X327660D02*
X419100D01*
X1361440D02*
X1452880D01*
X1005840Y289560D02*
X1097280D01*
X307340D02*
X401320D01*
D86*
X1720850Y73965D02*
D03*
X1670050D02*
D03*
X1619250D02*
D03*
X1568450D02*
D03*
X1372870D02*
D03*
X1322070D02*
D03*
X1271270D02*
D03*
X1220470D02*
D03*
X676910Y76505D02*
D03*
X626110D02*
D03*
X575310D02*
D03*
X524510D02*
D03*
X326390D02*
D03*
X275590D02*
D03*
X224790D02*
D03*
X173990D02*
D03*
X872490Y73965D02*
D03*
X923290D02*
D03*
X974090D02*
D03*
X1024890D02*
D03*
X1661167Y1028700D02*
D03*
X1610367D02*
D03*
X1559567D02*
D03*
X1508767D02*
D03*
X1318267D02*
D03*
X1267467D02*
D03*
X1216667D02*
D03*
X1165867D02*
D03*
X972827D02*
D03*
X922027D02*
D03*
X871227D02*
D03*
X820427D02*
D03*
X627387D02*
D03*
X576587D02*
D03*
X525787D02*
D03*
X474987D02*
D03*
X284487D02*
D03*
X233687D02*
D03*
X182887D02*
D03*
X132087D02*
D03*
D87*
X1517650Y75235D02*
D03*
X1169670D02*
D03*
X473710Y77775D02*
D03*
X123190D02*
D03*
X821690Y75235D02*
D03*
X1711967Y1027430D02*
D03*
X1369067D02*
D03*
X1023627D02*
D03*
X678187D02*
D03*
X335287D02*
D03*
D88*
X165100Y706120D02*
D03*
X534162Y679450D02*
D03*
Y646430D02*
D03*
D89*
X1450340Y500380D02*
D03*
X1450200Y533170D02*
D03*
D90*
X1203960Y621900D02*
D03*
Y596900D02*
D03*
X1475740Y632260D02*
D03*
Y607260D02*
D03*
X1557020Y632460D02*
D03*
Y607460D02*
D03*
D91*
X1694180Y632320D02*
D03*
Y581520D02*
D03*
Y530720D02*
D03*
D92*
Y479920D02*
D03*
D93*
X500380Y467360D02*
D03*
Y543560D02*
D03*
Y518160D02*
D03*
Y492760D02*
D03*
X99060Y629920D02*
D03*
X22860D02*
D03*
Y655320D02*
D03*
X99060D02*
D03*
Y680720D02*
D03*
X22860D02*
D03*
X99060Y706120D02*
D03*
D94*
X192770Y534150D02*
D03*
X241570D02*
D03*
D95*
X96520Y546100D02*
D03*
Y425700D02*
D03*
X1774600Y1074600D02*
D03*
X25400Y25400D02*
D03*
Y1074600D02*
D03*
X1774600Y25400D02*
D03*
D96*
X123620Y473400D02*
D03*
X143520Y498400D02*
D03*
X123620D02*
D03*
X143520Y473400D02*
D03*
X787400Y642620D02*
D03*
Y668020D02*
D03*
Y693420D02*
D03*
X812800Y668020D02*
D03*
Y693420D02*
D03*
D97*
Y642620D02*
D03*
D98*
X22860Y706120D02*
D03*
D99*
X881230Y337670D02*
D03*
X840740Y525780D02*
D03*
X904470Y726440D02*
D03*
X670560Y835660D02*
D03*
X586740D02*
D03*
X502920D02*
D03*
X419100D02*
D03*
X683260Y782320D02*
D03*
X619760D02*
D03*
X452120D02*
D03*
X535940D02*
D03*
X1704340Y835660D02*
D03*
X1620520D02*
D03*
X1536700D02*
D03*
X1452880D02*
D03*
X1653540Y782320D02*
D03*
X1717040D02*
D03*
X1485900D02*
D03*
X1569720D02*
D03*
X1361440Y835660D02*
D03*
X1277620D02*
D03*
X1193800D02*
D03*
X1109980D02*
D03*
X1310640Y782320D02*
D03*
X1374140D02*
D03*
X1143000D02*
D03*
X1226820D02*
D03*
X1744980Y337820D02*
D03*
X1747520Y302260D02*
D03*
X1701800Y287020D02*
D03*
X1615440D02*
D03*
X1529080D02*
D03*
X1445260D02*
D03*
X1663700Y337820D02*
D03*
X1577340D02*
D03*
X1493520D02*
D03*
X1411930D02*
D03*
X1353820Y287020D02*
D03*
X1267460D02*
D03*
X1181100D02*
D03*
X1097280D02*
D03*
X1145540Y337820D02*
D03*
X1315720D02*
D03*
X1229360D02*
D03*
X1063950D02*
D03*
X1005840Y287020D02*
D03*
X919480D02*
D03*
X833120D02*
D03*
X749300D02*
D03*
X797560Y337820D02*
D03*
X967740D02*
D03*
X715970D02*
D03*
X367990Y340360D02*
D03*
X449580D02*
D03*
X533400D02*
D03*
X619760D02*
D03*
X401320Y289560D02*
D03*
X485140D02*
D03*
X571500D02*
D03*
X657860D02*
D03*
X629920Y449580D02*
D03*
X645160Y416560D02*
D03*
X612140Y467360D02*
D03*
X591820Y487680D02*
D03*
X673100Y546100D02*
D03*
Y647700D02*
D03*
X845820Y622300D02*
D03*
X698500Y711200D02*
D03*
X769620D02*
D03*
X942340Y622300D02*
D03*
X728980Y477520D02*
D03*
Y617220D02*
D03*
X868680Y379880D02*
D03*
X40640Y782320D02*
D03*
X779780Y749300D02*
D03*
X327660Y835660D02*
D03*
X160020D02*
D03*
X243840D02*
D03*
X76200D02*
D03*
X276860Y782320D02*
D03*
X340360D02*
D03*
X193040D02*
D03*
X109220D02*
D03*
X1016000Y835660D02*
D03*
X848360D02*
D03*
X932180D02*
D03*
X764540D02*
D03*
X965200Y782320D02*
D03*
X1028700D02*
D03*
X881380D02*
D03*
X797560D02*
D03*
X220980Y289560D02*
D03*
X44290Y340360D02*
D03*
X307340Y289560D02*
D03*
X134620D02*
D03*
X50800D02*
D03*
X269240Y340360D02*
D03*
X182880D02*
D03*
X99060D02*
D03*
X1117600Y556260D02*
D03*
X353060Y543560D02*
D03*
X861060Y637540D02*
D03*
X919480D02*
D03*
X972820Y480060D02*
D03*
X1003300Y685800D02*
D03*
X998220Y556260D02*
D03*
X525780Y716280D02*
D03*
X762000Y490220D02*
D03*
D100*
X38100Y80000D02*
D03*
X68580D02*
D03*
X53340D02*
D03*
X83820D02*
D03*
X388620D02*
D03*
X419100D02*
D03*
X403860D02*
D03*
X434340D02*
D03*
X736600D02*
D03*
X767080D02*
D03*
X751840D02*
D03*
X782320D02*
D03*
X1084580D02*
D03*
X1115060D02*
D03*
X1099820D02*
D03*
X1130300D02*
D03*
X1432560D02*
D03*
X1463040D02*
D03*
X1447800D02*
D03*
X1478280D02*
D03*
X1460500Y1020000D02*
D03*
X1430020D02*
D03*
X1445260D02*
D03*
X1414780D02*
D03*
X1117600D02*
D03*
X1087120D02*
D03*
X1102360D02*
D03*
X1071880D02*
D03*
X772160D02*
D03*
X741680D02*
D03*
X756920D02*
D03*
X726440D02*
D03*
X426720D02*
D03*
X396240D02*
D03*
X411480D02*
D03*
X381000D02*
D03*
X83820D02*
D03*
X53340D02*
D03*
X68580D02*
D03*
X38100D02*
D03*
M02*
