G04*
G04 #@! TF.GenerationSoftware,Altium Limited,Altium Designer,21.4.1 (30)*
G04*
G04 Layer_Physical_Order=2*
G04 Layer_Color=16711680*
%FSLAX44Y44*%
%MOMM*%
G71*
G04*
G04 #@! TF.SameCoordinates,6184CBAD-8C2E-428C-A116-2BF05ABD0BD4*
G04*
G04*
G04 #@! TF.FilePolarity,Positive*
G04*
G01*
G75*
%ADD12C,0.5000*%
%ADD23C,0.3000*%
%ADD82C,1.0000*%
%ADD83C,2.0000*%
%ADD84C,1.2700*%
%ADD85R,1.5000X1.5000*%
%ADD86R,1.5000X1.5000*%
%ADD87C,1.8000*%
%ADD88C,2.5400*%
%ADD89R,2.5400X2.5400*%
%ADD90O,2.0000X1.6000*%
%ADD91C,1.5000*%
%ADD92C,3.0000*%
%ADD93C,1.7000*%
%ADD94R,1.7000X1.7000*%
%ADD95R,2.0000X1.6000*%
%ADD96R,2.8000X2.8000*%
%ADD97C,2.8000*%
%ADD98C,1.2700*%
%ADD99O,1.1430X1.3970*%
D12*
X607060Y449580D02*
Y502920D01*
X492760Y617220D02*
X607060Y502920D01*
X556260Y520700D02*
X594360Y482600D01*
Y482600D02*
Y482600D01*
X495300Y520700D02*
X556260D01*
X347980D02*
X495300D01*
X678180Y330200D02*
X896620D01*
X538480Y469900D02*
X678180Y330200D01*
X495300Y469900D02*
X538480D01*
X896620Y330200D02*
X967740Y401320D01*
Y457200D01*
X510540Y726440D02*
X779780D01*
X563880Y650240D02*
X641310Y572810D01*
Y407630D02*
Y572810D01*
X728980Y703580D02*
X899160D01*
X640080Y406400D02*
X641310Y407630D01*
X492760Y617220D02*
Y708660D01*
X520700Y693420D02*
X530860Y703580D01*
X728980D01*
X726440Y622300D02*
Y701040D01*
X728980Y703580D01*
X640080Y401320D02*
Y406400D01*
X492760Y708660D02*
X510540Y726440D01*
X855980Y614680D02*
X914400D01*
X629920Y431800D02*
Y558800D01*
X571500Y617220D02*
X629920Y558800D01*
X726440Y622300D02*
X728980Y619760D01*
X782320D01*
X726440Y584200D02*
Y622300D01*
X530860Y617220D02*
X571500D01*
X529082Y656590D02*
X562102D01*
X238767Y947420D02*
X279407Y988060D01*
X33020Y970280D02*
Y994920D01*
X55880Y947420D02*
X238767D01*
X33020Y970280D02*
X55880Y947420D01*
X194967Y954420D02*
X228607Y988060D01*
X48260Y975360D02*
X69200Y954420D01*
X48260Y975360D02*
Y994920D01*
X69200Y954420D02*
X194967D01*
X152407Y962660D02*
X177807Y988060D01*
X91440Y962660D02*
X152407D01*
X78740Y975360D02*
X91440Y962660D01*
X78740Y975360D02*
Y994920D01*
X581667Y947420D02*
X622307Y988060D01*
X375920Y970280D02*
Y994920D01*
X398780Y947420D02*
X581667D01*
X375920Y970280D02*
X398780Y947420D01*
X537867Y954420D02*
X571507Y988060D01*
X391160Y975360D02*
X412100Y954420D01*
X391160Y975360D02*
Y994920D01*
X412100Y954420D02*
X537867D01*
X495307Y962660D02*
X520707Y988060D01*
X434340Y962660D02*
X495307D01*
X421640Y975360D02*
X434340Y962660D01*
X421640Y975360D02*
Y994920D01*
X927107Y947420D02*
X967747Y988060D01*
X721360Y970280D02*
Y994920D01*
X744220Y947420D02*
X927107D01*
X721360Y970280D02*
X744220Y947420D01*
X883307Y954420D02*
X916947Y988060D01*
X736600Y975360D02*
X757540Y954420D01*
X736600Y975360D02*
Y994920D01*
X757540Y954420D02*
X883307D01*
X840747Y962660D02*
X866147Y988060D01*
X779780Y962660D02*
X840747D01*
X767080Y975360D02*
X779780Y962660D01*
X767080Y975360D02*
Y994920D01*
X1272547Y947420D02*
X1313187Y988060D01*
X1066800Y970280D02*
Y994920D01*
X1089660Y947420D02*
X1272547D01*
X1066800Y970280D02*
X1089660Y947420D01*
X1228747Y954420D02*
X1262387Y988060D01*
X1082040Y975360D02*
X1102980Y954420D01*
X1082040Y975360D02*
Y994920D01*
X1102980Y954420D02*
X1228747D01*
X1186187Y962660D02*
X1211587Y988060D01*
X1125220Y962660D02*
X1186187D01*
X1112520Y975360D02*
X1125220Y962660D01*
X1112520Y975360D02*
Y994920D01*
X1409700Y970280D02*
X1432560Y947420D01*
X1571647Y954420D02*
X1605287Y988060D01*
X1424940Y975360D02*
X1445880Y954420D01*
X1432560Y947420D02*
X1615447D01*
X1656087Y988060D01*
X1445880Y954420D02*
X1571647D01*
X1455420Y975360D02*
X1468120Y962660D01*
X1529087D01*
X1455420Y975360D02*
Y994920D01*
X1424940Y975360D02*
Y994920D01*
X1409700Y970280D02*
Y994920D01*
X1529087Y962660D02*
X1554487Y988060D01*
X1533195Y104140D02*
X1563370Y73965D01*
X1497330Y104140D02*
X1533195D01*
X1473200Y80010D02*
X1497330Y104140D01*
X1473200Y78740D02*
Y80010D01*
X1614170Y73965D02*
Y77470D01*
X1457960Y93980D02*
X1475740Y111760D01*
X1579880D01*
X1457960Y78740D02*
Y93980D01*
X1579880Y111760D02*
X1614170Y77470D01*
X1619555Y119380D02*
X1664970Y73965D01*
X1426250Y92830D02*
X1452800Y119380D01*
X1619555D01*
X1426250Y79970D02*
Y92830D01*
Y79970D02*
X1427480Y78740D01*
X1185215Y104140D02*
X1215390Y73965D01*
X1149350Y104140D02*
X1185215D01*
X1125220Y80010D02*
X1149350Y104140D01*
X1125220Y78740D02*
Y80010D01*
X1266190Y73965D02*
Y77470D01*
X1109980Y93980D02*
X1127760Y111760D01*
X1231900D01*
X1109980Y78740D02*
Y93980D01*
X1231900Y111760D02*
X1266190Y77470D01*
X1271575Y119380D02*
X1316990Y73965D01*
X1078270Y92830D02*
X1104820Y119380D01*
X1271575D01*
X1078270Y79970D02*
Y92830D01*
Y79970D02*
X1079500Y78740D01*
X837235Y104140D02*
X867410Y73965D01*
X801370Y104140D02*
X837235D01*
X777240Y80010D02*
X801370Y104140D01*
X777240Y78740D02*
Y80010D01*
X918210Y73965D02*
Y77470D01*
X762000Y93980D02*
X779780Y111760D01*
X883920D01*
X762000Y78740D02*
Y93980D01*
X883920Y111760D02*
X918210Y77470D01*
X923595Y119380D02*
X969010Y73965D01*
X730290Y92830D02*
X756840Y119380D01*
X923595D01*
X730290Y79970D02*
Y92830D01*
Y79970D02*
X731520Y78740D01*
X489255Y104140D02*
X519430Y73965D01*
X453390Y104140D02*
X489255D01*
X429260Y80010D02*
X453390Y104140D01*
X429260Y78740D02*
Y80010D01*
X570230Y73965D02*
Y77470D01*
X414020Y93980D02*
X431800Y111760D01*
X535940D01*
X414020Y78740D02*
Y93980D01*
X535940Y111760D02*
X570230Y77470D01*
X575615Y119380D02*
X621030Y73965D01*
X382310Y92830D02*
X408860Y119380D01*
X575615D01*
X382310Y79970D02*
Y92830D01*
Y79970D02*
X383540Y78740D01*
X102870Y104140D02*
X138735D01*
X78740Y80010D02*
X102870Y104140D01*
X138735D02*
X168910Y73965D01*
X185420Y111760D02*
X219710Y77470D01*
X63500Y93980D02*
X81280Y111760D01*
X185420D01*
X31790Y92830D02*
X58340Y119380D01*
X225095D01*
X31790Y79970D02*
Y92830D01*
X78740Y78740D02*
Y80010D01*
X31790Y79970D02*
X33020Y78740D01*
X63500D02*
Y93980D01*
X225095Y119380D02*
X270510Y73965D01*
X219710D02*
Y77470D01*
D23*
X1442810Y508000D02*
X1445120Y510310D01*
X726440Y454660D02*
X825500Y355600D01*
X863600D01*
X874674Y343814D02*
X879524D01*
X668020Y454660D02*
X779780Y342900D01*
X873760D01*
X874674Y343814D01*
X879524D02*
X881380Y345670D01*
X668020Y454660D02*
Y541020D01*
X861060Y599440D02*
X930653D01*
X935733Y604520D01*
X937260D01*
X822960Y561340D02*
X861060Y599440D01*
X756920Y467360D02*
X767080Y477520D01*
X1445260D01*
X833120Y508000D02*
X1442810D01*
X993140Y533400D02*
X1112520D01*
X726440Y454660D02*
Y584200D01*
X668020Y541020D02*
X708660Y581660D01*
D82*
X15240Y401320D02*
X165100D01*
X208280Y444500D01*
X495300D01*
X792480Y317500D02*
X876300D01*
X866657Y356117D02*
X967740Y457200D01*
X789490Y688340D02*
X972820D01*
X998220Y662940D01*
X783632Y671872D02*
Y682482D01*
X782320Y670560D02*
X783632Y671872D01*
Y682482D02*
X789490Y688340D01*
X993140Y533400D02*
Y534131D01*
X998220Y539211D02*
Y662940D01*
X993140Y534131D02*
X998220Y539211D01*
X864117Y356117D02*
X866657D01*
X863600Y355600D02*
X864117Y356117D01*
X15240Y401320D02*
Y680720D01*
X103409Y759460D02*
X187960D01*
X100869Y756920D02*
X103409Y759460D01*
X33020Y756920D02*
X100869D01*
X15240Y276860D02*
Y401320D01*
X45720Y266700D02*
X58420D01*
X25400D02*
X45720D01*
X15240Y680720D02*
X17780Y683260D01*
X15240Y276860D02*
X25400Y266700D01*
X31211Y322580D02*
X36291Y317500D01*
X30480Y322580D02*
X31211D01*
X36291Y317500D02*
X177800D01*
X1224280D02*
X1572260D01*
X528320D02*
X614680D01*
X710890D01*
X706120Y759460D02*
X770937D01*
X775744Y764267D01*
X797287D01*
Y759460D02*
X876300D01*
Y764690D01*
X1572260Y317500D02*
X1658620D01*
X1721010D02*
X1771800D01*
X1658620D02*
X1721010D01*
X1711960Y759460D02*
X1771800D01*
X1648460D02*
X1711960D01*
X1564640D02*
X1648460D01*
X1397000D02*
X1480820D01*
X1305560D02*
X1397000D01*
X614680D02*
X706120D01*
X360680D02*
X447040D01*
X271780D02*
X360680D01*
X1054100D02*
X1137920D01*
X960120D02*
X1054100D01*
X187960D02*
X271780D01*
X530860D02*
X614680D01*
X447040D02*
X530860D01*
X876300D02*
X960120D01*
X1221740D02*
X1305560D01*
X1137920D02*
X1221740D01*
X1480820D02*
X1564640D01*
X1140460Y317500D02*
X1224280D01*
X1054100D02*
X1140460D01*
X962660D02*
X1054100D01*
X876300D02*
X962660D01*
X710890D02*
X792480D01*
X444500D02*
X528320D01*
X362910D02*
X444500D01*
X264160D02*
X362910D01*
X177800D02*
X264160D01*
D83*
X1379506Y27940D02*
X1498600D01*
X1771800Y103020D02*
Y317500D01*
X1715770Y46990D02*
X1771800Y103020D01*
X1498600Y27940D02*
X1699260D01*
X1686560Y609600D02*
X1771800D01*
X1521460Y266700D02*
X1737360D01*
X1440180D02*
X1521460D01*
X1348740D02*
X1440180D01*
X1092200D02*
X1348740D01*
X914400D02*
X1000760D01*
X828040D02*
X914400D01*
X744220D02*
X828040D01*
X568960D02*
X652780D01*
X482600D02*
X568960D01*
X396240D02*
X482600D01*
X215900D02*
X302260D01*
X132080D02*
X215900D01*
X58420D02*
X132080D01*
X1737360D02*
X1747520Y276860D01*
X1031526Y27940D02*
X1379506D01*
X683546D02*
X1031526D01*
X333026D02*
X683546D01*
X128537Y989591D02*
Y1030237D01*
X149860Y1051560D02*
X467360D01*
X469907Y988060D02*
Y1049013D01*
X128537Y1030237D02*
X149860Y1051560D01*
X1498600D02*
X1696720D01*
X1771800Y759460D02*
Y976480D01*
X1696720Y1051560D02*
X1771800Y976480D01*
Y317500D02*
Y609600D01*
Y759460D01*
X467360Y1051560D02*
X820420D01*
X467360D02*
X469907Y1049013D01*
X820420Y1051560D02*
X1158240D01*
X815347Y1046487D02*
X820420Y1051560D01*
X815347Y988060D02*
Y1046487D01*
X1158240Y1051560D02*
X1498600D01*
X1158240D02*
X1160787Y1049013D01*
Y988060D02*
Y1049013D01*
X1498600Y1051560D02*
X1503687Y1046473D01*
Y988060D02*
Y1046473D01*
X1615440Y812800D02*
X1699260D01*
X127007Y988060D02*
X128537Y989591D01*
X1104900Y812800D02*
X1188720D01*
X1010920D02*
X1104900D01*
X927100D02*
X1010920D01*
X759460D02*
X843280D01*
X665480D02*
X759460D01*
X581660D02*
X665480D01*
X414020D02*
X497840D01*
X322580D02*
X414020D01*
X238760D02*
X322580D01*
X154940D02*
X238760D01*
X71120D02*
X154940D01*
X497840D02*
X581660D01*
X843280D02*
X927100D01*
X1272540D02*
X1356360D01*
X1188720D02*
X1272540D01*
X1531620D02*
X1615440D01*
X1447800D02*
X1531620D01*
X1356360D02*
X1447800D01*
X1715770Y44450D02*
Y73965D01*
X1699260Y27940D02*
X1715770Y44450D01*
X1000760Y266700D02*
X1092200D01*
X652780D02*
X744220D01*
X302260D02*
X396240D01*
X106680Y27940D02*
X333026D01*
X104140Y30480D02*
X106680Y27940D01*
X1367790Y39656D02*
X1379506Y27940D01*
X1367790Y39656D02*
Y73965D01*
X1019810Y39656D02*
X1031526Y27940D01*
X1019810Y39656D02*
Y73965D01*
X671830Y39656D02*
X683546Y27940D01*
X671830Y39656D02*
Y73965D01*
X321310Y39656D02*
X333026Y27940D01*
X321310Y39656D02*
Y73965D01*
D84*
X1509700Y78105D02*
X1512570Y75235D01*
X1161720Y78105D02*
X1164590Y75235D01*
X813740Y78105D02*
X816610Y75235D01*
X465760Y78105D02*
X468630Y75235D01*
X115240Y78105D02*
X118110Y75235D01*
D85*
X160020Y683260D02*
D03*
X529082Y656590D02*
D03*
Y623570D02*
D03*
D86*
X1445260Y477520D02*
D03*
X1445120Y510310D02*
D03*
D87*
X1198880Y599040D02*
D03*
Y574040D02*
D03*
X1470660Y609400D02*
D03*
Y584400D02*
D03*
X1551940Y609600D02*
D03*
Y584600D02*
D03*
D88*
X1689100Y609460D02*
D03*
Y558660D02*
D03*
Y507860D02*
D03*
D89*
Y457060D02*
D03*
D90*
X495300Y444500D02*
D03*
Y520700D02*
D03*
Y495300D02*
D03*
Y469900D02*
D03*
X93980Y607060D02*
D03*
X17780D02*
D03*
Y632460D02*
D03*
X93980D02*
D03*
Y657860D02*
D03*
X17780D02*
D03*
X93980Y683260D02*
D03*
D91*
X187690Y511290D02*
D03*
X236490D02*
D03*
D92*
X91440Y523240D02*
D03*
Y402840D02*
D03*
X25000Y25000D02*
D03*
Y1045000D02*
D03*
X1765000D02*
D03*
Y25000D02*
D03*
D93*
X118540Y450540D02*
D03*
X138440Y475540D02*
D03*
X118540D02*
D03*
X138440Y450540D02*
D03*
X782320Y619760D02*
D03*
Y645160D02*
D03*
Y670560D02*
D03*
X807720Y645160D02*
D03*
Y670560D02*
D03*
D94*
Y619760D02*
D03*
D95*
X17780Y683260D02*
D03*
D96*
X118110Y75235D02*
D03*
X468630D02*
D03*
X816610D02*
D03*
X1164590D02*
D03*
X1512570D02*
D03*
X1706887Y986790D02*
D03*
X1363987D02*
D03*
X1018547D02*
D03*
X673107D02*
D03*
X330207D02*
D03*
D97*
X168910Y73965D02*
D03*
X219710D02*
D03*
X270510D02*
D03*
X321310D02*
D03*
X519430D02*
D03*
X570230D02*
D03*
X621030D02*
D03*
X671830D02*
D03*
X867410D02*
D03*
X918210D02*
D03*
X969010D02*
D03*
X1019810D02*
D03*
X1215390D02*
D03*
X1266190D02*
D03*
X1316990D02*
D03*
X1367790D02*
D03*
X1563370D02*
D03*
X1614170D02*
D03*
X1664970D02*
D03*
X1715770D02*
D03*
X1656087Y988060D02*
D03*
X1605287D02*
D03*
X1554487D02*
D03*
X1503687D02*
D03*
X1313187D02*
D03*
X1262387D02*
D03*
X1211587D02*
D03*
X1160787D02*
D03*
X967747D02*
D03*
X916947D02*
D03*
X866147D02*
D03*
X815347D02*
D03*
X622307D02*
D03*
X571507D02*
D03*
X520707D02*
D03*
X469907D02*
D03*
X279407D02*
D03*
X228607D02*
D03*
X177807D02*
D03*
X127007D02*
D03*
D98*
X1112520Y533400D02*
D03*
X607060Y449580D02*
D03*
X594360Y482600D02*
D03*
X347980Y520700D02*
D03*
X876300Y317500D02*
D03*
X779780Y726440D02*
D03*
X855980Y614680D02*
D03*
X914400D02*
D03*
X967740Y457200D02*
D03*
X833120Y508000D02*
D03*
X881380Y345670D02*
D03*
X899160Y703580D02*
D03*
X998220Y662940D02*
D03*
X993140Y533400D02*
D03*
X723900Y594360D02*
D03*
X668020Y452120D02*
D03*
X708660Y581660D02*
D03*
X726440Y454660D02*
D03*
X520700Y693420D02*
D03*
X33020Y756920D02*
D03*
X30480Y322580D02*
D03*
X1399540Y317500D02*
D03*
X132080Y266700D02*
D03*
X215900D02*
D03*
X568960D02*
D03*
X482600D02*
D03*
X828040D02*
D03*
X914400D02*
D03*
X1176020Y264160D02*
D03*
X1262380D02*
D03*
X1696720D02*
D03*
X1610360D02*
D03*
X1521460Y266700D02*
D03*
X756920Y467360D02*
D03*
X640080Y401320D02*
D03*
X629920Y431800D02*
D03*
X863600Y355600D02*
D03*
X822960Y561340D02*
D03*
X937260Y604520D02*
D03*
X710890Y317500D02*
D03*
X797287Y764267D02*
D03*
X876300Y764690D02*
D03*
X1711960Y759460D02*
D03*
X1747520Y276860D02*
D03*
X1721010Y317500D02*
D03*
X1397000Y759460D02*
D03*
X360680D02*
D03*
X706120D02*
D03*
X271780D02*
D03*
X187960D02*
D03*
X104140D02*
D03*
X322580Y812800D02*
D03*
X238760D02*
D03*
X154940D02*
D03*
X71120D02*
D03*
X614680Y759460D02*
D03*
X530860D02*
D03*
X447040D02*
D03*
X665480Y812800D02*
D03*
X581660D02*
D03*
X414020D02*
D03*
X497840D02*
D03*
X960120Y759460D02*
D03*
X1010920Y812800D02*
D03*
X927100D02*
D03*
X843280D02*
D03*
X759460D02*
D03*
X1305560Y759460D02*
D03*
X1221740D02*
D03*
X1137920D02*
D03*
X1054100D02*
D03*
X1356360Y812800D02*
D03*
X1272540D02*
D03*
X1188720D02*
D03*
X1104900D02*
D03*
X1531620D02*
D03*
X1480820Y759460D02*
D03*
X1564640D02*
D03*
X1648460D02*
D03*
X1447800Y812800D02*
D03*
X1615440D02*
D03*
X1699260D02*
D03*
X1054100Y317500D02*
D03*
X1658620D02*
D03*
X1572260D02*
D03*
X1488440D02*
D03*
X1440180Y266700D02*
D03*
X1498600Y30480D02*
D03*
X1140460Y317500D02*
D03*
X1310640D02*
D03*
X1224280D02*
D03*
X1348740Y266700D02*
D03*
X1092200D02*
D03*
X1150620Y30480D02*
D03*
X962660Y317500D02*
D03*
X792480D02*
D03*
X1000760Y266700D02*
D03*
X744220D02*
D03*
X802640Y30480D02*
D03*
X614680Y317500D02*
D03*
X362910D02*
D03*
X528320D02*
D03*
X444500D02*
D03*
X652780Y266700D02*
D03*
X396240D02*
D03*
X454660Y30480D02*
D03*
X104140D02*
D03*
X302260Y266700D02*
D03*
X264160Y317500D02*
D03*
X177800D02*
D03*
X93980D02*
D03*
X45720Y266700D02*
D03*
D99*
X33020Y78740D02*
D03*
X63500D02*
D03*
X48260D02*
D03*
X78740D02*
D03*
X383540D02*
D03*
X414020D02*
D03*
X398780D02*
D03*
X429260D02*
D03*
X731520D02*
D03*
X762000D02*
D03*
X746760D02*
D03*
X777240D02*
D03*
X1079500D02*
D03*
X1109980D02*
D03*
X1094740D02*
D03*
X1125220D02*
D03*
X1427480Y79920D02*
D03*
X1457960D02*
D03*
X1442720D02*
D03*
X1473200D02*
D03*
X1455420Y995000D02*
D03*
X1424940D02*
D03*
X1440180D02*
D03*
X1409700D02*
D03*
X1112520D02*
D03*
X1082040D02*
D03*
X1097280D02*
D03*
X1066800D02*
D03*
X767080D02*
D03*
X736600D02*
D03*
X751840D02*
D03*
X721360D02*
D03*
X421640D02*
D03*
X391160D02*
D03*
X406400D02*
D03*
X375920D02*
D03*
X78740D02*
D03*
X48260D02*
D03*
X63500D02*
D03*
X33020D02*
D03*
M02*
