G04*
G04 #@! TF.GenerationSoftware,Altium Limited,Altium Designer,21.4.1 (30)*
G04*
G04 Layer_Color=255*
%FSLAX44Y44*%
%MOMM*%
G71*
G04*
G04 #@! TF.SameCoordinates,06C005F6-D9AB-4DD0-9814-7D4EB34A58F7*
G04*
G04*
G04 #@! TF.FilePolarity,Positive*
G04*
G01*
G75*
%ADD82C,3.0000*%
%ADD83C,1.7000*%
%ADD84O,2.0000X1.6000*%
%ADD85R,2.0000X1.6000*%
%ADD86R,1.7000X1.7000*%
%ADD87C,1.8000*%
%ADD88C,1.5000*%
%ADD89R,2.8000X2.8000*%
%ADD90C,2.8000*%
%ADD91C,2.5400*%
%ADD92R,2.5400X2.5400*%
%ADD93R,2.8000X2.8000*%
%ADD94R,1.5000X1.5000*%
%ADD96O,1.1430X1.3970*%
D82*
X97790Y589030D02*
D03*
Y468630D02*
D03*
D83*
X124890Y516330D02*
D03*
X144790Y541330D02*
D03*
X124890D02*
D03*
X144790Y516330D02*
D03*
X934720Y863600D02*
D03*
Y889000D02*
D03*
Y914400D02*
D03*
X960120Y889000D02*
D03*
Y914400D02*
D03*
D84*
X627380Y497840D02*
D03*
Y574040D02*
D03*
Y548640D02*
D03*
Y523240D02*
D03*
X92710Y643890D02*
D03*
X16510D02*
D03*
Y669290D02*
D03*
X92710D02*
D03*
Y694690D02*
D03*
X16510D02*
D03*
X92710Y720090D02*
D03*
D85*
X16510D02*
D03*
D86*
X960120Y863600D02*
D03*
D87*
X261620Y804110D02*
D03*
Y829110D02*
D03*
X184150Y801570D02*
D03*
Y826570D02*
D03*
X546100Y795220D02*
D03*
Y820220D02*
D03*
D88*
X216900Y596900D02*
D03*
X265700D02*
D03*
D89*
X120650Y100635D02*
D03*
X514350D02*
D03*
X908050D02*
D03*
X1301750D02*
D03*
X1695450D02*
D03*
X1899920Y1299365D02*
D03*
X1513840D02*
D03*
X1126490D02*
D03*
X740410Y1299133D02*
D03*
X353060Y1299365D02*
D03*
D90*
X171450Y99365D02*
D03*
X222250D02*
D03*
X273050D02*
D03*
X323850D02*
D03*
X565150D02*
D03*
X615950D02*
D03*
X666750D02*
D03*
X717550D02*
D03*
X958850D02*
D03*
X1009650D02*
D03*
X1060450D02*
D03*
X1111250D02*
D03*
X1352550D02*
D03*
X1403350D02*
D03*
X1454150D02*
D03*
X1504950D02*
D03*
X1746250D02*
D03*
X1797050D02*
D03*
X1847850D02*
D03*
X1898650D02*
D03*
X1849120Y1300635D02*
D03*
X1798320D02*
D03*
X1747520D02*
D03*
X1696720D02*
D03*
X1463040D02*
D03*
X1412240D02*
D03*
X1361440D02*
D03*
X1310640D02*
D03*
X1075690D02*
D03*
X1024890D02*
D03*
X974090D02*
D03*
X923290D02*
D03*
X689610Y1300403D02*
D03*
X638810D02*
D03*
X588010D02*
D03*
X537210D02*
D03*
X302260Y1300635D02*
D03*
X251460D02*
D03*
X200660D02*
D03*
X149860D02*
D03*
X91440Y864870D02*
D03*
D91*
X1897380Y749300D02*
D03*
Y698500D02*
D03*
D92*
Y647700D02*
D03*
D93*
X91440Y814070D02*
D03*
D94*
X855980Y619760D02*
D03*
X1534160Y749300D02*
D03*
X855980Y652780D02*
D03*
X1534160Y713740D02*
D03*
D96*
X245110Y180000D02*
D03*
X214630D02*
D03*
X229870D02*
D03*
X199390D02*
D03*
X638810D02*
D03*
X608330D02*
D03*
X623570D02*
D03*
X593090D02*
D03*
X1032510D02*
D03*
X1002030D02*
D03*
X1017270D02*
D03*
X986790D02*
D03*
X1426210D02*
D03*
X1395730D02*
D03*
X1410970D02*
D03*
X1380490D02*
D03*
X1819910D02*
D03*
X1789430D02*
D03*
X1804670D02*
D03*
X1774190D02*
D03*
X1775460Y1217250D02*
D03*
X1805940D02*
D03*
X1790700D02*
D03*
X1821180D02*
D03*
X1389380D02*
D03*
X1419860D02*
D03*
X1404620D02*
D03*
X1435100D02*
D03*
X1002030D02*
D03*
X1032510D02*
D03*
X1017270D02*
D03*
X1047750D02*
D03*
X615950Y1217018D02*
D03*
X646430D02*
D03*
X631190D02*
D03*
X661670D02*
D03*
X228600Y1217250D02*
D03*
X259080D02*
D03*
X243840D02*
D03*
X274320D02*
D03*
M02*
