G04*
G04 #@! TF.GenerationSoftware,Altium Limited,Altium Designer,21.4.1 (30)*
G04*
G04 Layer_Color=8421504*
%FSLAX44Y44*%
%MOMM*%
G71*
G04*
G04 #@! TF.SameCoordinates,06C005F6-D9AB-4DD0-9814-7D4EB34A58F7*
G04*
G04*
G04 #@! TF.FilePolarity,Positive*
G04*
G01*
G75*
%ADD24C,1.5500*%
G04:AMPARAMS|DCode=25|XSize=0.4826mm|YSize=1.778mm|CornerRadius=0mm|HoleSize=0mm|Usage=FLASHONLY|Rotation=45.000|XOffset=0mm|YOffset=0mm|HoleType=Round|Shape=Rectangle|*
%AMROTATEDRECTD25*
4,1,4,0.4580,-0.7992,-0.7992,0.4580,-0.4580,0.7992,0.7992,-0.4580,0.4580,-0.7992,0.0*
%
%ADD25ROTATEDRECTD25*%

G04:AMPARAMS|DCode=26|XSize=0.4826mm|YSize=1.778mm|CornerRadius=0mm|HoleSize=0mm|Usage=FLASHONLY|Rotation=135.000|XOffset=0mm|YOffset=0mm|HoleType=Round|Shape=Rectangle|*
%AMROTATEDRECTD26*
4,1,4,0.7992,0.4580,-0.4580,-0.7992,-0.7992,-0.4580,0.4580,0.7992,0.7992,0.4580,0.0*
%
%ADD26ROTATEDRECTD26*%

%ADD27R,2.0000X3.8000*%
%ADD28R,2.0000X1.5000*%
%ADD29R,1.0000X1.4400*%
%ADD30R,1.2000X1.4400*%
%ADD31R,1.5000X3.0000*%
%ADD32R,5.8000X6.4000*%
%ADD33R,1.2000X2.2500*%
%ADD34R,2.3000X2.3000*%
%ADD35R,1.3500X1.2000*%
%ADD36R,1.2000X1.3500*%
G04:AMPARAMS|DCode=37|XSize=1.35mm|YSize=1.2mm|CornerRadius=0mm|HoleSize=0mm|Usage=FLASHONLY|Rotation=45.000|XOffset=0mm|YOffset=0mm|HoleType=Round|Shape=Rectangle|*
%AMROTATEDRECTD37*
4,1,4,-0.0530,-0.9016,-0.9016,-0.0530,0.0530,0.9016,0.9016,0.0530,-0.0530,-0.9016,0.0*
%
%ADD37ROTATEDRECTD37*%

G04:AMPARAMS|DCode=38|XSize=1.35mm|YSize=1.2mm|CornerRadius=0mm|HoleSize=0mm|Usage=FLASHONLY|Rotation=315.000|XOffset=0mm|YOffset=0mm|HoleType=Round|Shape=Rectangle|*
%AMROTATEDRECTD38*
4,1,4,-0.9016,0.0530,-0.0530,0.9016,0.9016,-0.0530,0.0530,-0.9016,-0.9016,0.0530,0.0*
%
%ADD38ROTATEDRECTD38*%

%ADD39R,1.9812X0.5334*%
%ADD40R,1.6000X0.8000*%
%ADD41R,1.0000X1.0000*%
%ADD42R,1.5000X0.5500*%
%ADD43R,0.6000X1.8500*%
%ADD44R,1.4500X0.6000*%
D24*
X216900Y596900D02*
D03*
X265700D02*
D03*
D25*
X1145120Y582029D02*
D03*
X1156434Y593343D02*
D03*
X1111179Y548088D02*
D03*
X1128149Y565059D02*
D03*
X1116836Y553745D02*
D03*
X1133806Y570716D02*
D03*
X1139463Y576373D02*
D03*
X1122493Y559402D02*
D03*
X1150777Y587686D02*
D03*
X1162091Y599000D02*
D03*
X1167747Y604657D02*
D03*
X1196032Y632941D02*
D03*
X1184718Y621628D02*
D03*
X1179061Y615971D02*
D03*
X1173404Y610314D02*
D03*
X1190375Y627284D02*
D03*
X1000488Y658779D02*
D03*
X1006145Y664436D02*
D03*
X1011802Y670092D02*
D03*
X1017459Y675749D02*
D03*
X1023116Y681406D02*
D03*
X1028773Y687063D02*
D03*
X1034429Y692720D02*
D03*
X1040086Y698377D02*
D03*
X1045743Y704034D02*
D03*
X1051400Y709690D02*
D03*
X1057057Y715347D02*
D03*
X1062714Y721004D02*
D03*
X1068371Y726661D02*
D03*
X1074027Y732318D02*
D03*
X1079684Y737975D02*
D03*
X1085341Y743632D02*
D03*
D26*
X1111179D02*
D03*
X1116836Y737975D02*
D03*
X1122493Y732318D02*
D03*
X1128149Y726661D02*
D03*
X1133806Y721004D02*
D03*
X1139463Y715347D02*
D03*
X1145120Y709690D02*
D03*
X1150777Y704034D02*
D03*
X1156434Y698377D02*
D03*
X1162091Y692720D02*
D03*
X1167747Y687063D02*
D03*
X1173404Y681406D02*
D03*
X1179061Y675749D02*
D03*
X1184718Y670092D02*
D03*
X1190375Y664436D02*
D03*
X1196032Y658779D02*
D03*
X1085341Y548088D02*
D03*
X1079684Y553745D02*
D03*
X1074027Y559402D02*
D03*
X1068371Y565059D02*
D03*
X1062714Y570716D02*
D03*
X1057057Y576373D02*
D03*
X1051400Y582029D02*
D03*
X1045743Y587686D02*
D03*
X1040086Y593343D02*
D03*
X1034429Y599000D02*
D03*
X1028773Y604657D02*
D03*
X1023116Y610314D02*
D03*
X1017459Y615971D02*
D03*
X1011802Y621628D02*
D03*
X1006145Y627284D02*
D03*
X1000488Y632941D02*
D03*
D27*
X467110Y807720D02*
D03*
D28*
X404110Y784720D02*
D03*
Y807720D02*
D03*
Y830720D02*
D03*
D29*
X384200Y370410D02*
D03*
X403200D02*
D03*
Y348410D02*
D03*
X777900Y370410D02*
D03*
X796900D02*
D03*
Y348410D02*
D03*
X1171600Y370410D02*
D03*
X1190600D02*
D03*
Y348410D02*
D03*
X1565300Y370410D02*
D03*
X1584300D02*
D03*
Y348410D02*
D03*
X1959000Y370410D02*
D03*
X1978000D02*
D03*
Y348410D02*
D03*
X286410Y370410D02*
D03*
X305410D02*
D03*
Y348410D02*
D03*
X680110Y370410D02*
D03*
X699110D02*
D03*
Y348410D02*
D03*
X1073810Y370410D02*
D03*
X1092810D02*
D03*
Y348410D02*
D03*
X1467510Y370410D02*
D03*
X1486510D02*
D03*
Y348410D02*
D03*
X1861210Y370410D02*
D03*
X1880210D02*
D03*
Y348410D02*
D03*
X191160Y370410D02*
D03*
X210160D02*
D03*
Y348410D02*
D03*
X584860Y370410D02*
D03*
X603860D02*
D03*
Y348410D02*
D03*
X978560Y370410D02*
D03*
X997560D02*
D03*
Y348410D02*
D03*
X1372260Y370410D02*
D03*
X1391260D02*
D03*
Y348410D02*
D03*
X1765960Y370410D02*
D03*
X1784960D02*
D03*
Y348410D02*
D03*
X95910Y370410D02*
D03*
X114910D02*
D03*
Y348410D02*
D03*
X489610Y370410D02*
D03*
X508610D02*
D03*
Y348410D02*
D03*
X883310Y370410D02*
D03*
X902310D02*
D03*
Y348410D02*
D03*
X1277010Y370410D02*
D03*
X1296010D02*
D03*
Y348410D02*
D03*
X1670710Y370410D02*
D03*
X1689710D02*
D03*
Y348410D02*
D03*
X1636370Y1026840D02*
D03*
X1617370D02*
D03*
Y1048840D02*
D03*
X1250290Y1026840D02*
D03*
X1231290D02*
D03*
Y1048840D02*
D03*
X862940Y1026840D02*
D03*
X843940D02*
D03*
Y1048840D02*
D03*
X476860Y1026608D02*
D03*
X457860D02*
D03*
Y1048608D02*
D03*
X89510Y1026840D02*
D03*
X70510D02*
D03*
Y1048840D02*
D03*
X1734160Y1026840D02*
D03*
X1715160D02*
D03*
Y1048840D02*
D03*
X1348080Y1026840D02*
D03*
X1329080D02*
D03*
Y1048840D02*
D03*
X960730Y1026840D02*
D03*
X941730D02*
D03*
Y1048840D02*
D03*
X574650Y1026608D02*
D03*
X555650D02*
D03*
Y1048608D02*
D03*
X187300Y1026840D02*
D03*
X168300D02*
D03*
Y1048840D02*
D03*
X1829410Y1026840D02*
D03*
X1810410D02*
D03*
Y1048840D02*
D03*
X1443330Y1026840D02*
D03*
X1424330D02*
D03*
Y1048840D02*
D03*
X1055980Y1026840D02*
D03*
X1036980D02*
D03*
Y1048840D02*
D03*
X669900Y1026608D02*
D03*
X650900D02*
D03*
Y1048608D02*
D03*
X282550Y1026840D02*
D03*
X263550D02*
D03*
Y1048840D02*
D03*
X1924660Y1026840D02*
D03*
X1905660D02*
D03*
Y1048840D02*
D03*
X1538580Y1026840D02*
D03*
X1519580D02*
D03*
Y1048840D02*
D03*
X1151230Y1026840D02*
D03*
X1132230D02*
D03*
Y1048840D02*
D03*
X765150Y1026608D02*
D03*
X746150D02*
D03*
Y1048608D02*
D03*
X377800Y1026840D02*
D03*
X358800D02*
D03*
Y1048840D02*
D03*
D30*
X386200Y348410D02*
D03*
X779900D02*
D03*
X1173600D02*
D03*
X1567300D02*
D03*
X1961000D02*
D03*
X288410D02*
D03*
X682110D02*
D03*
X1075810D02*
D03*
X1469510D02*
D03*
X1863210D02*
D03*
X193160D02*
D03*
X586860D02*
D03*
X980560D02*
D03*
X1374260D02*
D03*
X1767960D02*
D03*
X97910D02*
D03*
X491610D02*
D03*
X885310D02*
D03*
X1279010D02*
D03*
X1672710D02*
D03*
X1634370Y1048840D02*
D03*
X1248290D02*
D03*
X860940D02*
D03*
X474860Y1048608D02*
D03*
X87510Y1048840D02*
D03*
X1732160D02*
D03*
X1346080D02*
D03*
X958730D02*
D03*
X572650Y1048608D02*
D03*
X185300Y1048840D02*
D03*
X1827410D02*
D03*
X1441330D02*
D03*
X1053980D02*
D03*
X667900Y1048608D02*
D03*
X280550Y1048840D02*
D03*
X1922660D02*
D03*
X1536580D02*
D03*
X1149230D02*
D03*
X763150Y1048608D02*
D03*
X375800Y1048840D02*
D03*
D31*
X393640Y312420D02*
D03*
X348040D02*
D03*
X787340D02*
D03*
X741740D02*
D03*
X1181040D02*
D03*
X1135440D02*
D03*
X1574740D02*
D03*
X1529140D02*
D03*
X1968440D02*
D03*
X1922840D02*
D03*
X297180D02*
D03*
X251580D02*
D03*
X690880D02*
D03*
X645280D02*
D03*
X1084580D02*
D03*
X1038980D02*
D03*
X1478280D02*
D03*
X1432680D02*
D03*
X1871980D02*
D03*
X1826380D02*
D03*
X200137D02*
D03*
X154537D02*
D03*
X593837D02*
D03*
X548237D02*
D03*
X987537D02*
D03*
X941937D02*
D03*
X1381237D02*
D03*
X1335637D02*
D03*
X1774937D02*
D03*
X1729337D02*
D03*
X104140D02*
D03*
X58540D02*
D03*
X497840D02*
D03*
X452240D02*
D03*
X891540D02*
D03*
X845940D02*
D03*
X1285240D02*
D03*
X1239640D02*
D03*
X1678940D02*
D03*
X1633340D02*
D03*
X1626930Y1084830D02*
D03*
X1672530D02*
D03*
X1240850D02*
D03*
X1286450D02*
D03*
X853500D02*
D03*
X899100D02*
D03*
X467420Y1084598D02*
D03*
X513020D02*
D03*
X80070Y1084830D02*
D03*
X125670D02*
D03*
X1723390D02*
D03*
X1768990D02*
D03*
X1337310D02*
D03*
X1382910D02*
D03*
X949960D02*
D03*
X995560D02*
D03*
X563880Y1084598D02*
D03*
X609480D02*
D03*
X176530Y1084830D02*
D03*
X222130D02*
D03*
X1820433D02*
D03*
X1866033D02*
D03*
X1434353D02*
D03*
X1479953D02*
D03*
X1047003D02*
D03*
X1092603D02*
D03*
X660923Y1084598D02*
D03*
X706523D02*
D03*
X273573Y1084830D02*
D03*
X319173D02*
D03*
X1916430D02*
D03*
X1962030D02*
D03*
X1530350D02*
D03*
X1575950D02*
D03*
X1143000D02*
D03*
X1188600D02*
D03*
X756920Y1084598D02*
D03*
X802520D02*
D03*
X369570Y1084830D02*
D03*
X415170D02*
D03*
D32*
X370840Y247920D02*
D03*
X764540D02*
D03*
X1158240D02*
D03*
X1551940D02*
D03*
X1945640D02*
D03*
X274380D02*
D03*
X668080D02*
D03*
X1061780D02*
D03*
X1455480D02*
D03*
X1849180D02*
D03*
X177337D02*
D03*
X571037D02*
D03*
X964737D02*
D03*
X1358437D02*
D03*
X1752137D02*
D03*
X81340D02*
D03*
X475040D02*
D03*
X868740D02*
D03*
X1262440D02*
D03*
X1656140D02*
D03*
X1649730Y1149330D02*
D03*
X1263650D02*
D03*
X876300D02*
D03*
X490220Y1149098D02*
D03*
X102870Y1149330D02*
D03*
X1746190D02*
D03*
X1360110D02*
D03*
X972760D02*
D03*
X586680Y1149098D02*
D03*
X199330Y1149330D02*
D03*
X1843233D02*
D03*
X1457153D02*
D03*
X1069803D02*
D03*
X683723Y1149098D02*
D03*
X296373Y1149330D02*
D03*
X1939230D02*
D03*
X1553150D02*
D03*
X1165800D02*
D03*
X779720Y1149098D02*
D03*
X392370Y1149330D02*
D03*
D33*
X1041760Y822410D02*
D03*
Y912410D02*
D03*
X1086760D02*
D03*
Y822410D02*
D03*
D34*
X138790Y762000D02*
D03*
X183790D02*
D03*
D35*
X368300Y792480D02*
D03*
Y772160D02*
D03*
X650240Y797560D02*
D03*
Y777240D02*
D03*
X800100Y624840D02*
D03*
Y604520D02*
D03*
Y647700D02*
D03*
Y668020D02*
D03*
X1796030Y641120D02*
D03*
Y661440D02*
D03*
Y707160D02*
D03*
Y686840D02*
D03*
X1669600Y663980D02*
D03*
Y643660D02*
D03*
X323850Y805180D02*
D03*
Y825500D02*
D03*
X607060Y795020D02*
D03*
Y815340D02*
D03*
X946150Y608330D02*
D03*
Y588010D02*
D03*
X923290Y608330D02*
D03*
Y588010D02*
D03*
X386080Y508000D02*
D03*
Y528320D02*
D03*
X309880Y604520D02*
D03*
Y624840D02*
D03*
X332740Y604520D02*
D03*
Y624840D02*
D03*
X361950Y369570D02*
D03*
Y349250D02*
D03*
X755650Y369570D02*
D03*
Y349250D02*
D03*
X1149350Y369570D02*
D03*
Y349250D02*
D03*
X1543050Y369570D02*
D03*
Y349250D02*
D03*
X1936750Y369570D02*
D03*
Y349250D02*
D03*
X337820Y369570D02*
D03*
Y349250D02*
D03*
X731520Y369570D02*
D03*
Y349250D02*
D03*
X1125220Y369570D02*
D03*
Y349250D02*
D03*
X1518920Y369570D02*
D03*
Y349250D02*
D03*
X1912620Y369570D02*
D03*
Y349250D02*
D03*
X241300Y369570D02*
D03*
Y349250D02*
D03*
X635000Y369570D02*
D03*
Y349250D02*
D03*
X1028700Y369570D02*
D03*
Y349250D02*
D03*
X1422400Y369570D02*
D03*
Y349250D02*
D03*
X1816100Y369570D02*
D03*
Y349250D02*
D03*
X264160Y369570D02*
D03*
Y349250D02*
D03*
X657860Y369570D02*
D03*
Y349250D02*
D03*
X1051560Y369570D02*
D03*
Y349250D02*
D03*
X1445260Y369570D02*
D03*
Y349250D02*
D03*
X1838960Y369570D02*
D03*
Y349250D02*
D03*
X168910Y369570D02*
D03*
Y349250D02*
D03*
X562610Y369570D02*
D03*
Y349250D02*
D03*
X956310Y369570D02*
D03*
Y349250D02*
D03*
X1350010Y369570D02*
D03*
Y349250D02*
D03*
X1743710Y369570D02*
D03*
Y349250D02*
D03*
X146050Y369570D02*
D03*
Y349250D02*
D03*
X539750Y369570D02*
D03*
Y349250D02*
D03*
X933450Y369570D02*
D03*
Y349250D02*
D03*
X1327150Y369570D02*
D03*
Y349250D02*
D03*
X1720850Y369570D02*
D03*
Y349250D02*
D03*
X74930Y369570D02*
D03*
Y349250D02*
D03*
X468630Y369570D02*
D03*
Y349250D02*
D03*
X862330Y369570D02*
D03*
Y349250D02*
D03*
X1256030Y369570D02*
D03*
Y349250D02*
D03*
X1649730Y369570D02*
D03*
Y349250D02*
D03*
X50800Y369570D02*
D03*
Y349250D02*
D03*
X444500Y369570D02*
D03*
Y349250D02*
D03*
X838200Y369570D02*
D03*
Y349250D02*
D03*
X1231900Y369570D02*
D03*
Y349250D02*
D03*
X1625600Y369570D02*
D03*
Y349250D02*
D03*
X1658620Y1027680D02*
D03*
Y1048000D02*
D03*
X1272540Y1027680D02*
D03*
Y1048000D02*
D03*
X885190Y1027680D02*
D03*
Y1048000D02*
D03*
X499110Y1027448D02*
D03*
Y1047768D02*
D03*
X111760Y1027680D02*
D03*
Y1048000D02*
D03*
X1682750Y1027680D02*
D03*
Y1048000D02*
D03*
X1296670Y1027680D02*
D03*
Y1048000D02*
D03*
X909320Y1027680D02*
D03*
Y1048000D02*
D03*
X523240Y1027448D02*
D03*
Y1047768D02*
D03*
X135890Y1027680D02*
D03*
Y1048000D02*
D03*
X1779270Y1027680D02*
D03*
Y1048000D02*
D03*
X1393190Y1027680D02*
D03*
Y1048000D02*
D03*
X1005840Y1027680D02*
D03*
Y1048000D02*
D03*
X619760Y1027448D02*
D03*
Y1047768D02*
D03*
X232410Y1027680D02*
D03*
Y1048000D02*
D03*
X1756410Y1027680D02*
D03*
Y1048000D02*
D03*
X1370330Y1027680D02*
D03*
Y1048000D02*
D03*
X982980Y1027680D02*
D03*
Y1048000D02*
D03*
X596900Y1027448D02*
D03*
Y1047768D02*
D03*
X209550Y1027680D02*
D03*
Y1048000D02*
D03*
X1851660Y1027680D02*
D03*
Y1048000D02*
D03*
X1465580Y1027680D02*
D03*
Y1048000D02*
D03*
X1078230Y1027680D02*
D03*
Y1048000D02*
D03*
X692150Y1027448D02*
D03*
Y1047768D02*
D03*
X304800Y1027680D02*
D03*
Y1048000D02*
D03*
X1874520Y1027680D02*
D03*
Y1048000D02*
D03*
X1488440Y1027680D02*
D03*
Y1048000D02*
D03*
X1101090Y1027680D02*
D03*
Y1048000D02*
D03*
X715010Y1027448D02*
D03*
Y1047768D02*
D03*
X327660Y1027680D02*
D03*
Y1048000D02*
D03*
X1945640Y1027680D02*
D03*
Y1048000D02*
D03*
X1559560Y1027680D02*
D03*
Y1048000D02*
D03*
X1172210Y1027680D02*
D03*
Y1048000D02*
D03*
X786130Y1027448D02*
D03*
Y1047768D02*
D03*
X398780Y1027680D02*
D03*
Y1048000D02*
D03*
X1969770Y1027680D02*
D03*
Y1048000D02*
D03*
X1583690Y1027680D02*
D03*
Y1048000D02*
D03*
X1196340Y1027680D02*
D03*
Y1048000D02*
D03*
X810260Y1027448D02*
D03*
Y1047768D02*
D03*
X422910Y1027680D02*
D03*
Y1048000D02*
D03*
D36*
X1143000Y883920D02*
D03*
X1122680D02*
D03*
X1140460Y858520D02*
D03*
X1120140D02*
D03*
X378460Y584200D02*
D03*
X398780D02*
D03*
X391160Y640080D02*
D03*
X411480D02*
D03*
X500380Y601890D02*
D03*
X480060D02*
D03*
X501650Y661580D02*
D03*
X481330D02*
D03*
X1739760Y624610D02*
D03*
X1719440D02*
D03*
Y760500D02*
D03*
X1739760D02*
D03*
X414020Y472440D02*
D03*
X393700D02*
D03*
X1074420Y943610D02*
D03*
X1054100D02*
D03*
X756920Y688340D02*
D03*
X736600D02*
D03*
X274320Y637540D02*
D03*
X254000D02*
D03*
X205740D02*
D03*
X226060D02*
D03*
X344780Y769620D02*
D03*
X325780D02*
D03*
D37*
X1249244Y691316D02*
D03*
X1234876Y705684D02*
D03*
X992704Y749736D02*
D03*
X978336Y764104D02*
D03*
X1231464Y673536D02*
D03*
X1217096Y687904D02*
D03*
X977464Y734496D02*
D03*
X963096Y748864D02*
D03*
D38*
X1143436Y490656D02*
D03*
X1157804Y505024D02*
D03*
X1140896Y518596D02*
D03*
X1155264Y532964D02*
D03*
D39*
X771398Y666750D02*
D03*
Y654050D02*
D03*
Y641350D02*
D03*
Y628650D02*
D03*
X722122D02*
D03*
Y641350D02*
D03*
Y654050D02*
D03*
Y666750D02*
D03*
D40*
X509760Y508000D02*
D03*
X475760D02*
D03*
D41*
X368300Y832230D02*
D03*
Y813690D02*
D03*
X650240Y837310D02*
D03*
Y818770D02*
D03*
X501650Y561250D02*
D03*
Y579790D02*
D03*
Y621830D02*
D03*
Y640370D02*
D03*
D42*
X1702600Y736370D02*
D03*
Y723670D02*
D03*
Y710970D02*
D03*
Y698270D02*
D03*
Y685570D02*
D03*
Y672870D02*
D03*
Y660170D02*
D03*
Y647470D02*
D03*
X1756600Y736370D02*
D03*
Y723670D02*
D03*
Y710970D02*
D03*
Y698270D02*
D03*
Y685570D02*
D03*
Y672870D02*
D03*
Y660170D02*
D03*
Y647470D02*
D03*
D43*
X271810Y490680D02*
D03*
X284510D02*
D03*
X297210D02*
D03*
X309910D02*
D03*
X322610D02*
D03*
X335310D02*
D03*
X348010D02*
D03*
X360710D02*
D03*
X271810Y548680D02*
D03*
X284510D02*
D03*
X297210D02*
D03*
X309910D02*
D03*
X322610D02*
D03*
X335310D02*
D03*
X348010D02*
D03*
X360710D02*
D03*
D44*
X455930Y582790D02*
D03*
Y563790D02*
D03*
X479430Y573290D02*
D03*
X455290Y640600D02*
D03*
Y621600D02*
D03*
X478790Y631100D02*
D03*
M02*
