G04*
G04 #@! TF.GenerationSoftware,Altium Limited,Altium Designer,21.4.1 (30)*
G04*
G04 Layer_Color=16711935*
%FSLAX44Y44*%
%MOMM*%
G71*
G04*
G04 #@! TF.SameCoordinates,6184CBAD-8C2E-428C-A116-2BF05ABD0BD4*
G04*
G04*
G04 #@! TF.FilePolarity,Negative*
G04*
G01*
G75*
%ADD67R,1.7032X1.7032*%
%ADD68R,1.7032X1.7032*%
%ADD69C,2.0032*%
%ADD70C,2.7432*%
%ADD71R,2.7432X2.7432*%
%ADD72O,2.2032X1.8032*%
%ADD73C,1.7032*%
%ADD74C,3.2032*%
%ADD75C,1.9032*%
%ADD76R,1.9032X1.9032*%
%ADD77R,2.2032X1.8032*%
%ADD79R,3.0032X3.0032*%
%ADD80C,3.0032*%
%ADD81C,1.4732*%
%ADD99O,1.1430X1.3970*%
D67*
X160020Y683260D02*
D03*
X529082Y656590D02*
D03*
Y623570D02*
D03*
D68*
X1445260Y477520D02*
D03*
X1445120Y510310D02*
D03*
D69*
X1198880Y599040D02*
D03*
Y574040D02*
D03*
X1470660Y609400D02*
D03*
Y584400D02*
D03*
X1551940Y609600D02*
D03*
Y584600D02*
D03*
D70*
X1689100Y609460D02*
D03*
Y558660D02*
D03*
Y507860D02*
D03*
D71*
Y457060D02*
D03*
D72*
X495300Y444500D02*
D03*
Y520700D02*
D03*
Y495300D02*
D03*
Y469900D02*
D03*
X93980Y607060D02*
D03*
X17780D02*
D03*
Y632460D02*
D03*
X93980D02*
D03*
Y657860D02*
D03*
X17780D02*
D03*
X93980Y683260D02*
D03*
D73*
X187690Y511290D02*
D03*
X236490D02*
D03*
D74*
X91440Y523240D02*
D03*
Y402840D02*
D03*
X25000Y25000D02*
D03*
Y1045000D02*
D03*
X1765000D02*
D03*
Y25000D02*
D03*
D75*
X118540Y450540D02*
D03*
X138440Y475540D02*
D03*
X118540D02*
D03*
X138440Y450540D02*
D03*
X782320Y619760D02*
D03*
Y645160D02*
D03*
Y670560D02*
D03*
X807720Y645160D02*
D03*
Y670560D02*
D03*
D76*
Y619760D02*
D03*
D77*
X17780Y683260D02*
D03*
D79*
X118110Y75235D02*
D03*
X468630D02*
D03*
X816610D02*
D03*
X1164590D02*
D03*
X1512570D02*
D03*
X1706887Y986790D02*
D03*
X1363987D02*
D03*
X1018547D02*
D03*
X673107D02*
D03*
X330207D02*
D03*
D80*
X168910Y73965D02*
D03*
X219710D02*
D03*
X270510D02*
D03*
X321310D02*
D03*
X519430D02*
D03*
X570230D02*
D03*
X621030D02*
D03*
X671830D02*
D03*
X867410D02*
D03*
X918210D02*
D03*
X969010D02*
D03*
X1019810D02*
D03*
X1215390D02*
D03*
X1266190D02*
D03*
X1316990D02*
D03*
X1367790D02*
D03*
X1563370D02*
D03*
X1614170D02*
D03*
X1664970D02*
D03*
X1715770D02*
D03*
X1656087Y988060D02*
D03*
X1605287D02*
D03*
X1554487D02*
D03*
X1503687D02*
D03*
X1313187D02*
D03*
X1262387D02*
D03*
X1211587D02*
D03*
X1160787D02*
D03*
X967747D02*
D03*
X916947D02*
D03*
X866147D02*
D03*
X815347D02*
D03*
X622307D02*
D03*
X571507D02*
D03*
X520707D02*
D03*
X469907D02*
D03*
X279407D02*
D03*
X228607D02*
D03*
X177807D02*
D03*
X127007D02*
D03*
D81*
X1112520Y533400D02*
D03*
X607060Y449580D02*
D03*
X594360Y482600D02*
D03*
X347980Y520700D02*
D03*
X876300Y317500D02*
D03*
X779780Y726440D02*
D03*
X855980Y614680D02*
D03*
X914400D02*
D03*
X967740Y457200D02*
D03*
X833120Y508000D02*
D03*
X881380Y345670D02*
D03*
X899160Y703580D02*
D03*
X998220Y662940D02*
D03*
X993140Y533400D02*
D03*
X723900Y594360D02*
D03*
X668020Y452120D02*
D03*
X708660Y581660D02*
D03*
X726440Y454660D02*
D03*
X520700Y693420D02*
D03*
X33020Y756920D02*
D03*
X30480Y322580D02*
D03*
X1399540Y317500D02*
D03*
X132080Y266700D02*
D03*
X215900D02*
D03*
X568960D02*
D03*
X482600D02*
D03*
X828040D02*
D03*
X914400D02*
D03*
X1176020Y264160D02*
D03*
X1262380D02*
D03*
X1696720D02*
D03*
X1610360D02*
D03*
X1521460Y266700D02*
D03*
X756920Y467360D02*
D03*
X640080Y401320D02*
D03*
X629920Y431800D02*
D03*
X863600Y355600D02*
D03*
X822960Y561340D02*
D03*
X937260Y604520D02*
D03*
X710890Y317500D02*
D03*
X797287Y764267D02*
D03*
X876300Y764690D02*
D03*
X1711960Y759460D02*
D03*
X1747520Y276860D02*
D03*
X1721010Y317500D02*
D03*
X1397000Y759460D02*
D03*
X360680D02*
D03*
X706120D02*
D03*
X271780D02*
D03*
X187960D02*
D03*
X104140D02*
D03*
X322580Y812800D02*
D03*
X238760D02*
D03*
X154940D02*
D03*
X71120D02*
D03*
X614680Y759460D02*
D03*
X530860D02*
D03*
X447040D02*
D03*
X665480Y812800D02*
D03*
X581660D02*
D03*
X414020D02*
D03*
X497840D02*
D03*
X960120Y759460D02*
D03*
X1010920Y812800D02*
D03*
X927100D02*
D03*
X843280D02*
D03*
X759460D02*
D03*
X1305560Y759460D02*
D03*
X1221740D02*
D03*
X1137920D02*
D03*
X1054100D02*
D03*
X1356360Y812800D02*
D03*
X1272540D02*
D03*
X1188720D02*
D03*
X1104900D02*
D03*
X1531620D02*
D03*
X1480820Y759460D02*
D03*
X1564640D02*
D03*
X1648460D02*
D03*
X1447800Y812800D02*
D03*
X1615440D02*
D03*
X1699260D02*
D03*
X1054100Y317500D02*
D03*
X1658620D02*
D03*
X1572260D02*
D03*
X1488440D02*
D03*
X1440180Y266700D02*
D03*
X1498600Y30480D02*
D03*
X1140460Y317500D02*
D03*
X1310640D02*
D03*
X1224280D02*
D03*
X1348740Y266700D02*
D03*
X1092200D02*
D03*
X1150620Y30480D02*
D03*
X962660Y317500D02*
D03*
X792480D02*
D03*
X1000760Y266700D02*
D03*
X744220D02*
D03*
X802640Y30480D02*
D03*
X614680Y317500D02*
D03*
X362910D02*
D03*
X528320D02*
D03*
X444500D02*
D03*
X652780Y266700D02*
D03*
X396240D02*
D03*
X454660Y30480D02*
D03*
X104140D02*
D03*
X302260Y266700D02*
D03*
X264160Y317500D02*
D03*
X177800D02*
D03*
X93980D02*
D03*
X45720Y266700D02*
D03*
D99*
X33020Y78740D02*
D03*
X63500D02*
D03*
X48260D02*
D03*
X78740D02*
D03*
X383540D02*
D03*
X414020D02*
D03*
X398780D02*
D03*
X429260D02*
D03*
X731520D02*
D03*
X762000D02*
D03*
X746760D02*
D03*
X777240D02*
D03*
X1079500D02*
D03*
X1109980D02*
D03*
X1094740D02*
D03*
X1125220D02*
D03*
X1427480Y79920D02*
D03*
X1457960D02*
D03*
X1442720D02*
D03*
X1473200D02*
D03*
X1455420Y995000D02*
D03*
X1424940D02*
D03*
X1440180D02*
D03*
X1409700D02*
D03*
X1112520D02*
D03*
X1082040D02*
D03*
X1097280D02*
D03*
X1066800D02*
D03*
X767080D02*
D03*
X736600D02*
D03*
X751840D02*
D03*
X721360D02*
D03*
X421640D02*
D03*
X391160D02*
D03*
X406400D02*
D03*
X375920D02*
D03*
X78740D02*
D03*
X48260D02*
D03*
X63500D02*
D03*
X33020D02*
D03*
M02*
