G04*
G04 #@! TF.GenerationSoftware,Altium Limited,Altium Designer,21.4.1 (30)*
G04*
G04 Layer_Color=16711935*
%FSLAX44Y44*%
%MOMM*%
G71*
G04*
G04 #@! TF.SameCoordinates,D7483978-ABC8-4366-99C6-00734FDD2927*
G04*
G04*
G04 #@! TF.FilePolarity,Negative*
G04*
G01*
G75*
%ADD67C,3.0032*%
%ADD68R,3.0032X3.0032*%
%ADD69R,1.7032X1.7032*%
%ADD70R,1.7032X1.7032*%
%ADD71C,2.0032*%
%ADD72C,2.7432*%
%ADD73R,2.7432X2.7432*%
%ADD74O,2.2032X1.8032*%
%ADD75C,1.7032*%
%ADD76C,3.2032*%
%ADD77C,1.9032*%
%ADD78R,1.9032X1.9032*%
%ADD79R,2.2032X1.8032*%
%ADD81C,1.4732*%
%ADD100O,1.1430X1.3970*%
D67*
X1720850Y73965D02*
D03*
X1670050D02*
D03*
X1619250D02*
D03*
X1568450D02*
D03*
X1372870D02*
D03*
X1322070D02*
D03*
X1271270D02*
D03*
X1220470D02*
D03*
X676910Y76505D02*
D03*
X626110D02*
D03*
X575310D02*
D03*
X524510D02*
D03*
X326390D02*
D03*
X275590D02*
D03*
X224790D02*
D03*
X173990D02*
D03*
X872490Y73965D02*
D03*
X923290D02*
D03*
X974090D02*
D03*
X1024890D02*
D03*
X1661167Y1028700D02*
D03*
X1610367D02*
D03*
X1559567D02*
D03*
X1508767D02*
D03*
X1318267D02*
D03*
X1267467D02*
D03*
X1216667D02*
D03*
X1165867D02*
D03*
X972827D02*
D03*
X922027D02*
D03*
X871227D02*
D03*
X820427D02*
D03*
X627387D02*
D03*
X576587D02*
D03*
X525787D02*
D03*
X474987D02*
D03*
X284487D02*
D03*
X233687D02*
D03*
X182887D02*
D03*
X132087D02*
D03*
D68*
X1517650Y75235D02*
D03*
X1169670D02*
D03*
X473710Y77775D02*
D03*
X123190D02*
D03*
X821690Y75235D02*
D03*
X1711967Y1027430D02*
D03*
X1369067D02*
D03*
X1023627D02*
D03*
X678187D02*
D03*
X335287D02*
D03*
D69*
X165100Y706120D02*
D03*
X534162Y679450D02*
D03*
Y646430D02*
D03*
D70*
X1450340Y500380D02*
D03*
X1450200Y533170D02*
D03*
D71*
X1203960Y621900D02*
D03*
Y596900D02*
D03*
X1475740Y632260D02*
D03*
Y607260D02*
D03*
X1557020Y632460D02*
D03*
Y607460D02*
D03*
D72*
X1694180Y632320D02*
D03*
Y581520D02*
D03*
Y530720D02*
D03*
D73*
Y479920D02*
D03*
D74*
X500380Y467360D02*
D03*
Y543560D02*
D03*
Y518160D02*
D03*
Y492760D02*
D03*
X99060Y629920D02*
D03*
X22860D02*
D03*
Y655320D02*
D03*
X99060D02*
D03*
Y680720D02*
D03*
X22860D02*
D03*
X99060Y706120D02*
D03*
D75*
X192770Y534150D02*
D03*
X241570D02*
D03*
D76*
X96520Y546100D02*
D03*
Y425700D02*
D03*
X1774600Y1074600D02*
D03*
X25400Y25400D02*
D03*
Y1074600D02*
D03*
X1774600Y25400D02*
D03*
D77*
X123620Y473400D02*
D03*
X143520Y498400D02*
D03*
X123620D02*
D03*
X143520Y473400D02*
D03*
X787400Y642620D02*
D03*
Y668020D02*
D03*
Y693420D02*
D03*
X812800Y668020D02*
D03*
Y693420D02*
D03*
D78*
Y642620D02*
D03*
D79*
X22860Y706120D02*
D03*
D81*
X881230Y337670D02*
D03*
X840740Y525780D02*
D03*
X904470Y726440D02*
D03*
X670560Y835660D02*
D03*
X586740D02*
D03*
X502920D02*
D03*
X419100D02*
D03*
X683260Y782320D02*
D03*
X619760D02*
D03*
X452120D02*
D03*
X535940D02*
D03*
X1704340Y835660D02*
D03*
X1620520D02*
D03*
X1536700D02*
D03*
X1452880D02*
D03*
X1653540Y782320D02*
D03*
X1717040D02*
D03*
X1485900D02*
D03*
X1569720D02*
D03*
X1361440Y835660D02*
D03*
X1277620D02*
D03*
X1193800D02*
D03*
X1109980D02*
D03*
X1310640Y782320D02*
D03*
X1374140D02*
D03*
X1143000D02*
D03*
X1226820D02*
D03*
X1744980Y337820D02*
D03*
X1747520Y302260D02*
D03*
X1701800Y287020D02*
D03*
X1615440D02*
D03*
X1529080D02*
D03*
X1445260D02*
D03*
X1663700Y337820D02*
D03*
X1577340D02*
D03*
X1493520D02*
D03*
X1411930D02*
D03*
X1353820Y287020D02*
D03*
X1267460D02*
D03*
X1181100D02*
D03*
X1097280D02*
D03*
X1145540Y337820D02*
D03*
X1315720D02*
D03*
X1229360D02*
D03*
X1063950D02*
D03*
X1005840Y287020D02*
D03*
X919480D02*
D03*
X833120D02*
D03*
X749300D02*
D03*
X797560Y337820D02*
D03*
X967740D02*
D03*
X715970D02*
D03*
X367990Y340360D02*
D03*
X449580D02*
D03*
X533400D02*
D03*
X619760D02*
D03*
X401320Y289560D02*
D03*
X485140D02*
D03*
X571500D02*
D03*
X657860D02*
D03*
X629920Y449580D02*
D03*
X645160Y416560D02*
D03*
X612140Y467360D02*
D03*
X591820Y487680D02*
D03*
X673100Y546100D02*
D03*
Y647700D02*
D03*
X845820Y622300D02*
D03*
X698500Y711200D02*
D03*
X769620D02*
D03*
X942340Y622300D02*
D03*
X728980Y477520D02*
D03*
Y617220D02*
D03*
X868680Y379880D02*
D03*
X40640Y782320D02*
D03*
X779780Y749300D02*
D03*
X327660Y835660D02*
D03*
X160020D02*
D03*
X243840D02*
D03*
X76200D02*
D03*
X276860Y782320D02*
D03*
X340360D02*
D03*
X193040D02*
D03*
X109220D02*
D03*
X1016000Y835660D02*
D03*
X848360D02*
D03*
X932180D02*
D03*
X764540D02*
D03*
X965200Y782320D02*
D03*
X1028700D02*
D03*
X881380D02*
D03*
X797560D02*
D03*
X220980Y289560D02*
D03*
X44290Y340360D02*
D03*
X307340Y289560D02*
D03*
X134620D02*
D03*
X50800D02*
D03*
X269240Y340360D02*
D03*
X182880D02*
D03*
X99060D02*
D03*
X1117600Y556260D02*
D03*
X353060Y543560D02*
D03*
X861060Y637540D02*
D03*
X919480D02*
D03*
X972820Y480060D02*
D03*
X1003300Y685800D02*
D03*
X998220Y556260D02*
D03*
X525780Y716280D02*
D03*
X762000Y490220D02*
D03*
D100*
X38100Y80000D02*
D03*
X68580D02*
D03*
X53340D02*
D03*
X83820D02*
D03*
X388620D02*
D03*
X419100D02*
D03*
X403860D02*
D03*
X434340D02*
D03*
X736600D02*
D03*
X767080D02*
D03*
X751840D02*
D03*
X782320D02*
D03*
X1084580D02*
D03*
X1115060D02*
D03*
X1099820D02*
D03*
X1130300D02*
D03*
X1432560D02*
D03*
X1463040D02*
D03*
X1447800D02*
D03*
X1478280D02*
D03*
X1460500Y1020000D02*
D03*
X1430020D02*
D03*
X1445260D02*
D03*
X1414780D02*
D03*
X1117600D02*
D03*
X1087120D02*
D03*
X1102360D02*
D03*
X1071880D02*
D03*
X772160D02*
D03*
X741680D02*
D03*
X756920D02*
D03*
X726440D02*
D03*
X426720D02*
D03*
X396240D02*
D03*
X411480D02*
D03*
X381000D02*
D03*
X83820D02*
D03*
X53340D02*
D03*
X68580D02*
D03*
X38100D02*
D03*
M02*
