M48
;Layer_Color=9474304
;FILE_FORMAT=4:4
METRIC,LZ
;TYPE=PLATED
T1F00S00C0.7112
T2F00S00C0.8000
T3F00S00C0.8890
T4F00S00C0.9000
T5F00S00C0.9200
T6F00S00C1.0000
T7F00S00C1.6510
T8F00S00C1.7000
T9F00S00C2.3000
%
T01
X0180086Y003302
X0179832Y0036957
X0189484
X0189738Y003302
X0198755Y0038608
X0170307Y0037084
X0170434Y003302
X0160528
X0160878Y0036957
X0150114Y0036957
Y003302
X0140716
X0140462Y0036957
X0130937Y0037084
X0131318Y003302
X0121158
X0121508Y0036957
X0110744Y0036957
X0110998Y003302
X01016
X0101092Y0036957
X011176Y0049784
X0117348Y0051816
X0088646Y0052189
X0085598Y0053594
X0082138Y0036957
X0081788Y003302
X0071882
X0071374Y0036957
X0061722
X006223Y003302
X0055118Y00508
X0091567Y0036961
X0092202Y003302
X0052578
X0052197Y0037084
X0042768Y0036957
X0042672Y003302
X0032512
X0032004Y0036957
X0022352
X002286Y003302
X0045212Y00508
X0051562Y0047244
X0012827Y0037084
X0013462Y003302
X0004318
X0003794Y00387194
X0017018Y0058928
X0038608Y005461
X004318Y0056388
Y0061976
X0052832Y005842
X0070104Y0068834
X008255Y006858
Y0079502
X0090932Y007874
X0089408Y008636
X0070104Y0085598
X010033Y0082804
X0100584Y007366
X0104394Y006477
X0098298Y0060706
X01103196Y00829744
X0112776Y0090932
X0124968Y0072136
X0126238Y0067564
X0179578Y0101092
X0179324Y010668
X0189042Y0106656
X018923Y0101092
X019558Y0100838
X019812Y010668
X0169672
X0169926Y0101092
X01604763Y01011437
X0159766Y010668
X0150434Y0106656
X0150622Y0101092
X014097
X0140909Y01067307
X0131064Y010668
X0131318Y0101092
X0121869Y0101651
X0121412Y010668
X0111699Y0106656
X0111887Y0101092
X0102235
X0102108Y010668
X0092456
X0092583Y0101092
X0083185Y01010688
X008255Y010668
X0072898
X0073279Y01010688
X0063627
X0063246Y010668
X0053848
X0053975Y01010688
X00443983Y01011437
X0043942Y010668
X003429
X0034544Y0101092
X0024892
X0024638Y010668
X0014986
X001524Y0101092
X0004826
T02
X0062738Y0049784
Y0052324
X002657Y005969
X002169
X0018415Y0080157
Y0082657
X0026162Y0082911
Y0080411
X005461Y0079522
Y0082022
X0062738Y0057404
Y0054864
X0093472Y008636
Y00889
Y009144
X0096012
Y00889
Y008636
T03
X0177419Y0018
X0178943
X0180467
X0181991
X0142621
X0141097
X0139573
X0138049
X0103251
X0101727
X0100203
X0098679
X0063881
X0062357
X0060833
X0059309
X0024511
X0022987
X0021463
X0019939
X0177546Y0121725
X017907
X0180594
X0182118
X014351
X0141986
X0140462
X0138938
X0104775
X0103251
X0101727
X0100203
X0066167Y01217018
X0064643
X0063119
X0061595
X0027432Y0121725
X0025908
X0024384
X002286
T04
X0085598Y0061976
Y0065278
X0153416Y0071374
Y007493
T05
X0014479Y0051633
X0012489
Y0054133
X0014479
T06
X0001651Y0064389
Y0066929
Y0069469
Y0072009
X0009271
Y0069469
Y0066929
Y0064389
T07
X0189738Y006477
Y006985
Y007493
T08
X0012065Y00100635
X0017145Y00099365
X0022225
X0027305
X0032385
X0051435Y00100635
X0056515Y00099365
X0061595
X0066675
X0071755
X0090805Y00100635
X0095885Y00099365
X0100965
X0106045
X0111125
X0130175Y00100635
X0135255Y00099365
X0140335
X0145415
X0150495
X0169545Y00100635
X0174625Y00099365
X0179705
X0184785
X0189865
X0009144Y0081407
Y0086487
X0174752Y01300635
X0179832
X0184912
X0189992Y01299365
X0169672Y01300635
X0151384Y01299365
X0146304Y01300635
X0141224
X0136144
X0131064
X0112649Y01299365
X0107569Y01300635
X0102489
X0097409
X0092329
X0074041Y01299133
X0068961Y01300403
X0063881
X0058801
X0053721
X0035306Y01299365
X0030226Y01300635
X0025146
X0020066
X0014986
T09
X0009779Y0046863
Y0058903
M30
