G04*
G04 #@! TF.GenerationSoftware,Altium Limited,Altium Designer,21.4.1 (30)*
G04*
G04 Layer_Color=32896*
%FSLAX44Y44*%
%MOMM*%
G71*
G04*
G04 #@! TF.SameCoordinates,D7483978-ABC8-4366-99C6-00734FDD2927*
G04*
G04*
G04 #@! TF.FilePolarity,Positive*
G04*
G01*
G75*
G36*
X1369060Y449580D02*
X1092200D01*
Y523047D01*
X1369060D01*
Y449580D01*
D02*
G37*
G36*
X343427Y1070000D02*
X339207D01*
X335376Y1084353D01*
X331600Y1070000D01*
X327408D01*
X322772Y1089211D01*
X326686D01*
X329629Y1075775D01*
X332961Y1089211D01*
X337625D01*
X341123Y1075997D01*
X344010Y1089211D01*
X347980D01*
X343427Y1070000D01*
D02*
G37*
G36*
X232777Y1089905D02*
X233665Y1089794D01*
X234054Y1089711D01*
X234443Y1089628D01*
X234804Y1089545D01*
X235109Y1089461D01*
X235387Y1089350D01*
X235664Y1089267D01*
X235859Y1089184D01*
X236053Y1089128D01*
X236192Y1089045D01*
X236303Y1089017D01*
X236358Y1088962D01*
X236386D01*
X237247Y1088462D01*
X237608Y1088157D01*
X237969Y1087879D01*
X238302Y1087573D01*
X238607Y1087268D01*
X238885Y1086963D01*
X239135Y1086685D01*
X239329Y1086407D01*
X239523Y1086158D01*
X239690Y1085936D01*
X239829Y1085741D01*
X239912Y1085575D01*
X239995Y1085463D01*
X240023Y1085380D01*
X240051Y1085352D01*
X240273Y1084908D01*
X240467Y1084464D01*
X240772Y1083548D01*
X240995Y1082632D01*
X241133Y1081827D01*
X241189Y1081438D01*
X241245Y1081105D01*
X241272Y1080799D01*
Y1080522D01*
X241300Y1080328D01*
Y1080161D01*
Y1080050D01*
Y1080022D01*
X241245Y1078995D01*
X241133Y1078051D01*
X240939Y1077190D01*
X240856Y1076774D01*
X240745Y1076413D01*
X240634Y1076080D01*
X240550Y1075775D01*
X240439Y1075525D01*
X240356Y1075303D01*
X240301Y1075136D01*
X240245Y1074997D01*
X240189Y1074914D01*
Y1074886D01*
X239718Y1074053D01*
X239190Y1073332D01*
X238635Y1072693D01*
X238080Y1072193D01*
X237830Y1071971D01*
X237580Y1071777D01*
X237386Y1071610D01*
X237191Y1071499D01*
X237052Y1071388D01*
X236914Y1071305D01*
X236858Y1071277D01*
X236830Y1071249D01*
X236386Y1071027D01*
X235970Y1070833D01*
X235054Y1070527D01*
X234165Y1070305D01*
X233360Y1070167D01*
X232971Y1070111D01*
X232638Y1070055D01*
X232333Y1070028D01*
X232055D01*
X231861Y1070000D01*
X231556D01*
X230667Y1070028D01*
X229834Y1070139D01*
X229029Y1070278D01*
X228335Y1070444D01*
X228030Y1070527D01*
X227752Y1070611D01*
X227502Y1070694D01*
X227280Y1070750D01*
X227113Y1070805D01*
X227003Y1070861D01*
X226919Y1070888D01*
X226891D01*
X226059Y1071221D01*
X225364Y1071582D01*
X224754Y1071943D01*
X224226Y1072249D01*
X223838Y1072526D01*
X223699Y1072637D01*
X223560Y1072748D01*
X223477Y1072832D01*
X223393Y1072887D01*
X223338Y1072943D01*
Y1080661D01*
X231694D01*
Y1077412D01*
X227252D01*
Y1074942D01*
X227586Y1074692D01*
X227946Y1074470D01*
X228307Y1074275D01*
X228640Y1074109D01*
X228918Y1073970D01*
X229168Y1073859D01*
X229307Y1073803D01*
X229335Y1073776D01*
X229362D01*
X229806Y1073609D01*
X230251Y1073498D01*
X230667Y1073415D01*
X231028Y1073359D01*
X231361Y1073332D01*
X231583Y1073304D01*
X231805D01*
X232250Y1073332D01*
X232694Y1073387D01*
X233082Y1073470D01*
X233471Y1073581D01*
X234165Y1073859D01*
X234443Y1073998D01*
X234720Y1074164D01*
X234970Y1074331D01*
X235192Y1074470D01*
X235359Y1074636D01*
X235525Y1074747D01*
X235637Y1074858D01*
X235720Y1074942D01*
X235775Y1074997D01*
X235803Y1075025D01*
X236053Y1075358D01*
X236303Y1075747D01*
X236497Y1076135D01*
X236664Y1076552D01*
X236941Y1077412D01*
X237108Y1078245D01*
X237163Y1078634D01*
X237219Y1079023D01*
X237247Y1079328D01*
X237274Y1079633D01*
X237302Y1079856D01*
Y1080050D01*
Y1080161D01*
Y1080189D01*
X237274Y1080772D01*
X237247Y1081299D01*
X237163Y1081827D01*
X237080Y1082299D01*
X236969Y1082715D01*
X236830Y1083104D01*
X236691Y1083465D01*
X236553Y1083798D01*
X236442Y1084075D01*
X236303Y1084325D01*
X236164Y1084520D01*
X236053Y1084686D01*
X235970Y1084825D01*
X235886Y1084908D01*
X235859Y1084964D01*
X235831Y1084992D01*
X235525Y1085269D01*
X235220Y1085547D01*
X234887Y1085741D01*
X234554Y1085936D01*
X234221Y1086102D01*
X233888Y1086241D01*
X233249Y1086435D01*
X232944Y1086491D01*
X232666Y1086546D01*
X232416Y1086574D01*
X232194Y1086602D01*
X232027Y1086630D01*
X231778D01*
X231167Y1086602D01*
X230639Y1086491D01*
X230167Y1086380D01*
X229751Y1086213D01*
X229445Y1086074D01*
X229196Y1085936D01*
X229057Y1085824D01*
X229001Y1085797D01*
X228613Y1085463D01*
X228279Y1085103D01*
X228002Y1084742D01*
X227808Y1084381D01*
X227641Y1084048D01*
X227530Y1083798D01*
X227474Y1083631D01*
X227447Y1083604D01*
Y1083576D01*
X223588Y1084297D01*
X223699Y1084770D01*
X223865Y1085241D01*
X224032Y1085658D01*
X224254Y1086047D01*
X224448Y1086435D01*
X224670Y1086768D01*
X224893Y1087074D01*
X225115Y1087351D01*
X225337Y1087601D01*
X225531Y1087823D01*
X225698Y1088018D01*
X225864Y1088157D01*
X226003Y1088268D01*
X226114Y1088379D01*
X226170Y1088406D01*
X226197Y1088434D01*
X226586Y1088712D01*
X227003Y1088934D01*
X227447Y1089128D01*
X227919Y1089295D01*
X228835Y1089572D01*
X229723Y1089739D01*
X230140Y1089822D01*
X230528Y1089850D01*
X230889Y1089878D01*
X231195Y1089905D01*
X231444Y1089933D01*
X231778D01*
X232777Y1089905D01*
D02*
G37*
G36*
X289560Y1070000D02*
X281231D01*
X280759Y1070028D01*
X279926D01*
X279593Y1070055D01*
X279066D01*
X278872Y1070083D01*
X278594D01*
X278483Y1070111D01*
X278372D01*
X277817Y1070194D01*
X277317Y1070333D01*
X276873Y1070472D01*
X276484Y1070639D01*
X276179Y1070777D01*
X275956Y1070916D01*
X275818Y1070999D01*
X275762Y1071027D01*
X275373Y1071333D01*
X275068Y1071666D01*
X274763Y1071971D01*
X274541Y1072304D01*
X274346Y1072582D01*
X274207Y1072804D01*
X274124Y1072943D01*
X274097Y1072998D01*
X273902Y1073470D01*
X273736Y1073914D01*
X273624Y1074359D01*
X273569Y1074747D01*
X273513Y1075080D01*
X273486Y1075330D01*
Y1075497D01*
Y1075525D01*
Y1075552D01*
X273513Y1076163D01*
X273624Y1076718D01*
X273791Y1077190D01*
X273958Y1077635D01*
X274124Y1077968D01*
X274291Y1078218D01*
X274402Y1078384D01*
X274430Y1078440D01*
X274818Y1078884D01*
X275235Y1079245D01*
X275707Y1079550D01*
X276123Y1079772D01*
X276512Y1079967D01*
X276845Y1080105D01*
X276956Y1080133D01*
X277039Y1080161D01*
X277095Y1080189D01*
X277122D01*
X276678Y1080439D01*
X276290Y1080688D01*
X275956Y1080994D01*
X275679Y1081244D01*
X275485Y1081494D01*
X275318Y1081688D01*
X275207Y1081827D01*
X275179Y1081882D01*
X274929Y1082326D01*
X274735Y1082743D01*
X274624Y1083159D01*
X274513Y1083548D01*
X274457Y1083881D01*
X274430Y1084131D01*
Y1084297D01*
Y1084325D01*
Y1084353D01*
X274457Y1084797D01*
X274513Y1085241D01*
X274624Y1085602D01*
X274735Y1085936D01*
X274846Y1086213D01*
X274957Y1086435D01*
X275013Y1086546D01*
X275040Y1086602D01*
X275263Y1086963D01*
X275512Y1087268D01*
X275762Y1087546D01*
X275984Y1087796D01*
X276206Y1087962D01*
X276373Y1088101D01*
X276484Y1088184D01*
X276512Y1088212D01*
X276845Y1088434D01*
X277206Y1088601D01*
X277539Y1088739D01*
X277844Y1088850D01*
X278122Y1088934D01*
X278316Y1088989D01*
X278455Y1089017D01*
X278511D01*
X278983Y1089073D01*
X279510Y1089128D01*
X280065Y1089156D01*
X280621Y1089184D01*
X281120Y1089211D01*
X289560D01*
Y1070000D01*
D02*
G37*
G36*
X190500D02*
X186613D01*
Y1078023D01*
X185364D01*
X184975Y1077996D01*
X184642Y1077968D01*
X184365Y1077912D01*
X184142Y1077885D01*
X184004Y1077829D01*
X183920Y1077801D01*
X183893D01*
X183671Y1077690D01*
X183448Y1077579D01*
X183254Y1077440D01*
X183060Y1077329D01*
X182921Y1077190D01*
X182810Y1077079D01*
X182754Y1077024D01*
X182727Y1076996D01*
X182616Y1076857D01*
X182477Y1076718D01*
X182171Y1076302D01*
X181838Y1075858D01*
X181477Y1075358D01*
X181172Y1074914D01*
X181033Y1074692D01*
X180922Y1074525D01*
X180811Y1074386D01*
X180728Y1074275D01*
X180700Y1074192D01*
X180672Y1074164D01*
X177896Y1070000D01*
X173232D01*
X175592Y1073748D01*
X175842Y1074137D01*
X176091Y1074525D01*
X176313Y1074858D01*
X176536Y1075164D01*
X176730Y1075441D01*
X176896Y1075719D01*
X177230Y1076135D01*
X177479Y1076469D01*
X177646Y1076691D01*
X177785Y1076830D01*
X177813Y1076857D01*
X178118Y1077190D01*
X178479Y1077496D01*
X178812Y1077746D01*
X179145Y1077996D01*
X179423Y1078190D01*
X179645Y1078329D01*
X179812Y1078440D01*
X179839Y1078467D01*
X179867D01*
X179395Y1078551D01*
X178979Y1078662D01*
X178590Y1078773D01*
X178201Y1078912D01*
X177868Y1079051D01*
X177563Y1079189D01*
X177257Y1079328D01*
X177008Y1079495D01*
X176786Y1079633D01*
X176591Y1079772D01*
X176425Y1079911D01*
X176313Y1080022D01*
X176203Y1080105D01*
X176119Y1080189D01*
X176091Y1080217D01*
X176064Y1080244D01*
X175842Y1080522D01*
X175647Y1080799D01*
X175314Y1081410D01*
X175092Y1081993D01*
X174953Y1082576D01*
X174842Y1083076D01*
X174814Y1083270D01*
Y1083465D01*
X174787Y1083604D01*
Y1083742D01*
Y1083798D01*
Y1083826D01*
X174814Y1084436D01*
X174925Y1085019D01*
X175064Y1085519D01*
X175203Y1085963D01*
X175370Y1086324D01*
X175508Y1086602D01*
X175564Y1086685D01*
X175620Y1086768D01*
X175647Y1086796D01*
Y1086824D01*
X175980Y1087296D01*
X176341Y1087684D01*
X176702Y1087990D01*
X177063Y1088268D01*
X177396Y1088434D01*
X177646Y1088573D01*
X177813Y1088656D01*
X177840Y1088684D01*
X177868D01*
X178146Y1088767D01*
X178451Y1088850D01*
X179145Y1088989D01*
X179895Y1089073D01*
X180617Y1089156D01*
X180978D01*
X181283Y1089184D01*
X181588D01*
X181838Y1089211D01*
X190500D01*
Y1070000D01*
D02*
G37*
G36*
X120973Y1089295D02*
X121417Y1089267D01*
X122277Y1089128D01*
X122999Y1088906D01*
X123333Y1088795D01*
X123638Y1088656D01*
X123916Y1088545D01*
X124138Y1088406D01*
X124360Y1088295D01*
X124526Y1088212D01*
X124665Y1088101D01*
X124748Y1088045D01*
X124804Y1088018D01*
X124832Y1087990D01*
X125137Y1087712D01*
X125415Y1087435D01*
X125665Y1087102D01*
X125887Y1086741D01*
X126220Y1086019D01*
X126497Y1085325D01*
X126581Y1084964D01*
X126664Y1084658D01*
X126747Y1084381D01*
X126775Y1084131D01*
X126831Y1083909D01*
Y1083770D01*
X126858Y1083659D01*
Y1083631D01*
X123194Y1083270D01*
X123138Y1083826D01*
X123027Y1084297D01*
X122916Y1084714D01*
X122777Y1085019D01*
X122666Y1085269D01*
X122555Y1085436D01*
X122472Y1085547D01*
X122444Y1085575D01*
X122167Y1085797D01*
X121861Y1085963D01*
X121556Y1086102D01*
X121250Y1086185D01*
X121000Y1086241D01*
X120778Y1086269D01*
X120584D01*
X120168Y1086241D01*
X119807Y1086158D01*
X119501Y1086047D01*
X119224Y1085936D01*
X119029Y1085824D01*
X118863Y1085713D01*
X118779Y1085630D01*
X118752Y1085602D01*
X118530Y1085325D01*
X118363Y1085019D01*
X118252Y1084714D01*
X118169Y1084409D01*
X118113Y1084131D01*
X118085Y1083881D01*
Y1083742D01*
Y1083715D01*
Y1083687D01*
X118113Y1083270D01*
X118196Y1082882D01*
X118335Y1082493D01*
X118474Y1082160D01*
X118613Y1081854D01*
X118752Y1081632D01*
X118835Y1081494D01*
X118863Y1081438D01*
X118974Y1081271D01*
X119140Y1081077D01*
X119362Y1080827D01*
X119585Y1080605D01*
X120084Y1080078D01*
X120584Y1079550D01*
X121084Y1079051D01*
X121306Y1078828D01*
X121528Y1078662D01*
X121694Y1078495D01*
X121806Y1078384D01*
X121889Y1078301D01*
X121917Y1078273D01*
X122472Y1077746D01*
X122972Y1077246D01*
X123443Y1076774D01*
X123860Y1076357D01*
X124249Y1075941D01*
X124582Y1075552D01*
X124887Y1075219D01*
X125137Y1074886D01*
X125359Y1074609D01*
X125554Y1074359D01*
X125720Y1074164D01*
X125831Y1073970D01*
X125942Y1073859D01*
X125998Y1073748D01*
X126053Y1073692D01*
Y1073665D01*
X126414Y1073026D01*
X126692Y1072360D01*
X126914Y1071749D01*
X127080Y1071194D01*
X127191Y1070694D01*
X127219Y1070500D01*
X127247Y1070333D01*
X127275Y1070194D01*
X127303Y1070083D01*
Y1070028D01*
Y1070000D01*
X114393D01*
Y1073415D01*
X121722D01*
X121500Y1073776D01*
X121250Y1074081D01*
X121139Y1074220D01*
X121056Y1074331D01*
X121000Y1074386D01*
X120973Y1074414D01*
X120862Y1074525D01*
X120751Y1074664D01*
X120417Y1074969D01*
X120057Y1075330D01*
X119696Y1075691D01*
X119335Y1076024D01*
X119029Y1076302D01*
X118918Y1076413D01*
X118835Y1076496D01*
X118779Y1076524D01*
X118752Y1076552D01*
X118141Y1077135D01*
X117641Y1077607D01*
X117225Y1078051D01*
X116892Y1078384D01*
X116642Y1078662D01*
X116475Y1078856D01*
X116364Y1078995D01*
X116336Y1079023D01*
X115976Y1079495D01*
X115670Y1079939D01*
X115420Y1080355D01*
X115226Y1080716D01*
X115059Y1081022D01*
X114948Y1081271D01*
X114893Y1081410D01*
X114865Y1081466D01*
X114698Y1081910D01*
X114587Y1082354D01*
X114504Y1082771D01*
X114449Y1083159D01*
X114421Y1083465D01*
X114393Y1083715D01*
Y1083881D01*
Y1083937D01*
X114421Y1084353D01*
X114476Y1084770D01*
X114532Y1085158D01*
X114643Y1085519D01*
X114921Y1086158D01*
X115198Y1086713D01*
X115365Y1086963D01*
X115504Y1087157D01*
X115642Y1087351D01*
X115781Y1087490D01*
X115892Y1087601D01*
X115948Y1087712D01*
X116003Y1087740D01*
X116031Y1087768D01*
X116336Y1088045D01*
X116697Y1088295D01*
X117030Y1088490D01*
X117419Y1088656D01*
X118141Y1088934D01*
X118863Y1089128D01*
X119196Y1089184D01*
X119501Y1089239D01*
X119779Y1089267D01*
X120029Y1089295D01*
X120223Y1089323D01*
X120501D01*
X120973Y1089295D01*
D02*
G37*
G36*
X135631Y1088684D02*
X135992Y1088101D01*
X136381Y1087546D01*
X136769Y1087102D01*
X137102Y1086741D01*
X137408Y1086463D01*
X137519Y1086352D01*
X137602Y1086269D01*
X137658Y1086241D01*
X137686Y1086213D01*
X138296Y1085769D01*
X138879Y1085380D01*
X139407Y1085075D01*
X139879Y1084853D01*
X140267Y1084686D01*
X140545Y1084547D01*
X140656Y1084520D01*
X140739Y1084492D01*
X140767Y1084464D01*
X140795D01*
Y1081133D01*
X139796Y1081521D01*
X138907Y1081938D01*
X138491Y1082160D01*
X138102Y1082410D01*
X137741Y1082632D01*
X137408Y1082854D01*
X137102Y1083076D01*
X136825Y1083270D01*
X136603Y1083437D01*
X136409Y1083604D01*
X136242Y1083742D01*
X136131Y1083826D01*
X136075Y1083881D01*
X136048Y1083909D01*
Y1070000D01*
X132355D01*
Y1089323D01*
X135353D01*
X135631Y1088684D01*
D02*
G37*
G36*
X152455Y1081188D02*
X157480D01*
Y1077746D01*
X152455D01*
Y1072776D01*
X149096D01*
Y1077746D01*
X144043D01*
Y1081188D01*
X149096D01*
Y1086158D01*
X152455D01*
Y1081188D01*
D02*
G37*
G36*
X686327Y1070000D02*
X682107D01*
X678276Y1084353D01*
X674500Y1070000D01*
X670308D01*
X665672Y1089211D01*
X669586D01*
X672529Y1075775D01*
X675861Y1089211D01*
X680525D01*
X684023Y1075997D01*
X686910Y1089211D01*
X690880D01*
X686327Y1070000D01*
D02*
G37*
G36*
X575677Y1089905D02*
X576565Y1089794D01*
X576954Y1089711D01*
X577343Y1089628D01*
X577704Y1089545D01*
X578009Y1089461D01*
X578287Y1089350D01*
X578564Y1089267D01*
X578759Y1089184D01*
X578953Y1089128D01*
X579092Y1089045D01*
X579203Y1089017D01*
X579258Y1088962D01*
X579286D01*
X580147Y1088462D01*
X580508Y1088157D01*
X580868Y1087879D01*
X581202Y1087573D01*
X581507Y1087268D01*
X581785Y1086963D01*
X582034Y1086685D01*
X582229Y1086407D01*
X582423Y1086158D01*
X582590Y1085936D01*
X582729Y1085741D01*
X582812Y1085575D01*
X582895Y1085463D01*
X582923Y1085380D01*
X582951Y1085352D01*
X583173Y1084908D01*
X583367Y1084464D01*
X583672Y1083548D01*
X583895Y1082632D01*
X584033Y1081827D01*
X584089Y1081438D01*
X584145Y1081105D01*
X584172Y1080799D01*
Y1080522D01*
X584200Y1080328D01*
Y1080161D01*
Y1080050D01*
Y1080022D01*
X584145Y1078995D01*
X584033Y1078051D01*
X583839Y1077190D01*
X583756Y1076774D01*
X583645Y1076413D01*
X583534Y1076080D01*
X583450Y1075775D01*
X583339Y1075525D01*
X583256Y1075303D01*
X583201Y1075136D01*
X583145Y1074997D01*
X583089Y1074914D01*
Y1074886D01*
X582618Y1074053D01*
X582090Y1073332D01*
X581535Y1072693D01*
X580980Y1072193D01*
X580730Y1071971D01*
X580480Y1071777D01*
X580285Y1071610D01*
X580091Y1071499D01*
X579952Y1071388D01*
X579814Y1071305D01*
X579758Y1071277D01*
X579730Y1071249D01*
X579286Y1071027D01*
X578870Y1070833D01*
X577953Y1070527D01*
X577065Y1070305D01*
X576260Y1070167D01*
X575871Y1070111D01*
X575538Y1070055D01*
X575233Y1070028D01*
X574955D01*
X574761Y1070000D01*
X574455D01*
X573567Y1070028D01*
X572734Y1070139D01*
X571929Y1070278D01*
X571235Y1070444D01*
X570930Y1070527D01*
X570652Y1070611D01*
X570402Y1070694D01*
X570180Y1070750D01*
X570014Y1070805D01*
X569902Y1070861D01*
X569819Y1070888D01*
X569791D01*
X568959Y1071221D01*
X568265Y1071582D01*
X567654Y1071943D01*
X567126Y1072249D01*
X566738Y1072526D01*
X566599Y1072637D01*
X566460Y1072748D01*
X566377Y1072832D01*
X566293Y1072887D01*
X566238Y1072943D01*
Y1080661D01*
X574594D01*
Y1077412D01*
X570152D01*
Y1074942D01*
X570485Y1074692D01*
X570846Y1074470D01*
X571207Y1074275D01*
X571540Y1074109D01*
X571818Y1073970D01*
X572068Y1073859D01*
X572207Y1073803D01*
X572234Y1073776D01*
X572262D01*
X572706Y1073609D01*
X573151Y1073498D01*
X573567Y1073415D01*
X573928Y1073359D01*
X574261Y1073332D01*
X574483Y1073304D01*
X574705D01*
X575149Y1073332D01*
X575594Y1073387D01*
X575982Y1073470D01*
X576371Y1073581D01*
X577065Y1073859D01*
X577343Y1073998D01*
X577620Y1074164D01*
X577870Y1074331D01*
X578092Y1074470D01*
X578259Y1074636D01*
X578425Y1074747D01*
X578536Y1074858D01*
X578620Y1074942D01*
X578675Y1074997D01*
X578703Y1075025D01*
X578953Y1075358D01*
X579203Y1075747D01*
X579397Y1076135D01*
X579564Y1076552D01*
X579841Y1077412D01*
X580008Y1078245D01*
X580063Y1078634D01*
X580119Y1079023D01*
X580147Y1079328D01*
X580174Y1079633D01*
X580202Y1079856D01*
Y1080050D01*
Y1080161D01*
Y1080189D01*
X580174Y1080772D01*
X580147Y1081299D01*
X580063Y1081827D01*
X579980Y1082299D01*
X579869Y1082715D01*
X579730Y1083104D01*
X579591Y1083465D01*
X579453Y1083798D01*
X579342Y1084075D01*
X579203Y1084325D01*
X579064Y1084520D01*
X578953Y1084686D01*
X578870Y1084825D01*
X578786Y1084908D01*
X578759Y1084964D01*
X578731Y1084992D01*
X578425Y1085269D01*
X578120Y1085547D01*
X577787Y1085741D01*
X577454Y1085936D01*
X577121Y1086102D01*
X576787Y1086241D01*
X576149Y1086435D01*
X575844Y1086491D01*
X575566Y1086546D01*
X575316Y1086574D01*
X575094Y1086602D01*
X574927Y1086630D01*
X574678D01*
X574067Y1086602D01*
X573539Y1086491D01*
X573067Y1086380D01*
X572651Y1086213D01*
X572346Y1086074D01*
X572096Y1085936D01*
X571957Y1085824D01*
X571901Y1085797D01*
X571513Y1085463D01*
X571180Y1085103D01*
X570902Y1084742D01*
X570708Y1084381D01*
X570541Y1084048D01*
X570430Y1083798D01*
X570374Y1083631D01*
X570347Y1083604D01*
Y1083576D01*
X566488Y1084297D01*
X566599Y1084770D01*
X566765Y1085241D01*
X566932Y1085658D01*
X567154Y1086047D01*
X567348Y1086435D01*
X567570Y1086768D01*
X567793Y1087074D01*
X568015Y1087351D01*
X568237Y1087601D01*
X568431Y1087823D01*
X568598Y1088018D01*
X568764Y1088157D01*
X568903Y1088268D01*
X569014Y1088379D01*
X569070Y1088406D01*
X569097Y1088434D01*
X569486Y1088712D01*
X569902Y1088934D01*
X570347Y1089128D01*
X570819Y1089295D01*
X571735Y1089572D01*
X572623Y1089739D01*
X573040Y1089822D01*
X573428Y1089850D01*
X573789Y1089878D01*
X574095Y1089905D01*
X574344Y1089933D01*
X574678D01*
X575677Y1089905D01*
D02*
G37*
G36*
X632460Y1070000D02*
X624131D01*
X623659Y1070028D01*
X622826D01*
X622493Y1070055D01*
X621966D01*
X621772Y1070083D01*
X621494D01*
X621383Y1070111D01*
X621272D01*
X620717Y1070194D01*
X620217Y1070333D01*
X619773Y1070472D01*
X619384Y1070639D01*
X619079Y1070777D01*
X618857Y1070916D01*
X618718Y1070999D01*
X618662Y1071027D01*
X618274Y1071333D01*
X617968Y1071666D01*
X617663Y1071971D01*
X617441Y1072304D01*
X617246Y1072582D01*
X617108Y1072804D01*
X617024Y1072943D01*
X616996Y1072998D01*
X616802Y1073470D01*
X616636Y1073914D01*
X616525Y1074359D01*
X616469Y1074747D01*
X616413Y1075080D01*
X616386Y1075330D01*
Y1075497D01*
Y1075525D01*
Y1075552D01*
X616413Y1076163D01*
X616525Y1076718D01*
X616691Y1077190D01*
X616858Y1077635D01*
X617024Y1077968D01*
X617191Y1078218D01*
X617302Y1078384D01*
X617330Y1078440D01*
X617718Y1078884D01*
X618135Y1079245D01*
X618607Y1079550D01*
X619023Y1079772D01*
X619412Y1079967D01*
X619745Y1080105D01*
X619856Y1080133D01*
X619939Y1080161D01*
X619995Y1080189D01*
X620023D01*
X619578Y1080439D01*
X619190Y1080688D01*
X618857Y1080994D01*
X618579Y1081244D01*
X618385Y1081494D01*
X618218Y1081688D01*
X618107Y1081827D01*
X618079Y1081882D01*
X617829Y1082326D01*
X617635Y1082743D01*
X617524Y1083159D01*
X617413Y1083548D01*
X617357Y1083881D01*
X617330Y1084131D01*
Y1084297D01*
Y1084325D01*
Y1084353D01*
X617357Y1084797D01*
X617413Y1085241D01*
X617524Y1085602D01*
X617635Y1085936D01*
X617746Y1086213D01*
X617857Y1086435D01*
X617913Y1086546D01*
X617940Y1086602D01*
X618162Y1086963D01*
X618412Y1087268D01*
X618662Y1087546D01*
X618884Y1087796D01*
X619106Y1087962D01*
X619273Y1088101D01*
X619384Y1088184D01*
X619412Y1088212D01*
X619745Y1088434D01*
X620106Y1088601D01*
X620439Y1088739D01*
X620744Y1088850D01*
X621022Y1088934D01*
X621216Y1088989D01*
X621355Y1089017D01*
X621411D01*
X621883Y1089073D01*
X622410Y1089128D01*
X622965Y1089156D01*
X623521Y1089184D01*
X624020Y1089211D01*
X632460D01*
Y1070000D01*
D02*
G37*
G36*
X533400D02*
X529513D01*
Y1078023D01*
X528264D01*
X527875Y1077996D01*
X527542Y1077968D01*
X527265Y1077912D01*
X527043Y1077885D01*
X526904Y1077829D01*
X526820Y1077801D01*
X526793D01*
X526571Y1077690D01*
X526348Y1077579D01*
X526154Y1077440D01*
X525960Y1077329D01*
X525821Y1077190D01*
X525710Y1077079D01*
X525654Y1077024D01*
X525627Y1076996D01*
X525516Y1076857D01*
X525377Y1076718D01*
X525071Y1076302D01*
X524738Y1075858D01*
X524377Y1075358D01*
X524072Y1074914D01*
X523933Y1074692D01*
X523822Y1074525D01*
X523711Y1074386D01*
X523628Y1074275D01*
X523600Y1074192D01*
X523572Y1074164D01*
X520796Y1070000D01*
X516132D01*
X518492Y1073748D01*
X518742Y1074137D01*
X518991Y1074525D01*
X519213Y1074858D01*
X519436Y1075164D01*
X519630Y1075441D01*
X519796Y1075719D01*
X520130Y1076135D01*
X520379Y1076469D01*
X520546Y1076691D01*
X520685Y1076830D01*
X520713Y1076857D01*
X521018Y1077190D01*
X521379Y1077496D01*
X521712Y1077746D01*
X522045Y1077996D01*
X522323Y1078190D01*
X522545Y1078329D01*
X522712Y1078440D01*
X522739Y1078467D01*
X522767D01*
X522295Y1078551D01*
X521879Y1078662D01*
X521490Y1078773D01*
X521101Y1078912D01*
X520768Y1079051D01*
X520463Y1079189D01*
X520157Y1079328D01*
X519908Y1079495D01*
X519686Y1079633D01*
X519491Y1079772D01*
X519325Y1079911D01*
X519213Y1080022D01*
X519103Y1080105D01*
X519019Y1080189D01*
X518991Y1080217D01*
X518964Y1080244D01*
X518742Y1080522D01*
X518547Y1080799D01*
X518214Y1081410D01*
X517992Y1081993D01*
X517853Y1082576D01*
X517742Y1083076D01*
X517714Y1083270D01*
Y1083465D01*
X517687Y1083604D01*
Y1083742D01*
Y1083798D01*
Y1083826D01*
X517714Y1084436D01*
X517825Y1085019D01*
X517964Y1085519D01*
X518103Y1085963D01*
X518270Y1086324D01*
X518408Y1086602D01*
X518464Y1086685D01*
X518520Y1086768D01*
X518547Y1086796D01*
Y1086824D01*
X518880Y1087296D01*
X519241Y1087684D01*
X519602Y1087990D01*
X519963Y1088268D01*
X520296Y1088434D01*
X520546Y1088573D01*
X520713Y1088656D01*
X520740Y1088684D01*
X520768D01*
X521046Y1088767D01*
X521351Y1088850D01*
X522045Y1088989D01*
X522795Y1089073D01*
X523517Y1089156D01*
X523878D01*
X524183Y1089184D01*
X524488D01*
X524738Y1089211D01*
X533400D01*
Y1070000D01*
D02*
G37*
G36*
X463873Y1089295D02*
X464317Y1089267D01*
X465177Y1089128D01*
X465899Y1088906D01*
X466232Y1088795D01*
X466538Y1088656D01*
X466815Y1088545D01*
X467038Y1088406D01*
X467260Y1088295D01*
X467426Y1088212D01*
X467565Y1088101D01*
X467648Y1088045D01*
X467704Y1088018D01*
X467732Y1087990D01*
X468037Y1087712D01*
X468315Y1087435D01*
X468564Y1087102D01*
X468787Y1086741D01*
X469120Y1086019D01*
X469397Y1085325D01*
X469481Y1084964D01*
X469564Y1084658D01*
X469647Y1084381D01*
X469675Y1084131D01*
X469730Y1083909D01*
Y1083770D01*
X469758Y1083659D01*
Y1083631D01*
X466094Y1083270D01*
X466038Y1083826D01*
X465927Y1084297D01*
X465816Y1084714D01*
X465677Y1085019D01*
X465566Y1085269D01*
X465455Y1085436D01*
X465372Y1085547D01*
X465344Y1085575D01*
X465066Y1085797D01*
X464761Y1085963D01*
X464456Y1086102D01*
X464150Y1086185D01*
X463900Y1086241D01*
X463678Y1086269D01*
X463484D01*
X463068Y1086241D01*
X462707Y1086158D01*
X462401Y1086047D01*
X462124Y1085936D01*
X461929Y1085824D01*
X461763Y1085713D01*
X461679Y1085630D01*
X461652Y1085602D01*
X461430Y1085325D01*
X461263Y1085019D01*
X461152Y1084714D01*
X461069Y1084409D01*
X461013Y1084131D01*
X460985Y1083881D01*
Y1083742D01*
Y1083715D01*
Y1083687D01*
X461013Y1083270D01*
X461096Y1082882D01*
X461235Y1082493D01*
X461374Y1082160D01*
X461513Y1081854D01*
X461652Y1081632D01*
X461735Y1081494D01*
X461763Y1081438D01*
X461874Y1081271D01*
X462040Y1081077D01*
X462262Y1080827D01*
X462485Y1080605D01*
X462984Y1080078D01*
X463484Y1079550D01*
X463984Y1079051D01*
X464206Y1078828D01*
X464428Y1078662D01*
X464594Y1078495D01*
X464706Y1078384D01*
X464789Y1078301D01*
X464817Y1078273D01*
X465372Y1077746D01*
X465872Y1077246D01*
X466343Y1076774D01*
X466760Y1076357D01*
X467149Y1075941D01*
X467482Y1075552D01*
X467787Y1075219D01*
X468037Y1074886D01*
X468259Y1074609D01*
X468453Y1074359D01*
X468620Y1074164D01*
X468731Y1073970D01*
X468842Y1073859D01*
X468898Y1073748D01*
X468953Y1073692D01*
Y1073665D01*
X469314Y1073026D01*
X469592Y1072360D01*
X469814Y1071749D01*
X469980Y1071194D01*
X470091Y1070694D01*
X470119Y1070500D01*
X470147Y1070333D01*
X470175Y1070194D01*
X470202Y1070083D01*
Y1070028D01*
Y1070000D01*
X457293D01*
Y1073415D01*
X464622D01*
X464400Y1073776D01*
X464150Y1074081D01*
X464039Y1074220D01*
X463956Y1074331D01*
X463900Y1074386D01*
X463873Y1074414D01*
X463762Y1074525D01*
X463651Y1074664D01*
X463317Y1074969D01*
X462957Y1075330D01*
X462596Y1075691D01*
X462235Y1076024D01*
X461929Y1076302D01*
X461818Y1076413D01*
X461735Y1076496D01*
X461679Y1076524D01*
X461652Y1076552D01*
X461041Y1077135D01*
X460541Y1077607D01*
X460125Y1078051D01*
X459792Y1078384D01*
X459542Y1078662D01*
X459375Y1078856D01*
X459264Y1078995D01*
X459236Y1079023D01*
X458876Y1079495D01*
X458570Y1079939D01*
X458320Y1080355D01*
X458126Y1080716D01*
X457959Y1081022D01*
X457848Y1081271D01*
X457793Y1081410D01*
X457765Y1081466D01*
X457598Y1081910D01*
X457487Y1082354D01*
X457404Y1082771D01*
X457349Y1083159D01*
X457321Y1083465D01*
X457293Y1083715D01*
Y1083881D01*
Y1083937D01*
X457321Y1084353D01*
X457376Y1084770D01*
X457432Y1085158D01*
X457543Y1085519D01*
X457821Y1086158D01*
X458098Y1086713D01*
X458265Y1086963D01*
X458404Y1087157D01*
X458542Y1087351D01*
X458681Y1087490D01*
X458792Y1087601D01*
X458848Y1087712D01*
X458903Y1087740D01*
X458931Y1087768D01*
X459236Y1088045D01*
X459597Y1088295D01*
X459930Y1088490D01*
X460319Y1088656D01*
X461041Y1088934D01*
X461763Y1089128D01*
X462096Y1089184D01*
X462401Y1089239D01*
X462679Y1089267D01*
X462929Y1089295D01*
X463123Y1089323D01*
X463401D01*
X463873Y1089295D01*
D02*
G37*
G36*
X478531Y1088684D02*
X478892Y1088101D01*
X479281Y1087546D01*
X479669Y1087102D01*
X480003Y1086741D01*
X480308Y1086463D01*
X480419Y1086352D01*
X480502Y1086269D01*
X480558Y1086241D01*
X480586Y1086213D01*
X481196Y1085769D01*
X481779Y1085380D01*
X482307Y1085075D01*
X482779Y1084853D01*
X483167Y1084686D01*
X483445Y1084547D01*
X483556Y1084520D01*
X483639Y1084492D01*
X483667Y1084464D01*
X483695D01*
Y1081133D01*
X482696Y1081521D01*
X481807Y1081938D01*
X481391Y1082160D01*
X481002Y1082410D01*
X480641Y1082632D01*
X480308Y1082854D01*
X480003Y1083076D01*
X479725Y1083270D01*
X479503Y1083437D01*
X479309Y1083604D01*
X479142Y1083742D01*
X479031Y1083826D01*
X478975Y1083881D01*
X478948Y1083909D01*
Y1070000D01*
X475255D01*
Y1089323D01*
X478254D01*
X478531Y1088684D01*
D02*
G37*
G36*
X495355Y1081188D02*
X500380D01*
Y1077746D01*
X495355D01*
Y1072776D01*
X491996D01*
Y1077746D01*
X486943D01*
Y1081188D01*
X491996D01*
Y1086158D01*
X495355D01*
Y1081188D01*
D02*
G37*
G36*
X1029227Y1070000D02*
X1025007D01*
X1021176Y1084353D01*
X1017400Y1070000D01*
X1013208D01*
X1008572Y1089211D01*
X1012486D01*
X1015429Y1075775D01*
X1018761Y1089211D01*
X1023425D01*
X1026923Y1075997D01*
X1029810Y1089211D01*
X1033780D01*
X1029227Y1070000D01*
D02*
G37*
G36*
X918577Y1089905D02*
X919465Y1089794D01*
X919854Y1089711D01*
X920243Y1089628D01*
X920604Y1089545D01*
X920909Y1089461D01*
X921187Y1089350D01*
X921464Y1089267D01*
X921659Y1089184D01*
X921853Y1089128D01*
X921992Y1089045D01*
X922103Y1089017D01*
X922158Y1088962D01*
X922186D01*
X923047Y1088462D01*
X923408Y1088157D01*
X923768Y1087879D01*
X924102Y1087573D01*
X924407Y1087268D01*
X924685Y1086963D01*
X924934Y1086685D01*
X925129Y1086407D01*
X925323Y1086158D01*
X925490Y1085936D01*
X925629Y1085741D01*
X925712Y1085575D01*
X925795Y1085463D01*
X925823Y1085380D01*
X925851Y1085352D01*
X926073Y1084908D01*
X926267Y1084464D01*
X926572Y1083548D01*
X926795Y1082632D01*
X926933Y1081827D01*
X926989Y1081438D01*
X927045Y1081105D01*
X927072Y1080799D01*
Y1080522D01*
X927100Y1080328D01*
Y1080161D01*
Y1080050D01*
Y1080022D01*
X927045Y1078995D01*
X926933Y1078051D01*
X926739Y1077190D01*
X926656Y1076774D01*
X926545Y1076413D01*
X926434Y1076080D01*
X926350Y1075775D01*
X926239Y1075525D01*
X926156Y1075303D01*
X926101Y1075136D01*
X926045Y1074997D01*
X925990Y1074914D01*
Y1074886D01*
X925518Y1074053D01*
X924990Y1073332D01*
X924435Y1072693D01*
X923880Y1072193D01*
X923630Y1071971D01*
X923380Y1071777D01*
X923186Y1071610D01*
X922991Y1071499D01*
X922852Y1071388D01*
X922714Y1071305D01*
X922658Y1071277D01*
X922630Y1071249D01*
X922186Y1071027D01*
X921770Y1070833D01*
X920854Y1070527D01*
X919965Y1070305D01*
X919160Y1070167D01*
X918771Y1070111D01*
X918438Y1070055D01*
X918133Y1070028D01*
X917855D01*
X917661Y1070000D01*
X917355D01*
X916467Y1070028D01*
X915634Y1070139D01*
X914829Y1070278D01*
X914135Y1070444D01*
X913830Y1070527D01*
X913552Y1070611D01*
X913302Y1070694D01*
X913080Y1070750D01*
X912914Y1070805D01*
X912803Y1070861D01*
X912719Y1070888D01*
X912691D01*
X911859Y1071221D01*
X911164Y1071582D01*
X910554Y1071943D01*
X910026Y1072249D01*
X909638Y1072526D01*
X909499Y1072637D01*
X909360Y1072748D01*
X909277Y1072832D01*
X909193Y1072887D01*
X909138Y1072943D01*
Y1080661D01*
X917494D01*
Y1077412D01*
X913052D01*
Y1074942D01*
X913385Y1074692D01*
X913746Y1074470D01*
X914107Y1074275D01*
X914440Y1074109D01*
X914718Y1073970D01*
X914968Y1073859D01*
X915107Y1073803D01*
X915135Y1073776D01*
X915162D01*
X915606Y1073609D01*
X916051Y1073498D01*
X916467Y1073415D01*
X916828Y1073359D01*
X917161Y1073332D01*
X917383Y1073304D01*
X917605D01*
X918049Y1073332D01*
X918494Y1073387D01*
X918882Y1073470D01*
X919271Y1073581D01*
X919965Y1073859D01*
X920243Y1073998D01*
X920520Y1074164D01*
X920770Y1074331D01*
X920992Y1074470D01*
X921159Y1074636D01*
X921326Y1074747D01*
X921436Y1074858D01*
X921520Y1074942D01*
X921575Y1074997D01*
X921603Y1075025D01*
X921853Y1075358D01*
X922103Y1075747D01*
X922297Y1076135D01*
X922464Y1076552D01*
X922741Y1077412D01*
X922908Y1078245D01*
X922963Y1078634D01*
X923019Y1079023D01*
X923047Y1079328D01*
X923074Y1079633D01*
X923102Y1079856D01*
Y1080050D01*
Y1080161D01*
Y1080189D01*
X923074Y1080772D01*
X923047Y1081299D01*
X922963Y1081827D01*
X922880Y1082299D01*
X922769Y1082715D01*
X922630Y1083104D01*
X922492Y1083465D01*
X922353Y1083798D01*
X922242Y1084075D01*
X922103Y1084325D01*
X921964Y1084520D01*
X921853Y1084686D01*
X921770Y1084825D01*
X921686Y1084908D01*
X921659Y1084964D01*
X921631Y1084992D01*
X921326Y1085269D01*
X921020Y1085547D01*
X920687Y1085741D01*
X920354Y1085936D01*
X920021Y1086102D01*
X919688Y1086241D01*
X919049Y1086435D01*
X918744Y1086491D01*
X918466Y1086546D01*
X918216Y1086574D01*
X917994Y1086602D01*
X917827Y1086630D01*
X917578D01*
X916967Y1086602D01*
X916439Y1086491D01*
X915967Y1086380D01*
X915551Y1086213D01*
X915246Y1086074D01*
X914996Y1085936D01*
X914857Y1085824D01*
X914801Y1085797D01*
X914413Y1085463D01*
X914080Y1085103D01*
X913802Y1084742D01*
X913608Y1084381D01*
X913441Y1084048D01*
X913330Y1083798D01*
X913274Y1083631D01*
X913247Y1083604D01*
Y1083576D01*
X909388Y1084297D01*
X909499Y1084770D01*
X909665Y1085241D01*
X909832Y1085658D01*
X910054Y1086047D01*
X910248Y1086435D01*
X910470Y1086768D01*
X910693Y1087074D01*
X910915Y1087351D01*
X911137Y1087601D01*
X911331Y1087823D01*
X911498Y1088018D01*
X911664Y1088157D01*
X911803Y1088268D01*
X911914Y1088379D01*
X911970Y1088406D01*
X911997Y1088434D01*
X912386Y1088712D01*
X912803Y1088934D01*
X913247Y1089128D01*
X913719Y1089295D01*
X914635Y1089572D01*
X915523Y1089739D01*
X915940Y1089822D01*
X916328Y1089850D01*
X916689Y1089878D01*
X916995Y1089905D01*
X917244Y1089933D01*
X917578D01*
X918577Y1089905D01*
D02*
G37*
G36*
X975360Y1070000D02*
X967031D01*
X966559Y1070028D01*
X965726D01*
X965393Y1070055D01*
X964866D01*
X964672Y1070083D01*
X964394D01*
X964283Y1070111D01*
X964172D01*
X963617Y1070194D01*
X963117Y1070333D01*
X962673Y1070472D01*
X962284Y1070639D01*
X961979Y1070777D01*
X961757Y1070916D01*
X961618Y1070999D01*
X961562Y1071027D01*
X961173Y1071333D01*
X960868Y1071666D01*
X960563Y1071971D01*
X960341Y1072304D01*
X960146Y1072582D01*
X960007Y1072804D01*
X959924Y1072943D01*
X959896Y1072998D01*
X959702Y1073470D01*
X959536Y1073914D01*
X959425Y1074359D01*
X959369Y1074747D01*
X959313Y1075080D01*
X959286Y1075330D01*
Y1075497D01*
Y1075525D01*
Y1075552D01*
X959313Y1076163D01*
X959425Y1076718D01*
X959591Y1077190D01*
X959758Y1077635D01*
X959924Y1077968D01*
X960091Y1078218D01*
X960202Y1078384D01*
X960230Y1078440D01*
X960618Y1078884D01*
X961035Y1079245D01*
X961507Y1079550D01*
X961923Y1079772D01*
X962312Y1079967D01*
X962645Y1080105D01*
X962756Y1080133D01*
X962839Y1080161D01*
X962895Y1080189D01*
X962923D01*
X962478Y1080439D01*
X962090Y1080688D01*
X961757Y1080994D01*
X961479Y1081244D01*
X961285Y1081494D01*
X961118Y1081688D01*
X961007Y1081827D01*
X960979Y1081882D01*
X960729Y1082326D01*
X960535Y1082743D01*
X960424Y1083159D01*
X960313Y1083548D01*
X960257Y1083881D01*
X960230Y1084131D01*
Y1084297D01*
Y1084325D01*
Y1084353D01*
X960257Y1084797D01*
X960313Y1085241D01*
X960424Y1085602D01*
X960535Y1085936D01*
X960646Y1086213D01*
X960757Y1086435D01*
X960813Y1086546D01*
X960840Y1086602D01*
X961062Y1086963D01*
X961312Y1087268D01*
X961562Y1087546D01*
X961784Y1087796D01*
X962006Y1087962D01*
X962173Y1088101D01*
X962284Y1088184D01*
X962312Y1088212D01*
X962645Y1088434D01*
X963006Y1088601D01*
X963339Y1088739D01*
X963644Y1088850D01*
X963922Y1088934D01*
X964116Y1088989D01*
X964255Y1089017D01*
X964311D01*
X964783Y1089073D01*
X965310Y1089128D01*
X965865Y1089156D01*
X966421Y1089184D01*
X966920Y1089211D01*
X975360D01*
Y1070000D01*
D02*
G37*
G36*
X876300D02*
X872413D01*
Y1078023D01*
X871164D01*
X870775Y1077996D01*
X870442Y1077968D01*
X870165Y1077912D01*
X869942Y1077885D01*
X869804Y1077829D01*
X869720Y1077801D01*
X869693D01*
X869471Y1077690D01*
X869248Y1077579D01*
X869054Y1077440D01*
X868860Y1077329D01*
X868721Y1077190D01*
X868610Y1077079D01*
X868554Y1077024D01*
X868527Y1076996D01*
X868416Y1076857D01*
X868277Y1076718D01*
X867971Y1076302D01*
X867638Y1075858D01*
X867277Y1075358D01*
X866972Y1074914D01*
X866833Y1074692D01*
X866722Y1074525D01*
X866611Y1074386D01*
X866528Y1074275D01*
X866500Y1074192D01*
X866472Y1074164D01*
X863696Y1070000D01*
X859032D01*
X861392Y1073748D01*
X861642Y1074137D01*
X861891Y1074525D01*
X862113Y1074858D01*
X862336Y1075164D01*
X862530Y1075441D01*
X862697Y1075719D01*
X863030Y1076135D01*
X863279Y1076469D01*
X863446Y1076691D01*
X863585Y1076830D01*
X863613Y1076857D01*
X863918Y1077190D01*
X864279Y1077496D01*
X864612Y1077746D01*
X864945Y1077996D01*
X865223Y1078190D01*
X865445Y1078329D01*
X865612Y1078440D01*
X865639Y1078467D01*
X865667D01*
X865195Y1078551D01*
X864779Y1078662D01*
X864390Y1078773D01*
X864001Y1078912D01*
X863668Y1079051D01*
X863363Y1079189D01*
X863057Y1079328D01*
X862808Y1079495D01*
X862586Y1079633D01*
X862391Y1079772D01*
X862225Y1079911D01*
X862113Y1080022D01*
X862002Y1080105D01*
X861919Y1080189D01*
X861891Y1080217D01*
X861864Y1080244D01*
X861642Y1080522D01*
X861447Y1080799D01*
X861114Y1081410D01*
X860892Y1081993D01*
X860753Y1082576D01*
X860642Y1083076D01*
X860614Y1083270D01*
Y1083465D01*
X860587Y1083604D01*
Y1083742D01*
Y1083798D01*
Y1083826D01*
X860614Y1084436D01*
X860725Y1085019D01*
X860864Y1085519D01*
X861003Y1085963D01*
X861170Y1086324D01*
X861308Y1086602D01*
X861364Y1086685D01*
X861420Y1086768D01*
X861447Y1086796D01*
Y1086824D01*
X861780Y1087296D01*
X862141Y1087684D01*
X862502Y1087990D01*
X862863Y1088268D01*
X863196Y1088434D01*
X863446Y1088573D01*
X863613Y1088656D01*
X863640Y1088684D01*
X863668D01*
X863946Y1088767D01*
X864251Y1088850D01*
X864945Y1088989D01*
X865695Y1089073D01*
X866417Y1089156D01*
X866778D01*
X867083Y1089184D01*
X867388D01*
X867638Y1089211D01*
X876300D01*
Y1070000D01*
D02*
G37*
G36*
X806773Y1089295D02*
X807217Y1089267D01*
X808077Y1089128D01*
X808799Y1088906D01*
X809133Y1088795D01*
X809438Y1088656D01*
X809715Y1088545D01*
X809938Y1088406D01*
X810160Y1088295D01*
X810326Y1088212D01*
X810465Y1088101D01*
X810548Y1088045D01*
X810604Y1088018D01*
X810632Y1087990D01*
X810937Y1087712D01*
X811215Y1087435D01*
X811464Y1087102D01*
X811687Y1086741D01*
X812020Y1086019D01*
X812297Y1085325D01*
X812381Y1084964D01*
X812464Y1084658D01*
X812547Y1084381D01*
X812575Y1084131D01*
X812630Y1083909D01*
Y1083770D01*
X812658Y1083659D01*
Y1083631D01*
X808994Y1083270D01*
X808938Y1083826D01*
X808827Y1084297D01*
X808716Y1084714D01*
X808577Y1085019D01*
X808466Y1085269D01*
X808355Y1085436D01*
X808272Y1085547D01*
X808244Y1085575D01*
X807967Y1085797D01*
X807661Y1085963D01*
X807356Y1086102D01*
X807050Y1086185D01*
X806801Y1086241D01*
X806578Y1086269D01*
X806384D01*
X805968Y1086241D01*
X805607Y1086158D01*
X805301Y1086047D01*
X805024Y1085936D01*
X804829Y1085824D01*
X804663Y1085713D01*
X804579Y1085630D01*
X804552Y1085602D01*
X804330Y1085325D01*
X804163Y1085019D01*
X804052Y1084714D01*
X803969Y1084409D01*
X803913Y1084131D01*
X803885Y1083881D01*
Y1083742D01*
Y1083715D01*
Y1083687D01*
X803913Y1083270D01*
X803997Y1082882D01*
X804135Y1082493D01*
X804274Y1082160D01*
X804413Y1081854D01*
X804552Y1081632D01*
X804635Y1081494D01*
X804663Y1081438D01*
X804774Y1081271D01*
X804940Y1081077D01*
X805163Y1080827D01*
X805385Y1080605D01*
X805884Y1080078D01*
X806384Y1079550D01*
X806884Y1079051D01*
X807106Y1078828D01*
X807328Y1078662D01*
X807495Y1078495D01*
X807606Y1078384D01*
X807689Y1078301D01*
X807717Y1078273D01*
X808272Y1077746D01*
X808772Y1077246D01*
X809243Y1076774D01*
X809660Y1076357D01*
X810049Y1075941D01*
X810382Y1075552D01*
X810687Y1075219D01*
X810937Y1074886D01*
X811159Y1074609D01*
X811354Y1074359D01*
X811520Y1074164D01*
X811631Y1073970D01*
X811742Y1073859D01*
X811798Y1073748D01*
X811853Y1073692D01*
Y1073665D01*
X812214Y1073026D01*
X812492Y1072360D01*
X812714Y1071749D01*
X812880Y1071194D01*
X812991Y1070694D01*
X813019Y1070500D01*
X813047Y1070333D01*
X813075Y1070194D01*
X813102Y1070083D01*
Y1070028D01*
Y1070000D01*
X800193D01*
Y1073415D01*
X807522D01*
X807300Y1073776D01*
X807050Y1074081D01*
X806939Y1074220D01*
X806856Y1074331D01*
X806801Y1074386D01*
X806773Y1074414D01*
X806662Y1074525D01*
X806551Y1074664D01*
X806217Y1074969D01*
X805857Y1075330D01*
X805496Y1075691D01*
X805135Y1076024D01*
X804829Y1076302D01*
X804718Y1076413D01*
X804635Y1076496D01*
X804579Y1076524D01*
X804552Y1076552D01*
X803941Y1077135D01*
X803441Y1077607D01*
X803025Y1078051D01*
X802692Y1078384D01*
X802442Y1078662D01*
X802275Y1078856D01*
X802164Y1078995D01*
X802136Y1079023D01*
X801776Y1079495D01*
X801470Y1079939D01*
X801220Y1080355D01*
X801026Y1080716D01*
X800859Y1081022D01*
X800748Y1081271D01*
X800693Y1081410D01*
X800665Y1081466D01*
X800498Y1081910D01*
X800387Y1082354D01*
X800304Y1082771D01*
X800249Y1083159D01*
X800221Y1083465D01*
X800193Y1083715D01*
Y1083881D01*
Y1083937D01*
X800221Y1084353D01*
X800276Y1084770D01*
X800332Y1085158D01*
X800443Y1085519D01*
X800721Y1086158D01*
X800998Y1086713D01*
X801165Y1086963D01*
X801304Y1087157D01*
X801442Y1087351D01*
X801581Y1087490D01*
X801692Y1087601D01*
X801748Y1087712D01*
X801803Y1087740D01*
X801831Y1087768D01*
X802136Y1088045D01*
X802497Y1088295D01*
X802831Y1088490D01*
X803219Y1088656D01*
X803941Y1088934D01*
X804663Y1089128D01*
X804996Y1089184D01*
X805301Y1089239D01*
X805579Y1089267D01*
X805829Y1089295D01*
X806023Y1089323D01*
X806301D01*
X806773Y1089295D01*
D02*
G37*
G36*
X821431Y1088684D02*
X821792Y1088101D01*
X822181Y1087546D01*
X822569Y1087102D01*
X822903Y1086741D01*
X823208Y1086463D01*
X823319Y1086352D01*
X823402Y1086269D01*
X823458Y1086241D01*
X823486Y1086213D01*
X824096Y1085769D01*
X824679Y1085380D01*
X825207Y1085075D01*
X825679Y1084853D01*
X826067Y1084686D01*
X826345Y1084547D01*
X826456Y1084520D01*
X826539Y1084492D01*
X826567Y1084464D01*
X826595D01*
Y1081133D01*
X825595Y1081521D01*
X824707Y1081938D01*
X824291Y1082160D01*
X823902Y1082410D01*
X823541Y1082632D01*
X823208Y1082854D01*
X822903Y1083076D01*
X822625Y1083270D01*
X822403Y1083437D01*
X822208Y1083604D01*
X822042Y1083742D01*
X821931Y1083826D01*
X821875Y1083881D01*
X821848Y1083909D01*
Y1070000D01*
X818155D01*
Y1089323D01*
X821153D01*
X821431Y1088684D01*
D02*
G37*
G36*
X838255Y1081188D02*
X843280D01*
Y1077746D01*
X838255D01*
Y1072776D01*
X834896D01*
Y1077746D01*
X829843D01*
Y1081188D01*
X834896D01*
Y1086158D01*
X838255D01*
Y1081188D01*
D02*
G37*
G36*
X1377207Y1070000D02*
X1372987D01*
X1369156Y1084353D01*
X1365380Y1070000D01*
X1361188D01*
X1356552Y1089211D01*
X1360466D01*
X1363409Y1075775D01*
X1366741Y1089211D01*
X1371405D01*
X1374903Y1075997D01*
X1377790Y1089211D01*
X1381760D01*
X1377207Y1070000D01*
D02*
G37*
G36*
X1266557Y1089905D02*
X1267445Y1089794D01*
X1267834Y1089711D01*
X1268223Y1089628D01*
X1268584Y1089545D01*
X1268889Y1089461D01*
X1269167Y1089350D01*
X1269444Y1089267D01*
X1269639Y1089184D01*
X1269833Y1089128D01*
X1269972Y1089045D01*
X1270083Y1089017D01*
X1270138Y1088962D01*
X1270166D01*
X1271027Y1088462D01*
X1271388Y1088157D01*
X1271749Y1087879D01*
X1272082Y1087573D01*
X1272387Y1087268D01*
X1272665Y1086963D01*
X1272915Y1086685D01*
X1273109Y1086407D01*
X1273303Y1086158D01*
X1273470Y1085936D01*
X1273609Y1085741D01*
X1273692Y1085575D01*
X1273775Y1085463D01*
X1273803Y1085380D01*
X1273831Y1085352D01*
X1274053Y1084908D01*
X1274247Y1084464D01*
X1274553Y1083548D01*
X1274775Y1082632D01*
X1274913Y1081827D01*
X1274969Y1081438D01*
X1275024Y1081105D01*
X1275052Y1080799D01*
Y1080522D01*
X1275080Y1080328D01*
Y1080161D01*
Y1080050D01*
Y1080022D01*
X1275024Y1078995D01*
X1274913Y1078051D01*
X1274719Y1077190D01*
X1274636Y1076774D01*
X1274525Y1076413D01*
X1274414Y1076080D01*
X1274330Y1075775D01*
X1274219Y1075525D01*
X1274136Y1075303D01*
X1274081Y1075136D01*
X1274025Y1074997D01*
X1273969Y1074914D01*
Y1074886D01*
X1273498Y1074053D01*
X1272970Y1073332D01*
X1272415Y1072693D01*
X1271860Y1072193D01*
X1271610Y1071971D01*
X1271360Y1071777D01*
X1271165Y1071610D01*
X1270971Y1071499D01*
X1270832Y1071388D01*
X1270694Y1071305D01*
X1270638Y1071277D01*
X1270610Y1071249D01*
X1270166Y1071027D01*
X1269750Y1070833D01*
X1268833Y1070527D01*
X1267945Y1070305D01*
X1267140Y1070167D01*
X1266751Y1070111D01*
X1266418Y1070055D01*
X1266113Y1070028D01*
X1265835D01*
X1265641Y1070000D01*
X1265335D01*
X1264447Y1070028D01*
X1263614Y1070139D01*
X1262809Y1070278D01*
X1262115Y1070444D01*
X1261810Y1070527D01*
X1261532Y1070611D01*
X1261282Y1070694D01*
X1261060Y1070750D01*
X1260893Y1070805D01*
X1260782Y1070861D01*
X1260699Y1070888D01*
X1260671D01*
X1259839Y1071221D01*
X1259145Y1071582D01*
X1258534Y1071943D01*
X1258006Y1072249D01*
X1257618Y1072526D01*
X1257479Y1072637D01*
X1257340Y1072748D01*
X1257257Y1072832D01*
X1257173Y1072887D01*
X1257118Y1072943D01*
Y1080661D01*
X1265474D01*
Y1077412D01*
X1261032D01*
Y1074942D01*
X1261366Y1074692D01*
X1261726Y1074470D01*
X1262087Y1074275D01*
X1262420Y1074109D01*
X1262698Y1073970D01*
X1262948Y1073859D01*
X1263087Y1073803D01*
X1263114Y1073776D01*
X1263142D01*
X1263586Y1073609D01*
X1264031Y1073498D01*
X1264447Y1073415D01*
X1264808Y1073359D01*
X1265141Y1073332D01*
X1265363Y1073304D01*
X1265585D01*
X1266030Y1073332D01*
X1266474Y1073387D01*
X1266862Y1073470D01*
X1267251Y1073581D01*
X1267945Y1073859D01*
X1268223Y1073998D01*
X1268500Y1074164D01*
X1268750Y1074331D01*
X1268972Y1074470D01*
X1269139Y1074636D01*
X1269305Y1074747D01*
X1269417Y1074858D01*
X1269500Y1074942D01*
X1269555Y1074997D01*
X1269583Y1075025D01*
X1269833Y1075358D01*
X1270083Y1075747D01*
X1270277Y1076135D01*
X1270444Y1076552D01*
X1270721Y1077412D01*
X1270888Y1078245D01*
X1270943Y1078634D01*
X1270999Y1079023D01*
X1271027Y1079328D01*
X1271055Y1079633D01*
X1271082Y1079856D01*
Y1080050D01*
Y1080161D01*
Y1080189D01*
X1271055Y1080772D01*
X1271027Y1081299D01*
X1270943Y1081827D01*
X1270860Y1082299D01*
X1270749Y1082715D01*
X1270610Y1083104D01*
X1270471Y1083465D01*
X1270333Y1083798D01*
X1270222Y1084075D01*
X1270083Y1084325D01*
X1269944Y1084520D01*
X1269833Y1084686D01*
X1269750Y1084825D01*
X1269666Y1084908D01*
X1269639Y1084964D01*
X1269611Y1084992D01*
X1269305Y1085269D01*
X1269000Y1085547D01*
X1268667Y1085741D01*
X1268334Y1085936D01*
X1268001Y1086102D01*
X1267667Y1086241D01*
X1267029Y1086435D01*
X1266724Y1086491D01*
X1266446Y1086546D01*
X1266196Y1086574D01*
X1265974Y1086602D01*
X1265807Y1086630D01*
X1265558D01*
X1264947Y1086602D01*
X1264419Y1086491D01*
X1263947Y1086380D01*
X1263531Y1086213D01*
X1263225Y1086074D01*
X1262976Y1085936D01*
X1262837Y1085824D01*
X1262781Y1085797D01*
X1262393Y1085463D01*
X1262059Y1085103D01*
X1261782Y1084742D01*
X1261588Y1084381D01*
X1261421Y1084048D01*
X1261310Y1083798D01*
X1261254Y1083631D01*
X1261227Y1083604D01*
Y1083576D01*
X1257368Y1084297D01*
X1257479Y1084770D01*
X1257645Y1085241D01*
X1257812Y1085658D01*
X1258034Y1086047D01*
X1258228Y1086435D01*
X1258450Y1086768D01*
X1258672Y1087074D01*
X1258895Y1087351D01*
X1259117Y1087601D01*
X1259311Y1087823D01*
X1259478Y1088018D01*
X1259644Y1088157D01*
X1259783Y1088268D01*
X1259894Y1088379D01*
X1259950Y1088406D01*
X1259977Y1088434D01*
X1260366Y1088712D01*
X1260782Y1088934D01*
X1261227Y1089128D01*
X1261699Y1089295D01*
X1262615Y1089572D01*
X1263503Y1089739D01*
X1263920Y1089822D01*
X1264308Y1089850D01*
X1264669Y1089878D01*
X1264975Y1089905D01*
X1265224Y1089933D01*
X1265558D01*
X1266557Y1089905D01*
D02*
G37*
G36*
X1323340Y1070000D02*
X1315011D01*
X1314539Y1070028D01*
X1313707D01*
X1313373Y1070055D01*
X1312846D01*
X1312652Y1070083D01*
X1312374D01*
X1312263Y1070111D01*
X1312152D01*
X1311597Y1070194D01*
X1311097Y1070333D01*
X1310653Y1070472D01*
X1310264Y1070639D01*
X1309959Y1070777D01*
X1309736Y1070916D01*
X1309598Y1070999D01*
X1309542Y1071027D01*
X1309153Y1071333D01*
X1308848Y1071666D01*
X1308543Y1071971D01*
X1308321Y1072304D01*
X1308126Y1072582D01*
X1307988Y1072804D01*
X1307904Y1072943D01*
X1307876Y1072998D01*
X1307682Y1073470D01*
X1307516Y1073914D01*
X1307404Y1074359D01*
X1307349Y1074747D01*
X1307293Y1075080D01*
X1307266Y1075330D01*
Y1075497D01*
Y1075525D01*
Y1075552D01*
X1307293Y1076163D01*
X1307404Y1076718D01*
X1307571Y1077190D01*
X1307738Y1077635D01*
X1307904Y1077968D01*
X1308071Y1078218D01*
X1308182Y1078384D01*
X1308210Y1078440D01*
X1308598Y1078884D01*
X1309015Y1079245D01*
X1309487Y1079550D01*
X1309903Y1079772D01*
X1310292Y1079967D01*
X1310625Y1080105D01*
X1310736Y1080133D01*
X1310819Y1080161D01*
X1310875Y1080189D01*
X1310903D01*
X1310458Y1080439D01*
X1310070Y1080688D01*
X1309736Y1080994D01*
X1309459Y1081244D01*
X1309265Y1081494D01*
X1309098Y1081688D01*
X1308987Y1081827D01*
X1308959Y1081882D01*
X1308709Y1082326D01*
X1308515Y1082743D01*
X1308404Y1083159D01*
X1308293Y1083548D01*
X1308237Y1083881D01*
X1308210Y1084131D01*
Y1084297D01*
Y1084325D01*
Y1084353D01*
X1308237Y1084797D01*
X1308293Y1085241D01*
X1308404Y1085602D01*
X1308515Y1085936D01*
X1308626Y1086213D01*
X1308737Y1086435D01*
X1308793Y1086546D01*
X1308820Y1086602D01*
X1309043Y1086963D01*
X1309292Y1087268D01*
X1309542Y1087546D01*
X1309764Y1087796D01*
X1309986Y1087962D01*
X1310153Y1088101D01*
X1310264Y1088184D01*
X1310292Y1088212D01*
X1310625Y1088434D01*
X1310986Y1088601D01*
X1311319Y1088739D01*
X1311624Y1088850D01*
X1311902Y1088934D01*
X1312096Y1088989D01*
X1312235Y1089017D01*
X1312291D01*
X1312763Y1089073D01*
X1313290Y1089128D01*
X1313845Y1089156D01*
X1314401Y1089184D01*
X1314900Y1089211D01*
X1323340D01*
Y1070000D01*
D02*
G37*
G36*
X1224280D02*
X1220393D01*
Y1078023D01*
X1219144D01*
X1218755Y1077996D01*
X1218422Y1077968D01*
X1218145Y1077912D01*
X1217923Y1077885D01*
X1217784Y1077829D01*
X1217700Y1077801D01*
X1217673D01*
X1217450Y1077690D01*
X1217228Y1077579D01*
X1217034Y1077440D01*
X1216840Y1077329D01*
X1216701Y1077190D01*
X1216590Y1077079D01*
X1216534Y1077024D01*
X1216507Y1076996D01*
X1216395Y1076857D01*
X1216257Y1076718D01*
X1215951Y1076302D01*
X1215618Y1075858D01*
X1215257Y1075358D01*
X1214952Y1074914D01*
X1214813Y1074692D01*
X1214702Y1074525D01*
X1214591Y1074386D01*
X1214508Y1074275D01*
X1214480Y1074192D01*
X1214452Y1074164D01*
X1211676Y1070000D01*
X1207012D01*
X1209372Y1073748D01*
X1209622Y1074137D01*
X1209871Y1074525D01*
X1210094Y1074858D01*
X1210316Y1075164D01*
X1210510Y1075441D01*
X1210676Y1075719D01*
X1211010Y1076135D01*
X1211260Y1076469D01*
X1211426Y1076691D01*
X1211565Y1076830D01*
X1211593Y1076857D01*
X1211898Y1077190D01*
X1212259Y1077496D01*
X1212592Y1077746D01*
X1212925Y1077996D01*
X1213203Y1078190D01*
X1213425Y1078329D01*
X1213592Y1078440D01*
X1213619Y1078467D01*
X1213647D01*
X1213175Y1078551D01*
X1212759Y1078662D01*
X1212370Y1078773D01*
X1211981Y1078912D01*
X1211648Y1079051D01*
X1211343Y1079189D01*
X1211037Y1079328D01*
X1210788Y1079495D01*
X1210565Y1079633D01*
X1210371Y1079772D01*
X1210205Y1079911D01*
X1210094Y1080022D01*
X1209983Y1080105D01*
X1209899Y1080189D01*
X1209871Y1080217D01*
X1209844Y1080244D01*
X1209622Y1080522D01*
X1209427Y1080799D01*
X1209094Y1081410D01*
X1208872Y1081993D01*
X1208733Y1082576D01*
X1208622Y1083076D01*
X1208594Y1083270D01*
Y1083465D01*
X1208567Y1083604D01*
Y1083742D01*
Y1083798D01*
Y1083826D01*
X1208594Y1084436D01*
X1208705Y1085019D01*
X1208844Y1085519D01*
X1208983Y1085963D01*
X1209150Y1086324D01*
X1209288Y1086602D01*
X1209344Y1086685D01*
X1209399Y1086768D01*
X1209427Y1086796D01*
Y1086824D01*
X1209760Y1087296D01*
X1210121Y1087684D01*
X1210482Y1087990D01*
X1210843Y1088268D01*
X1211176Y1088434D01*
X1211426Y1088573D01*
X1211593Y1088656D01*
X1211620Y1088684D01*
X1211648D01*
X1211926Y1088767D01*
X1212231Y1088850D01*
X1212925Y1088989D01*
X1213675Y1089073D01*
X1214397Y1089156D01*
X1214758D01*
X1215063Y1089184D01*
X1215368D01*
X1215618Y1089211D01*
X1224280D01*
Y1070000D01*
D02*
G37*
G36*
X1154753Y1089295D02*
X1155197Y1089267D01*
X1156058Y1089128D01*
X1156779Y1088906D01*
X1157113Y1088795D01*
X1157418Y1088656D01*
X1157695Y1088545D01*
X1157918Y1088406D01*
X1158140Y1088295D01*
X1158306Y1088212D01*
X1158445Y1088101D01*
X1158528Y1088045D01*
X1158584Y1088018D01*
X1158612Y1087990D01*
X1158917Y1087712D01*
X1159195Y1087435D01*
X1159445Y1087102D01*
X1159667Y1086741D01*
X1160000Y1086019D01*
X1160277Y1085325D01*
X1160361Y1084964D01*
X1160444Y1084658D01*
X1160527Y1084381D01*
X1160555Y1084131D01*
X1160611Y1083909D01*
Y1083770D01*
X1160638Y1083659D01*
Y1083631D01*
X1156974Y1083270D01*
X1156918Y1083826D01*
X1156807Y1084297D01*
X1156696Y1084714D01*
X1156557Y1085019D01*
X1156446Y1085269D01*
X1156335Y1085436D01*
X1156252Y1085547D01*
X1156224Y1085575D01*
X1155947Y1085797D01*
X1155641Y1085963D01*
X1155336Y1086102D01*
X1155030Y1086185D01*
X1154781Y1086241D01*
X1154558Y1086269D01*
X1154364D01*
X1153948Y1086241D01*
X1153587Y1086158D01*
X1153281Y1086047D01*
X1153004Y1085936D01*
X1152809Y1085824D01*
X1152643Y1085713D01*
X1152560Y1085630D01*
X1152532Y1085602D01*
X1152310Y1085325D01*
X1152143Y1085019D01*
X1152032Y1084714D01*
X1151949Y1084409D01*
X1151893Y1084131D01*
X1151865Y1083881D01*
Y1083742D01*
Y1083715D01*
Y1083687D01*
X1151893Y1083270D01*
X1151976Y1082882D01*
X1152115Y1082493D01*
X1152254Y1082160D01*
X1152393Y1081854D01*
X1152532Y1081632D01*
X1152615Y1081494D01*
X1152643Y1081438D01*
X1152754Y1081271D01*
X1152920Y1081077D01*
X1153142Y1080827D01*
X1153365Y1080605D01*
X1153864Y1080078D01*
X1154364Y1079550D01*
X1154864Y1079051D01*
X1155086Y1078828D01*
X1155308Y1078662D01*
X1155474Y1078495D01*
X1155586Y1078384D01*
X1155669Y1078301D01*
X1155697Y1078273D01*
X1156252Y1077746D01*
X1156752Y1077246D01*
X1157224Y1076774D01*
X1157640Y1076357D01*
X1158029Y1075941D01*
X1158362Y1075552D01*
X1158667Y1075219D01*
X1158917Y1074886D01*
X1159139Y1074609D01*
X1159333Y1074359D01*
X1159500Y1074164D01*
X1159611Y1073970D01*
X1159722Y1073859D01*
X1159778Y1073748D01*
X1159833Y1073692D01*
Y1073665D01*
X1160194Y1073026D01*
X1160472Y1072360D01*
X1160694Y1071749D01*
X1160860Y1071194D01*
X1160971Y1070694D01*
X1160999Y1070500D01*
X1161027Y1070333D01*
X1161055Y1070194D01*
X1161083Y1070083D01*
Y1070028D01*
Y1070000D01*
X1148173D01*
Y1073415D01*
X1155502D01*
X1155280Y1073776D01*
X1155030Y1074081D01*
X1154919Y1074220D01*
X1154836Y1074331D01*
X1154781Y1074386D01*
X1154753Y1074414D01*
X1154642Y1074525D01*
X1154531Y1074664D01*
X1154197Y1074969D01*
X1153837Y1075330D01*
X1153476Y1075691D01*
X1153115Y1076024D01*
X1152809Y1076302D01*
X1152698Y1076413D01*
X1152615Y1076496D01*
X1152560Y1076524D01*
X1152532Y1076552D01*
X1151921Y1077135D01*
X1151421Y1077607D01*
X1151005Y1078051D01*
X1150672Y1078384D01*
X1150422Y1078662D01*
X1150255Y1078856D01*
X1150144Y1078995D01*
X1150116Y1079023D01*
X1149755Y1079495D01*
X1149450Y1079939D01*
X1149200Y1080355D01*
X1149006Y1080716D01*
X1148839Y1081022D01*
X1148728Y1081271D01*
X1148673Y1081410D01*
X1148645Y1081466D01*
X1148478Y1081910D01*
X1148367Y1082354D01*
X1148284Y1082771D01*
X1148229Y1083159D01*
X1148201Y1083465D01*
X1148173Y1083715D01*
Y1083881D01*
Y1083937D01*
X1148201Y1084353D01*
X1148256Y1084770D01*
X1148312Y1085158D01*
X1148423Y1085519D01*
X1148700Y1086158D01*
X1148978Y1086713D01*
X1149145Y1086963D01*
X1149284Y1087157D01*
X1149422Y1087351D01*
X1149561Y1087490D01*
X1149672Y1087601D01*
X1149728Y1087712D01*
X1149783Y1087740D01*
X1149811Y1087768D01*
X1150116Y1088045D01*
X1150477Y1088295D01*
X1150810Y1088490D01*
X1151199Y1088656D01*
X1151921Y1088934D01*
X1152643Y1089128D01*
X1152976Y1089184D01*
X1153281Y1089239D01*
X1153559Y1089267D01*
X1153809Y1089295D01*
X1154003Y1089323D01*
X1154281D01*
X1154753Y1089295D01*
D02*
G37*
G36*
X1169411Y1088684D02*
X1169772Y1088101D01*
X1170161Y1087546D01*
X1170549Y1087102D01*
X1170882Y1086741D01*
X1171188Y1086463D01*
X1171299Y1086352D01*
X1171382Y1086269D01*
X1171438Y1086241D01*
X1171466Y1086213D01*
X1172076Y1085769D01*
X1172659Y1085380D01*
X1173187Y1085075D01*
X1173659Y1084853D01*
X1174047Y1084686D01*
X1174325Y1084547D01*
X1174436Y1084520D01*
X1174519Y1084492D01*
X1174547Y1084464D01*
X1174575D01*
Y1081133D01*
X1173576Y1081521D01*
X1172687Y1081938D01*
X1172271Y1082160D01*
X1171882Y1082410D01*
X1171521Y1082632D01*
X1171188Y1082854D01*
X1170882Y1083076D01*
X1170605Y1083270D01*
X1170383Y1083437D01*
X1170189Y1083604D01*
X1170022Y1083742D01*
X1169911Y1083826D01*
X1169855Y1083881D01*
X1169828Y1083909D01*
Y1070000D01*
X1166135D01*
Y1089323D01*
X1169134D01*
X1169411Y1088684D01*
D02*
G37*
G36*
X1186235Y1081188D02*
X1191260D01*
Y1077746D01*
X1186235D01*
Y1072776D01*
X1182876D01*
Y1077746D01*
X1177823D01*
Y1081188D01*
X1182876D01*
Y1086158D01*
X1186235D01*
Y1081188D01*
D02*
G37*
G36*
X314013Y39295D02*
X314457Y39267D01*
X315317Y39128D01*
X316039Y38906D01*
X316373Y38795D01*
X316678Y38656D01*
X316956Y38545D01*
X317178Y38406D01*
X317400Y38295D01*
X317566Y38212D01*
X317705Y38101D01*
X317788Y38045D01*
X317844Y38018D01*
X317872Y37990D01*
X318177Y37712D01*
X318455Y37435D01*
X318704Y37102D01*
X318927Y36741D01*
X319260Y36019D01*
X319537Y35325D01*
X319621Y34964D01*
X319704Y34659D01*
X319787Y34381D01*
X319815Y34131D01*
X319870Y33909D01*
Y33770D01*
X319898Y33659D01*
Y33631D01*
X316234Y33270D01*
X316178Y33826D01*
X316067Y34297D01*
X315956Y34714D01*
X315817Y35019D01*
X315706Y35269D01*
X315595Y35436D01*
X315512Y35547D01*
X315484Y35575D01*
X315207Y35797D01*
X314901Y35963D01*
X314596Y36102D01*
X314290Y36185D01*
X314041Y36241D01*
X313818Y36269D01*
X313624D01*
X313208Y36241D01*
X312847Y36158D01*
X312541Y36047D01*
X312264Y35935D01*
X312069Y35824D01*
X311903Y35713D01*
X311819Y35630D01*
X311792Y35602D01*
X311570Y35325D01*
X311403Y35019D01*
X311292Y34714D01*
X311209Y34409D01*
X311153Y34131D01*
X311125Y33881D01*
Y33742D01*
Y33714D01*
Y33687D01*
X311153Y33270D01*
X311236Y32882D01*
X311375Y32493D01*
X311514Y32160D01*
X311653Y31855D01*
X311792Y31632D01*
X311875Y31494D01*
X311903Y31438D01*
X312014Y31272D01*
X312180Y31077D01*
X312402Y30827D01*
X312625Y30605D01*
X313124Y30078D01*
X313624Y29550D01*
X314124Y29051D01*
X314346Y28828D01*
X314568Y28662D01*
X314734Y28495D01*
X314846Y28384D01*
X314929Y28301D01*
X314957Y28273D01*
X315512Y27746D01*
X316012Y27246D01*
X316483Y26774D01*
X316900Y26358D01*
X317289Y25941D01*
X317622Y25552D01*
X317927Y25219D01*
X318177Y24886D01*
X318399Y24609D01*
X318594Y24359D01*
X318760Y24164D01*
X318871Y23970D01*
X318982Y23859D01*
X319038Y23748D01*
X319093Y23692D01*
Y23665D01*
X319454Y23026D01*
X319732Y22360D01*
X319954Y21749D01*
X320120Y21194D01*
X320231Y20694D01*
X320259Y20500D01*
X320287Y20333D01*
X320315Y20194D01*
X320342Y20083D01*
Y20028D01*
Y20000D01*
X307433D01*
Y23415D01*
X314762D01*
X314540Y23776D01*
X314290Y24081D01*
X314179Y24220D01*
X314096Y24331D01*
X314041Y24386D01*
X314013Y24414D01*
X313902Y24525D01*
X313791Y24664D01*
X313458Y24969D01*
X313097Y25330D01*
X312736Y25691D01*
X312375Y26024D01*
X312069Y26302D01*
X311958Y26413D01*
X311875Y26496D01*
X311819Y26524D01*
X311792Y26552D01*
X311181Y27135D01*
X310681Y27607D01*
X310265Y28051D01*
X309932Y28384D01*
X309682Y28662D01*
X309515Y28856D01*
X309404Y28995D01*
X309376Y29023D01*
X309016Y29495D01*
X308710Y29939D01*
X308460Y30355D01*
X308266Y30716D01*
X308099Y31022D01*
X307988Y31272D01*
X307933Y31410D01*
X307905Y31466D01*
X307738Y31910D01*
X307627Y32354D01*
X307544Y32771D01*
X307489Y33159D01*
X307461Y33465D01*
X307433Y33714D01*
Y33881D01*
Y33937D01*
X307461Y34353D01*
X307516Y34769D01*
X307572Y35158D01*
X307683Y35519D01*
X307960Y36158D01*
X308238Y36713D01*
X308405Y36963D01*
X308544Y37157D01*
X308682Y37351D01*
X308821Y37490D01*
X308932Y37601D01*
X308988Y37712D01*
X309043Y37740D01*
X309071Y37768D01*
X309376Y38045D01*
X309737Y38295D01*
X310070Y38490D01*
X310459Y38656D01*
X311181Y38934D01*
X311903Y39128D01*
X312236Y39184D01*
X312541Y39239D01*
X312819Y39267D01*
X313069Y39295D01*
X313263Y39323D01*
X313541D01*
X314013Y39295D01*
D02*
G37*
G36*
X328671Y38684D02*
X329032Y38101D01*
X329421Y37546D01*
X329809Y37102D01*
X330143Y36741D01*
X330448Y36463D01*
X330559Y36352D01*
X330642Y36269D01*
X330698Y36241D01*
X330726Y36213D01*
X331336Y35769D01*
X331919Y35380D01*
X332447Y35075D01*
X332919Y34853D01*
X333307Y34686D01*
X333585Y34547D01*
X333696Y34520D01*
X333779Y34492D01*
X333807Y34464D01*
X333835D01*
Y31133D01*
X332836Y31521D01*
X331947Y31938D01*
X331531Y32160D01*
X331142Y32410D01*
X330781Y32632D01*
X330448Y32854D01*
X330143Y33076D01*
X329865Y33270D01*
X329643Y33437D01*
X329449Y33603D01*
X329282Y33742D01*
X329171Y33826D01*
X329115Y33881D01*
X329088Y33909D01*
Y20000D01*
X325395D01*
Y39323D01*
X328394D01*
X328671Y38684D01*
D02*
G37*
G36*
X345495Y31188D02*
X350520D01*
Y27746D01*
X345495D01*
Y22776D01*
X342136D01*
Y27746D01*
X337083D01*
Y31188D01*
X342136D01*
Y36158D01*
X345495D01*
Y31188D01*
D02*
G37*
G36*
X284480Y20000D02*
X280593D01*
Y28023D01*
X279344D01*
X278955Y27996D01*
X278622Y27968D01*
X278345Y27912D01*
X278123Y27885D01*
X277984Y27829D01*
X277900Y27801D01*
X277873D01*
X277651Y27690D01*
X277428Y27579D01*
X277234Y27440D01*
X277040Y27329D01*
X276901Y27190D01*
X276790Y27079D01*
X276734Y27024D01*
X276707Y26996D01*
X276595Y26857D01*
X276457Y26718D01*
X276151Y26302D01*
X275818Y25858D01*
X275457Y25358D01*
X275152Y24914D01*
X275013Y24692D01*
X274902Y24525D01*
X274791Y24386D01*
X274708Y24275D01*
X274680Y24192D01*
X274652Y24164D01*
X271876Y20000D01*
X267212D01*
X269572Y23748D01*
X269822Y24137D01*
X270071Y24525D01*
X270294Y24858D01*
X270516Y25164D01*
X270710Y25441D01*
X270877Y25719D01*
X271210Y26135D01*
X271460Y26469D01*
X271626Y26691D01*
X271765Y26830D01*
X271793Y26857D01*
X272098Y27190D01*
X272459Y27496D01*
X272792Y27746D01*
X273125Y27996D01*
X273403Y28190D01*
X273625Y28329D01*
X273792Y28440D01*
X273819Y28468D01*
X273847D01*
X273375Y28551D01*
X272959Y28662D01*
X272570Y28773D01*
X272181Y28912D01*
X271848Y29051D01*
X271543Y29189D01*
X271237Y29328D01*
X270988Y29495D01*
X270765Y29634D01*
X270571Y29772D01*
X270405Y29911D01*
X270294Y30022D01*
X270182Y30106D01*
X270099Y30189D01*
X270071Y30217D01*
X270044Y30244D01*
X269822Y30522D01*
X269627Y30800D01*
X269294Y31410D01*
X269072Y31993D01*
X268933Y32576D01*
X268822Y33076D01*
X268794Y33270D01*
Y33465D01*
X268767Y33603D01*
Y33742D01*
Y33798D01*
Y33826D01*
X268794Y34436D01*
X268905Y35019D01*
X269044Y35519D01*
X269183Y35963D01*
X269350Y36324D01*
X269488Y36602D01*
X269544Y36685D01*
X269599Y36768D01*
X269627Y36796D01*
Y36824D01*
X269960Y37296D01*
X270321Y37685D01*
X270682Y37990D01*
X271043Y38268D01*
X271376Y38434D01*
X271626Y38573D01*
X271793Y38656D01*
X271820Y38684D01*
X271848D01*
X272126Y38767D01*
X272431Y38851D01*
X273125Y38989D01*
X273875Y39073D01*
X274597Y39156D01*
X274958D01*
X275263Y39184D01*
X275568D01*
X275818Y39211D01*
X284480D01*
Y20000D01*
D02*
G37*
G36*
X182880D02*
X174551D01*
X174079Y20028D01*
X173246D01*
X172913Y20055D01*
X172386D01*
X172192Y20083D01*
X171914D01*
X171803Y20111D01*
X171692D01*
X171137Y20194D01*
X170637Y20333D01*
X170193Y20472D01*
X169804Y20638D01*
X169499Y20777D01*
X169277Y20916D01*
X169138Y20999D01*
X169082Y21027D01*
X168694Y21333D01*
X168388Y21666D01*
X168083Y21971D01*
X167861Y22304D01*
X167666Y22582D01*
X167528Y22804D01*
X167444Y22943D01*
X167416Y22998D01*
X167222Y23470D01*
X167055Y23914D01*
X166945Y24359D01*
X166889Y24747D01*
X166833Y25080D01*
X166806Y25330D01*
Y25497D01*
Y25525D01*
Y25552D01*
X166833Y26163D01*
X166945Y26718D01*
X167111Y27190D01*
X167278Y27635D01*
X167444Y27968D01*
X167611Y28218D01*
X167722Y28384D01*
X167750Y28440D01*
X168138Y28884D01*
X168555Y29245D01*
X169027Y29550D01*
X169443Y29772D01*
X169832Y29967D01*
X170165Y30106D01*
X170276Y30133D01*
X170359Y30161D01*
X170415Y30189D01*
X170443D01*
X169998Y30439D01*
X169610Y30689D01*
X169277Y30994D01*
X168999Y31244D01*
X168805Y31494D01*
X168638Y31688D01*
X168527Y31827D01*
X168499Y31882D01*
X168249Y32326D01*
X168055Y32743D01*
X167944Y33159D01*
X167833Y33548D01*
X167777Y33881D01*
X167750Y34131D01*
Y34297D01*
Y34325D01*
Y34353D01*
X167777Y34797D01*
X167833Y35241D01*
X167944Y35602D01*
X168055Y35935D01*
X168166Y36213D01*
X168277Y36435D01*
X168333Y36546D01*
X168360Y36602D01*
X168582Y36963D01*
X168832Y37268D01*
X169082Y37546D01*
X169304Y37796D01*
X169526Y37962D01*
X169693Y38101D01*
X169804Y38184D01*
X169832Y38212D01*
X170165Y38434D01*
X170526Y38601D01*
X170859Y38740D01*
X171164Y38851D01*
X171442Y38934D01*
X171636Y38989D01*
X171775Y39017D01*
X171831D01*
X172303Y39073D01*
X172830Y39128D01*
X173385Y39156D01*
X173941Y39184D01*
X174440Y39211D01*
X182880D01*
Y20000D01*
D02*
G37*
G36*
X225157Y39906D02*
X226045Y39794D01*
X226434Y39711D01*
X226823Y39628D01*
X227184Y39545D01*
X227489Y39461D01*
X227767Y39350D01*
X228044Y39267D01*
X228239Y39184D01*
X228433Y39128D01*
X228572Y39045D01*
X228683Y39017D01*
X228738Y38962D01*
X228766D01*
X229627Y38462D01*
X229988Y38156D01*
X230348Y37879D01*
X230682Y37573D01*
X230987Y37268D01*
X231265Y36963D01*
X231514Y36685D01*
X231709Y36407D01*
X231903Y36158D01*
X232070Y35935D01*
X232209Y35741D01*
X232292Y35575D01*
X232375Y35464D01*
X232403Y35380D01*
X232431Y35352D01*
X232653Y34908D01*
X232847Y34464D01*
X233153Y33548D01*
X233375Y32632D01*
X233513Y31827D01*
X233569Y31438D01*
X233624Y31105D01*
X233652Y30800D01*
Y30522D01*
X233680Y30327D01*
Y30161D01*
Y30050D01*
Y30022D01*
X233624Y28995D01*
X233513Y28051D01*
X233319Y27190D01*
X233236Y26774D01*
X233125Y26413D01*
X233014Y26080D01*
X232930Y25775D01*
X232819Y25525D01*
X232736Y25303D01*
X232681Y25136D01*
X232625Y24997D01*
X232570Y24914D01*
Y24886D01*
X232098Y24053D01*
X231570Y23331D01*
X231015Y22693D01*
X230460Y22193D01*
X230210Y21971D01*
X229960Y21777D01*
X229765Y21610D01*
X229571Y21499D01*
X229432Y21388D01*
X229294Y21305D01*
X229238Y21277D01*
X229210Y21249D01*
X228766Y21027D01*
X228350Y20833D01*
X227433Y20528D01*
X226545Y20305D01*
X225740Y20167D01*
X225351Y20111D01*
X225018Y20055D01*
X224713Y20028D01*
X224435D01*
X224241Y20000D01*
X223936D01*
X223047Y20028D01*
X222214Y20139D01*
X221409Y20278D01*
X220715Y20444D01*
X220410Y20528D01*
X220132Y20611D01*
X219882Y20694D01*
X219660Y20750D01*
X219494Y20805D01*
X219382Y20861D01*
X219299Y20888D01*
X219271D01*
X218439Y21221D01*
X217745Y21583D01*
X217134Y21943D01*
X216606Y22249D01*
X216218Y22526D01*
X216079Y22637D01*
X215940Y22748D01*
X215857Y22832D01*
X215773Y22887D01*
X215718Y22943D01*
Y30661D01*
X224074D01*
Y27413D01*
X219632D01*
Y24942D01*
X219965Y24692D01*
X220326Y24470D01*
X220687Y24275D01*
X221020Y24109D01*
X221298Y23970D01*
X221548Y23859D01*
X221687Y23803D01*
X221714Y23776D01*
X221742D01*
X222186Y23609D01*
X222631Y23498D01*
X223047Y23415D01*
X223408Y23359D01*
X223741Y23331D01*
X223963Y23304D01*
X224185D01*
X224629Y23331D01*
X225074Y23387D01*
X225462Y23470D01*
X225851Y23581D01*
X226545Y23859D01*
X226823Y23998D01*
X227100Y24164D01*
X227350Y24331D01*
X227572Y24470D01*
X227739Y24636D01*
X227906Y24747D01*
X228016Y24858D01*
X228100Y24942D01*
X228155Y24997D01*
X228183Y25025D01*
X228433Y25358D01*
X228683Y25747D01*
X228877Y26135D01*
X229044Y26552D01*
X229321Y27413D01*
X229488Y28245D01*
X229543Y28634D01*
X229599Y29023D01*
X229627Y29328D01*
X229655Y29634D01*
X229682Y29856D01*
Y30050D01*
Y30161D01*
Y30189D01*
X229655Y30772D01*
X229627Y31299D01*
X229543Y31827D01*
X229460Y32299D01*
X229349Y32715D01*
X229210Y33104D01*
X229072Y33465D01*
X228933Y33798D01*
X228822Y34075D01*
X228683Y34325D01*
X228544Y34520D01*
X228433Y34686D01*
X228350Y34825D01*
X228266Y34908D01*
X228239Y34964D01*
X228211Y34992D01*
X227906Y35269D01*
X227600Y35547D01*
X227267Y35741D01*
X226934Y35935D01*
X226601Y36102D01*
X226268Y36241D01*
X225629Y36435D01*
X225324Y36491D01*
X225046Y36546D01*
X224796Y36574D01*
X224574Y36602D01*
X224407Y36630D01*
X224158D01*
X223547Y36602D01*
X223019Y36491D01*
X222547Y36380D01*
X222131Y36213D01*
X221826Y36074D01*
X221576Y35935D01*
X221437Y35824D01*
X221381Y35797D01*
X220993Y35464D01*
X220660Y35103D01*
X220382Y34742D01*
X220188Y34381D01*
X220021Y34048D01*
X219910Y33798D01*
X219854Y33631D01*
X219827Y33603D01*
Y33576D01*
X215968Y34297D01*
X216079Y34769D01*
X216245Y35241D01*
X216412Y35658D01*
X216634Y36047D01*
X216828Y36435D01*
X217050Y36768D01*
X217272Y37074D01*
X217495Y37351D01*
X217717Y37601D01*
X217911Y37823D01*
X218078Y38018D01*
X218244Y38156D01*
X218383Y38268D01*
X218494Y38379D01*
X218550Y38406D01*
X218577Y38434D01*
X218966Y38712D01*
X219382Y38934D01*
X219827Y39128D01*
X220299Y39295D01*
X221215Y39572D01*
X222103Y39739D01*
X222520Y39822D01*
X222908Y39850D01*
X223269Y39878D01*
X223575Y39906D01*
X223824Y39933D01*
X224158D01*
X225157Y39906D01*
D02*
G37*
G36*
X135147Y20000D02*
X130927D01*
X127096Y34353D01*
X123320Y20000D01*
X119128D01*
X114492Y39211D01*
X118406D01*
X121349Y25775D01*
X124681Y39211D01*
X129345D01*
X132843Y25997D01*
X135730Y39211D01*
X139700D01*
X135147Y20000D01*
D02*
G37*
G36*
X661993Y39295D02*
X662437Y39267D01*
X663298Y39128D01*
X664019Y38906D01*
X664352Y38795D01*
X664658Y38656D01*
X664936Y38545D01*
X665158Y38406D01*
X665380Y38295D01*
X665546Y38212D01*
X665685Y38101D01*
X665768Y38045D01*
X665824Y38018D01*
X665852Y37990D01*
X666157Y37712D01*
X666435Y37435D01*
X666684Y37102D01*
X666907Y36741D01*
X667240Y36019D01*
X667517Y35325D01*
X667601Y34964D01*
X667684Y34659D01*
X667767Y34381D01*
X667795Y34131D01*
X667850Y33909D01*
Y33770D01*
X667878Y33659D01*
Y33631D01*
X664214Y33270D01*
X664158Y33826D01*
X664047Y34297D01*
X663936Y34714D01*
X663797Y35019D01*
X663686Y35269D01*
X663575Y35436D01*
X663492Y35547D01*
X663464Y35575D01*
X663186Y35797D01*
X662881Y35963D01*
X662576Y36102D01*
X662270Y36185D01*
X662020Y36241D01*
X661798Y36269D01*
X661604D01*
X661188Y36241D01*
X660827Y36158D01*
X660521Y36047D01*
X660244Y35935D01*
X660049Y35824D01*
X659883Y35713D01*
X659799Y35630D01*
X659772Y35602D01*
X659550Y35325D01*
X659383Y35019D01*
X659272Y34714D01*
X659189Y34409D01*
X659133Y34131D01*
X659105Y33881D01*
Y33742D01*
Y33714D01*
Y33687D01*
X659133Y33270D01*
X659217Y32882D01*
X659355Y32493D01*
X659494Y32160D01*
X659633Y31855D01*
X659772Y31632D01*
X659855Y31494D01*
X659883Y31438D01*
X659994Y31272D01*
X660160Y31077D01*
X660383Y30827D01*
X660605Y30605D01*
X661104Y30078D01*
X661604Y29550D01*
X662104Y29051D01*
X662326Y28828D01*
X662548Y28662D01*
X662714Y28495D01*
X662826Y28384D01*
X662909Y28301D01*
X662937Y28273D01*
X663492Y27746D01*
X663992Y27246D01*
X664464Y26774D01*
X664880Y26358D01*
X665269Y25941D01*
X665602Y25552D01*
X665907Y25219D01*
X666157Y24886D01*
X666379Y24609D01*
X666573Y24359D01*
X666740Y24164D01*
X666851Y23970D01*
X666962Y23859D01*
X667018Y23748D01*
X667073Y23692D01*
Y23665D01*
X667434Y23026D01*
X667712Y22360D01*
X667934Y21749D01*
X668100Y21194D01*
X668211Y20694D01*
X668239Y20500D01*
X668267Y20333D01*
X668295Y20194D01*
X668323Y20083D01*
Y20028D01*
Y20000D01*
X655413D01*
Y23415D01*
X662742D01*
X662520Y23776D01*
X662270Y24081D01*
X662159Y24220D01*
X662076Y24331D01*
X662020Y24386D01*
X661993Y24414D01*
X661882Y24525D01*
X661771Y24664D01*
X661438Y24969D01*
X661077Y25330D01*
X660716Y25691D01*
X660355Y26024D01*
X660049Y26302D01*
X659938Y26413D01*
X659855Y26496D01*
X659799Y26524D01*
X659772Y26552D01*
X659161Y27135D01*
X658661Y27607D01*
X658245Y28051D01*
X657912Y28384D01*
X657662Y28662D01*
X657495Y28856D01*
X657384Y28995D01*
X657356Y29023D01*
X656995Y29495D01*
X656690Y29939D01*
X656440Y30355D01*
X656246Y30716D01*
X656079Y31022D01*
X655968Y31272D01*
X655913Y31410D01*
X655885Y31466D01*
X655718Y31910D01*
X655607Y32354D01*
X655524Y32771D01*
X655469Y33159D01*
X655441Y33465D01*
X655413Y33714D01*
Y33881D01*
Y33937D01*
X655441Y34353D01*
X655496Y34769D01*
X655552Y35158D01*
X655663Y35519D01*
X655940Y36158D01*
X656218Y36713D01*
X656385Y36963D01*
X656524Y37157D01*
X656662Y37351D01*
X656801Y37490D01*
X656912Y37601D01*
X656968Y37712D01*
X657023Y37740D01*
X657051Y37768D01*
X657356Y38045D01*
X657717Y38295D01*
X658051Y38490D01*
X658439Y38656D01*
X659161Y38934D01*
X659883Y39128D01*
X660216Y39184D01*
X660521Y39239D01*
X660799Y39267D01*
X661049Y39295D01*
X661243Y39323D01*
X661521D01*
X661993Y39295D01*
D02*
G37*
G36*
X676651Y38684D02*
X677012Y38101D01*
X677401Y37546D01*
X677789Y37102D01*
X678122Y36741D01*
X678428Y36463D01*
X678539Y36352D01*
X678622Y36269D01*
X678678Y36241D01*
X678706Y36213D01*
X679316Y35769D01*
X679899Y35380D01*
X680427Y35075D01*
X680899Y34853D01*
X681287Y34686D01*
X681565Y34547D01*
X681676Y34520D01*
X681759Y34492D01*
X681787Y34464D01*
X681815D01*
Y31133D01*
X680816Y31521D01*
X679927Y31938D01*
X679511Y32160D01*
X679122Y32410D01*
X678761Y32632D01*
X678428Y32854D01*
X678122Y33076D01*
X677845Y33270D01*
X677623Y33437D01*
X677429Y33603D01*
X677262Y33742D01*
X677151Y33826D01*
X677095Y33881D01*
X677068Y33909D01*
Y20000D01*
X673375D01*
Y39323D01*
X676374D01*
X676651Y38684D01*
D02*
G37*
G36*
X693475Y31188D02*
X698500D01*
Y27746D01*
X693475D01*
Y22776D01*
X690116D01*
Y27746D01*
X685063D01*
Y31188D01*
X690116D01*
Y36158D01*
X693475D01*
Y31188D01*
D02*
G37*
G36*
X632460Y20000D02*
X628573D01*
Y28023D01*
X627324D01*
X626935Y27996D01*
X626602Y27968D01*
X626325Y27912D01*
X626102Y27885D01*
X625964Y27829D01*
X625880Y27801D01*
X625853D01*
X625630Y27690D01*
X625408Y27579D01*
X625214Y27440D01*
X625020Y27329D01*
X624881Y27190D01*
X624770Y27079D01*
X624714Y27024D01*
X624687Y26996D01*
X624576Y26857D01*
X624437Y26718D01*
X624131Y26302D01*
X623798Y25858D01*
X623437Y25358D01*
X623132Y24914D01*
X622993Y24692D01*
X622882Y24525D01*
X622771Y24386D01*
X622688Y24275D01*
X622660Y24192D01*
X622632Y24164D01*
X619856Y20000D01*
X615192D01*
X617552Y23748D01*
X617802Y24137D01*
X618051Y24525D01*
X618274Y24858D01*
X618496Y25164D01*
X618690Y25441D01*
X618857Y25719D01*
X619190Y26135D01*
X619440Y26469D01*
X619606Y26691D01*
X619745Y26830D01*
X619773Y26857D01*
X620078Y27190D01*
X620439Y27496D01*
X620772Y27746D01*
X621105Y27996D01*
X621383Y28190D01*
X621605Y28329D01*
X621772Y28440D01*
X621799Y28468D01*
X621827D01*
X621355Y28551D01*
X620939Y28662D01*
X620550Y28773D01*
X620161Y28912D01*
X619828Y29051D01*
X619523Y29189D01*
X619217Y29328D01*
X618968Y29495D01*
X618745Y29634D01*
X618551Y29772D01*
X618385Y29911D01*
X618274Y30022D01*
X618162Y30106D01*
X618079Y30189D01*
X618051Y30217D01*
X618024Y30244D01*
X617802Y30522D01*
X617607Y30800D01*
X617274Y31410D01*
X617052Y31993D01*
X616913Y32576D01*
X616802Y33076D01*
X616774Y33270D01*
Y33465D01*
X616747Y33603D01*
Y33742D01*
Y33798D01*
Y33826D01*
X616774Y34436D01*
X616885Y35019D01*
X617024Y35519D01*
X617163Y35963D01*
X617330Y36324D01*
X617468Y36602D01*
X617524Y36685D01*
X617579Y36768D01*
X617607Y36796D01*
Y36824D01*
X617940Y37296D01*
X618301Y37685D01*
X618662Y37990D01*
X619023Y38268D01*
X619356Y38434D01*
X619606Y38573D01*
X619773Y38656D01*
X619800Y38684D01*
X619828D01*
X620106Y38767D01*
X620411Y38851D01*
X621105Y38989D01*
X621855Y39073D01*
X622577Y39156D01*
X622938D01*
X623243Y39184D01*
X623548D01*
X623798Y39211D01*
X632460D01*
Y20000D01*
D02*
G37*
G36*
X530860D02*
X522531D01*
X522059Y20028D01*
X521227D01*
X520893Y20055D01*
X520366D01*
X520172Y20083D01*
X519894D01*
X519783Y20111D01*
X519672D01*
X519117Y20194D01*
X518617Y20333D01*
X518173Y20472D01*
X517784Y20638D01*
X517479Y20777D01*
X517257Y20916D01*
X517118Y20999D01*
X517062Y21027D01*
X516674Y21333D01*
X516368Y21666D01*
X516063Y21971D01*
X515841Y22304D01*
X515646Y22582D01*
X515508Y22804D01*
X515424Y22943D01*
X515396Y22998D01*
X515202Y23470D01*
X515036Y23914D01*
X514925Y24359D01*
X514869Y24747D01*
X514813Y25080D01*
X514786Y25330D01*
Y25497D01*
Y25525D01*
Y25552D01*
X514813Y26163D01*
X514925Y26718D01*
X515091Y27190D01*
X515258Y27635D01*
X515424Y27968D01*
X515591Y28218D01*
X515702Y28384D01*
X515730Y28440D01*
X516118Y28884D01*
X516535Y29245D01*
X517007Y29550D01*
X517423Y29772D01*
X517812Y29967D01*
X518145Y30106D01*
X518256Y30133D01*
X518339Y30161D01*
X518395Y30189D01*
X518423D01*
X517978Y30439D01*
X517590Y30689D01*
X517257Y30994D01*
X516979Y31244D01*
X516785Y31494D01*
X516618Y31688D01*
X516507Y31827D01*
X516479Y31882D01*
X516229Y32326D01*
X516035Y32743D01*
X515924Y33159D01*
X515813Y33548D01*
X515757Y33881D01*
X515730Y34131D01*
Y34297D01*
Y34325D01*
Y34353D01*
X515757Y34797D01*
X515813Y35241D01*
X515924Y35602D01*
X516035Y35935D01*
X516146Y36213D01*
X516257Y36435D01*
X516313Y36546D01*
X516340Y36602D01*
X516562Y36963D01*
X516812Y37268D01*
X517062Y37546D01*
X517284Y37796D01*
X517506Y37962D01*
X517673Y38101D01*
X517784Y38184D01*
X517812Y38212D01*
X518145Y38434D01*
X518506Y38601D01*
X518839Y38740D01*
X519144Y38851D01*
X519422Y38934D01*
X519616Y38989D01*
X519755Y39017D01*
X519811D01*
X520283Y39073D01*
X520810Y39128D01*
X521365Y39156D01*
X521921Y39184D01*
X522420Y39211D01*
X530860D01*
Y20000D01*
D02*
G37*
G36*
X573137Y39906D02*
X574025Y39794D01*
X574414Y39711D01*
X574803Y39628D01*
X575164Y39545D01*
X575469Y39461D01*
X575747Y39350D01*
X576024Y39267D01*
X576219Y39184D01*
X576413Y39128D01*
X576552Y39045D01*
X576663Y39017D01*
X576718Y38962D01*
X576746D01*
X577607Y38462D01*
X577968Y38156D01*
X578329Y37879D01*
X578662Y37573D01*
X578967Y37268D01*
X579245Y36963D01*
X579495Y36685D01*
X579689Y36407D01*
X579883Y36158D01*
X580050Y35935D01*
X580189Y35741D01*
X580272Y35575D01*
X580355Y35464D01*
X580383Y35380D01*
X580411Y35352D01*
X580633Y34908D01*
X580827Y34464D01*
X581133Y33548D01*
X581355Y32632D01*
X581493Y31827D01*
X581549Y31438D01*
X581604Y31105D01*
X581632Y30800D01*
Y30522D01*
X581660Y30327D01*
Y30161D01*
Y30050D01*
Y30022D01*
X581604Y28995D01*
X581493Y28051D01*
X581299Y27190D01*
X581216Y26774D01*
X581105Y26413D01*
X580994Y26080D01*
X580910Y25775D01*
X580799Y25525D01*
X580716Y25303D01*
X580661Y25136D01*
X580605Y24997D01*
X580550Y24914D01*
Y24886D01*
X580078Y24053D01*
X579550Y23331D01*
X578995Y22693D01*
X578440Y22193D01*
X578190Y21971D01*
X577940Y21777D01*
X577746Y21610D01*
X577551Y21499D01*
X577412Y21388D01*
X577274Y21305D01*
X577218Y21277D01*
X577190Y21249D01*
X576746Y21027D01*
X576330Y20833D01*
X575414Y20528D01*
X574525Y20305D01*
X573720Y20167D01*
X573331Y20111D01*
X572998Y20055D01*
X572693Y20028D01*
X572415D01*
X572221Y20000D01*
X571916D01*
X571027Y20028D01*
X570194Y20139D01*
X569389Y20278D01*
X568695Y20444D01*
X568390Y20528D01*
X568112Y20611D01*
X567862Y20694D01*
X567640Y20750D01*
X567473Y20805D01*
X567363Y20861D01*
X567279Y20888D01*
X567251D01*
X566419Y21221D01*
X565724Y21583D01*
X565114Y21943D01*
X564586Y22249D01*
X564198Y22526D01*
X564059Y22637D01*
X563920Y22748D01*
X563837Y22832D01*
X563753Y22887D01*
X563698Y22943D01*
Y30661D01*
X572054D01*
Y27413D01*
X567612D01*
Y24942D01*
X567946Y24692D01*
X568306Y24470D01*
X568667Y24275D01*
X569000Y24109D01*
X569278Y23970D01*
X569528Y23859D01*
X569667Y23803D01*
X569695Y23776D01*
X569722D01*
X570166Y23609D01*
X570611Y23498D01*
X571027Y23415D01*
X571388Y23359D01*
X571721Y23331D01*
X571943Y23304D01*
X572165D01*
X572609Y23331D01*
X573054Y23387D01*
X573442Y23470D01*
X573831Y23581D01*
X574525Y23859D01*
X574803Y23998D01*
X575080Y24164D01*
X575330Y24331D01*
X575552Y24470D01*
X575719Y24636D01*
X575886Y24747D01*
X575997Y24858D01*
X576080Y24942D01*
X576135Y24997D01*
X576163Y25025D01*
X576413Y25358D01*
X576663Y25747D01*
X576857Y26135D01*
X577024Y26552D01*
X577301Y27413D01*
X577468Y28245D01*
X577523Y28634D01*
X577579Y29023D01*
X577607Y29328D01*
X577635Y29634D01*
X577662Y29856D01*
Y30050D01*
Y30161D01*
Y30189D01*
X577635Y30772D01*
X577607Y31299D01*
X577523Y31827D01*
X577440Y32299D01*
X577329Y32715D01*
X577190Y33104D01*
X577052Y33465D01*
X576913Y33798D01*
X576802Y34075D01*
X576663Y34325D01*
X576524Y34520D01*
X576413Y34686D01*
X576330Y34825D01*
X576246Y34908D01*
X576219Y34964D01*
X576191Y34992D01*
X575886Y35269D01*
X575580Y35547D01*
X575247Y35741D01*
X574914Y35935D01*
X574581Y36102D01*
X574248Y36241D01*
X573609Y36435D01*
X573304Y36491D01*
X573026Y36546D01*
X572776Y36574D01*
X572554Y36602D01*
X572387Y36630D01*
X572138D01*
X571527Y36602D01*
X570999Y36491D01*
X570527Y36380D01*
X570111Y36213D01*
X569805Y36074D01*
X569556Y35935D01*
X569417Y35824D01*
X569361Y35797D01*
X568973Y35464D01*
X568639Y35103D01*
X568362Y34742D01*
X568168Y34381D01*
X568001Y34048D01*
X567890Y33798D01*
X567834Y33631D01*
X567807Y33603D01*
Y33576D01*
X563948Y34297D01*
X564059Y34769D01*
X564225Y35241D01*
X564392Y35658D01*
X564614Y36047D01*
X564808Y36435D01*
X565030Y36768D01*
X565252Y37074D01*
X565475Y37351D01*
X565697Y37601D01*
X565891Y37823D01*
X566058Y38018D01*
X566224Y38156D01*
X566363Y38268D01*
X566474Y38379D01*
X566530Y38406D01*
X566557Y38434D01*
X566946Y38712D01*
X567363Y38934D01*
X567807Y39128D01*
X568279Y39295D01*
X569195Y39572D01*
X570083Y39739D01*
X570500Y39822D01*
X570888Y39850D01*
X571249Y39878D01*
X571555Y39906D01*
X571804Y39933D01*
X572138D01*
X573137Y39906D01*
D02*
G37*
G36*
X483127Y20000D02*
X478907D01*
X475076Y34353D01*
X471300Y20000D01*
X467108D01*
X462472Y39211D01*
X466386D01*
X469329Y25775D01*
X472661Y39211D01*
X477325D01*
X480823Y25997D01*
X483710Y39211D01*
X487680D01*
X483127Y20000D01*
D02*
G37*
G36*
X1012513Y39295D02*
X1012957Y39267D01*
X1013818Y39128D01*
X1014539Y38906D01*
X1014873Y38795D01*
X1015178Y38656D01*
X1015455Y38545D01*
X1015678Y38406D01*
X1015900Y38295D01*
X1016066Y38212D01*
X1016205Y38101D01*
X1016288Y38045D01*
X1016344Y38018D01*
X1016372Y37990D01*
X1016677Y37712D01*
X1016955Y37435D01*
X1017205Y37102D01*
X1017427Y36741D01*
X1017760Y36019D01*
X1018037Y35325D01*
X1018121Y34964D01*
X1018204Y34659D01*
X1018287Y34381D01*
X1018315Y34131D01*
X1018371Y33909D01*
Y33770D01*
X1018398Y33659D01*
Y33631D01*
X1014734Y33270D01*
X1014678Y33826D01*
X1014567Y34297D01*
X1014456Y34714D01*
X1014317Y35019D01*
X1014206Y35269D01*
X1014095Y35436D01*
X1014012Y35547D01*
X1013984Y35575D01*
X1013707Y35797D01*
X1013401Y35963D01*
X1013096Y36102D01*
X1012790Y36185D01*
X1012541Y36241D01*
X1012318Y36269D01*
X1012124D01*
X1011708Y36241D01*
X1011347Y36158D01*
X1011041Y36047D01*
X1010764Y35935D01*
X1010569Y35824D01*
X1010403Y35713D01*
X1010320Y35630D01*
X1010292Y35602D01*
X1010070Y35325D01*
X1009903Y35019D01*
X1009792Y34714D01*
X1009709Y34409D01*
X1009653Y34131D01*
X1009625Y33881D01*
Y33742D01*
Y33714D01*
Y33687D01*
X1009653Y33270D01*
X1009736Y32882D01*
X1009875Y32493D01*
X1010014Y32160D01*
X1010153Y31855D01*
X1010292Y31632D01*
X1010375Y31494D01*
X1010403Y31438D01*
X1010514Y31272D01*
X1010680Y31077D01*
X1010902Y30827D01*
X1011125Y30605D01*
X1011624Y30078D01*
X1012124Y29550D01*
X1012624Y29051D01*
X1012846Y28828D01*
X1013068Y28662D01*
X1013234Y28495D01*
X1013346Y28384D01*
X1013429Y28301D01*
X1013457Y28273D01*
X1014012Y27746D01*
X1014512Y27246D01*
X1014984Y26774D01*
X1015400Y26358D01*
X1015789Y25941D01*
X1016122Y25552D01*
X1016427Y25219D01*
X1016677Y24886D01*
X1016899Y24609D01*
X1017094Y24359D01*
X1017260Y24164D01*
X1017371Y23970D01*
X1017482Y23859D01*
X1017538Y23748D01*
X1017593Y23692D01*
Y23665D01*
X1017954Y23026D01*
X1018232Y22360D01*
X1018454Y21749D01*
X1018620Y21194D01*
X1018731Y20694D01*
X1018759Y20500D01*
X1018787Y20333D01*
X1018815Y20194D01*
X1018842Y20083D01*
Y20028D01*
Y20000D01*
X1005933D01*
Y23415D01*
X1013262D01*
X1013040Y23776D01*
X1012790Y24081D01*
X1012679Y24220D01*
X1012596Y24331D01*
X1012541Y24386D01*
X1012513Y24414D01*
X1012402Y24525D01*
X1012291Y24664D01*
X1011957Y24969D01*
X1011597Y25330D01*
X1011236Y25691D01*
X1010875Y26024D01*
X1010569Y26302D01*
X1010458Y26413D01*
X1010375Y26496D01*
X1010320Y26524D01*
X1010292Y26552D01*
X1009681Y27135D01*
X1009181Y27607D01*
X1008765Y28051D01*
X1008432Y28384D01*
X1008182Y28662D01*
X1008015Y28856D01*
X1007904Y28995D01*
X1007876Y29023D01*
X1007515Y29495D01*
X1007210Y29939D01*
X1006960Y30355D01*
X1006766Y30716D01*
X1006599Y31022D01*
X1006488Y31272D01*
X1006433Y31410D01*
X1006405Y31466D01*
X1006238Y31910D01*
X1006127Y32354D01*
X1006044Y32771D01*
X1005989Y33159D01*
X1005961Y33465D01*
X1005933Y33714D01*
Y33881D01*
Y33937D01*
X1005961Y34353D01*
X1006016Y34769D01*
X1006072Y35158D01*
X1006183Y35519D01*
X1006460Y36158D01*
X1006738Y36713D01*
X1006905Y36963D01*
X1007044Y37157D01*
X1007182Y37351D01*
X1007321Y37490D01*
X1007432Y37601D01*
X1007488Y37712D01*
X1007543Y37740D01*
X1007571Y37768D01*
X1007876Y38045D01*
X1008237Y38295D01*
X1008570Y38490D01*
X1008959Y38656D01*
X1009681Y38934D01*
X1010403Y39128D01*
X1010736Y39184D01*
X1011041Y39239D01*
X1011319Y39267D01*
X1011569Y39295D01*
X1011763Y39323D01*
X1012041D01*
X1012513Y39295D01*
D02*
G37*
G36*
X1027171Y38684D02*
X1027532Y38101D01*
X1027921Y37546D01*
X1028309Y37102D01*
X1028643Y36741D01*
X1028948Y36463D01*
X1029059Y36352D01*
X1029142Y36269D01*
X1029198Y36241D01*
X1029226Y36213D01*
X1029836Y35769D01*
X1030419Y35380D01*
X1030947Y35075D01*
X1031419Y34853D01*
X1031807Y34686D01*
X1032085Y34547D01*
X1032196Y34520D01*
X1032279Y34492D01*
X1032307Y34464D01*
X1032335D01*
Y31133D01*
X1031336Y31521D01*
X1030447Y31938D01*
X1030031Y32160D01*
X1029642Y32410D01*
X1029281Y32632D01*
X1028948Y32854D01*
X1028643Y33076D01*
X1028365Y33270D01*
X1028143Y33437D01*
X1027949Y33603D01*
X1027782Y33742D01*
X1027671Y33826D01*
X1027615Y33881D01*
X1027588Y33909D01*
Y20000D01*
X1023895D01*
Y39323D01*
X1026893D01*
X1027171Y38684D01*
D02*
G37*
G36*
X1043995Y31188D02*
X1049020D01*
Y27746D01*
X1043995D01*
Y22776D01*
X1040636D01*
Y27746D01*
X1035583D01*
Y31188D01*
X1040636D01*
Y36158D01*
X1043995D01*
Y31188D01*
D02*
G37*
G36*
X982980Y20000D02*
X979093D01*
Y28023D01*
X977844D01*
X977455Y27996D01*
X977122Y27968D01*
X976845Y27912D01*
X976622Y27885D01*
X976484Y27829D01*
X976400Y27801D01*
X976373D01*
X976151Y27690D01*
X975928Y27579D01*
X975734Y27440D01*
X975540Y27329D01*
X975401Y27190D01*
X975290Y27079D01*
X975234Y27024D01*
X975207Y26996D01*
X975096Y26857D01*
X974957Y26718D01*
X974651Y26302D01*
X974318Y25858D01*
X973957Y25358D01*
X973652Y24914D01*
X973513Y24692D01*
X973402Y24525D01*
X973291Y24386D01*
X973208Y24275D01*
X973180Y24192D01*
X973152Y24164D01*
X970376Y20000D01*
X965712D01*
X968072Y23748D01*
X968322Y24137D01*
X968571Y24525D01*
X968793Y24858D01*
X969016Y25164D01*
X969210Y25441D01*
X969377Y25719D01*
X969710Y26135D01*
X969959Y26469D01*
X970126Y26691D01*
X970265Y26830D01*
X970293Y26857D01*
X970598Y27190D01*
X970959Y27496D01*
X971292Y27746D01*
X971625Y27996D01*
X971903Y28190D01*
X972125Y28329D01*
X972292Y28440D01*
X972319Y28468D01*
X972347D01*
X971875Y28551D01*
X971459Y28662D01*
X971070Y28773D01*
X970681Y28912D01*
X970348Y29051D01*
X970043Y29189D01*
X969737Y29328D01*
X969488Y29495D01*
X969266Y29634D01*
X969071Y29772D01*
X968905Y29911D01*
X968793Y30022D01*
X968682Y30106D01*
X968599Y30189D01*
X968571Y30217D01*
X968544Y30244D01*
X968322Y30522D01*
X968127Y30800D01*
X967794Y31410D01*
X967572Y31993D01*
X967433Y32576D01*
X967322Y33076D01*
X967294Y33270D01*
Y33465D01*
X967267Y33603D01*
Y33742D01*
Y33798D01*
Y33826D01*
X967294Y34436D01*
X967405Y35019D01*
X967544Y35519D01*
X967683Y35963D01*
X967850Y36324D01*
X967988Y36602D01*
X968044Y36685D01*
X968100Y36768D01*
X968127Y36796D01*
Y36824D01*
X968460Y37296D01*
X968821Y37685D01*
X969182Y37990D01*
X969543Y38268D01*
X969876Y38434D01*
X970126Y38573D01*
X970293Y38656D01*
X970320Y38684D01*
X970348D01*
X970626Y38767D01*
X970931Y38851D01*
X971625Y38989D01*
X972375Y39073D01*
X973097Y39156D01*
X973458D01*
X973763Y39184D01*
X974068D01*
X974318Y39211D01*
X982980D01*
Y20000D01*
D02*
G37*
G36*
X881380D02*
X873051D01*
X872579Y20028D01*
X871747D01*
X871413Y20055D01*
X870886D01*
X870692Y20083D01*
X870414D01*
X870303Y20111D01*
X870192D01*
X869637Y20194D01*
X869137Y20333D01*
X868693Y20472D01*
X868304Y20638D01*
X867999Y20777D01*
X867776Y20916D01*
X867638Y20999D01*
X867582Y21027D01*
X867194Y21333D01*
X866888Y21666D01*
X866583Y21971D01*
X866361Y22304D01*
X866166Y22582D01*
X866028Y22804D01*
X865944Y22943D01*
X865917Y22998D01*
X865722Y23470D01*
X865555Y23914D01*
X865444Y24359D01*
X865389Y24747D01*
X865333Y25080D01*
X865306Y25330D01*
Y25497D01*
Y25525D01*
Y25552D01*
X865333Y26163D01*
X865444Y26718D01*
X865611Y27190D01*
X865778Y27635D01*
X865944Y27968D01*
X866111Y28218D01*
X866222Y28384D01*
X866250Y28440D01*
X866638Y28884D01*
X867055Y29245D01*
X867527Y29550D01*
X867943Y29772D01*
X868332Y29967D01*
X868665Y30106D01*
X868776Y30133D01*
X868859Y30161D01*
X868915Y30189D01*
X868942D01*
X868498Y30439D01*
X868110Y30689D01*
X867776Y30994D01*
X867499Y31244D01*
X867305Y31494D01*
X867138Y31688D01*
X867027Y31827D01*
X866999Y31882D01*
X866749Y32326D01*
X866555Y32743D01*
X866444Y33159D01*
X866333Y33548D01*
X866277Y33881D01*
X866250Y34131D01*
Y34297D01*
Y34325D01*
Y34353D01*
X866277Y34797D01*
X866333Y35241D01*
X866444Y35602D01*
X866555Y35935D01*
X866666Y36213D01*
X866777Y36435D01*
X866833Y36546D01*
X866860Y36602D01*
X867083Y36963D01*
X867332Y37268D01*
X867582Y37546D01*
X867804Y37796D01*
X868026Y37962D01*
X868193Y38101D01*
X868304Y38184D01*
X868332Y38212D01*
X868665Y38434D01*
X869026Y38601D01*
X869359Y38740D01*
X869664Y38851D01*
X869942Y38934D01*
X870136Y38989D01*
X870275Y39017D01*
X870331D01*
X870803Y39073D01*
X871330Y39128D01*
X871885Y39156D01*
X872441Y39184D01*
X872940Y39211D01*
X881380D01*
Y20000D01*
D02*
G37*
G36*
X923657Y39906D02*
X924545Y39794D01*
X924934Y39711D01*
X925323Y39628D01*
X925684Y39545D01*
X925989Y39461D01*
X926267Y39350D01*
X926544Y39267D01*
X926739Y39184D01*
X926933Y39128D01*
X927072Y39045D01*
X927183Y39017D01*
X927238Y38962D01*
X927266D01*
X928127Y38462D01*
X928488Y38156D01*
X928848Y37879D01*
X929182Y37573D01*
X929487Y37268D01*
X929765Y36963D01*
X930014Y36685D01*
X930209Y36407D01*
X930403Y36158D01*
X930570Y35935D01*
X930709Y35741D01*
X930792Y35575D01*
X930875Y35464D01*
X930903Y35380D01*
X930931Y35352D01*
X931153Y34908D01*
X931347Y34464D01*
X931653Y33548D01*
X931875Y32632D01*
X932013Y31827D01*
X932069Y31438D01*
X932124Y31105D01*
X932152Y30800D01*
Y30522D01*
X932180Y30327D01*
Y30161D01*
Y30050D01*
Y30022D01*
X932124Y28995D01*
X932013Y28051D01*
X931819Y27190D01*
X931736Y26774D01*
X931625Y26413D01*
X931514Y26080D01*
X931430Y25775D01*
X931319Y25525D01*
X931236Y25303D01*
X931181Y25136D01*
X931125Y24997D01*
X931069Y24914D01*
Y24886D01*
X930598Y24053D01*
X930070Y23331D01*
X929515Y22693D01*
X928960Y22193D01*
X928710Y21971D01*
X928460Y21777D01*
X928266Y21610D01*
X928071Y21499D01*
X927932Y21388D01*
X927794Y21305D01*
X927738Y21277D01*
X927710Y21249D01*
X927266Y21027D01*
X926850Y20833D01*
X925934Y20528D01*
X925045Y20305D01*
X924240Y20167D01*
X923851Y20111D01*
X923518Y20055D01*
X923213Y20028D01*
X922935D01*
X922741Y20000D01*
X922436D01*
X921547Y20028D01*
X920714Y20139D01*
X919909Y20278D01*
X919215Y20444D01*
X918910Y20528D01*
X918632Y20611D01*
X918382Y20694D01*
X918160Y20750D01*
X917993Y20805D01*
X917883Y20861D01*
X917799Y20888D01*
X917771D01*
X916939Y21221D01*
X916245Y21583D01*
X915634Y21943D01*
X915106Y22249D01*
X914718Y22526D01*
X914579Y22637D01*
X914440Y22748D01*
X914357Y22832D01*
X914273Y22887D01*
X914218Y22943D01*
Y30661D01*
X922574D01*
Y27413D01*
X918132D01*
Y24942D01*
X918465Y24692D01*
X918826Y24470D01*
X919187Y24275D01*
X919520Y24109D01*
X919798Y23970D01*
X920048Y23859D01*
X920187Y23803D01*
X920214Y23776D01*
X920242D01*
X920686Y23609D01*
X921131Y23498D01*
X921547Y23415D01*
X921908Y23359D01*
X922241Y23331D01*
X922463Y23304D01*
X922685D01*
X923130Y23331D01*
X923574Y23387D01*
X923962Y23470D01*
X924351Y23581D01*
X925045Y23859D01*
X925323Y23998D01*
X925600Y24164D01*
X925850Y24331D01*
X926072Y24470D01*
X926239Y24636D01*
X926405Y24747D01*
X926516Y24858D01*
X926600Y24942D01*
X926655Y24997D01*
X926683Y25025D01*
X926933Y25358D01*
X927183Y25747D01*
X927377Y26135D01*
X927544Y26552D01*
X927821Y27413D01*
X927988Y28245D01*
X928043Y28634D01*
X928099Y29023D01*
X928127Y29328D01*
X928155Y29634D01*
X928182Y29856D01*
Y30050D01*
Y30161D01*
Y30189D01*
X928155Y30772D01*
X928127Y31299D01*
X928043Y31827D01*
X927960Y32299D01*
X927849Y32715D01*
X927710Y33104D01*
X927571Y33465D01*
X927433Y33798D01*
X927322Y34075D01*
X927183Y34325D01*
X927044Y34520D01*
X926933Y34686D01*
X926850Y34825D01*
X926766Y34908D01*
X926739Y34964D01*
X926711Y34992D01*
X926405Y35269D01*
X926100Y35547D01*
X925767Y35741D01*
X925434Y35935D01*
X925101Y36102D01*
X924768Y36241D01*
X924129Y36435D01*
X923824Y36491D01*
X923546Y36546D01*
X923296Y36574D01*
X923074Y36602D01*
X922907Y36630D01*
X922658D01*
X922047Y36602D01*
X921519Y36491D01*
X921047Y36380D01*
X920631Y36213D01*
X920325Y36074D01*
X920076Y35935D01*
X919937Y35824D01*
X919881Y35797D01*
X919493Y35464D01*
X919159Y35103D01*
X918882Y34742D01*
X918688Y34381D01*
X918521Y34048D01*
X918410Y33798D01*
X918354Y33631D01*
X918327Y33603D01*
Y33576D01*
X914468Y34297D01*
X914579Y34769D01*
X914745Y35241D01*
X914912Y35658D01*
X915134Y36047D01*
X915328Y36435D01*
X915550Y36768D01*
X915772Y37074D01*
X915995Y37351D01*
X916217Y37601D01*
X916411Y37823D01*
X916578Y38018D01*
X916744Y38156D01*
X916883Y38268D01*
X916994Y38379D01*
X917050Y38406D01*
X917077Y38434D01*
X917466Y38712D01*
X917883Y38934D01*
X918327Y39128D01*
X918799Y39295D01*
X919715Y39572D01*
X920603Y39739D01*
X921020Y39822D01*
X921408Y39850D01*
X921769Y39878D01*
X922075Y39906D01*
X922324Y39933D01*
X922658D01*
X923657Y39906D01*
D02*
G37*
G36*
X833647Y20000D02*
X829427D01*
X825596Y34353D01*
X821820Y20000D01*
X817628D01*
X812992Y39211D01*
X816906D01*
X819849Y25775D01*
X823181Y39211D01*
X827845D01*
X831343Y25997D01*
X834230Y39211D01*
X838200D01*
X833647Y20000D01*
D02*
G37*
G36*
X1355413Y39295D02*
X1355857Y39267D01*
X1356718Y39128D01*
X1357439Y38906D01*
X1357773Y38795D01*
X1358078Y38656D01*
X1358356Y38545D01*
X1358578Y38406D01*
X1358800Y38295D01*
X1358966Y38212D01*
X1359105Y38101D01*
X1359188Y38045D01*
X1359244Y38018D01*
X1359272Y37990D01*
X1359577Y37712D01*
X1359855Y37435D01*
X1360105Y37102D01*
X1360327Y36741D01*
X1360660Y36019D01*
X1360937Y35325D01*
X1361021Y34964D01*
X1361104Y34659D01*
X1361187Y34381D01*
X1361215Y34131D01*
X1361270Y33909D01*
Y33770D01*
X1361298Y33659D01*
Y33631D01*
X1357634Y33270D01*
X1357578Y33826D01*
X1357467Y34297D01*
X1357356Y34714D01*
X1357217Y35019D01*
X1357106Y35269D01*
X1356995Y35436D01*
X1356912Y35547D01*
X1356884Y35575D01*
X1356606Y35797D01*
X1356301Y35963D01*
X1355996Y36102D01*
X1355690Y36185D01*
X1355441Y36241D01*
X1355218Y36269D01*
X1355024D01*
X1354608Y36241D01*
X1354247Y36158D01*
X1353941Y36047D01*
X1353664Y35935D01*
X1353469Y35824D01*
X1353303Y35713D01*
X1353219Y35630D01*
X1353192Y35602D01*
X1352970Y35325D01*
X1352803Y35019D01*
X1352692Y34714D01*
X1352609Y34409D01*
X1352553Y34131D01*
X1352525Y33881D01*
Y33742D01*
Y33714D01*
Y33687D01*
X1352553Y33270D01*
X1352637Y32882D01*
X1352775Y32493D01*
X1352914Y32160D01*
X1353053Y31855D01*
X1353192Y31632D01*
X1353275Y31494D01*
X1353303Y31438D01*
X1353414Y31272D01*
X1353580Y31077D01*
X1353802Y30827D01*
X1354025Y30605D01*
X1354524Y30078D01*
X1355024Y29550D01*
X1355524Y29051D01*
X1355746Y28828D01*
X1355968Y28662D01*
X1356134Y28495D01*
X1356246Y28384D01*
X1356329Y28301D01*
X1356357Y28273D01*
X1356912Y27746D01*
X1357412Y27246D01*
X1357883Y26774D01*
X1358300Y26358D01*
X1358689Y25941D01*
X1359022Y25552D01*
X1359327Y25219D01*
X1359577Y24886D01*
X1359799Y24609D01*
X1359993Y24359D01*
X1360160Y24164D01*
X1360271Y23970D01*
X1360382Y23859D01*
X1360438Y23748D01*
X1360493Y23692D01*
Y23665D01*
X1360854Y23026D01*
X1361132Y22360D01*
X1361354Y21749D01*
X1361520Y21194D01*
X1361631Y20694D01*
X1361659Y20500D01*
X1361687Y20333D01*
X1361715Y20194D01*
X1361743Y20083D01*
Y20028D01*
Y20000D01*
X1348833D01*
Y23415D01*
X1356162D01*
X1355940Y23776D01*
X1355690Y24081D01*
X1355579Y24220D01*
X1355496Y24331D01*
X1355441Y24386D01*
X1355413Y24414D01*
X1355302Y24525D01*
X1355191Y24664D01*
X1354857Y24969D01*
X1354497Y25330D01*
X1354136Y25691D01*
X1353775Y26024D01*
X1353469Y26302D01*
X1353358Y26413D01*
X1353275Y26496D01*
X1353219Y26524D01*
X1353192Y26552D01*
X1352581Y27135D01*
X1352081Y27607D01*
X1351665Y28051D01*
X1351332Y28384D01*
X1351082Y28662D01*
X1350915Y28856D01*
X1350804Y28995D01*
X1350776Y29023D01*
X1350415Y29495D01*
X1350110Y29939D01*
X1349860Y30355D01*
X1349666Y30716D01*
X1349499Y31022D01*
X1349388Y31272D01*
X1349333Y31410D01*
X1349305Y31466D01*
X1349138Y31910D01*
X1349027Y32354D01*
X1348944Y32771D01*
X1348889Y33159D01*
X1348861Y33465D01*
X1348833Y33714D01*
Y33881D01*
Y33937D01*
X1348861Y34353D01*
X1348916Y34769D01*
X1348972Y35158D01*
X1349083Y35519D01*
X1349361Y36158D01*
X1349638Y36713D01*
X1349805Y36963D01*
X1349944Y37157D01*
X1350082Y37351D01*
X1350221Y37490D01*
X1350332Y37601D01*
X1350388Y37712D01*
X1350443Y37740D01*
X1350471Y37768D01*
X1350776Y38045D01*
X1351137Y38295D01*
X1351470Y38490D01*
X1351859Y38656D01*
X1352581Y38934D01*
X1353303Y39128D01*
X1353636Y39184D01*
X1353941Y39239D01*
X1354219Y39267D01*
X1354469Y39295D01*
X1354663Y39323D01*
X1354941D01*
X1355413Y39295D01*
D02*
G37*
G36*
X1370071Y38684D02*
X1370432Y38101D01*
X1370821Y37546D01*
X1371209Y37102D01*
X1371543Y36741D01*
X1371848Y36463D01*
X1371959Y36352D01*
X1372042Y36269D01*
X1372098Y36241D01*
X1372126Y36213D01*
X1372736Y35769D01*
X1373319Y35380D01*
X1373847Y35075D01*
X1374319Y34853D01*
X1374707Y34686D01*
X1374985Y34547D01*
X1375096Y34520D01*
X1375179Y34492D01*
X1375207Y34464D01*
X1375235D01*
Y31133D01*
X1374236Y31521D01*
X1373347Y31938D01*
X1372931Y32160D01*
X1372542Y32410D01*
X1372181Y32632D01*
X1371848Y32854D01*
X1371543Y33076D01*
X1371265Y33270D01*
X1371043Y33437D01*
X1370849Y33603D01*
X1370682Y33742D01*
X1370571Y33826D01*
X1370515Y33881D01*
X1370488Y33909D01*
Y20000D01*
X1366795D01*
Y39323D01*
X1369794D01*
X1370071Y38684D01*
D02*
G37*
G36*
X1386895Y31188D02*
X1391920D01*
Y27746D01*
X1386895D01*
Y22776D01*
X1383536D01*
Y27746D01*
X1378483D01*
Y31188D01*
X1383536D01*
Y36158D01*
X1386895D01*
Y31188D01*
D02*
G37*
G36*
X1325880Y20000D02*
X1321993D01*
Y28023D01*
X1320744D01*
X1320355Y27996D01*
X1320022Y27968D01*
X1319745Y27912D01*
X1319523Y27885D01*
X1319384Y27829D01*
X1319300Y27801D01*
X1319273D01*
X1319050Y27690D01*
X1318828Y27579D01*
X1318634Y27440D01*
X1318440Y27329D01*
X1318301Y27190D01*
X1318190Y27079D01*
X1318134Y27024D01*
X1318107Y26996D01*
X1317995Y26857D01*
X1317857Y26718D01*
X1317551Y26302D01*
X1317218Y25858D01*
X1316857Y25358D01*
X1316552Y24914D01*
X1316413Y24692D01*
X1316302Y24525D01*
X1316191Y24386D01*
X1316108Y24275D01*
X1316080Y24192D01*
X1316052Y24164D01*
X1313276Y20000D01*
X1308612D01*
X1310972Y23748D01*
X1311222Y24137D01*
X1311471Y24525D01*
X1311694Y24858D01*
X1311916Y25164D01*
X1312110Y25441D01*
X1312276Y25719D01*
X1312610Y26135D01*
X1312859Y26469D01*
X1313026Y26691D01*
X1313165Y26830D01*
X1313193Y26857D01*
X1313498Y27190D01*
X1313859Y27496D01*
X1314192Y27746D01*
X1314525Y27996D01*
X1314803Y28190D01*
X1315025Y28329D01*
X1315192Y28440D01*
X1315219Y28468D01*
X1315247D01*
X1314775Y28551D01*
X1314359Y28662D01*
X1313970Y28773D01*
X1313581Y28912D01*
X1313248Y29051D01*
X1312943Y29189D01*
X1312637Y29328D01*
X1312388Y29495D01*
X1312166Y29634D01*
X1311971Y29772D01*
X1311805Y29911D01*
X1311694Y30022D01*
X1311582Y30106D01*
X1311499Y30189D01*
X1311471Y30217D01*
X1311444Y30244D01*
X1311222Y30522D01*
X1311027Y30800D01*
X1310694Y31410D01*
X1310472Y31993D01*
X1310333Y32576D01*
X1310222Y33076D01*
X1310194Y33270D01*
Y33465D01*
X1310167Y33603D01*
Y33742D01*
Y33798D01*
Y33826D01*
X1310194Y34436D01*
X1310305Y35019D01*
X1310444Y35519D01*
X1310583Y35963D01*
X1310750Y36324D01*
X1310888Y36602D01*
X1310944Y36685D01*
X1310999Y36768D01*
X1311027Y36796D01*
Y36824D01*
X1311360Y37296D01*
X1311721Y37685D01*
X1312082Y37990D01*
X1312443Y38268D01*
X1312776Y38434D01*
X1313026Y38573D01*
X1313193Y38656D01*
X1313220Y38684D01*
X1313248D01*
X1313526Y38767D01*
X1313831Y38851D01*
X1314525Y38989D01*
X1315275Y39073D01*
X1315997Y39156D01*
X1316358D01*
X1316663Y39184D01*
X1316968D01*
X1317218Y39211D01*
X1325880D01*
Y20000D01*
D02*
G37*
G36*
X1224280D02*
X1215951D01*
X1215479Y20028D01*
X1214647D01*
X1214313Y20055D01*
X1213786D01*
X1213592Y20083D01*
X1213314D01*
X1213203Y20111D01*
X1213092D01*
X1212537Y20194D01*
X1212037Y20333D01*
X1211593Y20472D01*
X1211204Y20638D01*
X1210899Y20777D01*
X1210676Y20916D01*
X1210538Y20999D01*
X1210482Y21027D01*
X1210094Y21333D01*
X1209788Y21666D01*
X1209483Y21971D01*
X1209261Y22304D01*
X1209066Y22582D01*
X1208928Y22804D01*
X1208844Y22943D01*
X1208817Y22998D01*
X1208622Y23470D01*
X1208456Y23914D01*
X1208344Y24359D01*
X1208289Y24747D01*
X1208233Y25080D01*
X1208206Y25330D01*
Y25497D01*
Y25525D01*
Y25552D01*
X1208233Y26163D01*
X1208344Y26718D01*
X1208511Y27190D01*
X1208678Y27635D01*
X1208844Y27968D01*
X1209011Y28218D01*
X1209122Y28384D01*
X1209150Y28440D01*
X1209538Y28884D01*
X1209955Y29245D01*
X1210427Y29550D01*
X1210843Y29772D01*
X1211232Y29967D01*
X1211565Y30106D01*
X1211676Y30133D01*
X1211759Y30161D01*
X1211815Y30189D01*
X1211842D01*
X1211398Y30439D01*
X1211010Y30689D01*
X1210676Y30994D01*
X1210399Y31244D01*
X1210205Y31494D01*
X1210038Y31688D01*
X1209927Y31827D01*
X1209899Y31882D01*
X1209649Y32326D01*
X1209455Y32743D01*
X1209344Y33159D01*
X1209233Y33548D01*
X1209177Y33881D01*
X1209150Y34131D01*
Y34297D01*
Y34325D01*
Y34353D01*
X1209177Y34797D01*
X1209233Y35241D01*
X1209344Y35602D01*
X1209455Y35935D01*
X1209566Y36213D01*
X1209677Y36435D01*
X1209733Y36546D01*
X1209760Y36602D01*
X1209983Y36963D01*
X1210232Y37268D01*
X1210482Y37546D01*
X1210704Y37796D01*
X1210926Y37962D01*
X1211093Y38101D01*
X1211204Y38184D01*
X1211232Y38212D01*
X1211565Y38434D01*
X1211926Y38601D01*
X1212259Y38740D01*
X1212564Y38851D01*
X1212842Y38934D01*
X1213036Y38989D01*
X1213175Y39017D01*
X1213231D01*
X1213703Y39073D01*
X1214230Y39128D01*
X1214785Y39156D01*
X1215341Y39184D01*
X1215840Y39211D01*
X1224280D01*
Y20000D01*
D02*
G37*
G36*
X1266557Y39906D02*
X1267445Y39794D01*
X1267834Y39711D01*
X1268223Y39628D01*
X1268584Y39545D01*
X1268889Y39461D01*
X1269167Y39350D01*
X1269444Y39267D01*
X1269639Y39184D01*
X1269833Y39128D01*
X1269972Y39045D01*
X1270083Y39017D01*
X1270138Y38962D01*
X1270166D01*
X1271027Y38462D01*
X1271388Y38156D01*
X1271749Y37879D01*
X1272082Y37573D01*
X1272387Y37268D01*
X1272665Y36963D01*
X1272915Y36685D01*
X1273109Y36407D01*
X1273303Y36158D01*
X1273470Y35935D01*
X1273609Y35741D01*
X1273692Y35575D01*
X1273775Y35464D01*
X1273803Y35380D01*
X1273831Y35352D01*
X1274053Y34908D01*
X1274247Y34464D01*
X1274553Y33548D01*
X1274775Y32632D01*
X1274913Y31827D01*
X1274969Y31438D01*
X1275024Y31105D01*
X1275052Y30800D01*
Y30522D01*
X1275080Y30327D01*
Y30161D01*
Y30050D01*
Y30022D01*
X1275024Y28995D01*
X1274913Y28051D01*
X1274719Y27190D01*
X1274636Y26774D01*
X1274525Y26413D01*
X1274414Y26080D01*
X1274330Y25775D01*
X1274219Y25525D01*
X1274136Y25303D01*
X1274081Y25136D01*
X1274025Y24997D01*
X1273969Y24914D01*
Y24886D01*
X1273498Y24053D01*
X1272970Y23331D01*
X1272415Y22693D01*
X1271860Y22193D01*
X1271610Y21971D01*
X1271360Y21777D01*
X1271165Y21610D01*
X1270971Y21499D01*
X1270832Y21388D01*
X1270694Y21305D01*
X1270638Y21277D01*
X1270610Y21249D01*
X1270166Y21027D01*
X1269750Y20833D01*
X1268833Y20528D01*
X1267945Y20305D01*
X1267140Y20167D01*
X1266751Y20111D01*
X1266418Y20055D01*
X1266113Y20028D01*
X1265835D01*
X1265641Y20000D01*
X1265335D01*
X1264447Y20028D01*
X1263614Y20139D01*
X1262809Y20278D01*
X1262115Y20444D01*
X1261810Y20528D01*
X1261532Y20611D01*
X1261282Y20694D01*
X1261060Y20750D01*
X1260893Y20805D01*
X1260782Y20861D01*
X1260699Y20888D01*
X1260671D01*
X1259839Y21221D01*
X1259145Y21583D01*
X1258534Y21943D01*
X1258006Y22249D01*
X1257618Y22526D01*
X1257479Y22637D01*
X1257340Y22748D01*
X1257257Y22832D01*
X1257173Y22887D01*
X1257118Y22943D01*
Y30661D01*
X1265474D01*
Y27413D01*
X1261032D01*
Y24942D01*
X1261366Y24692D01*
X1261726Y24470D01*
X1262087Y24275D01*
X1262420Y24109D01*
X1262698Y23970D01*
X1262948Y23859D01*
X1263087Y23803D01*
X1263114Y23776D01*
X1263142D01*
X1263586Y23609D01*
X1264031Y23498D01*
X1264447Y23415D01*
X1264808Y23359D01*
X1265141Y23331D01*
X1265363Y23304D01*
X1265585D01*
X1266030Y23331D01*
X1266474Y23387D01*
X1266862Y23470D01*
X1267251Y23581D01*
X1267945Y23859D01*
X1268223Y23998D01*
X1268500Y24164D01*
X1268750Y24331D01*
X1268972Y24470D01*
X1269139Y24636D01*
X1269305Y24747D01*
X1269417Y24858D01*
X1269500Y24942D01*
X1269555Y24997D01*
X1269583Y25025D01*
X1269833Y25358D01*
X1270083Y25747D01*
X1270277Y26135D01*
X1270444Y26552D01*
X1270721Y27413D01*
X1270888Y28245D01*
X1270943Y28634D01*
X1270999Y29023D01*
X1271027Y29328D01*
X1271055Y29634D01*
X1271082Y29856D01*
Y30050D01*
Y30161D01*
Y30189D01*
X1271055Y30772D01*
X1271027Y31299D01*
X1270943Y31827D01*
X1270860Y32299D01*
X1270749Y32715D01*
X1270610Y33104D01*
X1270471Y33465D01*
X1270333Y33798D01*
X1270222Y34075D01*
X1270083Y34325D01*
X1269944Y34520D01*
X1269833Y34686D01*
X1269750Y34825D01*
X1269666Y34908D01*
X1269639Y34964D01*
X1269611Y34992D01*
X1269305Y35269D01*
X1269000Y35547D01*
X1268667Y35741D01*
X1268334Y35935D01*
X1268001Y36102D01*
X1267667Y36241D01*
X1267029Y36435D01*
X1266724Y36491D01*
X1266446Y36546D01*
X1266196Y36574D01*
X1265974Y36602D01*
X1265807Y36630D01*
X1265558D01*
X1264947Y36602D01*
X1264419Y36491D01*
X1263947Y36380D01*
X1263531Y36213D01*
X1263225Y36074D01*
X1262976Y35935D01*
X1262837Y35824D01*
X1262781Y35797D01*
X1262393Y35464D01*
X1262059Y35103D01*
X1261782Y34742D01*
X1261588Y34381D01*
X1261421Y34048D01*
X1261310Y33798D01*
X1261254Y33631D01*
X1261227Y33603D01*
Y33576D01*
X1257368Y34297D01*
X1257479Y34769D01*
X1257645Y35241D01*
X1257812Y35658D01*
X1258034Y36047D01*
X1258228Y36435D01*
X1258450Y36768D01*
X1258672Y37074D01*
X1258895Y37351D01*
X1259117Y37601D01*
X1259311Y37823D01*
X1259478Y38018D01*
X1259644Y38156D01*
X1259783Y38268D01*
X1259894Y38379D01*
X1259950Y38406D01*
X1259977Y38434D01*
X1260366Y38712D01*
X1260782Y38934D01*
X1261227Y39128D01*
X1261699Y39295D01*
X1262615Y39572D01*
X1263503Y39739D01*
X1263920Y39822D01*
X1264308Y39850D01*
X1264669Y39878D01*
X1264975Y39906D01*
X1265224Y39933D01*
X1265558D01*
X1266557Y39906D01*
D02*
G37*
G36*
X1176547Y20000D02*
X1172327D01*
X1168496Y34353D01*
X1164720Y20000D01*
X1160528D01*
X1155892Y39211D01*
X1159806D01*
X1162749Y25775D01*
X1166081Y39211D01*
X1170745D01*
X1174243Y25997D01*
X1177130Y39211D01*
X1181100D01*
X1176547Y20000D01*
D02*
G37*
G36*
X1497653Y1089295D02*
X1498097Y1089267D01*
X1498958Y1089128D01*
X1499679Y1088906D01*
X1500013Y1088795D01*
X1500318Y1088656D01*
X1500596Y1088545D01*
X1500818Y1088406D01*
X1501040Y1088295D01*
X1501206Y1088212D01*
X1501345Y1088101D01*
X1501428Y1088045D01*
X1501484Y1088018D01*
X1501512Y1087990D01*
X1501817Y1087712D01*
X1502095Y1087435D01*
X1502345Y1087102D01*
X1502567Y1086741D01*
X1502900Y1086019D01*
X1503177Y1085325D01*
X1503261Y1084964D01*
X1503344Y1084658D01*
X1503427Y1084381D01*
X1503455Y1084131D01*
X1503510Y1083909D01*
Y1083770D01*
X1503538Y1083659D01*
Y1083631D01*
X1499874Y1083270D01*
X1499818Y1083826D01*
X1499707Y1084297D01*
X1499596Y1084714D01*
X1499457Y1085019D01*
X1499346Y1085269D01*
X1499235Y1085436D01*
X1499152Y1085547D01*
X1499124Y1085575D01*
X1498846Y1085797D01*
X1498541Y1085963D01*
X1498236Y1086102D01*
X1497930Y1086185D01*
X1497681Y1086241D01*
X1497458Y1086269D01*
X1497264D01*
X1496848Y1086241D01*
X1496487Y1086158D01*
X1496181Y1086047D01*
X1495904Y1085936D01*
X1495709Y1085824D01*
X1495543Y1085713D01*
X1495459Y1085630D01*
X1495432Y1085602D01*
X1495210Y1085325D01*
X1495043Y1085019D01*
X1494932Y1084714D01*
X1494849Y1084409D01*
X1494793Y1084131D01*
X1494765Y1083881D01*
Y1083742D01*
Y1083715D01*
Y1083687D01*
X1494793Y1083270D01*
X1494877Y1082882D01*
X1495015Y1082493D01*
X1495154Y1082160D01*
X1495293Y1081854D01*
X1495432Y1081632D01*
X1495515Y1081494D01*
X1495543Y1081438D01*
X1495654Y1081271D01*
X1495820Y1081077D01*
X1496042Y1080827D01*
X1496265Y1080605D01*
X1496764Y1080078D01*
X1497264Y1079550D01*
X1497764Y1079051D01*
X1497986Y1078828D01*
X1498208Y1078662D01*
X1498374Y1078495D01*
X1498486Y1078384D01*
X1498569Y1078301D01*
X1498597Y1078273D01*
X1499152Y1077746D01*
X1499652Y1077246D01*
X1500123Y1076774D01*
X1500540Y1076357D01*
X1500929Y1075941D01*
X1501262Y1075552D01*
X1501567Y1075219D01*
X1501817Y1074886D01*
X1502039Y1074609D01*
X1502233Y1074359D01*
X1502400Y1074164D01*
X1502511Y1073970D01*
X1502622Y1073859D01*
X1502678Y1073748D01*
X1502733Y1073692D01*
Y1073665D01*
X1503094Y1073026D01*
X1503372Y1072360D01*
X1503594Y1071749D01*
X1503760Y1071194D01*
X1503871Y1070694D01*
X1503899Y1070500D01*
X1503927Y1070333D01*
X1503955Y1070194D01*
X1503983Y1070083D01*
Y1070028D01*
Y1070000D01*
X1491073D01*
Y1073415D01*
X1498402D01*
X1498180Y1073776D01*
X1497930Y1074081D01*
X1497819Y1074220D01*
X1497736Y1074331D01*
X1497681Y1074386D01*
X1497653Y1074414D01*
X1497542Y1074525D01*
X1497431Y1074664D01*
X1497097Y1074969D01*
X1496737Y1075330D01*
X1496376Y1075691D01*
X1496015Y1076024D01*
X1495709Y1076302D01*
X1495598Y1076413D01*
X1495515Y1076496D01*
X1495459Y1076524D01*
X1495432Y1076552D01*
X1494821Y1077135D01*
X1494321Y1077607D01*
X1493905Y1078051D01*
X1493572Y1078384D01*
X1493322Y1078662D01*
X1493155Y1078856D01*
X1493044Y1078995D01*
X1493016Y1079023D01*
X1492655Y1079495D01*
X1492350Y1079939D01*
X1492100Y1080355D01*
X1491906Y1080716D01*
X1491739Y1081022D01*
X1491628Y1081271D01*
X1491573Y1081410D01*
X1491545Y1081466D01*
X1491378Y1081910D01*
X1491267Y1082354D01*
X1491184Y1082771D01*
X1491129Y1083159D01*
X1491101Y1083465D01*
X1491073Y1083715D01*
Y1083881D01*
Y1083937D01*
X1491101Y1084353D01*
X1491156Y1084770D01*
X1491212Y1085158D01*
X1491323Y1085519D01*
X1491600Y1086158D01*
X1491878Y1086713D01*
X1492045Y1086963D01*
X1492184Y1087157D01*
X1492322Y1087351D01*
X1492461Y1087490D01*
X1492572Y1087601D01*
X1492628Y1087712D01*
X1492683Y1087740D01*
X1492711Y1087768D01*
X1493016Y1088045D01*
X1493377Y1088295D01*
X1493710Y1088490D01*
X1494099Y1088656D01*
X1494821Y1088934D01*
X1495543Y1089128D01*
X1495876Y1089184D01*
X1496181Y1089239D01*
X1496459Y1089267D01*
X1496709Y1089295D01*
X1496903Y1089323D01*
X1497181D01*
X1497653Y1089295D01*
D02*
G37*
G36*
X1512311Y1088684D02*
X1512672Y1088101D01*
X1513061Y1087546D01*
X1513449Y1087102D01*
X1513783Y1086741D01*
X1514088Y1086463D01*
X1514199Y1086352D01*
X1514282Y1086269D01*
X1514338Y1086241D01*
X1514366Y1086213D01*
X1514976Y1085769D01*
X1515559Y1085380D01*
X1516087Y1085075D01*
X1516559Y1084853D01*
X1516947Y1084686D01*
X1517225Y1084547D01*
X1517336Y1084520D01*
X1517419Y1084492D01*
X1517447Y1084464D01*
X1517475D01*
Y1081133D01*
X1516476Y1081521D01*
X1515587Y1081938D01*
X1515171Y1082160D01*
X1514782Y1082410D01*
X1514421Y1082632D01*
X1514088Y1082854D01*
X1513783Y1083076D01*
X1513505Y1083270D01*
X1513283Y1083437D01*
X1513089Y1083604D01*
X1512922Y1083742D01*
X1512811Y1083826D01*
X1512755Y1083881D01*
X1512728Y1083909D01*
Y1070000D01*
X1509035D01*
Y1089323D01*
X1512034D01*
X1512311Y1088684D01*
D02*
G37*
G36*
X1529135Y1081188D02*
X1534160D01*
Y1077746D01*
X1529135D01*
Y1072776D01*
X1525776D01*
Y1077746D01*
X1520723D01*
Y1081188D01*
X1525776D01*
Y1086158D01*
X1529135D01*
Y1081188D01*
D02*
G37*
G36*
X1527067Y20000D02*
X1522847D01*
X1519016Y34353D01*
X1515240Y20000D01*
X1511048D01*
X1506412Y39211D01*
X1510326D01*
X1513269Y25775D01*
X1516601Y39211D01*
X1521265D01*
X1524763Y25997D01*
X1527650Y39211D01*
X1531620D01*
X1527067Y20000D01*
D02*
G37*
G36*
X1617077Y39906D02*
X1617965Y39794D01*
X1618354Y39711D01*
X1618743Y39628D01*
X1619104Y39545D01*
X1619409Y39461D01*
X1619687Y39350D01*
X1619964Y39267D01*
X1620159Y39184D01*
X1620353Y39128D01*
X1620492Y39045D01*
X1620603Y39017D01*
X1620658Y38962D01*
X1620686D01*
X1621547Y38462D01*
X1621908Y38156D01*
X1622269Y37879D01*
X1622602Y37573D01*
X1622907Y37268D01*
X1623185Y36963D01*
X1623434Y36685D01*
X1623629Y36407D01*
X1623823Y36158D01*
X1623990Y35935D01*
X1624129Y35741D01*
X1624212Y35575D01*
X1624295Y35464D01*
X1624323Y35380D01*
X1624351Y35352D01*
X1624573Y34908D01*
X1624767Y34464D01*
X1625072Y33548D01*
X1625295Y32632D01*
X1625433Y31827D01*
X1625489Y31438D01*
X1625544Y31105D01*
X1625572Y30800D01*
Y30522D01*
X1625600Y30327D01*
Y30161D01*
Y30050D01*
Y30022D01*
X1625544Y28995D01*
X1625433Y28051D01*
X1625239Y27190D01*
X1625156Y26774D01*
X1625045Y26413D01*
X1624934Y26080D01*
X1624850Y25775D01*
X1624739Y25525D01*
X1624656Y25303D01*
X1624601Y25136D01*
X1624545Y24997D01*
X1624489Y24914D01*
Y24886D01*
X1624018Y24053D01*
X1623490Y23331D01*
X1622935Y22693D01*
X1622380Y22193D01*
X1622130Y21971D01*
X1621880Y21777D01*
X1621685Y21610D01*
X1621491Y21499D01*
X1621352Y21388D01*
X1621214Y21305D01*
X1621158Y21277D01*
X1621130Y21249D01*
X1620686Y21027D01*
X1620270Y20833D01*
X1619353Y20528D01*
X1618465Y20305D01*
X1617660Y20167D01*
X1617271Y20111D01*
X1616938Y20055D01*
X1616633Y20028D01*
X1616355D01*
X1616161Y20000D01*
X1615856D01*
X1614967Y20028D01*
X1614134Y20139D01*
X1613329Y20278D01*
X1612635Y20444D01*
X1612330Y20528D01*
X1612052Y20611D01*
X1611802Y20694D01*
X1611580Y20750D01*
X1611414Y20805D01*
X1611302Y20861D01*
X1611219Y20888D01*
X1611191D01*
X1610359Y21221D01*
X1609664Y21583D01*
X1609054Y21943D01*
X1608526Y22249D01*
X1608138Y22526D01*
X1607999Y22637D01*
X1607860Y22748D01*
X1607777Y22832D01*
X1607693Y22887D01*
X1607638Y22943D01*
Y30661D01*
X1615994D01*
Y27413D01*
X1611552D01*
Y24942D01*
X1611886Y24692D01*
X1612246Y24470D01*
X1612607Y24275D01*
X1612940Y24109D01*
X1613218Y23970D01*
X1613468Y23859D01*
X1613607Y23803D01*
X1613634Y23776D01*
X1613662D01*
X1614106Y23609D01*
X1614551Y23498D01*
X1614967Y23415D01*
X1615328Y23359D01*
X1615661Y23331D01*
X1615883Y23304D01*
X1616105D01*
X1616550Y23331D01*
X1616994Y23387D01*
X1617382Y23470D01*
X1617771Y23581D01*
X1618465Y23859D01*
X1618743Y23998D01*
X1619020Y24164D01*
X1619270Y24331D01*
X1619492Y24470D01*
X1619659Y24636D01*
X1619825Y24747D01*
X1619937Y24858D01*
X1620020Y24942D01*
X1620075Y24997D01*
X1620103Y25025D01*
X1620353Y25358D01*
X1620603Y25747D01*
X1620797Y26135D01*
X1620964Y26552D01*
X1621241Y27413D01*
X1621408Y28245D01*
X1621463Y28634D01*
X1621519Y29023D01*
X1621547Y29328D01*
X1621575Y29634D01*
X1621602Y29856D01*
Y30050D01*
Y30161D01*
Y30189D01*
X1621575Y30772D01*
X1621547Y31299D01*
X1621463Y31827D01*
X1621380Y32299D01*
X1621269Y32715D01*
X1621130Y33104D01*
X1620992Y33465D01*
X1620853Y33798D01*
X1620742Y34075D01*
X1620603Y34325D01*
X1620464Y34520D01*
X1620353Y34686D01*
X1620270Y34825D01*
X1620186Y34908D01*
X1620159Y34964D01*
X1620131Y34992D01*
X1619825Y35269D01*
X1619520Y35547D01*
X1619187Y35741D01*
X1618854Y35935D01*
X1618521Y36102D01*
X1618188Y36241D01*
X1617549Y36435D01*
X1617244Y36491D01*
X1616966Y36546D01*
X1616716Y36574D01*
X1616494Y36602D01*
X1616327Y36630D01*
X1616078D01*
X1615467Y36602D01*
X1614939Y36491D01*
X1614467Y36380D01*
X1614051Y36213D01*
X1613746Y36074D01*
X1613496Y35935D01*
X1613357Y35824D01*
X1613301Y35797D01*
X1612913Y35464D01*
X1612579Y35103D01*
X1612302Y34742D01*
X1612108Y34381D01*
X1611941Y34048D01*
X1611830Y33798D01*
X1611774Y33631D01*
X1611747Y33603D01*
Y33576D01*
X1607888Y34297D01*
X1607999Y34769D01*
X1608165Y35241D01*
X1608332Y35658D01*
X1608554Y36047D01*
X1608748Y36435D01*
X1608970Y36768D01*
X1609193Y37074D01*
X1609415Y37351D01*
X1609637Y37601D01*
X1609831Y37823D01*
X1609998Y38018D01*
X1610164Y38156D01*
X1610303Y38268D01*
X1610414Y38379D01*
X1610470Y38406D01*
X1610497Y38434D01*
X1610886Y38712D01*
X1611302Y38934D01*
X1611747Y39128D01*
X1612219Y39295D01*
X1613135Y39572D01*
X1614023Y39739D01*
X1614440Y39822D01*
X1614828Y39850D01*
X1615189Y39878D01*
X1615495Y39906D01*
X1615744Y39933D01*
X1616078D01*
X1617077Y39906D01*
D02*
G37*
G36*
X1574800Y20000D02*
X1566471D01*
X1565999Y20028D01*
X1565166D01*
X1564833Y20055D01*
X1564306D01*
X1564112Y20083D01*
X1563834D01*
X1563723Y20111D01*
X1563612D01*
X1563057Y20194D01*
X1562557Y20333D01*
X1562113Y20472D01*
X1561724Y20638D01*
X1561419Y20777D01*
X1561196Y20916D01*
X1561058Y20999D01*
X1561002Y21027D01*
X1560614Y21333D01*
X1560308Y21666D01*
X1560003Y21971D01*
X1559781Y22304D01*
X1559586Y22582D01*
X1559447Y22804D01*
X1559364Y22943D01*
X1559337Y22998D01*
X1559142Y23470D01*
X1558976Y23914D01*
X1558864Y24359D01*
X1558809Y24747D01*
X1558753Y25080D01*
X1558726Y25330D01*
Y25497D01*
Y25525D01*
Y25552D01*
X1558753Y26163D01*
X1558864Y26718D01*
X1559031Y27190D01*
X1559198Y27635D01*
X1559364Y27968D01*
X1559531Y28218D01*
X1559642Y28384D01*
X1559670Y28440D01*
X1560058Y28884D01*
X1560475Y29245D01*
X1560947Y29550D01*
X1561363Y29772D01*
X1561752Y29967D01*
X1562085Y30106D01*
X1562196Y30133D01*
X1562279Y30161D01*
X1562335Y30189D01*
X1562363D01*
X1561918Y30439D01*
X1561530Y30689D01*
X1561196Y30994D01*
X1560919Y31244D01*
X1560725Y31494D01*
X1560558Y31688D01*
X1560447Y31827D01*
X1560419Y31882D01*
X1560169Y32326D01*
X1559975Y32743D01*
X1559864Y33159D01*
X1559753Y33548D01*
X1559697Y33881D01*
X1559670Y34131D01*
Y34297D01*
Y34325D01*
Y34353D01*
X1559697Y34797D01*
X1559753Y35241D01*
X1559864Y35602D01*
X1559975Y35935D01*
X1560086Y36213D01*
X1560197Y36435D01*
X1560253Y36546D01*
X1560280Y36602D01*
X1560502Y36963D01*
X1560752Y37268D01*
X1561002Y37546D01*
X1561224Y37796D01*
X1561446Y37962D01*
X1561613Y38101D01*
X1561724Y38184D01*
X1561752Y38212D01*
X1562085Y38434D01*
X1562446Y38601D01*
X1562779Y38740D01*
X1563084Y38851D01*
X1563362Y38934D01*
X1563556Y38989D01*
X1563695Y39017D01*
X1563751D01*
X1564223Y39073D01*
X1564750Y39128D01*
X1565305Y39156D01*
X1565861Y39184D01*
X1566360Y39211D01*
X1574800D01*
Y20000D01*
D02*
G37*
G36*
X1676400D02*
X1672513D01*
Y28023D01*
X1671264D01*
X1670875Y27996D01*
X1670542Y27968D01*
X1670265Y27912D01*
X1670043Y27885D01*
X1669904Y27829D01*
X1669820Y27801D01*
X1669793D01*
X1669570Y27690D01*
X1669348Y27579D01*
X1669154Y27440D01*
X1668960Y27329D01*
X1668821Y27190D01*
X1668710Y27079D01*
X1668654Y27024D01*
X1668627Y26996D01*
X1668515Y26857D01*
X1668377Y26718D01*
X1668071Y26302D01*
X1667738Y25858D01*
X1667377Y25358D01*
X1667072Y24914D01*
X1666933Y24692D01*
X1666822Y24525D01*
X1666711Y24386D01*
X1666628Y24275D01*
X1666600Y24192D01*
X1666572Y24164D01*
X1663796Y20000D01*
X1659132D01*
X1661492Y23748D01*
X1661742Y24137D01*
X1661991Y24525D01*
X1662213Y24858D01*
X1662436Y25164D01*
X1662630Y25441D01*
X1662796Y25719D01*
X1663130Y26135D01*
X1663380Y26469D01*
X1663546Y26691D01*
X1663685Y26830D01*
X1663713Y26857D01*
X1664018Y27190D01*
X1664379Y27496D01*
X1664712Y27746D01*
X1665045Y27996D01*
X1665323Y28190D01*
X1665545Y28329D01*
X1665712Y28440D01*
X1665739Y28468D01*
X1665767D01*
X1665295Y28551D01*
X1664879Y28662D01*
X1664490Y28773D01*
X1664101Y28912D01*
X1663768Y29051D01*
X1663463Y29189D01*
X1663157Y29328D01*
X1662908Y29495D01*
X1662686Y29634D01*
X1662491Y29772D01*
X1662325Y29911D01*
X1662213Y30022D01*
X1662103Y30106D01*
X1662019Y30189D01*
X1661991Y30217D01*
X1661964Y30244D01*
X1661742Y30522D01*
X1661547Y30800D01*
X1661214Y31410D01*
X1660992Y31993D01*
X1660853Y32576D01*
X1660742Y33076D01*
X1660714Y33270D01*
Y33465D01*
X1660687Y33603D01*
Y33742D01*
Y33798D01*
Y33826D01*
X1660714Y34436D01*
X1660825Y35019D01*
X1660964Y35519D01*
X1661103Y35963D01*
X1661270Y36324D01*
X1661408Y36602D01*
X1661464Y36685D01*
X1661519Y36768D01*
X1661547Y36796D01*
Y36824D01*
X1661880Y37296D01*
X1662241Y37685D01*
X1662602Y37990D01*
X1662963Y38268D01*
X1663296Y38434D01*
X1663546Y38573D01*
X1663713Y38656D01*
X1663740Y38684D01*
X1663768D01*
X1664046Y38767D01*
X1664351Y38851D01*
X1665045Y38989D01*
X1665795Y39073D01*
X1666517Y39156D01*
X1666878D01*
X1667183Y39184D01*
X1667488D01*
X1667738Y39211D01*
X1676400D01*
Y20000D01*
D02*
G37*
G36*
X1705933Y39295D02*
X1706377Y39267D01*
X1707238Y39128D01*
X1707959Y38906D01*
X1708293Y38795D01*
X1708598Y38656D01*
X1708875Y38545D01*
X1709098Y38406D01*
X1709320Y38295D01*
X1709486Y38212D01*
X1709625Y38101D01*
X1709708Y38045D01*
X1709764Y38018D01*
X1709792Y37990D01*
X1710097Y37712D01*
X1710375Y37435D01*
X1710625Y37102D01*
X1710847Y36741D01*
X1711180Y36019D01*
X1711457Y35325D01*
X1711541Y34964D01*
X1711624Y34659D01*
X1711707Y34381D01*
X1711735Y34131D01*
X1711790Y33909D01*
Y33770D01*
X1711818Y33659D01*
Y33631D01*
X1708154Y33270D01*
X1708098Y33826D01*
X1707987Y34297D01*
X1707876Y34714D01*
X1707737Y35019D01*
X1707626Y35269D01*
X1707515Y35436D01*
X1707432Y35547D01*
X1707404Y35575D01*
X1707126Y35797D01*
X1706821Y35963D01*
X1706516Y36102D01*
X1706210Y36185D01*
X1705961Y36241D01*
X1705738Y36269D01*
X1705544D01*
X1705128Y36241D01*
X1704767Y36158D01*
X1704461Y36047D01*
X1704184Y35935D01*
X1703989Y35824D01*
X1703823Y35713D01*
X1703739Y35630D01*
X1703712Y35602D01*
X1703490Y35325D01*
X1703323Y35019D01*
X1703212Y34714D01*
X1703129Y34409D01*
X1703073Y34131D01*
X1703045Y33881D01*
Y33742D01*
Y33714D01*
Y33687D01*
X1703073Y33270D01*
X1703156Y32882D01*
X1703295Y32493D01*
X1703434Y32160D01*
X1703573Y31855D01*
X1703712Y31632D01*
X1703795Y31494D01*
X1703823Y31438D01*
X1703934Y31272D01*
X1704100Y31077D01*
X1704323Y30827D01*
X1704545Y30605D01*
X1705044Y30078D01*
X1705544Y29550D01*
X1706044Y29051D01*
X1706266Y28828D01*
X1706488Y28662D01*
X1706655Y28495D01*
X1706766Y28384D01*
X1706849Y28301D01*
X1706877Y28273D01*
X1707432Y27746D01*
X1707932Y27246D01*
X1708403Y26774D01*
X1708820Y26358D01*
X1709209Y25941D01*
X1709542Y25552D01*
X1709847Y25219D01*
X1710097Y24886D01*
X1710319Y24609D01*
X1710513Y24359D01*
X1710680Y24164D01*
X1710791Y23970D01*
X1710902Y23859D01*
X1710958Y23748D01*
X1711013Y23692D01*
Y23665D01*
X1711374Y23026D01*
X1711652Y22360D01*
X1711874Y21749D01*
X1712040Y21194D01*
X1712151Y20694D01*
X1712179Y20500D01*
X1712207Y20333D01*
X1712235Y20194D01*
X1712263Y20083D01*
Y20028D01*
Y20000D01*
X1699353D01*
Y23415D01*
X1706682D01*
X1706460Y23776D01*
X1706210Y24081D01*
X1706099Y24220D01*
X1706016Y24331D01*
X1705961Y24386D01*
X1705933Y24414D01*
X1705822Y24525D01*
X1705711Y24664D01*
X1705378Y24969D01*
X1705017Y25330D01*
X1704656Y25691D01*
X1704295Y26024D01*
X1703989Y26302D01*
X1703878Y26413D01*
X1703795Y26496D01*
X1703739Y26524D01*
X1703712Y26552D01*
X1703101Y27135D01*
X1702601Y27607D01*
X1702185Y28051D01*
X1701852Y28384D01*
X1701602Y28662D01*
X1701435Y28856D01*
X1701324Y28995D01*
X1701296Y29023D01*
X1700936Y29495D01*
X1700630Y29939D01*
X1700380Y30355D01*
X1700186Y30716D01*
X1700019Y31022D01*
X1699908Y31272D01*
X1699853Y31410D01*
X1699825Y31466D01*
X1699658Y31910D01*
X1699547Y32354D01*
X1699464Y32771D01*
X1699409Y33159D01*
X1699381Y33465D01*
X1699353Y33714D01*
Y33881D01*
Y33937D01*
X1699381Y34353D01*
X1699436Y34769D01*
X1699492Y35158D01*
X1699603Y35519D01*
X1699881Y36158D01*
X1700158Y36713D01*
X1700325Y36963D01*
X1700464Y37157D01*
X1700602Y37351D01*
X1700741Y37490D01*
X1700852Y37601D01*
X1700908Y37712D01*
X1700963Y37740D01*
X1700991Y37768D01*
X1701296Y38045D01*
X1701657Y38295D01*
X1701991Y38490D01*
X1702379Y38656D01*
X1703101Y38934D01*
X1703823Y39128D01*
X1704156Y39184D01*
X1704461Y39239D01*
X1704739Y39267D01*
X1704989Y39295D01*
X1705183Y39323D01*
X1705461D01*
X1705933Y39295D01*
D02*
G37*
G36*
X1720591Y38684D02*
X1720952Y38101D01*
X1721341Y37546D01*
X1721729Y37102D01*
X1722063Y36741D01*
X1722368Y36463D01*
X1722479Y36352D01*
X1722562Y36269D01*
X1722618Y36241D01*
X1722646Y36213D01*
X1723256Y35769D01*
X1723839Y35380D01*
X1724367Y35075D01*
X1724839Y34853D01*
X1725227Y34686D01*
X1725505Y34547D01*
X1725616Y34520D01*
X1725699Y34492D01*
X1725727Y34464D01*
X1725755D01*
Y31133D01*
X1724756Y31521D01*
X1723867Y31938D01*
X1723451Y32160D01*
X1723062Y32410D01*
X1722701Y32632D01*
X1722368Y32854D01*
X1722063Y33076D01*
X1721785Y33270D01*
X1721563Y33437D01*
X1721369Y33603D01*
X1721202Y33742D01*
X1721091Y33826D01*
X1721035Y33881D01*
X1721008Y33909D01*
Y20000D01*
X1717315D01*
Y39323D01*
X1720314D01*
X1720591Y38684D01*
D02*
G37*
G36*
X1737415Y31188D02*
X1742440D01*
Y27746D01*
X1737415D01*
Y22776D01*
X1734056D01*
Y27746D01*
X1729003D01*
Y31188D01*
X1734056D01*
Y36158D01*
X1737415D01*
Y31188D01*
D02*
G37*
G36*
X1567180Y1070000D02*
X1563293D01*
Y1078023D01*
X1562044D01*
X1561655Y1077996D01*
X1561322Y1077968D01*
X1561045Y1077912D01*
X1560822Y1077885D01*
X1560684Y1077829D01*
X1560600Y1077801D01*
X1560573D01*
X1560350Y1077690D01*
X1560128Y1077579D01*
X1559934Y1077440D01*
X1559740Y1077329D01*
X1559601Y1077190D01*
X1559490Y1077079D01*
X1559434Y1077024D01*
X1559407Y1076996D01*
X1559296Y1076857D01*
X1559157Y1076718D01*
X1558851Y1076302D01*
X1558518Y1075858D01*
X1558157Y1075358D01*
X1557852Y1074914D01*
X1557713Y1074692D01*
X1557602Y1074525D01*
X1557491Y1074386D01*
X1557408Y1074275D01*
X1557380Y1074192D01*
X1557352Y1074164D01*
X1554576Y1070000D01*
X1549912D01*
X1552272Y1073748D01*
X1552522Y1074137D01*
X1552771Y1074525D01*
X1552993Y1074858D01*
X1553216Y1075164D01*
X1553410Y1075441D01*
X1553577Y1075719D01*
X1553910Y1076135D01*
X1554160Y1076469D01*
X1554326Y1076691D01*
X1554465Y1076830D01*
X1554493Y1076857D01*
X1554798Y1077190D01*
X1555159Y1077496D01*
X1555492Y1077746D01*
X1555825Y1077996D01*
X1556103Y1078190D01*
X1556325Y1078329D01*
X1556492Y1078440D01*
X1556519Y1078467D01*
X1556547D01*
X1556075Y1078551D01*
X1555659Y1078662D01*
X1555270Y1078773D01*
X1554881Y1078912D01*
X1554548Y1079051D01*
X1554243Y1079189D01*
X1553937Y1079328D01*
X1553688Y1079495D01*
X1553466Y1079633D01*
X1553271Y1079772D01*
X1553105Y1079911D01*
X1552993Y1080022D01*
X1552883Y1080105D01*
X1552799Y1080189D01*
X1552771Y1080217D01*
X1552744Y1080244D01*
X1552522Y1080522D01*
X1552327Y1080799D01*
X1551994Y1081410D01*
X1551772Y1081993D01*
X1551633Y1082576D01*
X1551522Y1083076D01*
X1551494Y1083270D01*
Y1083465D01*
X1551467Y1083604D01*
Y1083742D01*
Y1083798D01*
Y1083826D01*
X1551494Y1084436D01*
X1551605Y1085019D01*
X1551744Y1085519D01*
X1551883Y1085963D01*
X1552050Y1086324D01*
X1552188Y1086602D01*
X1552244Y1086685D01*
X1552299Y1086768D01*
X1552327Y1086796D01*
Y1086824D01*
X1552660Y1087296D01*
X1553021Y1087684D01*
X1553382Y1087990D01*
X1553743Y1088268D01*
X1554076Y1088434D01*
X1554326Y1088573D01*
X1554493Y1088656D01*
X1554520Y1088684D01*
X1554548D01*
X1554826Y1088767D01*
X1555131Y1088850D01*
X1555825Y1088989D01*
X1556575Y1089073D01*
X1557297Y1089156D01*
X1557658D01*
X1557963Y1089184D01*
X1558268D01*
X1558518Y1089211D01*
X1567180D01*
Y1070000D01*
D02*
G37*
G36*
X1666240D02*
X1657911D01*
X1657439Y1070028D01*
X1656606D01*
X1656273Y1070055D01*
X1655746D01*
X1655552Y1070083D01*
X1655274D01*
X1655163Y1070111D01*
X1655052D01*
X1654497Y1070194D01*
X1653997Y1070333D01*
X1653553Y1070472D01*
X1653164Y1070639D01*
X1652859Y1070777D01*
X1652637Y1070916D01*
X1652498Y1070999D01*
X1652442Y1071027D01*
X1652054Y1071333D01*
X1651748Y1071666D01*
X1651443Y1071971D01*
X1651221Y1072304D01*
X1651026Y1072582D01*
X1650887Y1072804D01*
X1650804Y1072943D01*
X1650777Y1072998D01*
X1650582Y1073470D01*
X1650415Y1073914D01*
X1650305Y1074359D01*
X1650249Y1074747D01*
X1650193Y1075080D01*
X1650166Y1075330D01*
Y1075497D01*
Y1075525D01*
Y1075552D01*
X1650193Y1076163D01*
X1650305Y1076718D01*
X1650471Y1077190D01*
X1650638Y1077635D01*
X1650804Y1077968D01*
X1650971Y1078218D01*
X1651082Y1078384D01*
X1651110Y1078440D01*
X1651498Y1078884D01*
X1651915Y1079245D01*
X1652387Y1079550D01*
X1652803Y1079772D01*
X1653192Y1079967D01*
X1653525Y1080105D01*
X1653636Y1080133D01*
X1653719Y1080161D01*
X1653775Y1080189D01*
X1653802D01*
X1653358Y1080439D01*
X1652970Y1080688D01*
X1652637Y1080994D01*
X1652359Y1081244D01*
X1652165Y1081494D01*
X1651998Y1081688D01*
X1651887Y1081827D01*
X1651859Y1081882D01*
X1651609Y1082326D01*
X1651415Y1082743D01*
X1651304Y1083159D01*
X1651193Y1083548D01*
X1651137Y1083881D01*
X1651110Y1084131D01*
Y1084297D01*
Y1084325D01*
Y1084353D01*
X1651137Y1084797D01*
X1651193Y1085241D01*
X1651304Y1085602D01*
X1651415Y1085936D01*
X1651526Y1086213D01*
X1651637Y1086435D01*
X1651693Y1086546D01*
X1651720Y1086602D01*
X1651942Y1086963D01*
X1652192Y1087268D01*
X1652442Y1087546D01*
X1652664Y1087796D01*
X1652886Y1087962D01*
X1653053Y1088101D01*
X1653164Y1088184D01*
X1653192Y1088212D01*
X1653525Y1088434D01*
X1653886Y1088601D01*
X1654219Y1088739D01*
X1654524Y1088850D01*
X1654802Y1088934D01*
X1654996Y1088989D01*
X1655135Y1089017D01*
X1655191D01*
X1655663Y1089073D01*
X1656190Y1089128D01*
X1656745Y1089156D01*
X1657301Y1089184D01*
X1657800Y1089211D01*
X1666240D01*
Y1070000D01*
D02*
G37*
G36*
X1609457Y1089905D02*
X1610345Y1089794D01*
X1610734Y1089711D01*
X1611123Y1089628D01*
X1611484Y1089545D01*
X1611789Y1089461D01*
X1612067Y1089350D01*
X1612344Y1089267D01*
X1612539Y1089184D01*
X1612733Y1089128D01*
X1612872Y1089045D01*
X1612983Y1089017D01*
X1613038Y1088962D01*
X1613066D01*
X1613927Y1088462D01*
X1614288Y1088157D01*
X1614648Y1087879D01*
X1614982Y1087573D01*
X1615287Y1087268D01*
X1615565Y1086963D01*
X1615815Y1086685D01*
X1616009Y1086407D01*
X1616203Y1086158D01*
X1616370Y1085936D01*
X1616509Y1085741D01*
X1616592Y1085575D01*
X1616675Y1085463D01*
X1616703Y1085380D01*
X1616731Y1085352D01*
X1616953Y1084908D01*
X1617147Y1084464D01*
X1617453Y1083548D01*
X1617675Y1082632D01*
X1617813Y1081827D01*
X1617869Y1081438D01*
X1617924Y1081105D01*
X1617952Y1080799D01*
Y1080522D01*
X1617980Y1080328D01*
Y1080161D01*
Y1080050D01*
Y1080022D01*
X1617924Y1078995D01*
X1617813Y1078051D01*
X1617619Y1077190D01*
X1617536Y1076774D01*
X1617425Y1076413D01*
X1617314Y1076080D01*
X1617230Y1075775D01*
X1617119Y1075525D01*
X1617036Y1075303D01*
X1616981Y1075136D01*
X1616925Y1074997D01*
X1616870Y1074914D01*
Y1074886D01*
X1616398Y1074053D01*
X1615870Y1073332D01*
X1615315Y1072693D01*
X1614760Y1072193D01*
X1614510Y1071971D01*
X1614260Y1071777D01*
X1614066Y1071610D01*
X1613871Y1071499D01*
X1613732Y1071388D01*
X1613594Y1071305D01*
X1613538Y1071277D01*
X1613510Y1071249D01*
X1613066Y1071027D01*
X1612650Y1070833D01*
X1611734Y1070527D01*
X1610845Y1070305D01*
X1610040Y1070167D01*
X1609651Y1070111D01*
X1609318Y1070055D01*
X1609013Y1070028D01*
X1608735D01*
X1608541Y1070000D01*
X1608235D01*
X1607347Y1070028D01*
X1606514Y1070139D01*
X1605709Y1070278D01*
X1605015Y1070444D01*
X1604710Y1070527D01*
X1604432Y1070611D01*
X1604182Y1070694D01*
X1603960Y1070750D01*
X1603793Y1070805D01*
X1603683Y1070861D01*
X1603599Y1070888D01*
X1603571D01*
X1602739Y1071221D01*
X1602045Y1071582D01*
X1601434Y1071943D01*
X1600906Y1072249D01*
X1600518Y1072526D01*
X1600379Y1072637D01*
X1600240Y1072748D01*
X1600157Y1072832D01*
X1600073Y1072887D01*
X1600018Y1072943D01*
Y1080661D01*
X1608374D01*
Y1077412D01*
X1603932D01*
Y1074942D01*
X1604265Y1074692D01*
X1604626Y1074470D01*
X1604987Y1074275D01*
X1605320Y1074109D01*
X1605598Y1073970D01*
X1605848Y1073859D01*
X1605987Y1073803D01*
X1606015Y1073776D01*
X1606042D01*
X1606486Y1073609D01*
X1606931Y1073498D01*
X1607347Y1073415D01*
X1607708Y1073359D01*
X1608041Y1073332D01*
X1608263Y1073304D01*
X1608485D01*
X1608929Y1073332D01*
X1609374Y1073387D01*
X1609762Y1073470D01*
X1610151Y1073581D01*
X1610845Y1073859D01*
X1611123Y1073998D01*
X1611400Y1074164D01*
X1611650Y1074331D01*
X1611872Y1074470D01*
X1612039Y1074636D01*
X1612206Y1074747D01*
X1612316Y1074858D01*
X1612400Y1074942D01*
X1612455Y1074997D01*
X1612483Y1075025D01*
X1612733Y1075358D01*
X1612983Y1075747D01*
X1613177Y1076135D01*
X1613344Y1076552D01*
X1613621Y1077412D01*
X1613788Y1078245D01*
X1613843Y1078634D01*
X1613899Y1079023D01*
X1613927Y1079328D01*
X1613954Y1079633D01*
X1613982Y1079856D01*
Y1080050D01*
Y1080161D01*
Y1080189D01*
X1613954Y1080772D01*
X1613927Y1081299D01*
X1613843Y1081827D01*
X1613760Y1082299D01*
X1613649Y1082715D01*
X1613510Y1083104D01*
X1613371Y1083465D01*
X1613233Y1083798D01*
X1613122Y1084075D01*
X1612983Y1084325D01*
X1612844Y1084520D01*
X1612733Y1084686D01*
X1612650Y1084825D01*
X1612566Y1084908D01*
X1612539Y1084964D01*
X1612511Y1084992D01*
X1612206Y1085269D01*
X1611900Y1085547D01*
X1611567Y1085741D01*
X1611234Y1085936D01*
X1610901Y1086102D01*
X1610567Y1086241D01*
X1609929Y1086435D01*
X1609624Y1086491D01*
X1609346Y1086546D01*
X1609096Y1086574D01*
X1608874Y1086602D01*
X1608707Y1086630D01*
X1608458D01*
X1607847Y1086602D01*
X1607319Y1086491D01*
X1606847Y1086380D01*
X1606431Y1086213D01*
X1606125Y1086074D01*
X1605876Y1085936D01*
X1605737Y1085824D01*
X1605681Y1085797D01*
X1605293Y1085463D01*
X1604960Y1085103D01*
X1604682Y1084742D01*
X1604488Y1084381D01*
X1604321Y1084048D01*
X1604210Y1083798D01*
X1604154Y1083631D01*
X1604127Y1083604D01*
Y1083576D01*
X1600268Y1084297D01*
X1600379Y1084770D01*
X1600545Y1085241D01*
X1600712Y1085658D01*
X1600934Y1086047D01*
X1601128Y1086435D01*
X1601350Y1086768D01*
X1601573Y1087074D01*
X1601795Y1087351D01*
X1602017Y1087601D01*
X1602211Y1087823D01*
X1602378Y1088018D01*
X1602544Y1088157D01*
X1602683Y1088268D01*
X1602794Y1088379D01*
X1602850Y1088406D01*
X1602877Y1088434D01*
X1603266Y1088712D01*
X1603683Y1088934D01*
X1604127Y1089128D01*
X1604599Y1089295D01*
X1605515Y1089572D01*
X1606403Y1089739D01*
X1606820Y1089822D01*
X1607208Y1089850D01*
X1607569Y1089878D01*
X1607875Y1089905D01*
X1608124Y1089933D01*
X1608458D01*
X1609457Y1089905D01*
D02*
G37*
G36*
X1720107Y1070000D02*
X1715887D01*
X1712056Y1084353D01*
X1708280Y1070000D01*
X1704088D01*
X1699452Y1089211D01*
X1703366D01*
X1706309Y1075775D01*
X1709641Y1089211D01*
X1714305D01*
X1717803Y1075997D01*
X1720690Y1089211D01*
X1724660D01*
X1720107Y1070000D01*
D02*
G37*
%LPC*%
G36*
X1363980Y517967D02*
X1362392D01*
Y464627D01*
X1363980D01*
Y517967D01*
D02*
G37*
G36*
X1359218D02*
X1357630D01*
Y464627D01*
X1359218D01*
Y517967D01*
D02*
G37*
G36*
X1356042D02*
X1352867D01*
Y464627D01*
X1356042D01*
Y517967D01*
D02*
G37*
G36*
X1351280D02*
X1348105D01*
Y464627D01*
X1351280D01*
Y517967D01*
D02*
G37*
G36*
X1346517D02*
X1344930D01*
Y464627D01*
X1346517D01*
Y517967D01*
D02*
G37*
G36*
X1343342D02*
X1341755D01*
Y464627D01*
X1343342D01*
Y517967D01*
D02*
G37*
G36*
X1340168D02*
X1336992D01*
Y464627D01*
X1340168D01*
Y517967D01*
D02*
G37*
G36*
X1335405D02*
X1333817D01*
Y464627D01*
X1335405D01*
Y517967D01*
D02*
G37*
G36*
X1330643D02*
X1327467D01*
Y464627D01*
X1330643D01*
Y517967D01*
D02*
G37*
G36*
X1325880D02*
X1324292D01*
Y464627D01*
X1325880D01*
Y517967D01*
D02*
G37*
G36*
X1322705D02*
X1321118D01*
Y464627D01*
X1322705D01*
Y517967D01*
D02*
G37*
G36*
X1319530D02*
X1316355D01*
Y464627D01*
X1319530D01*
Y517967D01*
D02*
G37*
G36*
X1314767D02*
X1313180D01*
Y464627D01*
X1314767D01*
Y517967D01*
D02*
G37*
G36*
X1310005D02*
X1308418D01*
Y464627D01*
X1310005D01*
Y517967D01*
D02*
G37*
G36*
X1306830D02*
X1303655D01*
Y464627D01*
X1306830D01*
Y517967D01*
D02*
G37*
G36*
X1302068D02*
X1300480D01*
Y464627D01*
X1302068D01*
Y517967D01*
D02*
G37*
G36*
X1297305D02*
X1295717D01*
Y464627D01*
X1297305D01*
Y517967D01*
D02*
G37*
G36*
X1294130D02*
X1292543D01*
Y464627D01*
X1294130D01*
Y517967D01*
D02*
G37*
G36*
X1290955D02*
X1287780D01*
Y464627D01*
X1290955D01*
Y517967D01*
D02*
G37*
G36*
X1286192D02*
X1283017D01*
Y464627D01*
X1286192D01*
Y517967D01*
D02*
G37*
G36*
X1281430D02*
X1279843D01*
Y464627D01*
X1281430D01*
Y517967D01*
D02*
G37*
G36*
X1278255D02*
X1275080D01*
Y464627D01*
X1278255D01*
Y517967D01*
D02*
G37*
G36*
X1271905D02*
X1270318D01*
Y464627D01*
X1271905D01*
Y517967D01*
D02*
G37*
G36*
X1268730D02*
X1267142D01*
Y464627D01*
X1268730D01*
Y517967D01*
D02*
G37*
G36*
X1265555D02*
X1262380D01*
Y464627D01*
X1265555D01*
Y517967D01*
D02*
G37*
G36*
X1260792D02*
X1259205D01*
Y464627D01*
X1260792D01*
Y517967D01*
D02*
G37*
G36*
X1257617D02*
X1254443D01*
Y464627D01*
X1257617D01*
Y517967D01*
D02*
G37*
G36*
X1251267D02*
X1249680D01*
Y464627D01*
X1251267D01*
Y517967D01*
D02*
G37*
G36*
X1248092D02*
X1246505D01*
Y464627D01*
X1248092D01*
Y517967D01*
D02*
G37*
G36*
X1244918D02*
X1241742D01*
Y464627D01*
X1244918D01*
Y517967D01*
D02*
G37*
G36*
X1240155D02*
X1238568D01*
Y464627D01*
X1240155D01*
Y517967D01*
D02*
G37*
G36*
X1235393D02*
X1233805D01*
Y464627D01*
X1235393D01*
Y517967D01*
D02*
G37*
G36*
X1232217D02*
X1230630D01*
Y464627D01*
X1232217D01*
Y517967D01*
D02*
G37*
G36*
X1229043D02*
X1225867D01*
Y464627D01*
X1229043D01*
Y517967D01*
D02*
G37*
G36*
X1224280D02*
X1221105D01*
Y464627D01*
X1224280D01*
Y517967D01*
D02*
G37*
G36*
X1219518D02*
X1216342D01*
Y464627D01*
X1219518D01*
Y517967D01*
D02*
G37*
G36*
X1214755D02*
X1213167D01*
Y464627D01*
X1214755D01*
Y517967D01*
D02*
G37*
G36*
X1209993D02*
X1208405D01*
Y464627D01*
X1209993D01*
Y517967D01*
D02*
G37*
G36*
X1206817D02*
X1205230D01*
Y464627D01*
X1206817D01*
Y517967D01*
D02*
G37*
G36*
X1203643D02*
X1200468D01*
Y464627D01*
X1203643D01*
Y517967D01*
D02*
G37*
G36*
X1198880D02*
X1197292D01*
Y464627D01*
X1198880D01*
Y517967D01*
D02*
G37*
G36*
X1195705D02*
X1194118D01*
Y464627D01*
X1195705D01*
Y517967D01*
D02*
G37*
G36*
X1190943D02*
X1187767D01*
Y464627D01*
X1190943D01*
Y517967D01*
D02*
G37*
G36*
X1186180D02*
X1183005D01*
Y464627D01*
X1186180D01*
Y517967D01*
D02*
G37*
G36*
X1181417D02*
X1179830D01*
Y464627D01*
X1181417D01*
Y517967D01*
D02*
G37*
G36*
X1178242D02*
X1176655D01*
Y464627D01*
X1178242D01*
Y517967D01*
D02*
G37*
G36*
X1173480D02*
X1171892D01*
Y464627D01*
X1173480D01*
Y517967D01*
D02*
G37*
G36*
X1170305D02*
X1168717D01*
Y464627D01*
X1170305D01*
Y517967D01*
D02*
G37*
G36*
X1167130D02*
X1163955D01*
Y464627D01*
X1167130D01*
Y517967D01*
D02*
G37*
G36*
X1162367D02*
X1159193D01*
Y464627D01*
X1162367D01*
Y517967D01*
D02*
G37*
G36*
X1157605D02*
X1156018D01*
Y464627D01*
X1157605D01*
Y517967D01*
D02*
G37*
G36*
X1154430D02*
X1151255D01*
Y464627D01*
X1154430D01*
Y517967D01*
D02*
G37*
G36*
X1148080D02*
X1146492D01*
Y464627D01*
X1148080D01*
Y517967D01*
D02*
G37*
G36*
X1144905D02*
X1141730D01*
Y464627D01*
X1144905D01*
Y517967D01*
D02*
G37*
G36*
X1140143D02*
X1138555D01*
Y464627D01*
X1140143D01*
Y517967D01*
D02*
G37*
G36*
X1136967D02*
X1135380D01*
Y464627D01*
X1136967D01*
Y517967D01*
D02*
G37*
G36*
X1133792D02*
X1132205D01*
Y464627D01*
X1133792D01*
Y517967D01*
D02*
G37*
G36*
X1129030D02*
X1125855D01*
Y464627D01*
X1129030D01*
Y517967D01*
D02*
G37*
G36*
X1124268D02*
X1121093D01*
Y464627D01*
X1124268D01*
Y517967D01*
D02*
G37*
G36*
X1119505D02*
X1117917D01*
Y464627D01*
X1119505D01*
Y517967D01*
D02*
G37*
G36*
X1116330D02*
X1114743D01*
Y464627D01*
X1116330D01*
Y517967D01*
D02*
G37*
G36*
X1111568D02*
X1109980D01*
Y464627D01*
X1111568D01*
Y517967D01*
D02*
G37*
G36*
X1108392D02*
X1105218D01*
Y464627D01*
X1108392D01*
Y517967D01*
D02*
G37*
G36*
X1103630D02*
X1100455D01*
Y464627D01*
X1103630D01*
Y517967D01*
D02*
G37*
G36*
X1098867D02*
X1097280D01*
Y464627D01*
X1098867D01*
Y517967D01*
D02*
G37*
G36*
X1279915Y464457D02*
X1279774D01*
X1279675Y464443D01*
X1279562Y464429D01*
X1279421Y464415D01*
X1279266Y464387D01*
X1279111Y464359D01*
X1278745Y464260D01*
X1278378Y464119D01*
X1278195Y464035D01*
X1278012Y463936D01*
X1277842Y463809D01*
X1277687Y463668D01*
X1277673Y463654D01*
X1277645Y463640D01*
X1277617Y463583D01*
X1277561Y463527D01*
X1277490Y463456D01*
X1277420Y463358D01*
X1277349Y463259D01*
X1277264Y463132D01*
X1277123Y462864D01*
X1276982Y462526D01*
X1276926Y462357D01*
X1276898Y462160D01*
X1276870Y461962D01*
X1276856Y461751D01*
Y461723D01*
Y461652D01*
X1276870Y461539D01*
X1276884Y461384D01*
X1276912Y461215D01*
X1276968Y461018D01*
X1277025Y460806D01*
X1277109Y460595D01*
X1277123Y460567D01*
X1277152Y460496D01*
X1277208Y460383D01*
X1277293Y460228D01*
X1277405Y460059D01*
X1277546Y459848D01*
X1277716Y459636D01*
X1277913Y459397D01*
X1277941Y459368D01*
X1278012Y459284D01*
X1278082Y459213D01*
X1278153Y459143D01*
X1278237Y459058D01*
X1278350Y458946D01*
X1278463Y458833D01*
X1278604Y458706D01*
X1278745Y458565D01*
X1278914Y458410D01*
X1279097Y458255D01*
X1279294Y458072D01*
X1279520Y457888D01*
X1279745Y457691D01*
X1279760Y457677D01*
X1279788Y457649D01*
X1279844Y457606D01*
X1279915Y457550D01*
X1279999Y457465D01*
X1280098Y457381D01*
X1280323Y457197D01*
X1280563Y456986D01*
X1280789Y456775D01*
X1280986Y456591D01*
X1281071Y456521D01*
X1281141Y456450D01*
X1281155Y456436D01*
X1281198Y456394D01*
X1281254Y456338D01*
X1281324Y456253D01*
X1281395Y456154D01*
X1281479Y456056D01*
X1281649Y455816D01*
X1276842D01*
Y454660D01*
X1283312D01*
Y454674D01*
Y454730D01*
Y454815D01*
X1283298Y454928D01*
X1283284Y455055D01*
X1283256Y455196D01*
X1283228Y455337D01*
X1283171Y455492D01*
Y455506D01*
X1283157Y455520D01*
X1283129Y455605D01*
X1283072Y455731D01*
X1282988Y455900D01*
X1282875Y456098D01*
X1282734Y456323D01*
X1282579Y456549D01*
X1282382Y456789D01*
Y456803D01*
X1282354Y456817D01*
X1282283Y456901D01*
X1282156Y457028D01*
X1281973Y457212D01*
X1281761Y457423D01*
X1281494Y457677D01*
X1281169Y457959D01*
X1280817Y458255D01*
X1280803Y458269D01*
X1280746Y458311D01*
X1280662Y458382D01*
X1280563Y458466D01*
X1280436Y458579D01*
X1280281Y458706D01*
X1280126Y458847D01*
X1279943Y459002D01*
X1279591Y459340D01*
X1279238Y459678D01*
X1279069Y459848D01*
X1278914Y460017D01*
X1278773Y460172D01*
X1278660Y460327D01*
Y460341D01*
X1278632Y460355D01*
X1278604Y460397D01*
X1278576Y460454D01*
X1278477Y460609D01*
X1278364Y460792D01*
X1278265Y461018D01*
X1278167Y461257D01*
X1278110Y461525D01*
X1278082Y461779D01*
Y461793D01*
Y461807D01*
X1278096Y461892D01*
X1278110Y462033D01*
X1278153Y462188D01*
X1278209Y462385D01*
X1278308Y462583D01*
X1278435Y462780D01*
X1278604Y462977D01*
X1278632Y463005D01*
X1278702Y463062D01*
X1278801Y463132D01*
X1278956Y463231D01*
X1279154Y463316D01*
X1279379Y463400D01*
X1279647Y463456D01*
X1279943Y463471D01*
X1280027D01*
X1280084Y463456D01*
X1280253Y463442D01*
X1280450Y463400D01*
X1280662Y463344D01*
X1280901Y463245D01*
X1281127Y463118D01*
X1281339Y462949D01*
X1281367Y462921D01*
X1281423Y462850D01*
X1281508Y462738D01*
X1281592Y462568D01*
X1281691Y462371D01*
X1281776Y462117D01*
X1281832Y461835D01*
X1281860Y461511D01*
X1283087Y461638D01*
Y461652D01*
X1283072Y461694D01*
Y461765D01*
X1283058Y461864D01*
X1283030Y461976D01*
X1283002Y462103D01*
X1282960Y462258D01*
X1282917Y462413D01*
X1282805Y462752D01*
X1282635Y463090D01*
X1282537Y463259D01*
X1282410Y463428D01*
X1282283Y463583D01*
X1282142Y463724D01*
X1282128Y463739D01*
X1282100Y463753D01*
X1282057Y463795D01*
X1281987Y463837D01*
X1281902Y463894D01*
X1281804Y463950D01*
X1281691Y464020D01*
X1281550Y464091D01*
X1281395Y464161D01*
X1281226Y464232D01*
X1281042Y464288D01*
X1280845Y464345D01*
X1280634Y464387D01*
X1280408Y464429D01*
X1280168Y464443D01*
X1279915Y464457D01*
D02*
G37*
G36*
X1255669D02*
X1255528D01*
X1255430Y464443D01*
X1255317Y464429D01*
X1255176Y464415D01*
X1255021Y464387D01*
X1254866Y464359D01*
X1254499Y464260D01*
X1254133Y464119D01*
X1253949Y464035D01*
X1253766Y463936D01*
X1253597Y463809D01*
X1253442Y463668D01*
X1253428Y463654D01*
X1253400Y463640D01*
X1253372Y463583D01*
X1253315Y463527D01*
X1253245Y463456D01*
X1253174Y463358D01*
X1253104Y463259D01*
X1253019Y463132D01*
X1252878Y462864D01*
X1252737Y462526D01*
X1252681Y462357D01*
X1252653Y462160D01*
X1252624Y461962D01*
X1252610Y461751D01*
Y461723D01*
Y461652D01*
X1252624Y461539D01*
X1252638Y461384D01*
X1252667Y461215D01*
X1252723Y461018D01*
X1252779Y460806D01*
X1252864Y460595D01*
X1252878Y460567D01*
X1252906Y460496D01*
X1252963Y460383D01*
X1253047Y460228D01*
X1253160Y460059D01*
X1253301Y459848D01*
X1253470Y459636D01*
X1253668Y459397D01*
X1253696Y459368D01*
X1253766Y459284D01*
X1253837Y459213D01*
X1253907Y459143D01*
X1253992Y459058D01*
X1254105Y458946D01*
X1254217Y458833D01*
X1254358Y458706D01*
X1254499Y458565D01*
X1254668Y458410D01*
X1254852Y458255D01*
X1255049Y458072D01*
X1255275Y457888D01*
X1255500Y457691D01*
X1255514Y457677D01*
X1255542Y457649D01*
X1255599Y457606D01*
X1255669Y457550D01*
X1255754Y457465D01*
X1255853Y457381D01*
X1256078Y457197D01*
X1256318Y456986D01*
X1256543Y456775D01*
X1256741Y456591D01*
X1256825Y456521D01*
X1256896Y456450D01*
X1256910Y456436D01*
X1256952Y456394D01*
X1257009Y456338D01*
X1257079Y456253D01*
X1257150Y456154D01*
X1257234Y456056D01*
X1257403Y455816D01*
X1252596D01*
Y454660D01*
X1259067D01*
Y454674D01*
Y454730D01*
Y454815D01*
X1259053Y454928D01*
X1259038Y455055D01*
X1259010Y455196D01*
X1258982Y455337D01*
X1258926Y455492D01*
Y455506D01*
X1258912Y455520D01*
X1258883Y455605D01*
X1258827Y455731D01*
X1258742Y455900D01*
X1258630Y456098D01*
X1258489Y456323D01*
X1258334Y456549D01*
X1258136Y456789D01*
Y456803D01*
X1258108Y456817D01*
X1258038Y456901D01*
X1257911Y457028D01*
X1257727Y457212D01*
X1257516Y457423D01*
X1257248Y457677D01*
X1256924Y457959D01*
X1256572Y458255D01*
X1256557Y458269D01*
X1256501Y458311D01*
X1256416Y458382D01*
X1256318Y458466D01*
X1256191Y458579D01*
X1256036Y458706D01*
X1255881Y458847D01*
X1255697Y459002D01*
X1255345Y459340D01*
X1254993Y459678D01*
X1254823Y459848D01*
X1254668Y460017D01*
X1254527Y460172D01*
X1254415Y460327D01*
Y460341D01*
X1254386Y460355D01*
X1254358Y460397D01*
X1254330Y460454D01*
X1254231Y460609D01*
X1254119Y460792D01*
X1254020Y461018D01*
X1253921Y461257D01*
X1253865Y461525D01*
X1253837Y461779D01*
Y461793D01*
Y461807D01*
X1253851Y461892D01*
X1253865Y462033D01*
X1253907Y462188D01*
X1253963Y462385D01*
X1254062Y462583D01*
X1254189Y462780D01*
X1254358Y462977D01*
X1254386Y463005D01*
X1254457Y463062D01*
X1254556Y463132D01*
X1254711Y463231D01*
X1254908Y463316D01*
X1255134Y463400D01*
X1255401Y463456D01*
X1255697Y463471D01*
X1255782D01*
X1255838Y463456D01*
X1256008Y463442D01*
X1256205Y463400D01*
X1256416Y463344D01*
X1256656Y463245D01*
X1256882Y463118D01*
X1257093Y462949D01*
X1257121Y462921D01*
X1257178Y462850D01*
X1257262Y462738D01*
X1257347Y462568D01*
X1257446Y462371D01*
X1257530Y462117D01*
X1257587Y461835D01*
X1257615Y461511D01*
X1258841Y461638D01*
Y461652D01*
X1258827Y461694D01*
Y461765D01*
X1258813Y461864D01*
X1258785Y461976D01*
X1258756Y462103D01*
X1258714Y462258D01*
X1258672Y462413D01*
X1258559Y462752D01*
X1258390Y463090D01*
X1258291Y463259D01*
X1258164Y463428D01*
X1258038Y463583D01*
X1257897Y463724D01*
X1257883Y463739D01*
X1257854Y463753D01*
X1257812Y463795D01*
X1257741Y463837D01*
X1257657Y463894D01*
X1257558Y463950D01*
X1257446Y464020D01*
X1257305Y464091D01*
X1257150Y464161D01*
X1256980Y464232D01*
X1256797Y464288D01*
X1256600Y464345D01*
X1256388Y464387D01*
X1256163Y464429D01*
X1255923Y464443D01*
X1255669Y464457D01*
D02*
G37*
G36*
X1206671D02*
X1205896D01*
Y454660D01*
X1207094D01*
Y462286D01*
X1207108Y462272D01*
X1207178Y462216D01*
X1207263Y462131D01*
X1207404Y462033D01*
X1207559Y461906D01*
X1207756Y461765D01*
X1207982Y461610D01*
X1208236Y461455D01*
X1208250D01*
X1208264Y461441D01*
X1208348Y461384D01*
X1208489Y461314D01*
X1208659Y461229D01*
X1208856Y461130D01*
X1209067Y461032D01*
X1209279Y460933D01*
X1209490Y460849D01*
Y462005D01*
X1209476D01*
X1209448Y462033D01*
X1209392Y462047D01*
X1209321Y462089D01*
X1209237Y462131D01*
X1209138Y462188D01*
X1208898Y462329D01*
X1208616Y462484D01*
X1208334Y462681D01*
X1208038Y462907D01*
X1207742Y463146D01*
X1207728Y463161D01*
X1207714Y463175D01*
X1207672Y463217D01*
X1207615Y463259D01*
X1207488Y463400D01*
X1207319Y463569D01*
X1207150Y463767D01*
X1206967Y463992D01*
X1206812Y464218D01*
X1206671Y464457D01*
D02*
G37*
G36*
X1134611D02*
X1134512D01*
X1134442Y464443D01*
X1134372D01*
X1134273Y464429D01*
X1134033Y464387D01*
X1133765Y464330D01*
X1133469Y464232D01*
X1133173Y464105D01*
X1132877Y463936D01*
X1132863D01*
X1132849Y463908D01*
X1132807Y463879D01*
X1132750Y463837D01*
X1132609Y463724D01*
X1132426Y463569D01*
X1132243Y463358D01*
X1132031Y463104D01*
X1131848Y462808D01*
X1131679Y462470D01*
Y462456D01*
X1131665Y462427D01*
X1131637Y462371D01*
X1131609Y462301D01*
X1131580Y462202D01*
X1131538Y462075D01*
X1131510Y461934D01*
X1131468Y461779D01*
X1131425Y461596D01*
X1131383Y461384D01*
X1131355Y461159D01*
X1131327Y460919D01*
X1131298Y460651D01*
X1131270Y460369D01*
X1131256Y460059D01*
Y459735D01*
Y459721D01*
Y459650D01*
Y459552D01*
Y459425D01*
X1131270Y459270D01*
Y459086D01*
X1131284Y458875D01*
X1131312Y458663D01*
X1131355Y458184D01*
X1131425Y457677D01*
X1131524Y457197D01*
X1131594Y456958D01*
X1131665Y456746D01*
Y456732D01*
X1131679Y456704D01*
X1131707Y456648D01*
X1131735Y456563D01*
X1131778Y456479D01*
X1131834Y456366D01*
X1131975Y456126D01*
X1132144Y455858D01*
X1132342Y455576D01*
X1132595Y455308D01*
X1132877Y455069D01*
X1132891D01*
X1132920Y455041D01*
X1132962Y455012D01*
X1133018Y454984D01*
X1133103Y454942D01*
X1133187Y454886D01*
X1133300Y454829D01*
X1133413Y454787D01*
X1133681Y454674D01*
X1134005Y454575D01*
X1134358Y454519D01*
X1134752Y454491D01*
X1134865D01*
X1134935Y454505D01*
X1135034D01*
X1135147Y454519D01*
X1135415Y454575D01*
X1135711Y454646D01*
X1136021Y454759D01*
X1136331Y454914D01*
X1136486Y455012D01*
X1136627Y455125D01*
X1136641Y455139D01*
X1136655Y455153D01*
X1136698Y455196D01*
X1136740Y455238D01*
X1136796Y455308D01*
X1136867Y455393D01*
X1137008Y455590D01*
X1137149Y455844D01*
X1137290Y456154D01*
X1137402Y456507D01*
X1137487Y456916D01*
X1136331Y457014D01*
Y457000D01*
X1136317Y456972D01*
Y456944D01*
X1136303Y456887D01*
X1136261Y456732D01*
X1136204Y456563D01*
X1136134Y456366D01*
X1136035Y456168D01*
X1135922Y455985D01*
X1135781Y455830D01*
X1135767Y455816D01*
X1135711Y455774D01*
X1135612Y455717D01*
X1135499Y455661D01*
X1135344Y455590D01*
X1135161Y455534D01*
X1134949Y455492D01*
X1134724Y455478D01*
X1134625D01*
X1134527Y455492D01*
X1134400Y455506D01*
X1134245Y455534D01*
X1134090Y455576D01*
X1133921Y455633D01*
X1133765Y455717D01*
X1133751Y455731D01*
X1133695Y455760D01*
X1133610Y455816D01*
X1133526Y455900D01*
X1133413Y455999D01*
X1133300Y456112D01*
X1133187Y456239D01*
X1133075Y456394D01*
X1133061Y456408D01*
X1133032Y456479D01*
X1132976Y456577D01*
X1132920Y456704D01*
X1132849Y456873D01*
X1132779Y457071D01*
X1132708Y457296D01*
X1132638Y457550D01*
Y457564D01*
X1132624Y457578D01*
Y457620D01*
X1132609Y457677D01*
X1132581Y457818D01*
X1132539Y458001D01*
X1132511Y458227D01*
X1132483Y458466D01*
X1132468Y458734D01*
X1132454Y459016D01*
Y459030D01*
Y459072D01*
Y459143D01*
Y459256D01*
X1132468Y459227D01*
X1132525Y459157D01*
X1132609Y459058D01*
X1132708Y458917D01*
X1132849Y458776D01*
X1133018Y458621D01*
X1133216Y458466D01*
X1133441Y458325D01*
X1133469Y458311D01*
X1133554Y458269D01*
X1133681Y458212D01*
X1133836Y458156D01*
X1134047Y458086D01*
X1134273Y458029D01*
X1134527Y457987D01*
X1134794Y457973D01*
X1134907D01*
X1134992Y457987D01*
X1135105Y458001D01*
X1135217Y458015D01*
X1135358Y458043D01*
X1135499Y458086D01*
X1135824Y458184D01*
X1135993Y458255D01*
X1136162Y458339D01*
X1136345Y458438D01*
X1136514Y458565D01*
X1136684Y458692D01*
X1136839Y458847D01*
X1136853Y458861D01*
X1136881Y458889D01*
X1136909Y458931D01*
X1136965Y459002D01*
X1137036Y459101D01*
X1137106Y459199D01*
X1137177Y459326D01*
X1137247Y459467D01*
X1137332Y459622D01*
X1137402Y459791D01*
X1137473Y459989D01*
X1137543Y460186D01*
X1137600Y460412D01*
X1137628Y460651D01*
X1137656Y460891D01*
X1137670Y461159D01*
Y461173D01*
Y461229D01*
Y461300D01*
X1137656Y461398D01*
X1137642Y461525D01*
X1137628Y461680D01*
X1137600Y461835D01*
X1137558Y462019D01*
X1137459Y462385D01*
X1137388Y462583D01*
X1137304Y462794D01*
X1137205Y462991D01*
X1137078Y463175D01*
X1136951Y463372D01*
X1136796Y463541D01*
X1136782Y463555D01*
X1136754Y463583D01*
X1136712Y463626D01*
X1136641Y463682D01*
X1136557Y463753D01*
X1136444Y463837D01*
X1136331Y463908D01*
X1136190Y464006D01*
X1136049Y464091D01*
X1135880Y464161D01*
X1135499Y464316D01*
X1135302Y464373D01*
X1135076Y464415D01*
X1134851Y464443D01*
X1134611Y464457D01*
D02*
G37*
G36*
X1306007Y458790D02*
X1302299D01*
Y457592D01*
X1306007D01*
Y458790D01*
D02*
G37*
G36*
X1233270D02*
X1229563D01*
Y457592D01*
X1233270D01*
Y458790D01*
D02*
G37*
G36*
X1160534D02*
X1156827D01*
Y457592D01*
X1160534D01*
Y458790D01*
D02*
G37*
G36*
X1353278Y464415D02*
X1351981D01*
Y454660D01*
X1353278D01*
Y464415D01*
D02*
G37*
G36*
X1331951D02*
X1328117D01*
X1328018Y464401D01*
X1327905D01*
X1327651Y464373D01*
X1327370Y464345D01*
X1327073Y464288D01*
X1326777Y464218D01*
X1326510Y464119D01*
X1326495D01*
X1326481Y464105D01*
X1326397Y464063D01*
X1326270Y463992D01*
X1326129Y463894D01*
X1325960Y463767D01*
X1325777Y463612D01*
X1325607Y463414D01*
X1325452Y463203D01*
X1325438Y463175D01*
X1325396Y463090D01*
X1325325Y462977D01*
X1325255Y462808D01*
X1325184Y462611D01*
X1325114Y462399D01*
X1325072Y462160D01*
X1325058Y461920D01*
Y461892D01*
Y461821D01*
X1325072Y461694D01*
X1325100Y461539D01*
X1325142Y461356D01*
X1325213Y461159D01*
X1325297Y460961D01*
X1325410Y460750D01*
X1325424Y460722D01*
X1325466Y460665D01*
X1325551Y460552D01*
X1325664Y460440D01*
X1325805Y460299D01*
X1325974Y460144D01*
X1326185Y460003D01*
X1326425Y459862D01*
X1326411D01*
X1326383Y459848D01*
X1326340Y459834D01*
X1326284Y459805D01*
X1326115Y459749D01*
X1325918Y459650D01*
X1325706Y459524D01*
X1325466Y459368D01*
X1325255Y459185D01*
X1325058Y458960D01*
X1325043Y458931D01*
X1324987Y458847D01*
X1324902Y458720D01*
X1324818Y458551D01*
X1324733Y458325D01*
X1324649Y458086D01*
X1324592Y457804D01*
X1324578Y457494D01*
Y457479D01*
Y457465D01*
Y457381D01*
X1324592Y457240D01*
X1324621Y457071D01*
X1324649Y456873D01*
X1324705Y456662D01*
X1324776Y456436D01*
X1324874Y456211D01*
X1324888Y456183D01*
X1324931Y456112D01*
X1324987Y456013D01*
X1325072Y455872D01*
X1325184Y455731D01*
X1325297Y455576D01*
X1325438Y455421D01*
X1325593Y455294D01*
X1325607Y455280D01*
X1325664Y455238D01*
X1325762Y455182D01*
X1325889Y455125D01*
X1326044Y455041D01*
X1326228Y454956D01*
X1326425Y454886D01*
X1326665Y454815D01*
X1326693D01*
X1326777Y454787D01*
X1326918Y454773D01*
X1327102Y454745D01*
X1327327Y454716D01*
X1327595Y454688D01*
X1327891Y454674D01*
X1328229Y454660D01*
X1331951D01*
Y464415D01*
D02*
G37*
G36*
X1182975Y464457D02*
X1182848D01*
X1182693Y464443D01*
X1182510Y464415D01*
X1182299Y464373D01*
X1182073Y464316D01*
X1181833Y464246D01*
X1181608Y464133D01*
X1181594D01*
X1181580Y464119D01*
X1181509Y464077D01*
X1181396Y464006D01*
X1181255Y463908D01*
X1181100Y463767D01*
X1180931Y463612D01*
X1180776Y463428D01*
X1180621Y463217D01*
X1180607Y463189D01*
X1180551Y463118D01*
X1180494Y462991D01*
X1180396Y462808D01*
X1180311Y462597D01*
X1180198Y462357D01*
X1180099Y462075D01*
X1180015Y461765D01*
Y461751D01*
X1180001Y461723D01*
X1179987Y461680D01*
X1179973Y461610D01*
X1179958Y461525D01*
X1179944Y461427D01*
X1179916Y461300D01*
X1179902Y461159D01*
X1179874Y461004D01*
X1179860Y460835D01*
X1179846Y460637D01*
X1179818Y460440D01*
X1179803Y460214D01*
Y459989D01*
X1179789Y459735D01*
Y459467D01*
Y459453D01*
Y459397D01*
Y459298D01*
Y459185D01*
X1179803Y459030D01*
Y458861D01*
X1179818Y458678D01*
X1179832Y458480D01*
X1179874Y458029D01*
X1179944Y457564D01*
X1180029Y457113D01*
X1180085Y456901D01*
X1180156Y456690D01*
Y456676D01*
X1180170Y456648D01*
X1180198Y456591D01*
X1180226Y456521D01*
X1180255Y456422D01*
X1180311Y456323D01*
X1180424Y456084D01*
X1180565Y455830D01*
X1180748Y455548D01*
X1180959Y455294D01*
X1181213Y455055D01*
X1181227D01*
X1181241Y455027D01*
X1181284Y454998D01*
X1181340Y454970D01*
X1181411Y454928D01*
X1181481Y454871D01*
X1181692Y454773D01*
X1181946Y454674D01*
X1182242Y454575D01*
X1182595Y454519D01*
X1182975Y454491D01*
X1183116D01*
X1183215Y454505D01*
X1183328Y454519D01*
X1183469Y454547D01*
X1183624Y454575D01*
X1183793Y454618D01*
X1183962Y454674D01*
X1184145Y454730D01*
X1184329Y454815D01*
X1184512Y454914D01*
X1184695Y455027D01*
X1184878Y455168D01*
X1185048Y455323D01*
X1185203Y455492D01*
X1185217Y455506D01*
X1185245Y455548D01*
X1185287Y455619D01*
X1185358Y455731D01*
X1185428Y455858D01*
X1185499Y456027D01*
X1185597Y456225D01*
X1185682Y456450D01*
X1185766Y456704D01*
X1185851Y457000D01*
X1185936Y457324D01*
X1186006Y457691D01*
X1186077Y458086D01*
X1186119Y458508D01*
X1186147Y458974D01*
X1186161Y459467D01*
Y459481D01*
Y459538D01*
Y459636D01*
Y459749D01*
X1186147Y459904D01*
Y460073D01*
X1186133Y460257D01*
X1186119Y460468D01*
X1186077Y460905D01*
X1186006Y461370D01*
X1185921Y461835D01*
X1185865Y462047D01*
X1185809Y462258D01*
Y462272D01*
X1185795Y462301D01*
X1185766Y462357D01*
X1185738Y462427D01*
X1185710Y462526D01*
X1185654Y462625D01*
X1185541Y462864D01*
X1185400Y463118D01*
X1185217Y463386D01*
X1185005Y463654D01*
X1184752Y463879D01*
X1184737D01*
X1184723Y463908D01*
X1184681Y463936D01*
X1184625Y463964D01*
X1184554Y464020D01*
X1184470Y464063D01*
X1184258Y464175D01*
X1184004Y464274D01*
X1183708Y464373D01*
X1183356Y464429D01*
X1182975Y464457D01*
D02*
G37*
G36*
X1110239D02*
X1110112D01*
X1109957Y464443D01*
X1109774Y464415D01*
X1109562Y464373D01*
X1109337Y464316D01*
X1109097Y464246D01*
X1108872Y464133D01*
X1108857D01*
X1108843Y464119D01*
X1108773Y464077D01*
X1108660Y464006D01*
X1108519Y463908D01*
X1108364Y463767D01*
X1108195Y463612D01*
X1108040Y463428D01*
X1107885Y463217D01*
X1107871Y463189D01*
X1107814Y463118D01*
X1107758Y462991D01*
X1107659Y462808D01*
X1107575Y462597D01*
X1107462Y462357D01*
X1107363Y462075D01*
X1107279Y461765D01*
Y461751D01*
X1107264Y461723D01*
X1107250Y461680D01*
X1107236Y461610D01*
X1107222Y461525D01*
X1107208Y461427D01*
X1107180Y461300D01*
X1107166Y461159D01*
X1107138Y461004D01*
X1107123Y460835D01*
X1107109Y460637D01*
X1107081Y460440D01*
X1107067Y460214D01*
Y459989D01*
X1107053Y459735D01*
Y459467D01*
Y459453D01*
Y459397D01*
Y459298D01*
Y459185D01*
X1107067Y459030D01*
Y458861D01*
X1107081Y458678D01*
X1107095Y458480D01*
X1107138Y458029D01*
X1107208Y457564D01*
X1107293Y457113D01*
X1107349Y456901D01*
X1107420Y456690D01*
Y456676D01*
X1107434Y456648D01*
X1107462Y456591D01*
X1107490Y456521D01*
X1107518Y456422D01*
X1107575Y456323D01*
X1107687Y456084D01*
X1107828Y455830D01*
X1108012Y455548D01*
X1108223Y455294D01*
X1108477Y455055D01*
X1108491D01*
X1108505Y455027D01*
X1108547Y454998D01*
X1108604Y454970D01*
X1108674Y454928D01*
X1108745Y454871D01*
X1108956Y454773D01*
X1109210Y454674D01*
X1109506Y454575D01*
X1109858Y454519D01*
X1110239Y454491D01*
X1110380D01*
X1110479Y454505D01*
X1110591Y454519D01*
X1110732Y454547D01*
X1110887Y454575D01*
X1111057Y454618D01*
X1111226Y454674D01*
X1111409Y454730D01*
X1111592Y454815D01*
X1111776Y454914D01*
X1111959Y455027D01*
X1112142Y455168D01*
X1112311Y455323D01*
X1112466Y455492D01*
X1112480Y455506D01*
X1112508Y455548D01*
X1112551Y455619D01*
X1112621Y455731D01*
X1112692Y455858D01*
X1112762Y456027D01*
X1112861Y456225D01*
X1112945Y456450D01*
X1113030Y456704D01*
X1113115Y457000D01*
X1113199Y457324D01*
X1113270Y457691D01*
X1113340Y458086D01*
X1113382Y458508D01*
X1113411Y458974D01*
X1113425Y459467D01*
Y459481D01*
Y459538D01*
Y459636D01*
Y459749D01*
X1113411Y459904D01*
Y460073D01*
X1113397Y460257D01*
X1113382Y460468D01*
X1113340Y460905D01*
X1113270Y461370D01*
X1113185Y461835D01*
X1113129Y462047D01*
X1113072Y462258D01*
Y462272D01*
X1113058Y462301D01*
X1113030Y462357D01*
X1113002Y462427D01*
X1112974Y462526D01*
X1112917Y462625D01*
X1112805Y462864D01*
X1112664Y463118D01*
X1112480Y463386D01*
X1112269Y463654D01*
X1112015Y463879D01*
X1112001D01*
X1111987Y463908D01*
X1111945Y463936D01*
X1111888Y463964D01*
X1111818Y464020D01*
X1111733Y464063D01*
X1111522Y464175D01*
X1111268Y464274D01*
X1110972Y464373D01*
X1110620Y464429D01*
X1110239Y464457D01*
D02*
G37*
%LPD*%
G36*
X1134597Y463456D02*
X1134752Y463442D01*
X1134935Y463386D01*
X1135161Y463316D01*
X1135401Y463189D01*
X1135640Y463034D01*
X1135753Y462921D01*
X1135866Y462808D01*
Y462794D01*
X1135894Y462780D01*
X1135922Y462738D01*
X1135950Y462695D01*
X1136049Y462554D01*
X1136148Y462357D01*
X1136261Y462117D01*
X1136359Y461821D01*
X1136416Y461483D01*
X1136444Y461116D01*
Y461102D01*
Y461074D01*
Y461032D01*
X1136430Y460961D01*
Y460877D01*
X1136416Y460792D01*
X1136373Y460581D01*
X1136303Y460341D01*
X1136218Y460087D01*
X1136077Y459834D01*
X1135894Y459608D01*
X1135866Y459580D01*
X1135795Y459524D01*
X1135668Y459425D01*
X1135513Y459326D01*
X1135302Y459213D01*
X1135062Y459115D01*
X1134794Y459058D01*
X1134498Y459030D01*
X1134414D01*
X1134358Y459044D01*
X1134202Y459058D01*
X1134019Y459101D01*
X1133794Y459171D01*
X1133568Y459270D01*
X1133343Y459411D01*
X1133131Y459608D01*
X1133103Y459636D01*
X1133046Y459721D01*
X1132962Y459848D01*
X1132849Y460031D01*
X1132750Y460257D01*
X1132666Y460524D01*
X1132609Y460849D01*
X1132581Y461215D01*
Y461229D01*
Y461257D01*
Y461314D01*
X1132595Y461384D01*
Y461483D01*
X1132609Y461582D01*
X1132652Y461807D01*
X1132708Y462075D01*
X1132807Y462357D01*
X1132948Y462625D01*
X1133131Y462864D01*
Y462879D01*
X1133159Y462893D01*
X1133230Y462963D01*
X1133343Y463062D01*
X1133498Y463175D01*
X1133695Y463273D01*
X1133921Y463372D01*
X1134174Y463442D01*
X1134315Y463471D01*
X1134541D01*
X1134597Y463456D01*
D02*
G37*
G36*
X1330654Y460327D02*
X1328258D01*
X1328074Y460341D01*
X1327877Y460355D01*
X1327680Y460369D01*
X1327482Y460397D01*
X1327327Y460426D01*
X1327299Y460440D01*
X1327243Y460454D01*
X1327158Y460496D01*
X1327045Y460552D01*
X1326932Y460609D01*
X1326806Y460694D01*
X1326679Y460806D01*
X1326580Y460919D01*
X1326566Y460933D01*
X1326538Y460975D01*
X1326495Y461060D01*
X1326453Y461159D01*
X1326411Y461272D01*
X1326369Y461413D01*
X1326340Y461582D01*
X1326326Y461765D01*
Y461793D01*
Y461850D01*
X1326340Y461934D01*
X1326355Y462047D01*
X1326383Y462188D01*
X1326425Y462329D01*
X1326481Y462470D01*
X1326566Y462611D01*
X1326580Y462625D01*
X1326608Y462667D01*
X1326665Y462738D01*
X1326735Y462808D01*
X1326834Y462893D01*
X1326947Y462977D01*
X1327088Y463062D01*
X1327243Y463118D01*
X1327257D01*
X1327327Y463146D01*
X1327426Y463161D01*
X1327581Y463189D01*
X1327792Y463217D01*
X1328032Y463231D01*
X1328342Y463259D01*
X1330654D01*
Y460327D01*
D02*
G37*
G36*
Y455816D02*
X1327877D01*
X1327581Y455830D01*
X1327454Y455844D01*
X1327341Y455858D01*
X1327327D01*
X1327271Y455872D01*
X1327186Y455886D01*
X1327088Y455915D01*
X1326848Y455999D01*
X1326608Y456112D01*
X1326594Y456126D01*
X1326552Y456154D01*
X1326495Y456197D01*
X1326425Y456253D01*
X1326355Y456338D01*
X1326256Y456422D01*
X1326185Y456535D01*
X1326101Y456662D01*
X1326087Y456676D01*
X1326073Y456718D01*
X1326044Y456803D01*
X1326002Y456901D01*
X1325960Y457014D01*
X1325932Y457155D01*
X1325918Y457324D01*
X1325903Y457494D01*
Y457522D01*
Y457578D01*
X1325918Y457691D01*
X1325946Y457818D01*
X1325974Y457959D01*
X1326030Y458114D01*
X1326101Y458269D01*
X1326199Y458424D01*
X1326214Y458438D01*
X1326256Y458494D01*
X1326312Y458565D01*
X1326397Y458649D01*
X1326510Y458748D01*
X1326651Y458847D01*
X1326806Y458931D01*
X1326989Y459002D01*
X1327017Y459016D01*
X1327073Y459030D01*
X1327200Y459058D01*
X1327355Y459086D01*
X1327553Y459115D01*
X1327792Y459143D01*
X1328088Y459171D01*
X1330654D01*
Y455816D01*
D02*
G37*
G36*
X1183130Y463456D02*
X1183285Y463428D01*
X1183469Y463386D01*
X1183680Y463302D01*
X1183906Y463175D01*
X1184018Y463090D01*
X1184131Y463005D01*
X1184230Y462893D01*
X1184329Y462766D01*
Y462752D01*
X1184357Y462724D01*
X1184385Y462667D01*
X1184427Y462597D01*
X1184470Y462484D01*
X1184526Y462357D01*
X1184568Y462202D01*
X1184625Y462019D01*
X1184681Y461807D01*
X1184737Y461567D01*
X1184794Y461300D01*
X1184836Y461004D01*
X1184878Y460665D01*
X1184906Y460299D01*
X1184921Y459904D01*
X1184935Y459467D01*
Y459439D01*
Y459368D01*
Y459241D01*
X1184921Y459072D01*
Y458889D01*
X1184906Y458663D01*
X1184892Y458424D01*
X1184864Y458170D01*
X1184794Y457620D01*
X1184752Y457352D01*
X1184695Y457099D01*
X1184639Y456859D01*
X1184554Y456634D01*
X1184470Y456436D01*
X1184371Y456267D01*
Y456253D01*
X1184343Y456239D01*
X1184272Y456140D01*
X1184145Y456013D01*
X1183990Y455872D01*
X1183779Y455731D01*
X1183539Y455605D01*
X1183271Y455506D01*
X1183130Y455492D01*
X1182975Y455478D01*
X1182891D01*
X1182834Y455492D01*
X1182693Y455520D01*
X1182496Y455576D01*
X1182284Y455675D01*
X1182045Y455816D01*
X1181932Y455900D01*
X1181819Y456013D01*
X1181706Y456126D01*
X1181594Y456267D01*
Y456281D01*
X1181565Y456309D01*
X1181537Y456352D01*
X1181509Y456422D01*
X1181453Y456521D01*
X1181411Y456648D01*
X1181354Y456789D01*
X1181298Y456958D01*
X1181255Y457169D01*
X1181199Y457395D01*
X1181143Y457663D01*
X1181100Y457945D01*
X1181072Y458283D01*
X1181044Y458635D01*
X1181016Y459030D01*
Y459467D01*
Y459481D01*
Y459495D01*
Y459566D01*
Y459693D01*
X1181030Y459862D01*
Y460045D01*
X1181044Y460271D01*
X1181058Y460510D01*
X1181086Y460778D01*
X1181157Y461314D01*
X1181199Y461582D01*
X1181255Y461835D01*
X1181312Y462075D01*
X1181396Y462301D01*
X1181481Y462498D01*
X1181580Y462667D01*
Y462681D01*
X1181608Y462695D01*
X1181636Y462738D01*
X1181678Y462794D01*
X1181805Y462921D01*
X1181960Y463076D01*
X1182172Y463217D01*
X1182411Y463344D01*
X1182538Y463400D01*
X1182679Y463442D01*
X1182834Y463456D01*
X1182989Y463471D01*
X1183074D01*
X1183130Y463456D01*
D02*
G37*
G36*
X1110394D02*
X1110549Y463428D01*
X1110732Y463386D01*
X1110944Y463302D01*
X1111169Y463175D01*
X1111282Y463090D01*
X1111395Y463005D01*
X1111494Y462893D01*
X1111592Y462766D01*
Y462752D01*
X1111620Y462724D01*
X1111649Y462667D01*
X1111691Y462597D01*
X1111733Y462484D01*
X1111790Y462357D01*
X1111832Y462202D01*
X1111888Y462019D01*
X1111945Y461807D01*
X1112001Y461567D01*
X1112057Y461300D01*
X1112100Y461004D01*
X1112142Y460665D01*
X1112170Y460299D01*
X1112184Y459904D01*
X1112198Y459467D01*
Y459439D01*
Y459368D01*
Y459241D01*
X1112184Y459072D01*
Y458889D01*
X1112170Y458663D01*
X1112156Y458424D01*
X1112128Y458170D01*
X1112057Y457620D01*
X1112015Y457352D01*
X1111959Y457099D01*
X1111902Y456859D01*
X1111818Y456634D01*
X1111733Y456436D01*
X1111635Y456267D01*
Y456253D01*
X1111606Y456239D01*
X1111536Y456140D01*
X1111409Y456013D01*
X1111254Y455872D01*
X1111042Y455731D01*
X1110803Y455605D01*
X1110535Y455506D01*
X1110394Y455492D01*
X1110239Y455478D01*
X1110154D01*
X1110098Y455492D01*
X1109957Y455520D01*
X1109760Y455576D01*
X1109548Y455675D01*
X1109308Y455816D01*
X1109196Y455900D01*
X1109083Y456013D01*
X1108970Y456126D01*
X1108857Y456267D01*
Y456281D01*
X1108829Y456309D01*
X1108801Y456352D01*
X1108773Y456422D01*
X1108716Y456521D01*
X1108674Y456648D01*
X1108618Y456789D01*
X1108561Y456958D01*
X1108519Y457169D01*
X1108463Y457395D01*
X1108406Y457663D01*
X1108364Y457945D01*
X1108336Y458283D01*
X1108308Y458635D01*
X1108279Y459030D01*
Y459467D01*
Y459481D01*
Y459495D01*
Y459566D01*
Y459693D01*
X1108294Y459862D01*
Y460045D01*
X1108308Y460271D01*
X1108322Y460510D01*
X1108350Y460778D01*
X1108420Y461314D01*
X1108463Y461582D01*
X1108519Y461835D01*
X1108576Y462075D01*
X1108660Y462301D01*
X1108745Y462498D01*
X1108843Y462667D01*
Y462681D01*
X1108872Y462695D01*
X1108900Y462738D01*
X1108942Y462794D01*
X1109069Y462921D01*
X1109224Y463076D01*
X1109435Y463217D01*
X1109675Y463344D01*
X1109802Y463400D01*
X1109943Y463442D01*
X1110098Y463456D01*
X1110253Y463471D01*
X1110338D01*
X1110394Y463456D01*
D02*
G37*
%LPC*%
G36*
X285673Y1086019D02*
X281814D01*
X281509Y1085991D01*
X280787D01*
X280621Y1085963D01*
X280315D01*
X280204Y1085936D01*
X280176D01*
X279843Y1085880D01*
X279538Y1085797D01*
X279288Y1085686D01*
X279066Y1085575D01*
X278927Y1085463D01*
X278788Y1085352D01*
X278733Y1085297D01*
X278705Y1085269D01*
X278538Y1085047D01*
X278427Y1084797D01*
X278316Y1084575D01*
X278261Y1084353D01*
X278233Y1084131D01*
X278205Y1083964D01*
Y1083853D01*
Y1083826D01*
X278233Y1083492D01*
X278288Y1083187D01*
X278400Y1082937D01*
X278483Y1082715D01*
X278594Y1082521D01*
X278705Y1082410D01*
X278761Y1082326D01*
X278788Y1082299D01*
X279010Y1082104D01*
X279260Y1081965D01*
X279510Y1081854D01*
X279760Y1081771D01*
X280010Y1081688D01*
X280176Y1081660D01*
X280287Y1081632D01*
X280454D01*
X280621Y1081605D01*
X281481D01*
X281953Y1081577D01*
X285673D01*
Y1086019D01*
D02*
G37*
G36*
Y1078384D02*
X281648D01*
X281259Y1078356D01*
X280926Y1078329D01*
X280593D01*
X280315Y1078301D01*
X280065Y1078273D01*
X279871Y1078245D01*
X279677Y1078218D01*
X279538Y1078190D01*
X279316Y1078162D01*
X279177Y1078107D01*
X279149D01*
X278872Y1077996D01*
X278622Y1077857D01*
X278400Y1077718D01*
X278233Y1077551D01*
X278094Y1077440D01*
X278011Y1077329D01*
X277955Y1077246D01*
X277928Y1077218D01*
X277789Y1076968D01*
X277678Y1076718D01*
X277595Y1076496D01*
X277539Y1076246D01*
X277511Y1076052D01*
X277483Y1075886D01*
Y1075775D01*
Y1075747D01*
X277511Y1075386D01*
X277567Y1075053D01*
X277650Y1074775D01*
X277761Y1074553D01*
X277872Y1074359D01*
X277955Y1074220D01*
X278011Y1074137D01*
X278039Y1074109D01*
X278261Y1073914D01*
X278483Y1073748D01*
X278733Y1073609D01*
X278955Y1073498D01*
X279149Y1073443D01*
X279316Y1073387D01*
X279427Y1073359D01*
X279455D01*
X279566Y1073332D01*
X279732D01*
X280093Y1073304D01*
X280537Y1073276D01*
X280982D01*
X281398Y1073248D01*
X285673D01*
Y1078384D01*
D02*
G37*
G36*
X186613Y1085963D02*
X182171D01*
X181922Y1085936D01*
X181311D01*
X181061Y1085908D01*
X180894D01*
X180811Y1085880D01*
X180783D01*
X180450Y1085797D01*
X180145Y1085686D01*
X179895Y1085575D01*
X179701Y1085436D01*
X179534Y1085297D01*
X179395Y1085214D01*
X179340Y1085130D01*
X179312Y1085103D01*
X179145Y1084881D01*
X179006Y1084603D01*
X178923Y1084353D01*
X178840Y1084103D01*
X178812Y1083881D01*
X178784Y1083715D01*
Y1083604D01*
Y1083548D01*
X178812Y1083243D01*
X178840Y1082965D01*
X178923Y1082715D01*
X178979Y1082493D01*
X179062Y1082326D01*
X179145Y1082215D01*
X179173Y1082132D01*
X179201Y1082104D01*
X179367Y1081910D01*
X179534Y1081743D01*
X179895Y1081494D01*
X180034Y1081410D01*
X180173Y1081355D01*
X180256Y1081299D01*
X180284D01*
X180422Y1081271D01*
X180644Y1081216D01*
X180867Y1081188D01*
X181116Y1081160D01*
X181699Y1081133D01*
X182282Y1081105D01*
X182838Y1081077D01*
X186613D01*
Y1085963D01*
D02*
G37*
G36*
X628573Y1086019D02*
X624714D01*
X624409Y1085991D01*
X623687D01*
X623521Y1085963D01*
X623215D01*
X623104Y1085936D01*
X623076D01*
X622743Y1085880D01*
X622438Y1085797D01*
X622188Y1085686D01*
X621966Y1085575D01*
X621827Y1085463D01*
X621688Y1085352D01*
X621633Y1085297D01*
X621605Y1085269D01*
X621438Y1085047D01*
X621327Y1084797D01*
X621216Y1084575D01*
X621161Y1084353D01*
X621133Y1084131D01*
X621105Y1083964D01*
Y1083853D01*
Y1083826D01*
X621133Y1083492D01*
X621189Y1083187D01*
X621300Y1082937D01*
X621383Y1082715D01*
X621494Y1082521D01*
X621605Y1082410D01*
X621660Y1082326D01*
X621688Y1082299D01*
X621910Y1082104D01*
X622160Y1081965D01*
X622410Y1081854D01*
X622660Y1081771D01*
X622910Y1081688D01*
X623076Y1081660D01*
X623187Y1081632D01*
X623354D01*
X623521Y1081605D01*
X624381D01*
X624853Y1081577D01*
X628573D01*
Y1086019D01*
D02*
G37*
G36*
Y1078384D02*
X624548D01*
X624159Y1078356D01*
X623826Y1078329D01*
X623493D01*
X623215Y1078301D01*
X622965Y1078273D01*
X622771Y1078245D01*
X622577Y1078218D01*
X622438Y1078190D01*
X622216Y1078162D01*
X622077Y1078107D01*
X622049D01*
X621772Y1077996D01*
X621522Y1077857D01*
X621300Y1077718D01*
X621133Y1077551D01*
X620994Y1077440D01*
X620911Y1077329D01*
X620855Y1077246D01*
X620828Y1077218D01*
X620689Y1076968D01*
X620578Y1076718D01*
X620494Y1076496D01*
X620439Y1076246D01*
X620411Y1076052D01*
X620383Y1075886D01*
Y1075775D01*
Y1075747D01*
X620411Y1075386D01*
X620467Y1075053D01*
X620550Y1074775D01*
X620661Y1074553D01*
X620772Y1074359D01*
X620855Y1074220D01*
X620911Y1074137D01*
X620939Y1074109D01*
X621161Y1073914D01*
X621383Y1073748D01*
X621633Y1073609D01*
X621855Y1073498D01*
X622049Y1073443D01*
X622216Y1073387D01*
X622327Y1073359D01*
X622355D01*
X622466Y1073332D01*
X622632D01*
X622993Y1073304D01*
X623437Y1073276D01*
X623881D01*
X624298Y1073248D01*
X628573D01*
Y1078384D01*
D02*
G37*
G36*
X529513Y1085963D02*
X525071D01*
X524822Y1085936D01*
X524211D01*
X523961Y1085908D01*
X523794D01*
X523711Y1085880D01*
X523683D01*
X523350Y1085797D01*
X523045Y1085686D01*
X522795Y1085575D01*
X522601Y1085436D01*
X522434Y1085297D01*
X522295Y1085214D01*
X522240Y1085130D01*
X522212Y1085103D01*
X522045Y1084881D01*
X521906Y1084603D01*
X521823Y1084353D01*
X521740Y1084103D01*
X521712Y1083881D01*
X521684Y1083715D01*
Y1083604D01*
Y1083548D01*
X521712Y1083243D01*
X521740Y1082965D01*
X521823Y1082715D01*
X521879Y1082493D01*
X521962Y1082326D01*
X522045Y1082215D01*
X522073Y1082132D01*
X522101Y1082104D01*
X522267Y1081910D01*
X522434Y1081743D01*
X522795Y1081494D01*
X522934Y1081410D01*
X523073Y1081355D01*
X523156Y1081299D01*
X523184D01*
X523322Y1081271D01*
X523544Y1081216D01*
X523767Y1081188D01*
X524016Y1081160D01*
X524599Y1081133D01*
X525182Y1081105D01*
X525738Y1081077D01*
X529513D01*
Y1085963D01*
D02*
G37*
G36*
X971473Y1086019D02*
X967614D01*
X967309Y1085991D01*
X966587D01*
X966421Y1085963D01*
X966115D01*
X966004Y1085936D01*
X965976D01*
X965643Y1085880D01*
X965338Y1085797D01*
X965088Y1085686D01*
X964866Y1085575D01*
X964727Y1085463D01*
X964588Y1085352D01*
X964533Y1085297D01*
X964505Y1085269D01*
X964338Y1085047D01*
X964227Y1084797D01*
X964116Y1084575D01*
X964061Y1084353D01*
X964033Y1084131D01*
X964005Y1083964D01*
Y1083853D01*
Y1083826D01*
X964033Y1083492D01*
X964089Y1083187D01*
X964200Y1082937D01*
X964283Y1082715D01*
X964394Y1082521D01*
X964505Y1082410D01*
X964560Y1082326D01*
X964588Y1082299D01*
X964810Y1082104D01*
X965060Y1081965D01*
X965310Y1081854D01*
X965560Y1081771D01*
X965810Y1081688D01*
X965976Y1081660D01*
X966087Y1081632D01*
X966254D01*
X966421Y1081605D01*
X967281D01*
X967753Y1081577D01*
X971473D01*
Y1086019D01*
D02*
G37*
G36*
Y1078384D02*
X967448D01*
X967059Y1078356D01*
X966726Y1078329D01*
X966393D01*
X966115Y1078301D01*
X965865Y1078273D01*
X965671Y1078245D01*
X965477Y1078218D01*
X965338Y1078190D01*
X965116Y1078162D01*
X964977Y1078107D01*
X964949D01*
X964672Y1077996D01*
X964422Y1077857D01*
X964200Y1077718D01*
X964033Y1077551D01*
X963894Y1077440D01*
X963811Y1077329D01*
X963755Y1077246D01*
X963728Y1077218D01*
X963589Y1076968D01*
X963478Y1076718D01*
X963394Y1076496D01*
X963339Y1076246D01*
X963311Y1076052D01*
X963283Y1075886D01*
Y1075775D01*
Y1075747D01*
X963311Y1075386D01*
X963367Y1075053D01*
X963450Y1074775D01*
X963561Y1074553D01*
X963672Y1074359D01*
X963755Y1074220D01*
X963811Y1074137D01*
X963839Y1074109D01*
X964061Y1073914D01*
X964283Y1073748D01*
X964533Y1073609D01*
X964755Y1073498D01*
X964949Y1073443D01*
X965116Y1073387D01*
X965227Y1073359D01*
X965255D01*
X965366Y1073332D01*
X965532D01*
X965893Y1073304D01*
X966337Y1073276D01*
X966781D01*
X967198Y1073248D01*
X971473D01*
Y1078384D01*
D02*
G37*
G36*
X872413Y1085963D02*
X867971D01*
X867721Y1085936D01*
X867111D01*
X866861Y1085908D01*
X866694D01*
X866611Y1085880D01*
X866583D01*
X866250Y1085797D01*
X865945Y1085686D01*
X865695Y1085575D01*
X865500Y1085436D01*
X865334Y1085297D01*
X865195Y1085214D01*
X865140Y1085130D01*
X865112Y1085103D01*
X864945Y1084881D01*
X864806Y1084603D01*
X864723Y1084353D01*
X864640Y1084103D01*
X864612Y1083881D01*
X864584Y1083715D01*
Y1083604D01*
Y1083548D01*
X864612Y1083243D01*
X864640Y1082965D01*
X864723Y1082715D01*
X864779Y1082493D01*
X864862Y1082326D01*
X864945Y1082215D01*
X864973Y1082132D01*
X865001Y1082104D01*
X865167Y1081910D01*
X865334Y1081743D01*
X865695Y1081494D01*
X865834Y1081410D01*
X865973Y1081355D01*
X866056Y1081299D01*
X866084D01*
X866222Y1081271D01*
X866444Y1081216D01*
X866666Y1081188D01*
X866916Y1081160D01*
X867499Y1081133D01*
X868082Y1081105D01*
X868638Y1081077D01*
X872413D01*
Y1085963D01*
D02*
G37*
G36*
X1319453Y1086019D02*
X1315594D01*
X1315289Y1085991D01*
X1314567D01*
X1314401Y1085963D01*
X1314095D01*
X1313984Y1085936D01*
X1313956D01*
X1313623Y1085880D01*
X1313318Y1085797D01*
X1313068Y1085686D01*
X1312846Y1085575D01*
X1312707Y1085463D01*
X1312568Y1085352D01*
X1312513Y1085297D01*
X1312485Y1085269D01*
X1312318Y1085047D01*
X1312207Y1084797D01*
X1312096Y1084575D01*
X1312041Y1084353D01*
X1312013Y1084131D01*
X1311985Y1083964D01*
Y1083853D01*
Y1083826D01*
X1312013Y1083492D01*
X1312068Y1083187D01*
X1312180Y1082937D01*
X1312263Y1082715D01*
X1312374Y1082521D01*
X1312485Y1082410D01*
X1312540Y1082326D01*
X1312568Y1082299D01*
X1312790Y1082104D01*
X1313040Y1081965D01*
X1313290Y1081854D01*
X1313540Y1081771D01*
X1313790Y1081688D01*
X1313956Y1081660D01*
X1314067Y1081632D01*
X1314234D01*
X1314401Y1081605D01*
X1315261D01*
X1315733Y1081577D01*
X1319453D01*
Y1086019D01*
D02*
G37*
G36*
Y1078384D02*
X1315428D01*
X1315039Y1078356D01*
X1314706Y1078329D01*
X1314373D01*
X1314095Y1078301D01*
X1313845Y1078273D01*
X1313651Y1078245D01*
X1313457Y1078218D01*
X1313318Y1078190D01*
X1313096Y1078162D01*
X1312957Y1078107D01*
X1312929D01*
X1312652Y1077996D01*
X1312402Y1077857D01*
X1312180Y1077718D01*
X1312013Y1077551D01*
X1311874Y1077440D01*
X1311791Y1077329D01*
X1311735Y1077246D01*
X1311708Y1077218D01*
X1311569Y1076968D01*
X1311458Y1076718D01*
X1311375Y1076496D01*
X1311319Y1076246D01*
X1311291Y1076052D01*
X1311263Y1075886D01*
Y1075775D01*
Y1075747D01*
X1311291Y1075386D01*
X1311347Y1075053D01*
X1311430Y1074775D01*
X1311541Y1074553D01*
X1311652Y1074359D01*
X1311735Y1074220D01*
X1311791Y1074137D01*
X1311819Y1074109D01*
X1312041Y1073914D01*
X1312263Y1073748D01*
X1312513Y1073609D01*
X1312735Y1073498D01*
X1312929Y1073443D01*
X1313096Y1073387D01*
X1313207Y1073359D01*
X1313235D01*
X1313346Y1073332D01*
X1313512D01*
X1313873Y1073304D01*
X1314317Y1073276D01*
X1314762D01*
X1315178Y1073248D01*
X1319453D01*
Y1078384D01*
D02*
G37*
G36*
X1220393Y1085963D02*
X1215951D01*
X1215702Y1085936D01*
X1215091D01*
X1214841Y1085908D01*
X1214674D01*
X1214591Y1085880D01*
X1214563D01*
X1214230Y1085797D01*
X1213925Y1085686D01*
X1213675Y1085575D01*
X1213481Y1085436D01*
X1213314Y1085297D01*
X1213175Y1085214D01*
X1213120Y1085130D01*
X1213092Y1085103D01*
X1212925Y1084881D01*
X1212786Y1084603D01*
X1212703Y1084353D01*
X1212620Y1084103D01*
X1212592Y1083881D01*
X1212564Y1083715D01*
Y1083604D01*
Y1083548D01*
X1212592Y1083243D01*
X1212620Y1082965D01*
X1212703Y1082715D01*
X1212759Y1082493D01*
X1212842Y1082326D01*
X1212925Y1082215D01*
X1212953Y1082132D01*
X1212981Y1082104D01*
X1213147Y1081910D01*
X1213314Y1081743D01*
X1213675Y1081494D01*
X1213814Y1081410D01*
X1213952Y1081355D01*
X1214036Y1081299D01*
X1214063D01*
X1214202Y1081271D01*
X1214424Y1081216D01*
X1214647Y1081188D01*
X1214896Y1081160D01*
X1215479Y1081133D01*
X1216062Y1081105D01*
X1216618Y1081077D01*
X1220393D01*
Y1085963D01*
D02*
G37*
G36*
X280593Y35963D02*
X276151D01*
X275902Y35935D01*
X275291D01*
X275041Y35908D01*
X274874D01*
X274791Y35880D01*
X274763D01*
X274430Y35797D01*
X274125Y35686D01*
X273875Y35575D01*
X273680Y35436D01*
X273514Y35297D01*
X273375Y35214D01*
X273320Y35130D01*
X273292Y35103D01*
X273125Y34880D01*
X272986Y34603D01*
X272903Y34353D01*
X272820Y34103D01*
X272792Y33881D01*
X272764Y33714D01*
Y33603D01*
Y33548D01*
X272792Y33243D01*
X272820Y32965D01*
X272903Y32715D01*
X272959Y32493D01*
X273042Y32326D01*
X273125Y32215D01*
X273153Y32132D01*
X273181Y32104D01*
X273347Y31910D01*
X273514Y31743D01*
X273875Y31494D01*
X274014Y31410D01*
X274153Y31355D01*
X274236Y31299D01*
X274263D01*
X274402Y31272D01*
X274624Y31216D01*
X274846Y31188D01*
X275096Y31160D01*
X275679Y31133D01*
X276262Y31105D01*
X276818Y31077D01*
X280593D01*
Y35963D01*
D02*
G37*
G36*
X178993Y36019D02*
X175134D01*
X174829Y35991D01*
X174107D01*
X173941Y35963D01*
X173635D01*
X173524Y35935D01*
X173496D01*
X173163Y35880D01*
X172858Y35797D01*
X172608Y35686D01*
X172386Y35575D01*
X172247Y35464D01*
X172108Y35352D01*
X172053Y35297D01*
X172025Y35269D01*
X171858Y35047D01*
X171747Y34797D01*
X171636Y34575D01*
X171581Y34353D01*
X171553Y34131D01*
X171525Y33964D01*
Y33853D01*
Y33826D01*
X171553Y33492D01*
X171609Y33187D01*
X171720Y32937D01*
X171803Y32715D01*
X171914Y32521D01*
X172025Y32410D01*
X172080Y32326D01*
X172108Y32299D01*
X172330Y32104D01*
X172580Y31965D01*
X172830Y31855D01*
X173080Y31771D01*
X173330Y31688D01*
X173496Y31660D01*
X173607Y31632D01*
X173774D01*
X173941Y31605D01*
X174801D01*
X175273Y31577D01*
X178993D01*
Y36019D01*
D02*
G37*
G36*
Y28384D02*
X174968D01*
X174579Y28356D01*
X174246Y28329D01*
X173913D01*
X173635Y28301D01*
X173385Y28273D01*
X173191Y28245D01*
X172997Y28218D01*
X172858Y28190D01*
X172636Y28162D01*
X172497Y28107D01*
X172469D01*
X172192Y27996D01*
X171942Y27857D01*
X171720Y27718D01*
X171553Y27551D01*
X171414Y27440D01*
X171331Y27329D01*
X171275Y27246D01*
X171248Y27218D01*
X171109Y26968D01*
X170998Y26718D01*
X170914Y26496D01*
X170859Y26247D01*
X170831Y26052D01*
X170803Y25886D01*
Y25775D01*
Y25747D01*
X170831Y25386D01*
X170887Y25053D01*
X170970Y24775D01*
X171081Y24553D01*
X171192Y24359D01*
X171275Y24220D01*
X171331Y24137D01*
X171359Y24109D01*
X171581Y23914D01*
X171803Y23748D01*
X172053Y23609D01*
X172275Y23498D01*
X172469Y23442D01*
X172636Y23387D01*
X172747Y23359D01*
X172775D01*
X172886Y23331D01*
X173052D01*
X173413Y23304D01*
X173857Y23276D01*
X174301D01*
X174718Y23248D01*
X178993D01*
Y28384D01*
D02*
G37*
G36*
X628573Y35963D02*
X624131D01*
X623881Y35935D01*
X623271D01*
X623021Y35908D01*
X622854D01*
X622771Y35880D01*
X622743D01*
X622410Y35797D01*
X622105Y35686D01*
X621855Y35575D01*
X621660Y35436D01*
X621494Y35297D01*
X621355Y35214D01*
X621300Y35130D01*
X621272Y35103D01*
X621105Y34880D01*
X620966Y34603D01*
X620883Y34353D01*
X620800Y34103D01*
X620772Y33881D01*
X620744Y33714D01*
Y33603D01*
Y33548D01*
X620772Y33243D01*
X620800Y32965D01*
X620883Y32715D01*
X620939Y32493D01*
X621022Y32326D01*
X621105Y32215D01*
X621133Y32132D01*
X621161Y32104D01*
X621327Y31910D01*
X621494Y31743D01*
X621855Y31494D01*
X621994Y31410D01*
X622132Y31355D01*
X622216Y31299D01*
X622243D01*
X622382Y31272D01*
X622604Y31216D01*
X622826Y31188D01*
X623076Y31160D01*
X623659Y31133D01*
X624242Y31105D01*
X624798Y31077D01*
X628573D01*
Y35963D01*
D02*
G37*
G36*
X526973Y36019D02*
X523114D01*
X522809Y35991D01*
X522087D01*
X521921Y35963D01*
X521615D01*
X521504Y35935D01*
X521476D01*
X521143Y35880D01*
X520838Y35797D01*
X520588Y35686D01*
X520366Y35575D01*
X520227Y35464D01*
X520088Y35352D01*
X520033Y35297D01*
X520005Y35269D01*
X519838Y35047D01*
X519727Y34797D01*
X519616Y34575D01*
X519561Y34353D01*
X519533Y34131D01*
X519505Y33964D01*
Y33853D01*
Y33826D01*
X519533Y33492D01*
X519589Y33187D01*
X519700Y32937D01*
X519783Y32715D01*
X519894Y32521D01*
X520005Y32410D01*
X520061Y32326D01*
X520088Y32299D01*
X520310Y32104D01*
X520560Y31965D01*
X520810Y31855D01*
X521060Y31771D01*
X521310Y31688D01*
X521476Y31660D01*
X521587Y31632D01*
X521754D01*
X521921Y31605D01*
X522781D01*
X523253Y31577D01*
X526973D01*
Y36019D01*
D02*
G37*
G36*
Y28384D02*
X522948D01*
X522559Y28356D01*
X522226Y28329D01*
X521893D01*
X521615Y28301D01*
X521365Y28273D01*
X521171Y28245D01*
X520977Y28218D01*
X520838Y28190D01*
X520616Y28162D01*
X520477Y28107D01*
X520449D01*
X520172Y27996D01*
X519922Y27857D01*
X519700Y27718D01*
X519533Y27551D01*
X519394Y27440D01*
X519311Y27329D01*
X519255Y27246D01*
X519228Y27218D01*
X519089Y26968D01*
X518978Y26718D01*
X518895Y26496D01*
X518839Y26247D01*
X518811Y26052D01*
X518783Y25886D01*
Y25775D01*
Y25747D01*
X518811Y25386D01*
X518867Y25053D01*
X518950Y24775D01*
X519061Y24553D01*
X519172Y24359D01*
X519255Y24220D01*
X519311Y24137D01*
X519339Y24109D01*
X519561Y23914D01*
X519783Y23748D01*
X520033Y23609D01*
X520255Y23498D01*
X520449Y23442D01*
X520616Y23387D01*
X520727Y23359D01*
X520755D01*
X520866Y23331D01*
X521032D01*
X521393Y23304D01*
X521837Y23276D01*
X522281D01*
X522698Y23248D01*
X526973D01*
Y28384D01*
D02*
G37*
G36*
X979093Y35963D02*
X974651D01*
X974401Y35935D01*
X973791D01*
X973541Y35908D01*
X973374D01*
X973291Y35880D01*
X973263D01*
X972930Y35797D01*
X972625Y35686D01*
X972375Y35575D01*
X972180Y35436D01*
X972014Y35297D01*
X971875Y35214D01*
X971820Y35130D01*
X971792Y35103D01*
X971625Y34880D01*
X971486Y34603D01*
X971403Y34353D01*
X971320Y34103D01*
X971292Y33881D01*
X971264Y33714D01*
Y33603D01*
Y33548D01*
X971292Y33243D01*
X971320Y32965D01*
X971403Y32715D01*
X971459Y32493D01*
X971542Y32326D01*
X971625Y32215D01*
X971653Y32132D01*
X971681Y32104D01*
X971847Y31910D01*
X972014Y31743D01*
X972375Y31494D01*
X972514Y31410D01*
X972653Y31355D01*
X972736Y31299D01*
X972764D01*
X972902Y31272D01*
X973124Y31216D01*
X973346Y31188D01*
X973596Y31160D01*
X974179Y31133D01*
X974762Y31105D01*
X975318Y31077D01*
X979093D01*
Y35963D01*
D02*
G37*
G36*
X877493Y36019D02*
X873634D01*
X873329Y35991D01*
X872607D01*
X872441Y35963D01*
X872135D01*
X872024Y35935D01*
X871996D01*
X871663Y35880D01*
X871358Y35797D01*
X871108Y35686D01*
X870886Y35575D01*
X870747Y35464D01*
X870608Y35352D01*
X870553Y35297D01*
X870525Y35269D01*
X870358Y35047D01*
X870247Y34797D01*
X870136Y34575D01*
X870081Y34353D01*
X870053Y34131D01*
X870025Y33964D01*
Y33853D01*
Y33826D01*
X870053Y33492D01*
X870108Y33187D01*
X870220Y32937D01*
X870303Y32715D01*
X870414Y32521D01*
X870525Y32410D01*
X870581Y32326D01*
X870608Y32299D01*
X870830Y32104D01*
X871080Y31965D01*
X871330Y31855D01*
X871580Y31771D01*
X871830Y31688D01*
X871996Y31660D01*
X872107Y31632D01*
X872274D01*
X872441Y31605D01*
X873301D01*
X873773Y31577D01*
X877493D01*
Y36019D01*
D02*
G37*
G36*
Y28384D02*
X873468D01*
X873079Y28356D01*
X872746Y28329D01*
X872413D01*
X872135Y28301D01*
X871885Y28273D01*
X871691Y28245D01*
X871497Y28218D01*
X871358Y28190D01*
X871136Y28162D01*
X870997Y28107D01*
X870969D01*
X870692Y27996D01*
X870442Y27857D01*
X870220Y27718D01*
X870053Y27551D01*
X869914Y27440D01*
X869831Y27329D01*
X869775Y27246D01*
X869748Y27218D01*
X869609Y26968D01*
X869498Y26718D01*
X869415Y26496D01*
X869359Y26247D01*
X869331Y26052D01*
X869303Y25886D01*
Y25775D01*
Y25747D01*
X869331Y25386D01*
X869387Y25053D01*
X869470Y24775D01*
X869581Y24553D01*
X869692Y24359D01*
X869775Y24220D01*
X869831Y24137D01*
X869859Y24109D01*
X870081Y23914D01*
X870303Y23748D01*
X870553Y23609D01*
X870775Y23498D01*
X870969Y23442D01*
X871136Y23387D01*
X871247Y23359D01*
X871275D01*
X871386Y23331D01*
X871552D01*
X871913Y23304D01*
X872357Y23276D01*
X872802D01*
X873218Y23248D01*
X877493D01*
Y28384D01*
D02*
G37*
G36*
X1321993Y35963D02*
X1317551D01*
X1317301Y35935D01*
X1316691D01*
X1316441Y35908D01*
X1316274D01*
X1316191Y35880D01*
X1316163D01*
X1315830Y35797D01*
X1315525Y35686D01*
X1315275Y35575D01*
X1315081Y35436D01*
X1314914Y35297D01*
X1314775Y35214D01*
X1314720Y35130D01*
X1314692Y35103D01*
X1314525Y34880D01*
X1314386Y34603D01*
X1314303Y34353D01*
X1314220Y34103D01*
X1314192Y33881D01*
X1314164Y33714D01*
Y33603D01*
Y33548D01*
X1314192Y33243D01*
X1314220Y32965D01*
X1314303Y32715D01*
X1314359Y32493D01*
X1314442Y32326D01*
X1314525Y32215D01*
X1314553Y32132D01*
X1314581Y32104D01*
X1314747Y31910D01*
X1314914Y31743D01*
X1315275Y31494D01*
X1315414Y31410D01*
X1315553Y31355D01*
X1315636Y31299D01*
X1315663D01*
X1315802Y31272D01*
X1316024Y31216D01*
X1316246Y31188D01*
X1316496Y31160D01*
X1317079Y31133D01*
X1317662Y31105D01*
X1318218Y31077D01*
X1321993D01*
Y35963D01*
D02*
G37*
G36*
X1220393Y36019D02*
X1216534D01*
X1216229Y35991D01*
X1215507D01*
X1215341Y35963D01*
X1215035D01*
X1214924Y35935D01*
X1214896D01*
X1214563Y35880D01*
X1214258Y35797D01*
X1214008Y35686D01*
X1213786Y35575D01*
X1213647Y35464D01*
X1213508Y35352D01*
X1213453Y35297D01*
X1213425Y35269D01*
X1213258Y35047D01*
X1213147Y34797D01*
X1213036Y34575D01*
X1212981Y34353D01*
X1212953Y34131D01*
X1212925Y33964D01*
Y33853D01*
Y33826D01*
X1212953Y33492D01*
X1213008Y33187D01*
X1213120Y32937D01*
X1213203Y32715D01*
X1213314Y32521D01*
X1213425Y32410D01*
X1213481Y32326D01*
X1213508Y32299D01*
X1213730Y32104D01*
X1213980Y31965D01*
X1214230Y31855D01*
X1214480Y31771D01*
X1214730Y31688D01*
X1214896Y31660D01*
X1215007Y31632D01*
X1215174D01*
X1215341Y31605D01*
X1216201D01*
X1216673Y31577D01*
X1220393D01*
Y36019D01*
D02*
G37*
G36*
Y28384D02*
X1216368D01*
X1215979Y28356D01*
X1215646Y28329D01*
X1215313D01*
X1215035Y28301D01*
X1214785Y28273D01*
X1214591Y28245D01*
X1214397Y28218D01*
X1214258Y28190D01*
X1214036Y28162D01*
X1213897Y28107D01*
X1213869D01*
X1213592Y27996D01*
X1213342Y27857D01*
X1213120Y27718D01*
X1212953Y27551D01*
X1212814Y27440D01*
X1212731Y27329D01*
X1212675Y27246D01*
X1212648Y27218D01*
X1212509Y26968D01*
X1212398Y26718D01*
X1212315Y26496D01*
X1212259Y26247D01*
X1212231Y26052D01*
X1212203Y25886D01*
Y25775D01*
Y25747D01*
X1212231Y25386D01*
X1212287Y25053D01*
X1212370Y24775D01*
X1212481Y24553D01*
X1212592Y24359D01*
X1212675Y24220D01*
X1212731Y24137D01*
X1212759Y24109D01*
X1212981Y23914D01*
X1213203Y23748D01*
X1213453Y23609D01*
X1213675Y23498D01*
X1213869Y23442D01*
X1214036Y23387D01*
X1214147Y23359D01*
X1214175D01*
X1214286Y23331D01*
X1214452D01*
X1214813Y23304D01*
X1215257Y23276D01*
X1215702D01*
X1216118Y23248D01*
X1220393D01*
Y28384D01*
D02*
G37*
G36*
X1570913Y36019D02*
X1567054D01*
X1566749Y35991D01*
X1566027D01*
X1565861Y35963D01*
X1565555D01*
X1565444Y35935D01*
X1565416D01*
X1565083Y35880D01*
X1564778Y35797D01*
X1564528Y35686D01*
X1564306Y35575D01*
X1564167Y35464D01*
X1564028Y35352D01*
X1563973Y35297D01*
X1563945Y35269D01*
X1563778Y35047D01*
X1563667Y34797D01*
X1563556Y34575D01*
X1563501Y34353D01*
X1563473Y34131D01*
X1563445Y33964D01*
Y33853D01*
Y33826D01*
X1563473Y33492D01*
X1563528Y33187D01*
X1563640Y32937D01*
X1563723Y32715D01*
X1563834Y32521D01*
X1563945Y32410D01*
X1564001Y32326D01*
X1564028Y32299D01*
X1564250Y32104D01*
X1564500Y31965D01*
X1564750Y31855D01*
X1565000Y31771D01*
X1565250Y31688D01*
X1565416Y31660D01*
X1565527Y31632D01*
X1565694D01*
X1565861Y31605D01*
X1566721D01*
X1567193Y31577D01*
X1570913D01*
Y36019D01*
D02*
G37*
G36*
Y28384D02*
X1566888D01*
X1566499Y28356D01*
X1566166Y28329D01*
X1565833D01*
X1565555Y28301D01*
X1565305Y28273D01*
X1565111Y28245D01*
X1564917Y28218D01*
X1564778Y28190D01*
X1564556Y28162D01*
X1564417Y28107D01*
X1564389D01*
X1564112Y27996D01*
X1563862Y27857D01*
X1563640Y27718D01*
X1563473Y27551D01*
X1563334Y27440D01*
X1563251Y27329D01*
X1563195Y27246D01*
X1563168Y27218D01*
X1563029Y26968D01*
X1562918Y26718D01*
X1562834Y26496D01*
X1562779Y26247D01*
X1562751Y26052D01*
X1562723Y25886D01*
Y25775D01*
Y25747D01*
X1562751Y25386D01*
X1562807Y25053D01*
X1562890Y24775D01*
X1563001Y24553D01*
X1563112Y24359D01*
X1563195Y24220D01*
X1563251Y24137D01*
X1563279Y24109D01*
X1563501Y23914D01*
X1563723Y23748D01*
X1563973Y23609D01*
X1564195Y23498D01*
X1564389Y23442D01*
X1564556Y23387D01*
X1564667Y23359D01*
X1564695D01*
X1564806Y23331D01*
X1564972D01*
X1565333Y23304D01*
X1565777Y23276D01*
X1566221D01*
X1566638Y23248D01*
X1570913D01*
Y28384D01*
D02*
G37*
G36*
X1672513Y35963D02*
X1668071D01*
X1667822Y35935D01*
X1667211D01*
X1666961Y35908D01*
X1666794D01*
X1666711Y35880D01*
X1666683D01*
X1666350Y35797D01*
X1666045Y35686D01*
X1665795Y35575D01*
X1665600Y35436D01*
X1665434Y35297D01*
X1665295Y35214D01*
X1665240Y35130D01*
X1665212Y35103D01*
X1665045Y34880D01*
X1664906Y34603D01*
X1664823Y34353D01*
X1664740Y34103D01*
X1664712Y33881D01*
X1664684Y33714D01*
Y33603D01*
Y33548D01*
X1664712Y33243D01*
X1664740Y32965D01*
X1664823Y32715D01*
X1664879Y32493D01*
X1664962Y32326D01*
X1665045Y32215D01*
X1665073Y32132D01*
X1665101Y32104D01*
X1665267Y31910D01*
X1665434Y31743D01*
X1665795Y31494D01*
X1665934Y31410D01*
X1666073Y31355D01*
X1666156Y31299D01*
X1666183D01*
X1666322Y31272D01*
X1666544Y31216D01*
X1666767Y31188D01*
X1667016Y31160D01*
X1667599Y31133D01*
X1668182Y31105D01*
X1668738Y31077D01*
X1672513D01*
Y35963D01*
D02*
G37*
G36*
X1563293Y1085963D02*
X1558851D01*
X1558602Y1085936D01*
X1557991D01*
X1557741Y1085908D01*
X1557574D01*
X1557491Y1085880D01*
X1557463D01*
X1557130Y1085797D01*
X1556825Y1085686D01*
X1556575Y1085575D01*
X1556380Y1085436D01*
X1556214Y1085297D01*
X1556075Y1085214D01*
X1556020Y1085130D01*
X1555992Y1085103D01*
X1555825Y1084881D01*
X1555686Y1084603D01*
X1555603Y1084353D01*
X1555520Y1084103D01*
X1555492Y1083881D01*
X1555464Y1083715D01*
Y1083604D01*
Y1083548D01*
X1555492Y1083243D01*
X1555520Y1082965D01*
X1555603Y1082715D01*
X1555659Y1082493D01*
X1555742Y1082326D01*
X1555825Y1082215D01*
X1555853Y1082132D01*
X1555881Y1082104D01*
X1556047Y1081910D01*
X1556214Y1081743D01*
X1556575Y1081494D01*
X1556714Y1081410D01*
X1556853Y1081355D01*
X1556936Y1081299D01*
X1556964D01*
X1557102Y1081271D01*
X1557324Y1081216D01*
X1557547Y1081188D01*
X1557796Y1081160D01*
X1558379Y1081133D01*
X1558962Y1081105D01*
X1559518Y1081077D01*
X1563293D01*
Y1085963D01*
D02*
G37*
G36*
X1662353Y1086019D02*
X1658494D01*
X1658189Y1085991D01*
X1657467D01*
X1657301Y1085963D01*
X1656995D01*
X1656884Y1085936D01*
X1656856D01*
X1656523Y1085880D01*
X1656218Y1085797D01*
X1655968Y1085686D01*
X1655746Y1085575D01*
X1655607Y1085463D01*
X1655468Y1085352D01*
X1655413Y1085297D01*
X1655385Y1085269D01*
X1655218Y1085047D01*
X1655107Y1084797D01*
X1654996Y1084575D01*
X1654941Y1084353D01*
X1654913Y1084131D01*
X1654885Y1083964D01*
Y1083853D01*
Y1083826D01*
X1654913Y1083492D01*
X1654969Y1083187D01*
X1655080Y1082937D01*
X1655163Y1082715D01*
X1655274Y1082521D01*
X1655385Y1082410D01*
X1655441Y1082326D01*
X1655468Y1082299D01*
X1655690Y1082104D01*
X1655940Y1081965D01*
X1656190Y1081854D01*
X1656440Y1081771D01*
X1656690Y1081688D01*
X1656856Y1081660D01*
X1656967Y1081632D01*
X1657134D01*
X1657301Y1081605D01*
X1658161D01*
X1658633Y1081577D01*
X1662353D01*
Y1086019D01*
D02*
G37*
G36*
Y1078384D02*
X1658328D01*
X1657939Y1078356D01*
X1657606Y1078329D01*
X1657273D01*
X1656995Y1078301D01*
X1656745Y1078273D01*
X1656551Y1078245D01*
X1656357Y1078218D01*
X1656218Y1078190D01*
X1655996Y1078162D01*
X1655857Y1078107D01*
X1655829D01*
X1655552Y1077996D01*
X1655302Y1077857D01*
X1655080Y1077718D01*
X1654913Y1077551D01*
X1654774Y1077440D01*
X1654691Y1077329D01*
X1654635Y1077246D01*
X1654608Y1077218D01*
X1654469Y1076968D01*
X1654358Y1076718D01*
X1654274Y1076496D01*
X1654219Y1076246D01*
X1654191Y1076052D01*
X1654163Y1075886D01*
Y1075775D01*
Y1075747D01*
X1654191Y1075386D01*
X1654247Y1075053D01*
X1654330Y1074775D01*
X1654441Y1074553D01*
X1654552Y1074359D01*
X1654635Y1074220D01*
X1654691Y1074137D01*
X1654719Y1074109D01*
X1654941Y1073914D01*
X1655163Y1073748D01*
X1655413Y1073609D01*
X1655635Y1073498D01*
X1655829Y1073443D01*
X1655996Y1073387D01*
X1656107Y1073359D01*
X1656135D01*
X1656246Y1073332D01*
X1656412D01*
X1656773Y1073304D01*
X1657217Y1073276D01*
X1657661D01*
X1658078Y1073248D01*
X1662353D01*
Y1078384D01*
D02*
G37*
%LPD*%
M02*
